<svg width="227" height="227" viewBox="0 0 227 227" fill="none" xmlns="http://www.w3.org/2000/svg">
<g filter="url(#filter0_d)">
<rect x="6" y="6" width="205" height="205" rx="17" fill="white"/>
</g>
<g clip-path="url(#clip0)">
<path d="M39.1068 172.13L38.5743 173.905C34.6695 175.147 32.3622 176.656 32.2734 178.342H43.544L44.4314 172.396C42.1241 173.017 40.3492 172.574 39.1068 172.13Z" fill="#FAC725"/>
<path d="M40.5254 167.692L39.1055 172.13C40.2591 172.573 42.1228 173.017 44.4301 172.396L45.0514 168.58L40.5254 167.692Z" fill="#FAC725"/>
<path d="M59.8727 171.952L60.2276 167.426L54.903 167.693L54.6367 171.863C56.8553 172.573 58.719 172.307 59.8727 171.952Z" fill="#FAC725"/>
<path d="M66.2646 178.43C66.0871 176.744 64.1347 174.348 59.6975 173.816L59.875 171.952C58.7213 172.307 56.8577 172.573 54.639 171.863L54.1953 178.43H66.2646Z" fill="#FAC725"/>
<path d="M45.4076 109.387L44.2539 119.149L52.6846 123.231C52.7734 125.627 52.7734 128.024 52.7734 130.508C52.7734 133.348 52.7734 136.188 52.6846 138.939C52.3297 144.353 52.1522 150.121 52.1522 156.244C52.2409 161.658 52.4184 166.894 52.7734 171.686C52.7734 171.686 55.702 174.881 61.4704 172.485C61.8253 170.177 62.0916 167.781 62.2691 165.296C62.624 161.125 62.8903 157.132 62.979 153.405C63.1565 149.234 63.4227 144.796 63.6002 140.537C64.044 132.195 64.3989 123.941 64.7539 115.599L65.1089 111.961L45.4076 109.387Z" fill="#282C33"/>
<path d="M55.6123 81.5213L49.2227 81.6101V71.8481H55.4348V72.4694V75.5754V80.4564L55.6123 81.5213Z" fill="#F9B384"/>
<path d="M55.433 76.0196C54.2793 77.2621 51.262 75.8421 50.0195 74.511L55.433 72.9136V76.0196Z" fill="#E28B6D"/>
<path d="M56.9432 69.6298C56.9432 70.3398 56.8545 71.1385 56.7657 71.8485C56.4108 73.8008 55.6121 75.487 53.7484 75.5757C49.2224 75.6645 47.98 73.0909 47.0926 71.0498C46.2051 68.9199 47.625 63.8614 47.625 63.8614L53.4822 63.2402L56.677 65.9026C56.5882 65.8138 56.9432 67.5887 56.9432 69.6298Z" fill="#FFAE73"/>
<path d="M47.2689 69.7184C47.4464 69.6297 47.7127 69.4522 47.9789 69.2747C48.8663 68.5648 48.9551 67.9435 49.665 67.0561C50.02 66.7011 50.4637 66.0799 51.2624 65.7249C52.2386 65.2812 53.3036 65.3699 53.7473 65.5474C55.0785 66.3461 56.6759 66.5236 57.9183 65.8137C58.1845 65.6362 59.2495 65.015 59.5157 63.8613C59.9594 62.2639 58.8945 60.489 57.5633 59.779C56.5871 59.3353 56.2321 59.779 53.3036 59.8678C50.9962 59.8678 50.9075 59.6015 49.665 59.8678C49.1326 59.9565 47.5352 60.3115 46.1153 61.6427C45.494 62.2639 44.3404 63.2401 44.0741 65.015C43.8079 66.7899 44.6953 68.831 46.2927 69.6297C46.559 69.7184 47.0027 69.7184 47.2689 69.7184Z" fill="#141B26"/>
<path d="M65.4647 105.572L65.021 116.398L55.1703 119.416C54.7266 121.989 54.2829 124.563 53.8391 127.225C53.3067 130.331 52.8629 133.437 52.508 136.366C51.9755 142.223 51.1768 148.524 50.0231 155.18C49.0469 161.037 47.8045 166.628 46.5621 171.864C46.5621 171.864 42.8348 174.792 37.0664 171.243C37.1552 168.669 37.2439 166.095 37.4214 163.344C37.6876 158.73 38.2201 154.381 38.7526 150.299C39.285 145.684 39.8175 140.892 40.35 136.277C41.3261 127.225 42.3911 118.173 43.456 109.033L43.7223 105.039L65.4647 105.572Z" fill="#141B26"/>
<path d="M42.2986 122.965L42.1211 124.119C42.1211 124.03 42.1211 123.942 42.1211 123.853C42.2098 123.409 42.2098 123.143 42.2986 122.965Z" fill="#1F3C88"/>
<path opacity="0.3" d="M52.239 108.145C50.1091 108.234 47.8905 108.145 45.6719 107.613L48.423 81.6992L49.3991 80.2793C51.9727 86.3139 54.4576 99.4481 52.239 108.145Z" fill="#1F3C88"/>
<path opacity="0.3" d="M62.6223 105.838C60.7586 106.548 58.6287 107.258 56.4101 107.701C55.1677 100.602 54.9015 88.9762 55.8777 83.7402L62.6223 105.838Z" fill="#1F3C88"/>
<path opacity="0.6" d="M80.1042 83.4737C80.1042 83.5625 80.1042 83.5625 80.1042 83.5625C79.483 86.1361 79.3943 87.4673 77.1756 87.1123L74.957 84.5387L75.2233 83.03L75.312 82.8525L75.667 81.8763V81.7876L80.1042 83.4737Z" fill="#E28B6D"/>
<path d="M47.8929 69.1859C47.8041 69.0085 46.9167 68.7422 46.7392 68.6535C46.4729 68.5647 46.118 68.5647 45.763 68.6535C44.6981 69.1859 44.7868 70.6946 45.408 71.5821C45.763 72.0258 46.2067 72.3808 46.7392 72.5582C46.9167 72.647 48.8691 72.647 48.7803 72.292C48.7803 72.3808 47.8929 69.1859 47.8929 69.1859Z" fill="#F9B384"/>
<path d="M47.089 70.4286C46.8227 70.2511 46.6453 70.0736 46.379 69.9849C46.379 69.8961 46.2015 69.8961 46.1128 69.8961C46.024 69.8961 45.9353 69.9849 45.8466 70.0736L45.7578 69.8961C45.8466 69.7186 45.9353 69.5412 46.1128 69.5412C46.2903 69.4524 46.4678 69.5412 46.6453 69.6299C46.9115 69.8074 47.1777 70.0736 47.2665 70.3399L47.089 70.4286Z" fill="#E28B6D"/>
<path d="M76.8231 80.3679C75.5807 80.1017 74.3383 78.0606 73.9833 77.1731C73.8945 76.9956 73.8945 76.7294 73.8945 76.5519C74.072 75.6644 74.3383 74.6883 74.5157 73.8008C74.6932 74.1558 74.782 74.422 74.9595 74.5995C75.2257 75.0432 75.4032 75.132 75.4919 75.487C75.5807 75.7532 75.4919 76.0194 75.4919 76.1969C75.6694 76.5519 75.8469 76.9069 76.0244 77.2618L77.3556 76.2857L76.6456 74.2445C76.6456 74.2445 76.2906 74.5995 75.9357 74.5108C75.7582 74.422 75.6694 74.3333 75.5807 74.1558C75.4032 73.9783 75.4032 73.8896 75.4032 73.7121C75.4032 73.5346 75.6694 73.4458 75.7582 73.3571C76.2019 73.1796 77.0893 73.0021 77.7105 73.4458C78.1543 73.8008 78.4205 74.5995 78.4205 74.5995C78.4205 74.5995 78.8642 73.0021 78.598 69.3636C78.598 69.1861 78.953 69.1861 79.1305 69.3636C79.4854 69.7186 80.0179 70.7835 80.0179 73.9783C80.0179 73.9783 80.1067 70.251 80.7279 69.8073C81.2603 69.4523 81.5266 71.316 81.1716 74.422C81.1716 74.422 81.8815 71.7597 82.3253 71.7597C83.124 71.7597 82.3253 78.948 80.1954 81.0779L76.8231 80.3679Z" fill="#F9B384"/>
<path d="M80.7271 79.3027C80.7271 79.6577 80.6384 80.0127 80.6384 80.3677C80.4609 81.5214 80.2834 82.5863 80.1059 83.5625C80.1059 83.6512 80.1059 83.6512 80.1059 83.6512C79.4847 86.2248 79.396 87.556 77.1774 87.201L74.9587 84.6274L74.7812 84.4499L75.225 83.1188L75.3137 82.9413L75.6687 81.9651V81.8763L76.2012 80.1902L76.4674 79.4802L80.7271 79.3027Z" fill="#F9B384"/>
<path d="M68.3029 64.7488C68.3029 64.7488 67.6817 63.5063 67.7704 63.5063C67.9479 63.5063 68.8353 64.3938 68.8353 64.3938V65.015L68.3029 64.7488Z" fill="#6F3428"/>
<path d="M85.0736 84.4502L85.3398 84.8052C85.7835 85.5151 85.6948 86.4026 84.9848 86.935L84.8961 87.0238C84.1861 87.4675 83.2987 87.3788 82.7662 86.6688L82.5 86.3138L85.0736 84.4502Z" fill="#EE6F57"/>
<path d="M71.7302 66.1932L69.2227 68.0264L82.5788 86.2955L85.0863 84.4623L71.7302 66.1932Z" fill="#FBC343"/>
<path d="M85.0768 84.4502L82.5919 86.3138L82.0594 85.5151L81.7045 84.9826L80.5508 83.474L83.0356 81.6104L84.1893 83.2078L84.5443 83.7402L85.0768 84.4502Z" fill="#102048"/>
<path d="M84.1244 83.1732L81.6172 85.0063L81.9838 85.5078L84.491 83.6746L84.1244 83.1732Z" fill="#FBC343"/>
<path d="M69.1899 68.0322L68.125 64.5712C68.125 64.5712 68.48 64.5712 68.6575 64.1274L71.6748 66.0798L69.1899 68.0322Z" fill="#EE6F57"/>
<path d="M75.4015 81.8766L71.053 87.8225C71.053 87.8225 68.3907 83.0303 65.8171 80.1017C63.2435 77.1732 55.434 77.4394 55.434 77.4394C56.2327 81.5217 50.0206 79.658 50.0206 79.658L49.9318 79.7468C49.9318 79.7468 49.9318 79.7468 49.8431 79.7468C49.4881 79.4805 49.3994 79.303 49.3994 79.303C46.5595 78.5931 44.2522 78.6818 42.4773 79.2143C42.3885 79.2143 42.2998 79.2143 42.2111 79.303C42.2111 79.303 40.4362 79.8355 38.75 81.1667C33.6916 85.2489 31.7392 93.7684 31.7392 93.7684C30.9405 97.2295 30.5855 98.9156 31.0292 100.957C32.4492 106.636 39.1937 109.387 42.7435 110.452C42.7435 111.606 42.6548 112.76 42.4773 113.913C42.3885 114.712 42.2998 115.422 42.2111 115.866C44.3409 116.753 48.6894 118.084 54.1028 117.552C59.96 117.019 64.131 114.623 66.0833 113.292C65.5509 108.855 65.1072 104.063 64.7522 99.0931C64.6634 97.5844 64.5747 96.0758 64.5747 94.5671L66.2608 95.1883C70.2543 99.7143 72.0292 97.4069 73.9816 95.2771C75.8452 93.1472 79.6613 85.7814 79.6613 85.7814C78.1526 81.7879 75.4015 81.8766 75.4015 81.8766ZM36.6201 99.1818C36.9751 98.4719 37.1526 97.7619 37.4188 96.9632C38.0401 95.4546 39.1937 93.5909 41.1461 91.9048C41.5011 94.3896 41.7673 96.697 42.0336 98.8269C42.3885 102.11 42.6548 104.595 42.8323 106.814C40.0812 104.063 36.2652 99.9805 36.6201 99.1818Z" fill="#FAC725"/>
<path d="M41.0586 92.0823C41.0586 92.0823 41.2361 90.7511 42.3898 89.4199L41.0586 92.0823Z" fill="#1E3865"/>
<path d="M176.926 38.8354H98.298C93.2396 38.8354 89.2461 42.9177 89.2461 47.8874V164.587C89.2461 169.556 93.3283 173.638 98.298 173.638H177.014C182.073 173.638 186.066 169.556 186.066 164.587V47.8874C186.066 42.9177 181.984 38.8354 176.926 38.8354ZM132.465 42.474C133.352 41.4978 134.595 41.0541 135.926 41.0541C137.257 41.0541 138.499 41.5865 139.387 42.474L139.742 42.829L140.097 42.474C140.984 41.4978 142.315 41.0541 143.558 41.0541C144.889 41.0541 146.131 41.5865 147.019 42.474C147.906 43.4502 148.439 44.6926 148.439 45.935C148.439 47.2662 147.906 48.5086 147.019 49.3961L139.653 56.7619L132.287 49.3961C131.311 48.4199 130.867 47.2662 130.867 45.935C131.045 44.6038 131.577 43.3614 132.465 42.474Z" fill="#F7597F"/>
<path d="M147.64 45.935C147.64 47 147.196 47.9762 146.486 48.6861L144.622 50.5498L139.031 44.9588L135.038 48.9524L139.919 53.8333L141.871 51.8809L139.475 49.4848L140.185 48.7749L143.291 51.8809L139.83 55.342L133.441 49.0411L138.233 44.2489L137.878 43.8939C137.345 43.3614 136.635 43.0952 135.925 43.0952C135.127 43.0952 134.417 43.3614 133.884 43.8939C133.352 44.4264 133.086 45.1363 133.086 45.935C133.086 46.645 133.352 47.3549 133.884 47.8874L133.174 48.5974C132.464 47.8874 132.109 46.9112 132.109 45.935C132.109 44.8701 132.553 43.8939 133.263 43.184C133.973 42.474 134.949 42.0303 136.014 42.0303C137.079 42.0303 138.055 42.474 138.765 43.184L144.622 49.0411L145.687 47.8874C146.22 47.3549 146.486 46.645 146.486 45.8463C146.486 45.0476 146.22 44.3376 145.687 43.8052C145.155 43.2727 144.445 43.0065 143.646 43.0065C142.847 43.0065 142.138 43.2727 141.605 43.8052L140.895 44.6926L140.185 43.9827L140.984 43.184C141.694 42.474 142.67 42.0303 143.735 42.0303C144.8 42.0303 145.776 42.474 146.486 43.184C147.196 43.8939 147.64 44.8701 147.64 45.935Z" fill="#EE6F57"/>
<path d="M176.306 76.1966H126.076C124.568 76.1966 123.414 74.9542 123.414 73.5343V70.6057C123.414 69.097 124.656 67.9434 126.076 67.9434H176.306C177.815 67.9434 178.968 69.1858 178.968 70.6057V73.4455C178.968 74.9542 177.815 76.1966 176.306 76.1966Z" fill="#FFD4DE"/>
<path d="M161.838 81.3442H124.654C124.21 81.3442 123.855 80.9893 123.855 80.5455V79.6581C123.855 79.2144 124.21 78.8594 124.654 78.8594H161.838C162.282 78.8594 162.637 79.2144 162.637 79.6581V80.5455C162.637 80.9893 162.282 81.3442 161.838 81.3442Z" fill="#FFD4DE"/>
<path d="M176.038 93.6794H99.1854C98.7417 93.6794 98.3867 93.3245 98.3867 92.8807C98.3867 92.437 98.7417 92.082 99.1854 92.082H175.949C176.393 92.082 176.748 92.437 176.748 92.8807C176.837 93.3245 176.482 93.6794 176.038 93.6794Z" fill="#FFD4DE"/>
<path d="M176.038 97.2292H99.1854C98.7417 97.2292 98.3867 96.8743 98.3867 96.4305C98.3867 95.9868 98.7417 95.6318 99.1854 95.6318H175.949C176.393 95.6318 176.748 95.9868 176.748 96.4305C176.837 96.8743 176.482 97.2292 176.038 97.2292Z" fill="#FFD4DE"/>
<path d="M110.601 68.1611C110.658 66.4467 109.314 65.0106 107.6 64.9536C105.886 64.8965 104.45 66.24 104.392 67.9544C104.335 69.6688 105.679 71.1049 107.393 71.162C109.108 71.219 110.544 69.8755 110.601 68.1611Z" fill="#FFD4DE"/>
<path d="M98.832 82.1428C98.832 77.3506 102.737 73.4458 107.529 73.4458C112.321 73.4458 116.226 77.3506 116.226 82.1428H98.832Z" fill="#FFD4DE"/>
<path d="M156.159 109.121C154.384 105.838 148.882 105.217 146.574 107.169C144.888 108.5 145.598 110.63 143.646 111.606C141.96 112.494 140.895 111.163 138.854 112.139C137.256 112.937 137.167 114.091 135.393 114.535C134.683 114.712 134.239 114.624 133.263 115.067C132.553 115.334 131.843 115.6 131.399 116.31C131.31 116.398 130.689 117.463 131.133 118.44C131.31 118.883 131.665 119.15 131.932 119.327C131.754 119.593 131.222 119.86 130.867 119.948C130.6 120.037 130.245 120.037 130.068 120.126C128.914 120.303 127.139 121.723 126.962 121.812C126.518 122.167 126.163 122.433 126.163 122.433C126.074 122.344 126.962 121.191 127.761 120.214C127.672 120.214 127.672 120.126 127.583 120.126C127.672 120.037 127.849 119.948 127.938 119.682C128.116 119.327 128.293 119.327 128.293 119.327L128.648 119.238C128.648 119.238 128.648 118.972 128.115 119.061C127.583 119.15 127.406 119.505 127.406 119.505L127.228 119.948C127.139 119.948 127.139 119.86 127.051 119.86C126.873 119.948 123.945 120.747 123.412 123.321C123.323 123.676 123.057 125.007 123.767 125.805C124.743 126.959 127.228 126.782 129.003 125.628C129.269 126.87 129.269 127.847 129.269 128.29C129.269 129.266 129.092 129.976 128.737 131.485C128.116 134.147 127.672 134.769 128.115 135.39C128.293 135.656 128.559 135.834 128.825 136.011C128.737 136.81 128.914 137.875 129.003 139.206C129.269 141.247 129.535 144.264 129.89 148.169C130.157 150.831 130.423 153.494 130.689 156.245C130.778 156.245 130.955 156.245 131.044 156.245C131.044 156.334 131.044 156.422 130.955 156.511C130.867 156.777 130.778 156.955 130.689 157.132C130.334 157.31 129.89 157.665 129.624 157.842C129.269 158.108 128.737 158.641 129.358 158.641C130.068 158.641 131.399 158.02 131.577 157.842C131.843 157.665 131.665 157.221 131.665 157.221C131.665 157.221 131.577 157.132 131.399 156.955C131.399 156.866 131.488 156.777 131.488 156.6C131.488 156.511 131.488 156.334 131.577 156.245C131.665 156.245 131.843 156.245 131.932 156.245C132.109 155.979 132.198 155.624 132.375 155.269C132.464 155.091 132.553 154.914 132.553 154.647C132.908 153.582 133.174 152.34 133.174 150.92C133.174 149.056 132.73 148.79 132.641 146.66C132.641 146.483 132.641 146.394 132.641 146.217C132.641 145.95 132.641 145.684 132.641 145.418C132.641 145.329 132.641 145.152 132.73 144.974C132.819 143.998 133.085 142.578 133.618 139.738C133.706 138.94 133.884 138.318 133.973 137.786C133.973 137.52 134.061 137.342 134.061 137.076C138.942 143.732 139.564 145.329 141.25 145.773C144.445 146.483 148.172 142.134 150.124 139.383C150.035 139.295 149.947 139.206 149.858 139.028L149.947 138.94C150.035 138.851 150.124 138.762 150.213 138.673C150.302 138.673 150.39 138.762 150.39 138.673C150.657 138.585 151.544 137.963 151.899 137.697C152.254 137.431 152.786 136.898 152.165 136.898C151.455 136.898 150.124 137.52 149.947 137.697C149.769 137.875 149.769 138.052 149.858 138.23C149.769 138.23 149.769 138.318 149.68 138.318C149.592 138.318 149.592 138.407 149.503 138.407C149.414 138.23 149.237 138.052 149.148 137.963C146.752 138.762 145.154 139.827 144.178 140.626C143.38 141.247 143.025 141.691 142.492 141.602C141.427 141.513 140.983 139.827 139.919 137.342C141.782 137.52 143.735 137.076 144.799 135.834C144.888 135.745 144.977 135.567 145.066 135.39C145.154 135.301 145.154 135.212 145.154 135.212C145.154 135.212 145.154 135.212 145.154 135.124C145.154 135.035 145.243 135.035 145.243 134.946V134.857C145.243 134.769 145.332 134.769 145.332 134.68V134.591V134.502V134.414V134.325V134.236C145.332 134.236 145.332 134.236 145.332 134.147C145.332 134.059 145.332 134.059 145.243 134.059C145.154 133.97 145.066 133.97 144.977 133.97C144.888 133.97 144.799 133.97 144.711 134.059C144.445 134.147 144.178 134.236 143.823 134.325C143.646 134.414 143.38 134.414 143.202 134.414C143.025 134.414 142.758 134.414 142.492 134.325C142.315 134.236 142.226 134.236 142.137 134.147C142.048 134.059 142.048 134.059 141.96 133.97L141.871 133.881C141.605 133.615 141.427 133.26 140.983 132.905C140.895 132.905 140.895 132.816 140.806 132.816C140.007 132.284 139.386 132.372 138.854 132.372C138.587 132.372 138.41 132.284 138.144 132.195C138.055 132.195 137.966 132.106 137.966 132.018C137.966 132.018 137.966 132.018 137.877 131.929L137.789 131.84C137.789 131.84 137.789 131.751 137.7 131.751L137.611 131.663C137.611 131.663 137.611 131.574 137.522 131.574C137.522 131.485 137.434 131.485 137.434 131.396C137.434 131.396 137.434 131.308 137.345 131.308C137.345 131.219 137.345 131.219 137.256 131.13V131.041C137.256 130.953 137.256 130.953 137.256 130.864C137.256 130.775 137.256 130.775 137.256 130.686C137.256 130.598 137.256 130.598 137.256 130.509C137.256 130.42 137.256 130.42 137.256 130.331C137.256 130.243 137.256 130.154 137.256 130.065C137.256 129.976 137.256 129.976 137.256 129.888C137.256 129.799 137.256 129.71 137.256 129.533V129.444C137.167 128.645 137.256 127.669 137.167 126.515C137.345 126.604 137.522 126.604 137.789 126.693H137.877C138.055 126.782 138.232 126.782 138.41 126.782C138.587 126.782 138.854 126.87 139.031 126.87H139.12C139.297 126.87 139.564 126.959 139.741 126.959C139.919 126.959 140.185 126.959 140.362 126.959C142.847 126.959 145.421 126.16 147.196 124.385L147.284 124.297C150.302 124.74 153.763 123.498 154.473 121.634C154.561 121.457 155.094 120.126 154.473 119.061C154.029 118.173 153.319 118.085 153.319 117.552C153.23 116.665 154.473 116.221 155.271 115.245C156.957 113.914 157.135 110.985 156.159 109.121ZM142.048 122.522C139.83 122.078 139.031 119.86 136.901 119.682C136.369 119.682 135.836 119.682 135.215 119.682C135.57 119.593 135.925 119.416 136.191 119.327C138.41 118.617 140.274 120.747 142.758 122.522C142.492 122.611 142.315 122.611 142.048 122.522Z" fill="#FFD4DE"/>
<path d="M147.64 45.935C147.64 47 147.196 47.9762 146.486 48.6861L144.622 50.5498L139.031 44.9588L135.038 48.9524L139.919 53.8333L141.871 51.8809L139.475 49.4848L140.185 48.7749L143.291 51.8809L139.83 55.342L133.441 49.0411L138.233 44.2489L137.878 43.8939C137.345 43.3614 136.635 43.0952 135.925 43.0952C135.127 43.0952 134.417 43.3614 133.884 43.8939C133.352 44.4264 133.086 45.1363 133.086 45.935C133.086 46.645 133.352 47.3549 133.884 47.8874L133.174 48.5974C132.464 47.8874 132.109 46.9112 132.109 45.935C132.109 44.8701 132.553 43.8939 133.263 43.184C133.973 42.474 134.949 42.0303 136.014 42.0303C137.079 42.0303 138.055 42.474 138.765 43.184L144.622 49.0411L145.687 47.8874C146.22 47.3549 146.486 46.645 146.486 45.8463C146.486 45.0476 146.22 44.3376 145.687 43.8052C145.155 43.2727 144.445 43.0065 143.646 43.0065C142.847 43.0065 142.138 43.2727 141.605 43.8052L140.895 44.6926L140.185 43.9827L140.984 43.184C141.694 42.474 142.67 42.0303 143.735 42.0303C144.8 42.0303 145.776 42.474 146.486 43.184C147.196 43.8939 147.64 44.8701 147.64 45.935Z" fill="#F7597F"/>
<path d="M147.995 41.7641C146.841 40.6105 145.332 39.9893 143.735 39.9893C142.315 39.9893 140.984 40.5217 139.83 41.4092C138.765 40.5217 137.345 39.9893 135.925 39.9893C134.328 39.9893 132.819 40.6105 131.666 41.7641C130.512 42.9178 129.891 44.4265 129.891 46.0239C129.891 47.6213 130.512 49.1299 131.666 50.2836L139.741 58.3594L147.817 50.2836C148.971 49.1299 149.592 47.6213 149.592 46.0239C149.769 44.3377 149.059 42.8291 147.995 41.7641ZM147.196 49.4849L139.83 56.8507L132.464 49.4849C131.488 48.5087 131.044 47.3551 131.044 46.0239C131.044 44.6927 131.577 43.4503 132.464 42.5629C133.352 41.5867 134.594 41.1429 135.925 41.1429C137.256 41.1429 138.499 41.6754 139.386 42.5629L139.741 42.9178L140.096 42.5629C140.984 41.5867 142.315 41.1429 143.557 41.1429C144.888 41.1429 146.131 41.6754 147.018 42.5629C147.906 43.539 148.438 44.7815 148.438 46.0239C148.704 47.2663 148.172 48.5087 147.196 49.4849Z" fill="#F7597F"/>
<path d="M186.067 147.813V164.586C186.067 169.556 181.985 173.638 177.015 173.638H111.344C111.255 173.727 169.117 170.976 186.067 147.813Z" fill="#FF668B"/>
</g>
<defs>
<filter id="filter0_d" x="0" y="0" width="227" height="227" filterUnits="userSpaceOnUse" color-interpolation-filters="sRGB">
<feFlood flood-opacity="0" result="BackgroundImageFix"/>
<feColorMatrix in="SourceAlpha" type="matrix" values="0 0 0 0 0 0 0 0 0 0 0 0 0 0 0 0 0 0 127 0" result="hardAlpha"/>
<feOffset dx="5" dy="5"/>
<feGaussianBlur stdDeviation="5.5"/>
<feComposite in2="hardAlpha" operator="out"/>
<feColorMatrix type="matrix" values="0 0 0 0 0 0 0 0 0 0 0 0 0 0 0 0 0 0 0.1 0"/>
<feBlend mode="normal" in2="BackgroundImageFix" result="effect1_dropShadow"/>
<feBlend mode="normal" in="SourceGraphic" in2="effect1_dropShadow" result="shape"/>
</filter>
<clipPath id="clip0">
<rect width="155.214" height="139.595" fill="white" transform="translate(30.8516 38.8354)"/>
</clipPath>
</defs>
</svg>
