<svg width="227" height="227" viewBox="0 0 227 227" fill="none" xmlns="http://www.w3.org/2000/svg">
<g filter="url(#filter0_d)">
<rect x="6" y="6" width="205" height="205" rx="17" fill="white"/>
</g>
<mask id="mask0" style="mask-type:alpha" maskUnits="userSpaceOnUse" x="6" y="6" width="205" height="205">
<rect x="6" y="6" width="205" height="205" rx="17" fill="white"/>
</mask>
<g mask="url(#mask0)">
<g filter="url(#filter1_d)">
<rect x="6" y="6" width="205" height="205" rx="17" fill="white"/>
</g>
<path opacity="0.4" d="M180.434 2.45068L99.0615 83.8291C99.0615 83.8291 76.9794 171.629 194.125 176.39L238.51 3.55787" fill="#F9D9E2"/>
<path d="M131.926 71.5818C131.926 71.5818 131.837 69.5407 134.588 69.1857C137.251 68.8307 138.049 69.4519 138.493 70.0731C138.937 70.7831 139.824 73.5342 139.736 74.6879C139.647 75.8415 136.63 77.1727 136.63 77.7939C136.541 78.4151 131.926 71.5818 131.926 71.5818Z" fill="#141B26"/>
<path d="M137.073 70.1623C137.073 70.1623 136.895 69.0974 138.404 68.8311C139.913 68.5649 139.913 71.7597 140.09 72.4697C140.268 73.2684 139.824 73.7121 139.291 73.7121C138.759 73.8008 137.073 70.1623 137.073 70.1623Z" fill="#141B26"/>
<path d="M122.255 83.7401C121.723 83.3851 121.279 82.9414 120.747 82.5864C119.327 83.1189 114.712 85.16 112.582 90.1297C111.961 91.6384 110.807 94.212 111.961 95.8094C113.913 98.5604 121.723 97.5843 126.249 93.3245C129.621 90.1297 131.13 84.805 129.799 83.6514C128.734 82.6752 125.716 84.4501 123.853 85.515C119.416 88.0886 116.931 91.4609 116.753 91.3721C116.665 91.3721 117.641 89.8635 122.255 83.7401Z" fill="#FF668B"/>
<path d="M132.551 174.614C132.551 174.614 132.906 175.59 132.374 176.123C131.753 176.655 128.469 178.164 126.783 178.075C125.097 178.075 126.428 176.744 127.404 176.034C128.38 175.324 130.599 173.816 131.131 173.638C131.664 173.549 132.551 174.614 132.551 174.614Z" fill="#FF3B63"/>
<path d="M132.283 170.177C132.371 171.42 132.194 172.485 132.105 173.195C131.928 174.171 131.75 174.792 131.306 175.324C130.419 176.212 128.999 176.389 128.733 176.034C128.467 175.591 130.064 174.792 130.596 172.928C130.863 172.041 130.774 171.331 130.685 170.798L132.283 170.177Z" fill="#FFAE73"/>
<path d="M126.604 118.705C124.386 121.101 124.829 124.385 125.539 130.42C126.161 135.478 126.959 142.933 127.669 152.428C128.379 158.995 129 165.651 129.71 172.218C130.864 172.218 132.018 172.218 133.171 172.218C134.591 169.29 136.278 164.675 136.278 159.084C136.366 154.469 135.301 153.848 135.035 148.524C134.946 145.595 135.213 143.998 137.342 131.396C139.117 121.368 139.384 119.504 138.052 117.995C135.656 115.422 129.444 115.688 126.604 118.705Z" fill="#141B26"/>
<path d="M137.783 156.777C137.783 156.777 136.984 156.067 136.275 156.334C135.565 156.689 132.902 159.085 132.192 160.682C131.571 162.191 133.257 161.481 134.322 160.948C135.387 160.327 137.606 158.996 137.961 158.464C138.316 158.02 137.783 156.777 137.783 156.777Z" fill="#FF3B63"/>
<path d="M140.534 154.825C139.469 155.446 138.581 155.978 137.96 156.333C136.54 157.221 136.008 157.665 135.564 158.197C135.209 158.641 134.41 159.617 134.588 159.883C134.765 160.061 135.83 159.262 138.936 157.576C139.38 157.31 140.8 156.511 140.8 156.511L140.534 154.825Z" fill="#FFAE73"/>
<path d="M139.652 158.285C147.639 156.511 161.305 152.517 162.814 144.53C163.613 140.27 160.507 137.342 149.946 119.238C147.372 114.889 145.331 111.251 143.911 108.677C140.894 112.582 137.877 116.487 134.859 120.392C138.409 125.45 141.693 129.266 144 131.662C149.413 137.43 153.496 140.448 152.608 143.199C152.165 144.53 150.833 144.974 148.615 146.127C145.775 147.636 141.781 150.21 137.699 154.736C138.409 155.889 139.03 157.132 139.652 158.285Z" fill="#282C33"/>
<path d="M141.423 82.5861C137.429 82.0537 134.323 82.4087 132.193 82.8524C128.643 83.5623 125.271 84.1836 123.94 86.6684C123.23 88.0883 123.585 89.8632 124.384 93.413C125.892 100.069 127.49 100.956 127.224 104.417C127.135 106.37 126.602 105.926 124.827 111.517C122.254 119.326 122.964 120.746 123.319 121.19C124.916 123.675 129.176 123.497 129.797 123.497C133.524 123.32 134.057 121.279 137.695 120.48C143.553 119.238 147.28 123.675 149.587 121.9C150.652 121.013 150.741 119.238 150.12 114.623C148.788 105.394 146.659 98.4714 146.392 97.4952C144.795 92.6143 143.109 87.6446 141.423 82.5861Z" fill="#FF3B63"/>
<path d="M144.973 82.7645C145.949 83.297 146.215 83.9182 147.28 84.8056C149.055 86.4918 150.83 87.2018 152.072 87.823C155.799 89.4204 159.172 89.2429 160.237 89.1541C167.78 88.6217 172.483 83.0308 173.46 81.9658C174.524 82.4095 175.501 82.942 176.566 83.3857C175.589 86.3143 173.548 90.2191 169.644 93.2364C161.657 99.271 149.853 98.2061 142.931 92.7039C141.245 91.3727 140.003 89.8641 139.293 88.8879C138.05 86.1368 138.76 83.297 140.358 82.4095C142.221 81.2559 144.706 82.587 144.973 82.7645Z" fill="#FF3B63"/>
<path d="M133.437 78.1492C133.792 77.8829 134.236 78.0604 134.325 78.4154C134.769 79.8353 135.124 80.9003 136.366 81.7877C136.987 82.2314 137.697 82.2314 138.585 82.2314C140.182 82.3202 140.981 81.699 141.158 81.9652C141.513 82.4977 139.383 85.87 135.833 87.1124C135.212 87.2899 132.106 88.3548 130.243 86.7574C129.178 85.87 128.645 84.1838 129.178 83.4739C129.533 83.1189 129.976 83.3851 131.13 82.9414C131.751 82.6752 132.639 82.3202 132.994 81.5215C133.171 81.0778 133.082 80.634 133.082 80.3678L132.905 78.9479C132.905 78.7704 132.994 78.5042 133.171 78.4154L133.437 78.1492Z" fill="#FFAE73"/>
<path d="M136.899 78.2378C136.899 78.2378 135.391 80.9889 132.373 80.279C129.711 79.6578 130.421 72.8244 132.373 71.7595C132.995 71.4045 134.326 71.4045 135.213 71.8482C135.835 72.1145 137.609 73.8894 136.988 76.1967C137.609 75.9305 138.231 76.0192 138.408 76.3742C138.674 76.7292 138.142 77.3504 138.053 77.5279C137.609 77.9716 137.166 78.1491 136.899 78.2378Z" fill="#FFAE73"/>
<path d="M172.487 83.5627L173.552 81.4328C173.552 81.4328 168.138 72.5584 172.575 71.0497C177.013 69.6298 175.77 72.2034 175.238 73.3571C174.705 74.5995 175.504 78.5043 176.303 79.7467C177.101 80.9891 175.77 84.9826 175.77 84.9826L172.487 83.5627Z" fill="#FFAE73"/>
<path d="M132.73 71.5824C132.73 71.5824 133.884 74.5997 135.57 75.0435C137.345 75.4872 138.055 75.0435 138.055 75.0435C138.055 75.0435 136.724 73.9785 136.458 72.1149C136.546 72.1149 133.618 70.1625 132.73 71.5824Z" fill="#141B26"/>
<path d="M132.996 71.8488C132.996 71.8488 132.108 72.5587 131.931 73.1799C131.753 73.8011 131.665 75.2211 131.221 75.1323C131.221 75.1323 130.333 73.0912 131.31 71.9375C132.375 70.6951 132.996 71.8488 132.996 71.8488Z" fill="#141B26"/>
<path d="M119.148 83.8291L120.125 80.8118C120.125 80.8118 121.278 78.3269 124.562 77.8832C127.845 77.4395 127.757 79.2144 127.757 79.2144L125.627 79.8356C125.627 79.8356 124.207 80.1906 123.319 82.2317C121.988 84.2728 120.657 85.1603 120.657 85.1603L119.148 83.8291Z" fill="#FFAE73"/>
<path d="M85.8713 180.294L68.8323 179.762C68.0336 178.697 68.4773 175.058 68.6548 173.905C68.6548 173.638 68.7436 173.55 68.7436 173.55C68.7436 173.55 74.6894 169.112 75.3994 172.662C75.3994 172.751 75.4881 172.928 75.4881 173.017C76.3756 176.389 80.9016 177.987 83.4752 178.519C85.0726 178.785 85.6938 179.673 85.8713 180.294Z" fill="#F9D46B"/>
<path d="M41.0558 123.676C41.6771 123.676 70.0753 129.888 74.6013 135.834C76.9087 138.851 76.1987 172.574 76.1987 172.574C76.1987 172.574 73.1814 176.124 66.9693 173.816C66.9693 173.816 63.0645 150.654 63.597 143.643C63.7745 141.691 44.0732 142.756 40.5234 141.78C36.9736 140.803 28.4541 132.728 30.4952 128.912C32.5364 125.184 41.0558 123.676 41.0558 123.676Z" fill="#141B26"/>
<path d="M61.8199 122.699C61.8199 122.699 63.5948 124.297 65.4585 124.829C66.5234 125.095 67.5883 125.45 68.1208 125.717C69.807 126.515 72.913 130.154 72.558 130.42C71.5818 131.485 67.7658 128.468 67.0559 128.645C66.3459 128.823 68.2096 130.597 67.4109 130.952C66.9671 131.219 66.2572 129.71 65.5472 129.444C64.571 129.178 64.0386 127.669 63.6836 127.58C63.1511 127.403 60.8438 125.184 60.8438 125.184L61.8199 122.699Z" fill="#FFAE73"/>
<path d="M93.4142 180.561L76.3753 180.028C75.5766 178.963 76.0203 175.325 76.1978 174.171C76.1978 173.905 76.2865 173.816 76.2865 173.816C76.2865 173.816 82.2324 169.379 82.9424 172.929C82.9424 173.017 83.0311 173.195 83.0311 173.284C83.9186 176.656 88.4445 178.253 91.0181 178.786C92.6155 179.052 93.2367 179.94 93.4142 180.561Z" fill="#FAC725"/>
<path d="M49.4855 123.941C50.1067 123.941 78.505 130.154 83.031 136.099C85.3383 139.117 84.6284 172.84 84.6284 172.84C84.6284 172.84 81.6111 176.389 75.3989 174.082C75.3989 174.082 71.4942 150.92 72.0267 143.909C72.2041 141.957 52.5028 143.021 48.9531 142.045C45.4033 140.98 36.8838 132.993 38.9249 129.177C40.966 125.361 49.4855 123.941 49.4855 123.941Z" fill="#282C33"/>
<path d="M48.6827 89.1535C46.6416 88.8872 44.5117 88.3548 42.6481 87.6448C40.3407 86.8461 38.4771 85.6924 39.8083 83.5626C40.9619 81.6102 42.9143 77.3504 42.9143 73.7119L47.1741 77.3504L50.0139 79.8353C50.0139 79.8353 49.9251 81.2552 49.5702 83.6513C49.4814 84.095 49.3927 84.5388 49.3039 85.0712C49.2152 85.5149 49.3927 85.8699 49.7477 86.1362C49.7477 86.1362 49.7477 86.1362 49.8364 86.1362C51.2563 87.1123 50.4576 89.331 48.6827 89.1535Z" fill="#FFAE73"/>
<path d="M50.0183 79.2144C50.0183 79.2144 50.1958 79.7468 49.8408 81.6105C47.2672 81.078 44.8711 78.9481 44.8711 78.9481C46.2023 78.5932 46.7347 77.1732 47.7109 77.3507L50.0183 79.2144Z" fill="#F9924F"/>
<path d="M52.4137 79.7472C52.4137 79.7472 42.2968 81.1671 41.4981 74.7775C40.6994 68.4766 38.9245 64.3943 45.3141 63.2407C51.7925 62.087 53.3011 64.3943 54.0998 66.4355C54.8985 68.4766 55.076 79.2147 52.4137 79.7472Z" fill="#FFAE73"/>
<path d="M55.6984 63.6839C56.0534 65.1926 54.8997 67.0562 52.9473 67.5887C50.0187 68.3874 50.5512 71.9372 49.3088 71.8484C47.9776 71.7597 47.5339 69.7185 46.3802 71.316C45.3153 72.6471 47.0902 74.3333 47.0014 75.0432C46.7352 76.2856 44.6941 78.8592 42.9192 78.6818C41.1443 78.5043 38.0382 69.8073 38.7482 67.2337C39.4581 64.5714 42.298 61.909 44.8716 61.554C47.4452 61.2878 50.9062 62.4415 51.7936 62.4415C52.3261 62.4415 55.5209 62.7965 55.6984 63.6839Z" fill="#141B26"/>
<path d="M56.4974 122.256C56.32 123.676 55.965 124.652 55.4325 125.007C53.9238 125.983 51.8827 127.137 49.5754 128.379C41.5883 132.55 30.6728 136.455 28.6316 129C26.3243 120.215 28.4541 103.886 31.294 93.7688C32.8914 87.9117 37.1511 81.8771 39.8135 81.9658C44.4282 82.1433 51.084 83.5632 53.5689 90.2191C54.5451 92.7927 55.7875 101.756 56.3199 110.009C56.8524 114.801 56.8524 119.416 56.4974 122.256Z" fill="#FAC725"/>
<path d="M39.457 81.8767L40.6107 79.5693C40.6107 79.5693 49.9289 80.8118 51.3488 86.2252C51.3488 86.2252 44.2492 82.1429 39.457 81.8767Z" fill="#F9D46B"/>
<path d="M56.4984 122.256C56.3209 123.676 55.9659 124.652 55.4335 125.007C53.9248 125.983 51.8837 127.137 49.5763 128.379C47.269 126.871 42.6542 123.41 41.678 119.416C40.3469 114.18 41.5893 107.791 41.5893 107.791L56.4984 122.256Z" fill="#F9D46B"/>
<path d="M41.1445 89.9524C41.1445 89.9524 41.322 112.227 42.4757 116.753C44.4281 124.297 64.0406 127.58 64.0406 127.58C64.0406 127.58 65.2831 126.338 64.7506 124.119C64.7506 124.119 53.2138 114.446 52.9476 112.671C52.6813 110.896 55.8761 99.0044 52.6813 94.5672C49.4865 90.0412 43.4519 86.1364 41.1445 89.9524Z" fill="#FAC725"/>
<path d="M15.1389 173.905L24.7233 148.258C25.6108 146.039 25.0783 143.465 23.1259 141.868C20.8186 139.827 19.3986 137.076 19.3986 134.236L19.2212 113.292C19.2212 113.204 19.2212 113.115 19.2212 113.026C19.2212 113.026 19.3099 111.872 20.5523 110.541C21.5285 109.565 24.4571 108.145 28.6281 107.169C28.8056 110.63 28.6281 113.292 28.3618 115.156C28.1844 116.31 27.9181 117.996 27.9181 120.392C27.8294 121.812 27.8294 122.788 28.0069 123.853C28.0069 123.853 28.3618 126.87 30.403 129.888C33.3315 134.325 40.8748 138.407 48.5069 138.94C51.7017 139.117 55.074 140.359 60.5761 140.626C61.5523 140.714 62.4398 141.069 63.1497 141.691C63.9484 142.401 64.3034 143.377 64.3034 144.353C64.3034 144.53 64.2147 144.619 64.0372 144.619C61.4636 144.53 56.6714 144.619 44.3359 144.708C43.8034 144.708 38.5675 144.708 34.3965 144.708C31.3792 144.708 28.7168 146.394 27.6519 148.879L18.1562 174.792C17.89 175.591 18.0675 176.39 18.6887 177.011C19.2212 177.543 20.0199 177.81 20.8186 177.81L42.8272 177.632C43.6259 177.632 44.4246 177.366 44.9571 176.745C45.3121 176.39 45.4896 175.946 45.5783 175.502C45.667 174.792 46.2883 174.26 47.087 174.26C48.0631 174.26 48.8619 174.97 48.7731 175.857C48.6844 176.833 48.2406 177.721 47.5307 178.431C46.377 179.673 44.6909 180.383 42.8272 180.383L20.996 180.561C19.1324 180.561 17.2688 179.851 16.1151 178.52C14.8727 177.188 14.6064 175.502 15.1389 173.905Z" fill="#4760F0"/>
</g>
<defs>
<filter id="filter0_d" x="0" y="0" width="227" height="227" filterUnits="userSpaceOnUse" color-interpolation-filters="sRGB">
<feFlood flood-opacity="0" result="BackgroundImageFix"/>
<feColorMatrix in="SourceAlpha" type="matrix" values="0 0 0 0 0 0 0 0 0 0 0 0 0 0 0 0 0 0 127 0" result="hardAlpha"/>
<feOffset dx="5" dy="5"/>
<feGaussianBlur stdDeviation="5.5"/>
<feComposite in2="hardAlpha" operator="out"/>
<feColorMatrix type="matrix" values="0 0 0 0 0 0 0 0 0 0 0 0 0 0 0 0 0 0 0.1 0"/>
<feBlend mode="normal" in2="BackgroundImageFix" result="effect1_dropShadow"/>
<feBlend mode="normal" in="SourceGraphic" in2="effect1_dropShadow" result="shape"/>
</filter>
<filter id="filter1_d" x="0" y="0" width="227" height="227" filterUnits="userSpaceOnUse" color-interpolation-filters="sRGB">
<feFlood flood-opacity="0" result="BackgroundImageFix"/>
<feColorMatrix in="SourceAlpha" type="matrix" values="0 0 0 0 0 0 0 0 0 0 0 0 0 0 0 0 0 0 127 0" result="hardAlpha"/>
<feOffset dx="5" dy="5"/>
<feGaussianBlur stdDeviation="5.5"/>
<feComposite in2="hardAlpha" operator="out"/>
<feColorMatrix type="matrix" values="0 0 0 0 0 0 0 0 0 0 0 0 0 0 0 0 0 0 0.1 0"/>
<feBlend mode="normal" in2="BackgroundImageFix" result="effect1_dropShadow"/>
<feBlend mode="normal" in="SourceGraphic" in2="effect1_dropShadow" result="shape"/>
</filter>
</defs>
</svg>
