<svg width="802" height="285" viewBox="0 0 802 285" fill="none" xmlns="http://www.w3.org/2000/svg">
<mask id="mask0" style="mask-type:alpha" maskUnits="userSpaceOnUse" x="0" y="0" width="802" height="285">
<rect width="802" height="285" rx="17" fill="#FF3B63"/>
</mask>
<g mask="url(#mask0)">
<rect width="802" height="285" rx="17" fill="#FF3B63"/>
<path d="M260.896 148.752L255.892 143.748C254.668 144.084 253.42 144.252 252.148 144.252C249.82 144.252 247.696 143.712 245.776 142.632C243.856 141.528 242.332 140.004 241.204 138.06C240.1 136.092 239.548 133.884 239.548 131.436C239.548 128.988 240.1 126.792 241.204 124.848C242.332 122.88 243.856 121.356 245.776 120.276C247.696 119.172 249.82 118.62 252.148 118.62C254.5 118.62 256.636 119.172 258.556 120.276C260.476 121.356 261.988 122.868 263.092 124.812C264.196 126.756 264.748 128.964 264.748 131.436C264.748 133.836 264.22 135.996 263.164 137.916C262.108 139.836 260.656 141.348 258.808 142.452L265.144 148.752H260.896ZM242.896 131.436C242.896 133.428 243.292 135.18 244.084 136.692C244.9 138.204 246.004 139.368 247.396 140.184C248.812 141 250.396 141.408 252.148 141.408C253.9 141.408 255.472 141 256.864 140.184C258.28 139.368 259.384 138.204 260.176 136.692C260.992 135.18 261.4 133.428 261.4 131.436C261.4 129.42 260.992 127.668 260.176 126.18C259.384 124.668 258.292 123.504 256.9 122.688C255.508 121.872 253.924 121.464 252.148 121.464C250.372 121.464 248.788 121.872 247.396 122.688C246.004 123.504 244.9 124.668 244.084 126.18C243.292 127.668 242.896 129.42 242.896 131.436ZM286.639 124.272V144H283.363V141.084C282.739 142.092 281.863 142.884 280.735 143.46C279.631 144.012 278.407 144.288 277.063 144.288C275.527 144.288 274.147 143.976 272.923 143.352C271.699 142.704 270.727 141.744 270.007 140.472C269.311 139.2 268.963 137.652 268.963 135.828V124.272H272.203V135.396C272.203 137.34 272.695 138.84 273.679 139.896C274.663 140.928 276.007 141.444 277.711 141.444C279.463 141.444 280.843 140.904 281.851 139.824C282.859 138.744 283.363 137.172 283.363 135.108V124.272H286.639ZM290.946 134.064C290.946 132.048 291.354 130.284 292.17 128.772C292.986 127.236 294.102 126.048 295.518 125.208C296.958 124.368 298.554 123.948 300.306 123.948C302.034 123.948 303.534 124.32 304.806 125.064C306.078 125.808 307.026 126.744 307.65 127.872V124.272H310.962V144H307.65V140.328C307.002 141.48 306.03 142.44 304.734 143.208C303.462 143.952 301.974 144.324 300.27 144.324C298.518 144.324 296.934 143.892 295.518 143.028C294.102 142.164 292.986 140.952 292.17 139.392C291.354 137.832 290.946 136.056 290.946 134.064ZM307.65 134.1C307.65 132.612 307.35 131.316 306.75 130.212C306.15 129.108 305.334 128.268 304.302 127.692C303.294 127.092 302.178 126.792 300.954 126.792C299.73 126.792 298.614 127.08 297.606 127.656C296.598 128.232 295.794 129.072 295.194 130.176C294.594 131.28 294.294 132.576 294.294 134.064C294.294 135.576 294.594 136.896 295.194 138.024C295.794 139.128 296.598 139.98 297.606 140.58C298.614 141.156 299.73 141.444 300.954 141.444C302.178 141.444 303.294 141.156 304.302 140.58C305.334 139.98 306.15 139.128 306.75 138.024C307.35 136.896 307.65 135.588 307.65 134.1ZM319.775 117.36V144H316.499V117.36H319.775ZM327.05 121.068C326.426 121.068 325.898 120.852 325.466 120.42C325.034 119.988 324.818 119.46 324.818 118.836C324.818 118.212 325.034 117.684 325.466 117.252C325.898 116.82 326.426 116.604 327.05 116.604C327.65 116.604 328.154 116.82 328.562 117.252C328.994 117.684 329.21 118.212 329.21 118.836C329.21 119.46 328.994 119.988 328.562 120.42C328.154 120.852 327.65 121.068 327.05 121.068ZM328.634 124.272V144H325.358V124.272H328.634ZM338.213 126.972V138.6C338.213 139.56 338.417 140.244 338.825 140.652C339.233 141.036 339.941 141.228 340.949 141.228H343.361V144H340.409C338.585 144 337.217 143.58 336.305 142.74C335.393 141.9 334.937 140.52 334.937 138.6V126.972H332.381V124.272H334.937V119.304H338.213V124.272H343.361V126.972H338.213ZM364.323 124.272L352.443 153.288H349.059L352.947 143.784L344.991 124.272H348.627L354.819 140.256L360.939 124.272H364.323ZM392.045 138.42H381.101L379.085 144H375.629L384.701 119.052H388.481L397.517 144H394.061L392.045 138.42ZM391.109 135.756L386.573 123.084L382.037 135.756H391.109ZM408.455 144.324C406.943 144.324 405.587 144.072 404.387 143.568C403.187 143.04 402.239 142.32 401.543 141.408C400.847 140.472 400.463 139.404 400.391 138.204H403.775C403.871 139.188 404.327 139.992 405.143 140.616C405.983 141.24 407.075 141.552 408.419 141.552C409.667 141.552 410.651 141.276 411.371 140.724C412.091 140.172 412.451 139.476 412.451 138.636C412.451 137.772 412.067 137.136 411.299 136.728C410.531 136.296 409.343 135.876 407.735 135.468C406.271 135.084 405.071 134.7 404.135 134.316C403.223 133.908 402.431 133.32 401.759 132.552C401.111 131.76 400.787 130.728 400.787 129.456C400.787 128.448 401.087 127.524 401.687 126.684C402.287 125.844 403.139 125.184 404.243 124.704C405.347 124.2 406.607 123.948 408.023 123.948C410.207 123.948 411.971 124.5 413.315 125.604C414.659 126.708 415.379 128.22 415.475 130.14H412.199C412.127 129.108 411.707 128.28 410.939 127.656C410.195 127.032 409.187 126.72 407.915 126.72C406.739 126.72 405.803 126.972 405.107 127.476C404.411 127.98 404.063 128.64 404.063 129.456C404.063 130.104 404.267 130.644 404.675 131.076C405.107 131.484 405.635 131.82 406.259 132.084C406.907 132.324 407.795 132.6 408.923 132.912C410.339 133.296 411.491 133.68 412.379 134.064C413.267 134.424 414.023 134.976 414.647 135.72C415.295 136.464 415.631 137.436 415.655 138.636C415.655 139.716 415.355 140.688 414.755 141.552C414.155 142.416 413.303 143.1 412.199 143.604C411.119 144.084 409.871 144.324 408.455 144.324ZM427.264 144.324C425.752 144.324 424.396 144.072 423.196 143.568C421.996 143.04 421.048 142.32 420.352 141.408C419.656 140.472 419.272 139.404 419.2 138.204H422.584C422.68 139.188 423.136 139.992 423.952 140.616C424.792 141.24 425.884 141.552 427.228 141.552C428.476 141.552 429.46 141.276 430.18 140.724C430.9 140.172 431.26 139.476 431.26 138.636C431.26 137.772 430.876 137.136 430.108 136.728C429.34 136.296 428.152 135.876 426.544 135.468C425.08 135.084 423.88 134.7 422.944 134.316C422.032 133.908 421.24 133.32 420.568 132.552C419.92 131.76 419.596 130.728 419.596 129.456C419.596 128.448 419.896 127.524 420.496 126.684C421.096 125.844 421.948 125.184 423.052 124.704C424.156 124.2 425.416 123.948 426.832 123.948C429.016 123.948 430.78 124.5 432.124 125.604C433.468 126.708 434.188 128.22 434.284 130.14H431.008C430.936 129.108 430.516 128.28 429.748 127.656C429.004 127.032 427.996 126.72 426.724 126.72C425.548 126.72 424.612 126.972 423.916 127.476C423.22 127.98 422.872 128.64 422.872 129.456C422.872 130.104 423.076 130.644 423.484 131.076C423.916 131.484 424.444 131.82 425.068 132.084C425.716 132.324 426.604 132.6 427.732 132.912C429.148 133.296 430.3 133.68 431.188 134.064C432.076 134.424 432.832 134.976 433.456 135.72C434.104 136.464 434.44 137.436 434.464 138.636C434.464 139.716 434.164 140.688 433.564 141.552C432.964 142.416 432.112 143.1 431.008 143.604C429.928 144.084 428.68 144.324 427.264 144.324ZM456.584 124.272V144H453.308V141.084C452.684 142.092 451.808 142.884 450.68 143.46C449.576 144.012 448.352 144.288 447.008 144.288C445.472 144.288 444.092 143.976 442.868 143.352C441.644 142.704 440.672 141.744 439.952 140.472C439.256 139.2 438.908 137.652 438.908 135.828V124.272H442.148V135.396C442.148 137.34 442.64 138.84 443.624 139.896C444.608 140.928 445.952 141.444 447.656 141.444C449.408 141.444 450.788 140.904 451.796 139.824C452.804 138.744 453.308 137.172 453.308 135.108V124.272H456.584ZM465.392 127.476C465.968 126.348 466.784 125.472 467.84 124.848C468.92 124.224 470.228 123.912 471.764 123.912V127.296H470.9C467.228 127.296 465.392 129.288 465.392 133.272V144H462.116V124.272H465.392V127.476ZM474.321 134.064C474.321 132.048 474.729 130.284 475.545 128.772C476.361 127.236 477.477 126.048 478.893 125.208C480.333 124.368 481.929 123.948 483.681 123.948C485.409 123.948 486.909 124.32 488.181 125.064C489.453 125.808 490.401 126.744 491.025 127.872V124.272H494.337V144H491.025V140.328C490.377 141.48 489.405 142.44 488.109 143.208C486.837 143.952 485.349 144.324 483.645 144.324C481.893 144.324 480.309 143.892 478.893 143.028C477.477 142.164 476.361 140.952 475.545 139.392C474.729 137.832 474.321 136.056 474.321 134.064ZM491.025 134.1C491.025 132.612 490.725 131.316 490.125 130.212C489.525 129.108 488.709 128.268 487.677 127.692C486.669 127.092 485.553 126.792 484.329 126.792C483.105 126.792 481.989 127.08 480.981 127.656C479.973 128.232 479.169 129.072 478.569 130.176C477.969 131.28 477.669 132.576 477.669 134.064C477.669 135.576 477.969 136.896 478.569 138.024C479.169 139.128 479.973 139.98 480.981 140.58C481.989 141.156 483.105 141.444 484.329 141.444C485.553 141.444 486.669 141.156 487.677 140.58C488.709 139.98 489.525 139.128 490.125 138.024C490.725 136.896 491.025 135.588 491.025 134.1ZM509.486 123.912C511.886 123.912 513.83 124.644 515.318 126.108C516.806 127.548 517.55 129.636 517.55 132.372V144H514.31V132.84C514.31 130.872 513.818 129.372 512.834 128.34C511.85 127.284 510.506 126.756 508.802 126.756C507.074 126.756 505.694 127.296 504.662 128.376C503.654 129.456 503.15 131.028 503.15 133.092V144H499.874V124.272H503.15V127.08C503.798 126.072 504.674 125.292 505.778 124.74C506.906 124.188 508.142 123.912 509.486 123.912ZM521.677 134.1C521.677 132.06 522.085 130.284 522.901 128.772C523.717 127.236 524.845 126.048 526.285 125.208C527.749 124.368 529.417 123.948 531.289 123.948C533.713 123.948 535.705 124.536 537.265 125.712C538.849 126.888 539.893 128.52 540.397 130.608H536.869C536.533 129.408 535.873 128.46 534.889 127.764C533.929 127.068 532.729 126.72 531.289 126.72C529.417 126.72 527.905 127.368 526.753 128.664C525.601 129.936 525.025 131.748 525.025 134.1C525.025 136.476 525.601 138.312 526.753 139.608C527.905 140.904 529.417 141.552 531.289 141.552C532.729 141.552 533.929 141.216 534.889 140.544C535.849 139.872 536.509 138.912 536.869 137.664H540.397C539.869 139.68 538.813 141.3 537.229 142.524C535.645 143.724 533.665 144.324 531.289 144.324C529.417 144.324 527.749 143.904 526.285 143.064C524.845 142.224 523.717 141.036 522.901 139.5C522.085 137.964 521.677 136.164 521.677 134.1ZM562.768 133.38C562.768 134.004 562.732 134.664 562.66 135.36H546.892C547.012 137.304 547.672 138.828 548.872 139.932C550.096 141.012 551.572 141.552 553.3 141.552C554.716 141.552 555.892 141.228 556.828 140.58C557.788 139.908 558.46 139.02 558.844 137.916H562.372C561.844 139.812 560.788 141.36 559.204 142.56C557.62 143.736 555.652 144.324 553.3 144.324C551.428 144.324 549.748 143.904 548.26 143.064C546.796 142.224 545.644 141.036 544.804 139.5C543.964 137.94 543.544 136.14 543.544 134.1C543.544 132.06 543.952 130.272 544.768 128.736C545.584 127.2 546.724 126.024 548.188 125.208C549.676 124.368 551.38 123.948 553.3 123.948C555.172 123.948 556.828 124.356 558.268 125.172C559.708 125.988 560.812 127.116 561.58 128.556C562.372 129.972 562.768 131.58 562.768 133.38ZM559.384 132.696C559.384 131.448 559.108 130.38 558.556 129.492C558.004 128.58 557.248 127.896 556.288 127.44C555.352 126.96 554.308 126.72 553.156 126.72C551.5 126.72 550.084 127.248 548.908 128.304C547.756 129.36 547.096 130.824 546.928 132.696H559.384Z" fill="#F6F6F6"/>
<path d="M681.299 294.967L676.083 293.57C675.02 293.285 674.48 292.209 674.739 291.243L680.251 270.669C680.535 269.606 681.612 269.066 682.577 269.325L687.794 270.722C688.856 271.007 689.396 272.083 689.137 273.049L683.626 293.624C683.463 294.616 682.361 295.252 681.299 294.967Z" stroke="white" stroke-opacity="0.5" stroke-width="1.5" stroke-miterlimit="10" stroke-linecap="round" stroke-linejoin="round"/>
<path d="M685.291 293.967C685.76 294.921 686.5 295.636 687.536 296.018L699.512 300.779C702.596 302.019 706.089 300.574 707.426 297.515L713.979 284.26C715.135 281.878 713.921 279.068 711.435 278.298L706.078 276.656C705.209 276.423 704.984 275.328 705.552 274.755L710.718 268.996C712.079 267.393 711.998 264.991 710.518 263.559C709.205 262.276 707.17 262.144 705.675 263.09L688.998 273.944L684.858 289.399C684.47 290.848 684.539 292.523 685.291 293.967Z" stroke="white" stroke-opacity="0.5" stroke-width="1.5" stroke-miterlimit="10" stroke-linecap="round" stroke-linejoin="round"/>
<path d="M699.638 286.023C701.239 286.451 702.884 285.501 703.312 283.901C703.741 282.301 702.791 280.656 701.191 280.227C699.59 279.798 697.945 280.748 697.517 282.349C697.088 283.949 698.038 285.594 699.638 286.023Z" stroke="white" stroke-opacity="0.5" stroke-miterlimit="10" stroke-linecap="round" stroke-linejoin="round"/>
<path d="M651.299 28.9673L646.083 27.57C645.02 27.2854 644.48 26.209 644.739 25.2431L650.251 4.66854C650.535 3.60601 651.612 3.06614 652.577 3.3249L657.794 4.7222C658.856 5.00683 659.396 6.08319 659.137 7.04913L653.626 27.6237C653.463 28.6155 652.361 29.252 651.299 28.9673Z" stroke="white" stroke-opacity="0.5" stroke-width="1.5" stroke-miterlimit="10" stroke-linecap="round" stroke-linejoin="round"/>
<path d="M655.291 27.9667C655.76 28.9206 656.5 29.6364 657.536 30.0176L669.512 34.7787C672.596 36.019 676.089 34.5736 677.426 31.5153L683.979 18.2596C685.135 15.8775 683.921 13.0676 681.435 12.2983L676.078 10.656C675.209 10.4231 674.984 9.32781 675.552 8.75515L680.718 2.99581C682.079 1.39341 681.998 -1.00939 680.518 -2.4411C679.205 -3.72446 677.17 -3.85561 675.675 -2.91039L658.998 7.94404L654.858 23.3991C654.47 24.848 654.539 26.5229 655.291 27.9667Z" stroke="white" stroke-opacity="0.5" stroke-width="1.5" stroke-miterlimit="10" stroke-linecap="round" stroke-linejoin="round"/>
<path d="M669.638 20.0226C671.239 20.4513 672.884 19.5015 673.312 17.9011C673.741 16.3006 672.791 14.6557 671.191 14.227C669.59 13.7982 667.945 14.7481 667.517 16.3485C667.088 17.9489 668.038 19.5939 669.638 20.0226Z" stroke="white" stroke-opacity="0.5" stroke-miterlimit="10" stroke-linecap="round" stroke-linejoin="round"/>
<path d="M671.105 28.0762C672.265 28.3867 673.348 27.4346 673.149 26.2427C672.772 24.1745 671.273 22.4271 669.148 21.8579C667.023 21.2886 664.851 22.0527 663.49 23.6551C662.722 24.5882 663.185 25.9544 664.344 26.2649L671.105 28.0762Z" stroke="white" stroke-opacity="0.5" stroke-miterlimit="10" stroke-linecap="round" stroke-linejoin="round"/>
<path d="M267.299 23.9673L262.083 22.57C261.02 22.2854 260.48 21.209 260.739 20.2431L266.251 -0.331457C266.535 -1.39399 267.612 -1.93386 268.577 -1.6751L273.794 -0.277802C274.856 0.00683405 275.396 1.08319 275.137 2.04913L269.626 22.6237C269.463 23.6155 268.361 24.252 267.299 23.9673Z" stroke="white" stroke-opacity="0.5" stroke-width="1.5" stroke-miterlimit="10" stroke-linecap="round" stroke-linejoin="round"/>
<path d="M271.291 22.9667C271.76 23.9206 272.5 24.6364 273.536 25.0176L285.512 29.7787C288.596 31.019 292.089 29.5736 293.426 26.5153L299.979 13.2596C301.135 10.8775 299.921 8.06762 297.435 7.29825L292.078 5.65601C291.209 5.42313 290.984 4.32781 291.552 3.75515L296.718 -2.00419C298.079 -3.60659 297.998 -6.00939 296.518 -7.4411C295.205 -8.72446 293.17 -8.85561 291.675 -7.91039L274.998 2.94404L270.858 18.3991C270.47 19.848 270.539 21.5229 271.291 22.9667Z" stroke="white" stroke-opacity="0.5" stroke-width="1.5" stroke-miterlimit="10" stroke-linecap="round" stroke-linejoin="round"/>
<path d="M285.638 15.0226C287.239 15.4513 288.884 14.5015 289.312 12.9011C289.741 11.3006 288.791 9.65569 287.191 9.22696C285.59 8.79824 283.945 9.74808 283.517 11.3485C283.088 12.9489 284.038 14.5939 285.638 15.0226Z" stroke="white" stroke-opacity="0.5" stroke-miterlimit="10" stroke-linecap="round" stroke-linejoin="round"/>
<path d="M287.105 23.0762C288.265 23.3867 289.348 22.4346 289.149 21.2427C288.772 19.1745 287.273 17.4271 285.148 16.8579C283.023 16.2886 280.851 17.0527 279.49 18.6551C278.722 19.5882 279.185 20.9544 280.344 21.2649L287.105 23.0762Z" stroke="white" stroke-opacity="0.5" stroke-miterlimit="10" stroke-linecap="round" stroke-linejoin="round"/>
<path d="M103.299 166.967L98.0826 165.57C97.0201 165.285 96.4802 164.209 96.739 163.243L102.251 142.669C102.535 141.606 103.612 141.066 104.577 141.325L109.794 142.722C110.856 143.007 111.396 144.083 111.137 145.049L105.626 165.624C105.463 166.616 104.361 167.252 103.299 166.967Z" stroke="white" stroke-opacity="0.5" stroke-width="1.5" stroke-miterlimit="10" stroke-linecap="round" stroke-linejoin="round"/>
<path d="M107.291 165.967C107.76 166.921 108.5 167.636 109.536 168.018L121.512 172.779C124.596 174.019 128.089 172.574 129.426 169.515L135.979 156.26C137.135 153.878 135.921 151.068 133.435 150.298L128.078 148.656C127.209 148.423 126.984 147.328 127.552 146.755L132.718 140.996C134.079 139.393 133.998 136.991 132.518 135.559C131.205 134.276 129.17 134.144 127.675 135.09L110.998 145.944L106.858 161.399C106.47 162.848 106.539 164.523 107.291 165.967Z" stroke="white" stroke-opacity="0.5" stroke-width="1.5" stroke-miterlimit="10" stroke-linecap="round" stroke-linejoin="round"/>
<path d="M121.638 158.023C123.239 158.451 124.884 157.501 125.312 155.901C125.741 154.301 124.791 152.656 123.191 152.227C121.59 151.798 119.945 152.748 119.517 154.349C119.088 155.949 120.038 157.594 121.638 158.023Z" stroke="white" stroke-opacity="0.5" stroke-miterlimit="10" stroke-linecap="round" stroke-linejoin="round"/>
<path d="M123.105 166.076C124.265 166.387 125.348 165.435 125.149 164.243C124.772 162.175 123.273 160.427 121.148 159.858C119.023 159.289 116.851 160.053 115.49 161.655C114.722 162.588 115.185 163.954 116.344 164.265L123.105 166.076Z" stroke="white" stroke-opacity="0.5" stroke-miterlimit="10" stroke-linecap="round" stroke-linejoin="round"/>
<path d="M726.426 139.168C727.585 138.751 728.187 137.473 727.77 136.313C727.353 135.154 726.075 134.553 724.915 134.97C723.756 135.387 723.155 136.665 723.572 137.824C723.989 138.984 725.267 139.585 726.426 139.168Z" stroke="white" stroke-opacity="0.5" stroke-miterlimit="10" stroke-linecap="round" stroke-linejoin="round"/>
<path d="M730.739 143.464C731.578 143.162 731.836 142.121 731.209 141.477C730.101 140.375 728.444 139.943 726.905 140.497C725.366 141.051 724.364 142.439 724.212 143.995C724.14 144.891 725.002 145.529 725.841 145.227L730.739 143.464Z" stroke="white" stroke-opacity="0.5" stroke-miterlimit="10" stroke-linecap="round" stroke-linejoin="round"/>
<path d="M741.035 128.704C744.842 139.282 737.114 150.06 732.969 154.034C732.571 154.452 732.225 154.761 731.879 155.069C731.497 155.023 730.953 155.035 730.38 154.965C724.786 154.405 711.91 151.135 708.103 140.556C706.17 135.185 708.582 129.446 713.437 127.698C716.674 126.534 720.179 127.386 722.742 129.681C723.254 126.279 725.412 123.388 728.649 122.223C733.555 120.366 739.102 123.333 741.035 128.704Z" stroke="white" stroke-opacity="0.5" stroke-width="1.5" stroke-miterlimit="10" stroke-linecap="round" stroke-linejoin="round"/>
<path d="M16.8091 269.149C17.9683 268.732 18.5698 267.454 18.1526 266.294C17.7354 265.135 16.4574 264.534 15.2982 264.951C14.139 265.368 13.5374 266.646 13.9547 267.805C14.3719 268.964 15.6498 269.566 16.8091 269.149Z" stroke="white" stroke-opacity="0.5" stroke-miterlimit="10" stroke-linecap="round" stroke-linejoin="round"/>
<path d="M21.1215 273.445C21.9611 273.143 22.2187 272.102 21.5918 271.458C20.4837 270.356 18.827 269.924 17.2878 270.478C15.7485 271.032 14.7465 272.42 14.5953 273.976C14.5225 274.872 15.3844 275.51 16.224 275.208L21.1215 273.445Z" stroke="white" stroke-opacity="0.5" stroke-miterlimit="10" stroke-linecap="round" stroke-linejoin="round"/>
<path d="M31.4176 258.684C35.2249 269.263 27.4968 280.041 23.3518 284.014C22.9542 284.433 22.6082 284.742 22.2622 285.05C21.88 285.004 21.3359 285.016 20.7626 284.946C15.1686 284.386 2.29293 281.116 -1.51442 270.537C-3.44738 265.166 -1.03482 259.427 3.82002 257.679C7.05658 256.514 10.5622 257.367 13.1246 259.662C13.6369 256.26 15.7953 253.369 19.0318 252.204C23.9383 250.347 29.4846 253.314 31.4176 258.684Z" stroke="white" stroke-opacity="0.5" stroke-width="1.5" stroke-miterlimit="10" stroke-linecap="round" stroke-linejoin="round"/>
<path d="M423.809 282.149C424.968 281.732 425.57 280.454 425.153 279.294C424.735 278.135 423.457 277.534 422.298 277.951C421.139 278.368 420.537 279.646 420.955 280.805C421.372 281.964 422.65 282.566 423.809 282.149Z" stroke="white" stroke-opacity="0.5" stroke-miterlimit="10" stroke-linecap="round" stroke-linejoin="round"/>
<path d="M428.122 286.445C428.961 286.143 429.219 285.102 428.592 284.458C427.484 283.356 425.827 282.924 424.288 283.478C422.749 284.032 421.747 285.42 421.595 286.976C421.522 287.872 422.384 288.51 423.224 288.208L428.122 286.445Z" stroke="white" stroke-opacity="0.5" stroke-miterlimit="10" stroke-linecap="round" stroke-linejoin="round"/>
<path d="M438.418 271.684C442.225 282.263 434.497 293.041 430.352 297.014C429.954 297.433 429.608 297.742 429.262 298.05C428.88 298.004 428.336 298.016 427.763 297.946C422.169 297.386 409.293 294.116 405.486 283.537C403.553 278.166 405.965 272.427 410.82 270.679C414.057 269.514 417.562 270.367 420.125 272.662C420.637 269.26 422.795 266.369 426.032 265.204C430.938 263.347 436.485 266.314 438.418 271.684Z" stroke="white" stroke-opacity="0.5" stroke-width="1.5" stroke-miterlimit="10" stroke-linecap="round" stroke-linejoin="round"/>
<path d="M49.8091 49.1488C50.9683 48.7316 51.5698 47.4536 51.1526 46.2944C50.7354 45.1352 49.4574 44.5336 48.2982 44.9509C47.139 45.3681 46.5374 46.646 46.9547 47.8053C47.3719 48.9645 48.6498 49.566 49.8091 49.1488Z" stroke="white" stroke-opacity="0.5" stroke-miterlimit="10" stroke-linecap="round" stroke-linejoin="round"/>
<path d="M54.1215 53.4452C54.9611 53.143 55.2187 52.102 54.5918 51.4583C53.4837 50.3556 51.827 49.9245 50.2878 50.4784C48.7485 51.0324 47.7465 52.4204 47.5953 53.9764C47.5225 54.8719 48.3844 55.5101 49.224 55.2079L54.1215 53.4452Z" stroke="white" stroke-opacity="0.5" stroke-miterlimit="10" stroke-linecap="round" stroke-linejoin="round"/>
<path d="M64.4176 38.6845C68.2249 49.263 60.4968 60.041 56.3518 64.0145C55.9542 64.4333 55.6082 64.7417 55.2622 65.05C54.88 65.0038 54.3359 65.0158 53.7626 64.9464C48.1686 64.3861 35.2929 61.1156 31.4856 50.5371C29.5526 45.1664 31.9652 39.4267 36.82 37.6794C40.0566 36.5145 43.5622 37.3668 46.1246 39.6616C46.6369 36.2602 48.7953 33.3693 52.0318 32.2044C56.9383 30.3466 62.4846 33.3138 64.4176 38.6845Z" stroke="white" stroke-opacity="0.5" stroke-width="1.5" stroke-miterlimit="10" stroke-linecap="round" stroke-linejoin="round"/>
<path d="M253.119 177.502C253.827 177.634 254.427 177.994 254.919 178.582C255.411 179.17 255.657 179.854 255.657 180.634C255.657 181.27 255.495 181.846 255.171 182.362C254.859 182.866 254.397 183.268 253.785 183.568C253.173 183.856 252.441 184 251.589 184H247.233V171.418H251.463C252.735 171.418 253.701 171.712 254.361 172.3C255.033 172.888 255.369 173.65 255.369 174.586C255.369 175.366 255.159 176.002 254.739 176.494C254.319 176.974 253.779 177.31 253.119 177.502ZM248.493 176.98H251.427C252.279 176.98 252.933 176.782 253.389 176.386C253.857 175.978 254.091 175.42 254.091 174.712C254.091 174.016 253.857 173.47 253.389 173.074C252.933 172.678 252.261 172.48 251.373 172.48H248.493V176.98ZM251.499 182.938C252.411 182.938 253.119 182.722 253.623 182.29C254.139 181.858 254.397 181.264 254.397 180.508C254.397 179.752 254.127 179.152 253.587 178.708C253.059 178.252 252.345 178.024 251.445 178.024H248.493V182.938H251.499ZM267.333 174.172L261.501 188.626H260.187L262.095 183.946L258.063 174.172H259.449L262.797 182.56L266.037 174.172H267.333ZM277.744 176.332C278.056 175.672 278.548 175.126 279.22 174.694C279.904 174.25 280.714 174.028 281.65 174.028C282.538 174.028 283.336 174.238 284.044 174.658C284.764 175.066 285.322 175.654 285.718 176.422C286.126 177.178 286.33 178.06 286.33 179.068C286.33 180.076 286.126 180.964 285.718 181.732C285.322 182.5 284.764 183.094 284.044 183.514C283.336 183.934 282.538 184.144 281.65 184.144C280.726 184.144 279.922 183.928 279.238 183.496C278.554 183.052 278.056 182.5 277.744 181.84V188.644H276.502V174.172H277.744V176.332ZM285.052 179.068C285.052 178.252 284.89 177.55 284.566 176.962C284.254 176.362 283.822 175.906 283.27 175.594C282.718 175.282 282.094 175.126 281.398 175.126C280.726 175.126 280.108 175.288 279.544 175.612C278.992 175.936 278.554 176.398 278.23 176.998C277.906 177.598 277.744 178.294 277.744 179.086C277.744 179.878 277.906 180.574 278.23 181.174C278.554 181.774 278.992 182.236 279.544 182.56C280.108 182.884 280.726 183.046 281.398 183.046C282.094 183.046 282.718 182.89 283.27 182.578C283.822 182.254 284.254 181.792 284.566 181.192C284.89 180.58 285.052 179.872 285.052 179.068ZM291.168 175.918C291.444 175.306 291.864 174.832 292.428 174.496C293.004 174.16 293.706 173.992 294.534 173.992V175.306H294.192C293.28 175.306 292.548 175.552 291.996 176.044C291.444 176.536 291.168 177.358 291.168 178.51V184H289.908V174.172H291.168V175.918ZM301.991 184.144C301.067 184.144 300.233 183.94 299.489 183.532C298.757 183.112 298.175 182.524 297.743 181.768C297.323 181 297.113 180.106 297.113 179.086C297.113 178.066 297.329 177.178 297.761 176.422C298.193 175.654 298.781 175.066 299.525 174.658C300.269 174.238 301.103 174.028 302.027 174.028C302.951 174.028 303.785 174.238 304.529 174.658C305.285 175.066 305.873 175.654 306.293 176.422C306.725 177.178 306.941 178.066 306.941 179.086C306.941 180.094 306.725 180.982 306.293 181.75C305.861 182.518 305.267 183.112 304.511 183.532C303.755 183.94 302.915 184.144 301.991 184.144ZM301.991 183.046C302.639 183.046 303.239 182.902 303.791 182.614C304.343 182.314 304.787 181.87 305.123 181.282C305.471 180.682 305.645 179.95 305.645 179.086C305.645 178.222 305.477 177.496 305.141 176.908C304.805 176.308 304.361 175.864 303.809 175.576C303.257 175.276 302.657 175.126 302.009 175.126C301.361 175.126 300.761 175.276 300.209 175.576C299.657 175.864 299.213 176.308 298.877 176.908C298.553 177.496 298.391 178.222 298.391 179.086C298.391 179.95 298.553 180.682 298.877 181.282C299.213 181.87 299.651 182.314 300.191 182.614C300.743 182.902 301.343 183.046 301.991 183.046ZM313.99 182.776L317.302 174.172H318.634L314.692 184H313.27L309.328 174.172H310.678L313.99 182.776ZM322.232 172.318C321.98 172.318 321.764 172.228 321.584 172.048C321.404 171.868 321.314 171.646 321.314 171.382C321.314 171.118 321.404 170.902 321.584 170.734C321.764 170.554 321.98 170.464 322.232 170.464C322.484 170.464 322.7 170.554 322.88 170.734C323.06 170.902 323.15 171.118 323.15 171.382C323.15 171.646 323.06 171.868 322.88 172.048C322.7 172.228 322.484 172.318 322.232 172.318ZM322.862 174.172V184H321.602V174.172H322.862ZM326.399 179.068C326.399 178.06 326.603 177.178 327.011 176.422C327.419 175.654 327.977 175.066 328.685 174.658C329.405 174.238 330.215 174.028 331.115 174.028C331.979 174.028 332.759 174.238 333.455 174.658C334.151 175.078 334.661 175.624 334.985 176.296V170.68H336.245V184H334.985V181.804C334.685 182.488 334.193 183.052 333.509 183.496C332.825 183.928 332.021 184.144 331.097 184.144C330.197 184.144 329.387 183.934 328.667 183.514C327.959 183.094 327.401 182.5 326.993 181.732C326.597 180.964 326.399 180.076 326.399 179.068ZM334.985 179.086C334.985 178.294 334.823 177.598 334.499 176.998C334.175 176.398 333.731 175.936 333.167 175.612C332.615 175.288 332.003 175.126 331.331 175.126C330.635 175.126 330.011 175.282 329.459 175.594C328.907 175.906 328.469 176.362 328.145 176.962C327.833 177.55 327.677 178.252 327.677 179.068C327.677 179.872 327.833 180.58 328.145 181.192C328.469 181.792 328.907 182.254 329.459 182.578C330.011 182.89 330.635 183.046 331.331 183.046C332.003 183.046 332.615 182.884 333.167 182.56C333.731 182.236 334.175 181.774 334.499 181.174C334.823 180.574 334.985 179.878 334.985 179.086ZM341.012 172.318C340.76 172.318 340.544 172.228 340.364 172.048C340.184 171.868 340.094 171.646 340.094 171.382C340.094 171.118 340.184 170.902 340.364 170.734C340.544 170.554 340.76 170.464 341.012 170.464C341.264 170.464 341.48 170.554 341.66 170.734C341.84 170.902 341.93 171.118 341.93 171.382C341.93 171.646 341.84 171.868 341.66 172.048C341.48 172.228 341.264 172.318 341.012 172.318ZM341.642 174.172V184H340.382V174.172H341.642ZM350.363 173.992C351.539 173.992 352.499 174.358 353.243 175.09C353.987 175.81 354.359 176.86 354.359 178.24V184H353.117V178.384C353.117 177.316 352.847 176.5 352.307 175.936C351.779 175.372 351.053 175.09 350.129 175.09C349.181 175.09 348.425 175.39 347.861 175.99C347.297 176.59 347.015 177.472 347.015 178.636V184H345.755V174.172H347.015V175.846C347.327 175.246 347.777 174.79 348.365 174.478C348.953 174.154 349.619 173.992 350.363 173.992ZM362.528 174.028C363.452 174.028 364.256 174.244 364.94 174.676C365.624 175.108 366.116 175.654 366.416 176.314V174.172H367.676V184.252C367.676 185.152 367.478 185.95 367.082 186.646C366.698 187.342 366.158 187.876 365.462 188.248C364.766 188.632 363.974 188.824 363.086 188.824C361.826 188.824 360.776 188.524 359.936 187.924C359.108 187.324 358.592 186.508 358.388 185.476H359.63C359.846 186.16 360.254 186.706 360.854 187.114C361.466 187.522 362.21 187.726 363.086 187.726C363.722 187.726 364.292 187.588 364.796 187.312C365.3 187.048 365.696 186.652 365.984 186.124C366.272 185.596 366.416 184.972 366.416 184.252V181.822C366.104 182.494 365.606 183.052 364.922 183.496C364.25 183.928 363.452 184.144 362.528 184.144C361.628 184.144 360.818 183.934 360.098 183.514C359.39 183.094 358.832 182.5 358.424 181.732C358.028 180.964 357.83 180.076 357.83 179.068C357.83 178.06 358.028 177.178 358.424 176.422C358.832 175.654 359.39 175.066 360.098 174.658C360.818 174.238 361.628 174.028 362.528 174.028ZM366.416 179.086C366.416 178.294 366.254 177.598 365.93 176.998C365.606 176.398 365.162 175.936 364.598 175.612C364.046 175.288 363.434 175.126 362.762 175.126C362.066 175.126 361.442 175.282 360.89 175.594C360.338 175.906 359.9 176.362 359.576 176.962C359.264 177.55 359.108 178.252 359.108 179.068C359.108 179.872 359.264 180.58 359.576 181.192C359.9 181.792 360.338 182.254 360.89 182.578C361.442 182.89 362.066 183.046 362.762 183.046C363.434 183.046 364.046 182.884 364.598 182.56C365.162 182.236 365.606 181.774 365.93 181.174C366.254 180.574 366.416 179.878 366.416 179.086ZM378.642 172.318C378.39 172.318 378.174 172.228 377.994 172.048C377.814 171.868 377.724 171.646 377.724 171.382C377.724 171.118 377.814 170.902 377.994 170.734C378.174 170.554 378.39 170.464 378.642 170.464C378.894 170.464 379.11 170.554 379.29 170.734C379.47 170.902 379.56 171.118 379.56 171.382C379.56 171.646 379.47 171.868 379.29 172.048C379.11 172.228 378.894 172.318 378.642 172.318ZM379.272 174.172V184H378.012V174.172H379.272ZM387.993 173.992C389.169 173.992 390.129 174.358 390.873 175.09C391.617 175.81 391.989 176.86 391.989 178.24V184H390.747V178.384C390.747 177.316 390.477 176.5 389.937 175.936C389.409 175.372 388.683 175.09 387.759 175.09C386.811 175.09 386.055 175.39 385.491 175.99C384.927 176.59 384.645 177.472 384.645 178.636V184H383.385V174.172H384.645V175.846C384.957 175.246 385.407 174.79 385.995 174.478C386.583 174.154 387.249 173.992 387.993 173.992ZM397.674 175.234V181.336C397.674 181.936 397.788 182.35 398.016 182.578C398.244 182.806 398.646 182.92 399.222 182.92H400.374V184H399.024C398.136 184 397.476 183.796 397.044 183.388C396.612 182.968 396.396 182.284 396.396 181.336V175.234H395.028V174.172H396.396V171.706H397.674V174.172H400.374V175.234H397.674ZM412.604 178.582C412.604 179.014 412.592 179.344 412.568 179.572H404.414C404.45 180.316 404.63 180.952 404.954 181.48C405.278 182.008 405.704 182.41 406.232 182.686C406.76 182.95 407.336 183.082 407.96 183.082C408.776 183.082 409.46 182.884 410.012 182.488C410.576 182.092 410.948 181.558 411.128 180.886H412.46C412.22 181.846 411.704 182.632 410.912 183.244C410.132 183.844 409.148 184.144 407.96 184.144C407.036 184.144 406.208 183.94 405.476 183.532C404.744 183.112 404.168 182.524 403.748 181.768C403.34 181 403.136 180.106 403.136 179.086C403.136 178.066 403.34 177.172 403.748 176.404C404.156 175.636 404.726 175.048 405.458 174.64C406.19 174.232 407.024 174.028 407.96 174.028C408.896 174.028 409.712 174.232 410.408 174.64C411.116 175.048 411.656 175.6 412.028 176.296C412.412 176.98 412.604 177.742 412.604 178.582ZM411.326 178.546C411.338 177.814 411.188 177.19 410.876 176.674C410.576 176.158 410.162 175.768 409.634 175.504C409.106 175.24 408.53 175.108 407.906 175.108C406.97 175.108 406.172 175.408 405.512 176.008C404.852 176.608 404.486 177.454 404.414 178.546H411.326ZM420.777 173.992C421.953 173.992 422.913 174.358 423.657 175.09C424.401 175.81 424.773 176.86 424.773 178.24V184H423.531V178.384C423.531 177.316 423.261 176.5 422.721 175.936C422.193 175.372 421.467 175.09 420.543 175.09C419.595 175.09 418.839 175.39 418.275 175.99C417.711 176.59 417.429 177.472 417.429 178.636V184H416.169V174.172H417.429V175.846C417.741 175.246 418.191 174.79 418.779 174.478C419.367 174.154 420.033 173.992 420.777 173.992ZM432.203 184.144C431.075 184.144 430.151 183.886 429.431 183.37C428.723 182.842 428.327 182.128 428.243 181.228H429.539C429.599 181.78 429.857 182.23 430.313 182.578C430.781 182.914 431.405 183.082 432.185 183.082C432.869 183.082 433.403 182.92 433.787 182.596C434.183 182.272 434.381 181.87 434.381 181.39C434.381 181.054 434.273 180.778 434.057 180.562C433.841 180.346 433.565 180.178 433.229 180.058C432.905 179.926 432.461 179.788 431.897 179.644C431.165 179.452 430.571 179.26 430.115 179.068C429.659 178.876 429.269 178.594 428.945 178.222C428.633 177.838 428.477 177.328 428.477 176.692C428.477 176.212 428.621 175.768 428.909 175.36C429.197 174.952 429.605 174.628 430.133 174.388C430.661 174.148 431.261 174.028 431.933 174.028C432.989 174.028 433.841 174.298 434.489 174.838C435.137 175.366 435.485 176.098 435.533 177.034H434.273C434.237 176.458 434.009 175.996 433.589 175.648C433.181 175.288 432.617 175.108 431.897 175.108C431.261 175.108 430.745 175.258 430.349 175.558C429.953 175.858 429.755 176.23 429.755 176.674C429.755 177.058 429.869 177.376 430.097 177.628C430.337 177.868 430.631 178.06 430.979 178.204C431.327 178.336 431.795 178.486 432.383 178.654C433.091 178.846 433.655 179.032 434.075 179.212C434.495 179.392 434.855 179.656 435.155 180.004C435.455 180.352 435.611 180.814 435.623 181.39C435.623 181.918 435.479 182.392 435.191 182.812C434.903 183.22 434.501 183.544 433.985 183.784C433.469 184.024 432.875 184.144 432.203 184.144ZM439.885 172.318C439.633 172.318 439.417 172.228 439.237 172.048C439.057 171.868 438.967 171.646 438.967 171.382C438.967 171.118 439.057 170.902 439.237 170.734C439.417 170.554 439.633 170.464 439.885 170.464C440.137 170.464 440.353 170.554 440.533 170.734C440.713 170.902 440.803 171.118 440.803 171.382C440.803 171.646 440.713 171.868 440.533 172.048C440.353 172.228 440.137 172.318 439.885 172.318ZM440.515 174.172V184H439.255V174.172H440.515ZM448.121 182.776L451.433 174.172H452.765L448.823 184H447.401L443.459 174.172H444.809L448.121 182.776ZM464.624 178.582C464.624 179.014 464.612 179.344 464.588 179.572H456.434C456.47 180.316 456.65 180.952 456.974 181.48C457.298 182.008 457.724 182.41 458.252 182.686C458.78 182.95 459.356 183.082 459.98 183.082C460.796 183.082 461.48 182.884 462.032 182.488C462.596 182.092 462.968 181.558 463.148 180.886H464.48C464.24 181.846 463.724 182.632 462.932 183.244C462.152 183.844 461.168 184.144 459.98 184.144C459.056 184.144 458.228 183.94 457.496 183.532C456.764 183.112 456.188 182.524 455.768 181.768C455.36 181 455.156 180.106 455.156 179.086C455.156 178.066 455.36 177.172 455.768 176.404C456.176 175.636 456.746 175.048 457.478 174.64C458.21 174.232 459.044 174.028 459.98 174.028C460.916 174.028 461.732 174.232 462.428 174.64C463.136 175.048 463.676 175.6 464.048 176.296C464.432 176.98 464.624 177.742 464.624 178.582ZM463.346 178.546C463.358 177.814 463.208 177.19 462.896 176.674C462.596 176.158 462.182 175.768 461.654 175.504C461.126 175.24 460.55 175.108 459.926 175.108C458.99 175.108 458.192 175.408 457.532 176.008C456.872 176.608 456.506 177.454 456.434 178.546H463.346ZM476.027 175.234V181.336C476.027 181.936 476.141 182.35 476.369 182.578C476.597 182.806 476.999 182.92 477.575 182.92H478.727V184H477.377C476.489 184 475.829 183.796 475.397 183.388C474.965 182.968 474.749 182.284 474.749 181.336V175.234H473.381V174.172H474.749V171.706H476.027V174.172H478.727V175.234H476.027ZM483.325 175.918C483.601 175.306 484.021 174.832 484.585 174.496C485.161 174.16 485.863 173.992 486.691 173.992V175.306H486.349C485.437 175.306 484.705 175.552 484.153 176.044C483.601 176.536 483.325 177.358 483.325 178.51V184H482.065V174.172H483.325V175.918ZM489.271 179.068C489.271 178.06 489.469 177.178 489.865 176.422C490.273 175.654 490.831 175.066 491.539 174.658C492.259 174.238 493.069 174.028 493.969 174.028C494.905 174.028 495.709 174.244 496.381 174.676C497.065 175.108 497.557 175.66 497.857 176.332V174.172H499.117V184H497.857V181.822C497.545 182.494 497.047 183.052 496.363 183.496C495.691 183.928 494.887 184.144 493.951 184.144C493.063 184.144 492.259 183.934 491.539 183.514C490.831 183.094 490.273 182.5 489.865 181.732C489.469 180.964 489.271 180.076 489.271 179.068ZM497.857 179.086C497.857 178.294 497.695 177.598 497.371 176.998C497.047 176.398 496.603 175.936 496.039 175.612C495.487 175.288 494.875 175.126 494.203 175.126C493.507 175.126 492.883 175.282 492.331 175.594C491.779 175.906 491.341 176.362 491.017 176.962C490.705 177.55 490.549 178.252 490.549 179.068C490.549 179.872 490.705 180.58 491.017 181.192C491.341 181.792 491.779 182.254 492.331 182.578C492.883 182.89 493.507 183.046 494.203 183.046C494.875 183.046 495.487 182.884 496.039 182.56C496.603 182.236 497.047 181.774 497.371 181.174C497.695 180.574 497.857 179.878 497.857 179.086ZM503.883 172.318C503.631 172.318 503.415 172.228 503.235 172.048C503.055 171.868 502.965 171.646 502.965 171.382C502.965 171.118 503.055 170.902 503.235 170.734C503.415 170.554 503.631 170.464 503.883 170.464C504.135 170.464 504.351 170.554 504.531 170.734C504.711 170.902 504.801 171.118 504.801 171.382C504.801 171.646 504.711 171.868 504.531 172.048C504.351 172.228 504.135 172.318 503.883 172.318ZM504.513 174.172V184H503.253V174.172H504.513ZM513.234 173.992C514.41 173.992 515.37 174.358 516.114 175.09C516.858 175.81 517.23 176.86 517.23 178.24V184H515.988V178.384C515.988 177.316 515.718 176.5 515.178 175.936C514.65 175.372 513.924 175.09 513 175.09C512.052 175.09 511.296 175.39 510.732 175.99C510.168 176.59 509.886 177.472 509.886 178.636V184H508.626V174.172H509.886V175.846C510.198 175.246 510.648 174.79 511.236 174.478C511.824 174.154 512.49 173.992 513.234 173.992ZM521.907 172.318C521.655 172.318 521.439 172.228 521.259 172.048C521.079 171.868 520.989 171.646 520.989 171.382C520.989 171.118 521.079 170.902 521.259 170.734C521.439 170.554 521.655 170.464 521.907 170.464C522.159 170.464 522.375 170.554 522.555 170.734C522.735 170.902 522.825 171.118 522.825 171.382C522.825 171.646 522.735 171.868 522.555 172.048C522.375 172.228 522.159 172.318 521.907 172.318ZM522.537 174.172V184H521.277V174.172H522.537ZM531.258 173.992C532.434 173.992 533.394 174.358 534.138 175.09C534.882 175.81 535.254 176.86 535.254 178.24V184H534.012V178.384C534.012 177.316 533.742 176.5 533.202 175.936C532.674 175.372 531.948 175.09 531.024 175.09C530.076 175.09 529.32 175.39 528.756 175.99C528.192 176.59 527.91 177.472 527.91 178.636V184H526.65V174.172H527.91V175.846C528.222 175.246 528.672 174.79 529.26 174.478C529.848 174.154 530.514 173.992 531.258 173.992ZM543.423 174.028C544.347 174.028 545.151 174.244 545.835 174.676C546.519 175.108 547.011 175.654 547.311 176.314V174.172H548.571V184.252C548.571 185.152 548.373 185.95 547.977 186.646C547.593 187.342 547.053 187.876 546.357 188.248C545.661 188.632 544.869 188.824 543.981 188.824C542.721 188.824 541.671 188.524 540.831 187.924C540.003 187.324 539.487 186.508 539.283 185.476H540.525C540.741 186.16 541.149 186.706 541.749 187.114C542.361 187.522 543.105 187.726 543.981 187.726C544.617 187.726 545.187 187.588 545.691 187.312C546.195 187.048 546.591 186.652 546.879 186.124C547.167 185.596 547.311 184.972 547.311 184.252V181.822C546.999 182.494 546.501 183.052 545.817 183.496C545.145 183.928 544.347 184.144 543.423 184.144C542.523 184.144 541.713 183.934 540.993 183.514C540.285 183.094 539.727 182.5 539.319 181.732C538.923 180.964 538.725 180.076 538.725 179.068C538.725 178.06 538.923 177.178 539.319 176.422C539.727 175.654 540.285 175.066 540.993 174.658C541.713 174.238 542.523 174.028 543.423 174.028ZM547.311 179.086C547.311 178.294 547.149 177.598 546.825 176.998C546.501 176.398 546.057 175.936 545.493 175.612C544.941 175.288 544.329 175.126 543.657 175.126C542.961 175.126 542.337 175.282 541.785 175.594C541.233 175.906 540.795 176.362 540.471 176.962C540.159 177.55 540.003 178.252 540.003 179.068C540.003 179.872 540.159 180.58 540.471 181.192C540.795 181.792 541.233 182.254 541.785 182.578C542.337 182.89 542.961 183.046 543.657 183.046C544.329 183.046 544.941 182.884 545.493 182.56C546.057 182.236 546.501 181.774 546.825 181.174C547.149 180.574 547.311 179.878 547.311 179.086ZM219.187 208.234V214.336C219.187 214.936 219.301 215.35 219.529 215.578C219.757 215.806 220.159 215.92 220.735 215.92H221.887V217H220.537C219.649 217 218.989 216.796 218.557 216.388C218.125 215.968 217.909 215.284 217.909 214.336V208.234H216.541V207.172H217.909V204.706H219.187V207.172H221.887V208.234H219.187ZM229.527 217.144C228.603 217.144 227.769 216.94 227.025 216.532C226.293 216.112 225.711 215.524 225.279 214.768C224.859 214 224.649 213.106 224.649 212.086C224.649 211.066 224.865 210.178 225.297 209.422C225.729 208.654 226.317 208.066 227.061 207.658C227.805 207.238 228.639 207.028 229.563 207.028C230.487 207.028 231.321 207.238 232.065 207.658C232.821 208.066 233.409 208.654 233.829 209.422C234.261 210.178 234.477 211.066 234.477 212.086C234.477 213.094 234.261 213.982 233.829 214.75C233.397 215.518 232.803 216.112 232.047 216.532C231.291 216.94 230.451 217.144 229.527 217.144ZM229.527 216.046C230.175 216.046 230.775 215.902 231.327 215.614C231.879 215.314 232.323 214.87 232.659 214.282C233.007 213.682 233.181 212.95 233.181 212.086C233.181 211.222 233.013 210.496 232.677 209.908C232.341 209.308 231.897 208.864 231.345 208.576C230.793 208.276 230.193 208.126 229.545 208.126C228.897 208.126 228.297 208.276 227.745 208.576C227.193 208.864 226.749 209.308 226.413 209.908C226.089 210.496 225.927 211.222 225.927 212.086C225.927 212.95 226.089 213.682 226.413 214.282C226.749 214.87 227.187 215.314 227.727 215.614C228.279 215.902 228.879 216.046 229.527 216.046ZM245.871 208.234V214.336C245.871 214.936 245.985 215.35 246.213 215.578C246.441 215.806 246.843 215.92 247.419 215.92H248.571V217H247.221C246.333 217 245.673 216.796 245.241 216.388C244.809 215.968 244.593 215.284 244.593 214.336V208.234H243.225V207.172H244.593V204.706H245.871V207.172H248.571V208.234H245.871ZM256.589 206.992C257.333 206.992 257.999 207.148 258.587 207.46C259.187 207.772 259.655 208.252 259.991 208.9C260.339 209.536 260.513 210.316 260.513 211.24V217H259.271V211.384C259.271 210.316 259.001 209.5 258.461 208.936C257.933 208.372 257.207 208.09 256.283 208.09C255.335 208.09 254.579 208.39 254.015 208.99C253.451 209.59 253.169 210.472 253.169 211.636V217H251.909V203.68H253.169V208.846C253.481 208.258 253.937 207.802 254.537 207.478C255.149 207.154 255.833 206.992 256.589 206.992ZM273.452 211.582C273.452 212.014 273.44 212.344 273.416 212.572H265.262C265.298 213.316 265.478 213.952 265.802 214.48C266.126 215.008 266.552 215.41 267.08 215.686C267.608 215.95 268.184 216.082 268.808 216.082C269.624 216.082 270.308 215.884 270.86 215.488C271.424 215.092 271.796 214.558 271.976 213.886H273.308C273.068 214.846 272.552 215.632 271.76 216.244C270.98 216.844 269.996 217.144 268.808 217.144C267.884 217.144 267.056 216.94 266.324 216.532C265.592 216.112 265.016 215.524 264.596 214.768C264.188 214 263.984 213.106 263.984 212.086C263.984 211.066 264.188 210.172 264.596 209.404C265.004 208.636 265.574 208.048 266.306 207.64C267.038 207.232 267.872 207.028 268.808 207.028C269.744 207.028 270.56 207.232 271.256 207.64C271.964 208.048 272.504 208.6 272.876 209.296C273.26 209.98 273.452 210.742 273.452 211.582ZM272.174 211.546C272.186 210.814 272.036 210.19 271.724 209.674C271.424 209.158 271.01 208.768 270.482 208.504C269.954 208.24 269.378 208.108 268.754 208.108C267.818 208.108 267.02 208.408 266.36 209.008C265.7 209.608 265.334 210.454 265.262 211.546H272.174ZM282.641 212.086C282.641 211.066 282.845 210.178 283.253 209.422C283.661 208.654 284.225 208.066 284.945 207.658C285.665 207.238 286.487 207.028 287.411 207.028C288.623 207.028 289.619 207.328 290.399 207.928C291.191 208.528 291.701 209.344 291.929 210.376H290.579C290.411 209.668 290.045 209.116 289.481 208.72C288.929 208.312 288.239 208.108 287.411 208.108C286.751 208.108 286.157 208.258 285.629 208.558C285.101 208.858 284.681 209.308 284.369 209.908C284.069 210.496 283.919 211.222 283.919 212.086C283.919 212.95 284.069 213.682 284.369 214.282C284.681 214.882 285.101 215.332 285.629 215.632C286.157 215.932 286.751 216.082 287.411 216.082C288.239 216.082 288.929 215.884 289.481 215.488C290.045 215.08 290.411 214.516 290.579 213.796H291.929C291.701 214.804 291.191 215.614 290.399 216.226C289.607 216.838 288.611 217.144 287.411 217.144C286.487 217.144 285.665 216.94 284.945 216.532C284.225 216.112 283.661 215.524 283.253 214.768C282.845 214 282.641 213.106 282.641 212.086ZM300.196 206.992C300.94 206.992 301.606 207.148 302.194 207.46C302.794 207.772 303.262 208.252 303.598 208.9C303.946 209.536 304.12 210.316 304.12 211.24V217H302.878V211.384C302.878 210.316 302.608 209.5 302.068 208.936C301.54 208.372 300.814 208.09 299.89 208.09C298.942 208.09 298.186 208.39 297.622 208.99C297.058 209.59 296.776 210.472 296.776 211.636V217H295.516V203.68H296.776V208.846C297.088 208.258 297.544 207.802 298.144 207.478C298.756 207.154 299.44 206.992 300.196 206.992ZM312.468 217.144C311.544 217.144 310.71 216.94 309.966 216.532C309.234 216.112 308.652 215.524 308.22 214.768C307.8 214 307.59 213.106 307.59 212.086C307.59 211.066 307.806 210.178 308.238 209.422C308.67 208.654 309.258 208.066 310.002 207.658C310.746 207.238 311.58 207.028 312.504 207.028C313.428 207.028 314.262 207.238 315.006 207.658C315.762 208.066 316.35 208.654 316.77 209.422C317.202 210.178 317.418 211.066 317.418 212.086C317.418 213.094 317.202 213.982 316.77 214.75C316.338 215.518 315.744 216.112 314.988 216.532C314.232 216.94 313.392 217.144 312.468 217.144ZM312.468 216.046C313.116 216.046 313.716 215.902 314.268 215.614C314.82 215.314 315.264 214.87 315.6 214.282C315.948 213.682 316.122 212.95 316.122 212.086C316.122 211.222 315.954 210.496 315.618 209.908C315.282 209.308 314.838 208.864 314.286 208.576C313.734 208.276 313.134 208.126 312.486 208.126C311.838 208.126 311.238 208.276 310.686 208.576C310.134 208.864 309.69 209.308 309.354 209.908C309.03 210.496 308.868 211.222 308.868 212.086C308.868 212.95 309.03 213.682 309.354 214.282C309.69 214.87 310.128 215.314 310.668 215.614C311.22 215.902 311.82 216.046 312.468 216.046ZM322.235 208.918C322.511 208.306 322.931 207.832 323.495 207.496C324.071 207.16 324.773 206.992 325.601 206.992V208.306H325.259C324.347 208.306 323.615 208.552 323.063 209.044C322.511 209.536 322.235 210.358 322.235 211.51V217H320.975V207.172H322.235V208.918ZM337.649 211.582C337.649 212.014 337.637 212.344 337.613 212.572H329.459C329.495 213.316 329.675 213.952 329.999 214.48C330.323 215.008 330.749 215.41 331.277 215.686C331.805 215.95 332.381 216.082 333.005 216.082C333.821 216.082 334.505 215.884 335.057 215.488C335.621 215.092 335.993 214.558 336.173 213.886H337.505C337.265 214.846 336.749 215.632 335.957 216.244C335.177 216.844 334.193 217.144 333.005 217.144C332.081 217.144 331.253 216.94 330.521 216.532C329.789 216.112 329.213 215.524 328.793 214.768C328.385 214 328.181 213.106 328.181 212.086C328.181 211.066 328.385 210.172 328.793 209.404C329.201 208.636 329.771 208.048 330.503 207.64C331.235 207.232 332.069 207.028 333.005 207.028C333.941 207.028 334.757 207.232 335.453 207.64C336.161 208.048 336.701 208.6 337.073 209.296C337.457 209.98 337.649 210.742 337.649 211.582ZM336.371 211.546C336.383 210.814 336.233 210.19 335.921 209.674C335.621 209.158 335.207 208.768 334.679 208.504C334.151 208.24 333.575 208.108 332.951 208.108C332.015 208.108 331.217 208.408 330.557 209.008C329.897 209.608 329.531 210.454 329.459 211.546H336.371ZM345.516 217.144C344.592 217.144 343.758 216.94 343.014 216.532C342.282 216.112 341.7 215.524 341.268 214.768C340.848 214 340.638 213.106 340.638 212.086C340.638 211.066 340.854 210.178 341.286 209.422C341.718 208.654 342.306 208.066 343.05 207.658C343.794 207.238 344.628 207.028 345.552 207.028C346.476 207.028 347.31 207.238 348.054 207.658C348.81 208.066 349.398 208.654 349.818 209.422C350.25 210.178 350.466 211.066 350.466 212.086C350.466 213.094 350.25 213.982 349.818 214.75C349.386 215.518 348.792 216.112 348.036 216.532C347.28 216.94 346.44 217.144 345.516 217.144ZM345.516 216.046C346.164 216.046 346.764 215.902 347.316 215.614C347.868 215.314 348.312 214.87 348.648 214.282C348.996 213.682 349.17 212.95 349.17 212.086C349.17 211.222 349.002 210.496 348.666 209.908C348.33 209.308 347.886 208.864 347.334 208.576C346.782 208.276 346.182 208.126 345.534 208.126C344.886 208.126 344.286 208.276 343.734 208.576C343.182 208.864 342.738 209.308 342.402 209.908C342.078 210.496 341.916 211.222 341.916 212.086C341.916 212.95 342.078 213.682 342.402 214.282C342.738 214.87 343.176 215.314 343.716 215.614C344.268 215.902 344.868 216.046 345.516 216.046ZM358.145 207.028C359.069 207.028 359.873 207.244 360.557 207.676C361.241 208.108 361.733 208.654 362.033 209.314V207.172H363.293V217.252C363.293 218.152 363.095 218.95 362.699 219.646C362.315 220.342 361.775 220.876 361.079 221.248C360.383 221.632 359.591 221.824 358.703 221.824C357.443 221.824 356.393 221.524 355.553 220.924C354.725 220.324 354.209 219.508 354.005 218.476H355.247C355.463 219.16 355.871 219.706 356.471 220.114C357.083 220.522 357.827 220.726 358.703 220.726C359.339 220.726 359.909 220.588 360.413 220.312C360.917 220.048 361.313 219.652 361.601 219.124C361.889 218.596 362.033 217.972 362.033 217.252V214.822C361.721 215.494 361.223 216.052 360.539 216.496C359.867 216.928 359.069 217.144 358.145 217.144C357.245 217.144 356.435 216.934 355.715 216.514C355.007 216.094 354.449 215.5 354.041 214.732C353.645 213.964 353.447 213.076 353.447 212.068C353.447 211.06 353.645 210.178 354.041 209.422C354.449 208.654 355.007 208.066 355.715 207.658C356.435 207.238 357.245 207.028 358.145 207.028ZM362.033 212.086C362.033 211.294 361.871 210.598 361.547 209.998C361.223 209.398 360.779 208.936 360.215 208.612C359.663 208.288 359.051 208.126 358.379 208.126C357.683 208.126 357.059 208.282 356.507 208.594C355.955 208.906 355.517 209.362 355.193 209.962C354.881 210.55 354.725 211.252 354.725 212.068C354.725 212.872 354.881 213.58 355.193 214.192C355.517 214.792 355.955 215.254 356.507 215.578C357.059 215.89 357.683 216.046 358.379 216.046C359.051 216.046 359.663 215.884 360.215 215.56C360.779 215.236 361.223 214.774 361.547 214.174C361.871 213.574 362.033 212.878 362.033 212.086ZM368.689 208.918C368.965 208.306 369.385 207.832 369.949 207.496C370.525 207.16 371.227 206.992 372.055 206.992V208.306H371.713C370.801 208.306 370.069 208.552 369.517 209.044C368.965 209.536 368.689 210.358 368.689 211.51V217H367.429V207.172H368.689V208.918ZM374.635 212.068C374.635 211.06 374.833 210.178 375.229 209.422C375.637 208.654 376.195 208.066 376.903 207.658C377.623 207.238 378.433 207.028 379.333 207.028C380.269 207.028 381.073 207.244 381.745 207.676C382.429 208.108 382.921 208.66 383.221 209.332V207.172H384.481V217H383.221V214.822C382.909 215.494 382.411 216.052 381.727 216.496C381.055 216.928 380.251 217.144 379.315 217.144C378.427 217.144 377.623 216.934 376.903 216.514C376.195 216.094 375.637 215.5 375.229 214.732C374.833 213.964 374.635 213.076 374.635 212.068ZM383.221 212.086C383.221 211.294 383.059 210.598 382.735 209.998C382.411 209.398 381.967 208.936 381.403 208.612C380.851 208.288 380.239 208.126 379.567 208.126C378.871 208.126 378.247 208.282 377.695 208.594C377.143 208.906 376.705 209.362 376.381 209.962C376.069 210.55 375.913 211.252 375.913 212.068C375.913 212.872 376.069 213.58 376.381 214.192C376.705 214.792 377.143 215.254 377.695 215.578C378.247 215.89 378.871 216.046 379.567 216.046C380.239 216.046 380.851 215.884 381.403 215.56C381.967 215.236 382.411 214.774 382.735 214.174C383.059 213.574 383.221 212.878 383.221 212.086ZM389.859 209.332C390.171 208.672 390.663 208.126 391.335 207.694C392.019 207.25 392.829 207.028 393.765 207.028C394.653 207.028 395.451 207.238 396.159 207.658C396.879 208.066 397.437 208.654 397.833 209.422C398.241 210.178 398.445 211.06 398.445 212.068C398.445 213.076 398.241 213.964 397.833 214.732C397.437 215.5 396.879 216.094 396.159 216.514C395.451 216.934 394.653 217.144 393.765 217.144C392.841 217.144 392.037 216.928 391.353 216.496C390.669 216.052 390.171 215.5 389.859 214.84V221.644H388.617V207.172H389.859V209.332ZM397.167 212.068C397.167 211.252 397.005 210.55 396.681 209.962C396.369 209.362 395.937 208.906 395.385 208.594C394.833 208.282 394.209 208.126 393.513 208.126C392.841 208.126 392.223 208.288 391.659 208.612C391.107 208.936 390.669 209.398 390.345 209.998C390.021 210.598 389.859 211.294 389.859 212.086C389.859 212.878 390.021 213.574 390.345 214.174C390.669 214.774 391.107 215.236 391.659 215.56C392.223 215.884 392.841 216.046 393.513 216.046C394.209 216.046 394.833 215.89 395.385 215.578C395.937 215.254 396.369 214.792 396.681 214.192C397.005 213.58 397.167 212.872 397.167 212.068ZM406.704 206.992C407.448 206.992 408.114 207.148 408.702 207.46C409.302 207.772 409.77 208.252 410.106 208.9C410.454 209.536 410.628 210.316 410.628 211.24V217H409.386V211.384C409.386 210.316 409.116 209.5 408.576 208.936C408.048 208.372 407.322 208.09 406.398 208.09C405.45 208.09 404.694 208.39 404.13 208.99C403.566 209.59 403.284 210.472 403.284 211.636V217H402.024V203.68H403.284V208.846C403.596 208.258 404.052 207.802 404.652 207.478C405.264 207.154 405.948 206.992 406.704 206.992ZM423.566 211.582C423.566 212.014 423.554 212.344 423.53 212.572H415.376C415.412 213.316 415.592 213.952 415.916 214.48C416.24 215.008 416.666 215.41 417.194 215.686C417.722 215.95 418.298 216.082 418.922 216.082C419.738 216.082 420.422 215.884 420.974 215.488C421.538 215.092 421.91 214.558 422.09 213.886H423.422C423.182 214.846 422.666 215.632 421.874 216.244C421.094 216.844 420.11 217.144 418.922 217.144C417.998 217.144 417.17 216.94 416.438 216.532C415.706 216.112 415.13 215.524 414.71 214.768C414.302 214 414.098 213.106 414.098 212.086C414.098 211.066 414.302 210.172 414.71 209.404C415.118 208.636 415.688 208.048 416.42 207.64C417.152 207.232 417.986 207.028 418.922 207.028C419.858 207.028 420.674 207.232 421.37 207.64C422.078 208.048 422.618 208.6 422.99 209.296C423.374 209.98 423.566 210.742 423.566 211.582ZM422.288 211.546C422.3 210.814 422.15 210.19 421.838 209.674C421.538 209.158 421.124 208.768 420.596 208.504C420.068 208.24 419.492 208.108 418.868 208.108C417.932 208.108 417.134 208.408 416.474 209.008C415.814 209.608 415.448 210.454 415.376 211.546H422.288ZM428.392 208.918C428.668 208.306 429.088 207.832 429.652 207.496C430.228 207.16 430.93 206.992 431.758 206.992V208.306H431.416C430.504 208.306 429.772 208.552 429.22 209.044C428.668 209.536 428.392 210.358 428.392 211.51V217H427.132V207.172H428.392V208.918ZM438.297 217.144C437.169 217.144 436.245 216.886 435.525 216.37C434.817 215.842 434.421 215.128 434.337 214.228H435.633C435.693 214.78 435.951 215.23 436.407 215.578C436.875 215.914 437.499 216.082 438.279 216.082C438.963 216.082 439.497 215.92 439.881 215.596C440.277 215.272 440.475 214.87 440.475 214.39C440.475 214.054 440.367 213.778 440.151 213.562C439.935 213.346 439.659 213.178 439.323 213.058C438.999 212.926 438.555 212.788 437.991 212.644C437.259 212.452 436.665 212.26 436.209 212.068C435.753 211.876 435.363 211.594 435.039 211.222C434.727 210.838 434.571 210.328 434.571 209.692C434.571 209.212 434.715 208.768 435.003 208.36C435.291 207.952 435.699 207.628 436.227 207.388C436.755 207.148 437.355 207.028 438.027 207.028C439.083 207.028 439.935 207.298 440.583 207.838C441.231 208.366 441.579 209.098 441.627 210.034H440.367C440.331 209.458 440.103 208.996 439.683 208.648C439.275 208.288 438.711 208.108 437.991 208.108C437.355 208.108 436.839 208.258 436.443 208.558C436.047 208.858 435.849 209.23 435.849 209.674C435.849 210.058 435.963 210.376 436.191 210.628C436.431 210.868 436.725 211.06 437.073 211.204C437.421 211.336 437.889 211.486 438.477 211.654C439.185 211.846 439.749 212.032 440.169 212.212C440.589 212.392 440.949 212.656 441.249 213.004C441.549 213.352 441.705 213.814 441.717 214.39C441.717 214.918 441.573 215.392 441.285 215.812C440.997 216.22 440.595 216.544 440.079 216.784C439.563 217.024 438.969 217.144 438.297 217.144ZM452.79 209.35C453.114 208.666 453.612 208.108 454.284 207.676C454.968 207.244 455.772 207.028 456.696 207.028C457.596 207.028 458.4 207.238 459.108 207.658C459.816 208.066 460.368 208.654 460.764 209.422C461.172 210.178 461.376 211.06 461.376 212.068C461.376 213.076 461.172 213.964 460.764 214.732C460.368 215.5 459.81 216.094 459.09 216.514C458.382 216.934 457.584 217.144 456.696 217.144C455.76 217.144 454.95 216.934 454.266 216.514C453.594 216.082 453.102 215.524 452.79 214.84V217H451.548V203.68H452.79V209.35ZM460.098 212.068C460.098 211.252 459.936 210.55 459.612 209.962C459.3 209.362 458.868 208.906 458.316 208.594C457.764 208.282 457.14 208.126 456.444 208.126C455.772 208.126 455.154 208.288 454.59 208.612C454.038 208.936 453.6 209.398 453.276 209.998C452.952 210.598 452.79 211.294 452.79 212.086C452.79 212.878 452.952 213.574 453.276 214.174C453.6 214.774 454.038 215.236 454.59 215.56C455.154 215.884 455.772 216.046 456.444 216.046C457.14 216.046 457.764 215.89 458.316 215.578C458.868 215.254 459.3 214.792 459.612 214.192C459.936 213.58 460.098 212.872 460.098 212.068ZM473.847 211.582C473.847 212.014 473.835 212.344 473.811 212.572H465.657C465.693 213.316 465.873 213.952 466.197 214.48C466.521 215.008 466.947 215.41 467.475 215.686C468.003 215.95 468.579 216.082 469.203 216.082C470.019 216.082 470.703 215.884 471.255 215.488C471.819 215.092 472.191 214.558 472.371 213.886H473.703C473.463 214.846 472.947 215.632 472.155 216.244C471.375 216.844 470.391 217.144 469.203 217.144C468.279 217.144 467.451 216.94 466.719 216.532C465.987 216.112 465.411 215.524 464.991 214.768C464.583 214 464.379 213.106 464.379 212.086C464.379 211.066 464.583 210.172 464.991 209.404C465.399 208.636 465.969 208.048 466.701 207.64C467.433 207.232 468.267 207.028 469.203 207.028C470.139 207.028 470.955 207.232 471.651 207.64C472.359 208.048 472.899 208.6 473.271 209.296C473.655 209.98 473.847 210.742 473.847 211.582ZM472.569 211.546C472.581 210.814 472.431 210.19 472.119 209.674C471.819 209.158 471.405 208.768 470.877 208.504C470.349 208.24 469.773 208.108 469.149 208.108C468.213 208.108 467.415 208.408 466.755 209.008C466.095 209.608 465.729 210.454 465.657 211.546H472.569ZM481.282 208.234H478.996V217H477.736V208.234H476.368V207.172H477.736V206.488C477.736 205.42 478.006 204.634 478.546 204.13C479.098 203.626 479.986 203.374 481.21 203.374V204.454C480.394 204.454 479.818 204.61 479.482 204.922C479.158 205.234 478.996 205.756 478.996 206.488V207.172H481.282V208.234ZM488.828 217.144C487.904 217.144 487.07 216.94 486.326 216.532C485.594 216.112 485.012 215.524 484.58 214.768C484.16 214 483.95 213.106 483.95 212.086C483.95 211.066 484.166 210.178 484.598 209.422C485.03 208.654 485.618 208.066 486.362 207.658C487.106 207.238 487.94 207.028 488.864 207.028C489.788 207.028 490.622 207.238 491.366 207.658C492.122 208.066 492.71 208.654 493.13 209.422C493.562 210.178 493.778 211.066 493.778 212.086C493.778 213.094 493.562 213.982 493.13 214.75C492.698 215.518 492.104 216.112 491.348 216.532C490.592 216.94 489.752 217.144 488.828 217.144ZM488.828 216.046C489.476 216.046 490.076 215.902 490.628 215.614C491.18 215.314 491.624 214.87 491.96 214.282C492.308 213.682 492.482 212.95 492.482 212.086C492.482 211.222 492.314 210.496 491.978 209.908C491.642 209.308 491.198 208.864 490.646 208.576C490.094 208.276 489.494 208.126 488.846 208.126C488.198 208.126 487.598 208.276 487.046 208.576C486.494 208.864 486.05 209.308 485.714 209.908C485.39 210.496 485.228 211.222 485.228 212.086C485.228 212.95 485.39 213.682 485.714 214.282C486.05 214.87 486.488 215.314 487.028 215.614C487.58 215.902 488.18 216.046 488.828 216.046ZM498.594 208.918C498.87 208.306 499.29 207.832 499.854 207.496C500.43 207.16 501.132 206.992 501.96 206.992V208.306H501.618C500.706 208.306 499.974 208.552 499.422 209.044C498.87 209.536 498.594 210.358 498.594 211.51V217H497.334V207.172H498.594V208.918ZM514.008 211.582C514.008 212.014 513.996 212.344 513.972 212.572H505.818C505.854 213.316 506.034 213.952 506.358 214.48C506.682 215.008 507.108 215.41 507.636 215.686C508.164 215.95 508.74 216.082 509.364 216.082C510.18 216.082 510.864 215.884 511.416 215.488C511.98 215.092 512.352 214.558 512.532 213.886H513.864C513.624 214.846 513.108 215.632 512.316 216.244C511.536 216.844 510.552 217.144 509.364 217.144C508.44 217.144 507.612 216.94 506.88 216.532C506.148 216.112 505.572 215.524 505.152 214.768C504.744 214 504.54 213.106 504.54 212.086C504.54 211.066 504.744 210.172 505.152 209.404C505.56 208.636 506.13 208.048 506.862 207.64C507.594 207.232 508.428 207.028 509.364 207.028C510.3 207.028 511.116 207.232 511.812 207.64C512.52 208.048 513.06 208.6 513.432 209.296C513.816 209.98 514.008 210.742 514.008 211.582ZM512.73 211.546C512.742 210.814 512.592 210.19 512.28 209.674C511.98 209.158 511.566 208.768 511.038 208.504C510.51 208.24 509.934 208.108 509.31 208.108C508.374 208.108 507.576 208.408 506.916 209.008C506.256 209.608 505.89 210.454 505.818 211.546H512.73ZM525.033 203.68V217H523.773V203.68H525.033ZM529.776 205.318C529.524 205.318 529.308 205.228 529.128 205.048C528.948 204.868 528.858 204.646 528.858 204.382C528.858 204.118 528.948 203.902 529.128 203.734C529.308 203.554 529.524 203.464 529.776 203.464C530.028 203.464 530.244 203.554 530.424 203.734C530.604 203.902 530.694 204.118 530.694 204.382C530.694 204.646 530.604 204.868 530.424 205.048C530.244 205.228 530.028 205.318 529.776 205.318ZM530.406 207.172V217H529.146V207.172H530.406ZM537.903 217.144C536.775 217.144 535.851 216.886 535.131 216.37C534.423 215.842 534.027 215.128 533.943 214.228H535.239C535.299 214.78 535.557 215.23 536.013 215.578C536.481 215.914 537.105 216.082 537.885 216.082C538.569 216.082 539.103 215.92 539.487 215.596C539.883 215.272 540.081 214.87 540.081 214.39C540.081 214.054 539.973 213.778 539.757 213.562C539.541 213.346 539.265 213.178 538.929 213.058C538.605 212.926 538.161 212.788 537.597 212.644C536.865 212.452 536.271 212.26 535.815 212.068C535.359 211.876 534.969 211.594 534.645 211.222C534.333 210.838 534.177 210.328 534.177 209.692C534.177 209.212 534.321 208.768 534.609 208.36C534.897 207.952 535.305 207.628 535.833 207.388C536.361 207.148 536.961 207.028 537.633 207.028C538.689 207.028 539.541 207.298 540.189 207.838C540.837 208.366 541.185 209.098 541.233 210.034H539.973C539.937 209.458 539.709 208.996 539.289 208.648C538.881 208.288 538.317 208.108 537.597 208.108C536.961 208.108 536.445 208.258 536.049 208.558C535.653 208.858 535.455 209.23 535.455 209.674C535.455 210.058 535.569 210.376 535.797 210.628C536.037 210.868 536.331 211.06 536.679 211.204C537.027 211.336 537.495 211.486 538.083 211.654C538.791 211.846 539.355 212.032 539.775 212.212C540.195 212.392 540.555 212.656 540.855 213.004C541.155 213.352 541.311 213.814 541.323 214.39C541.323 214.918 541.179 215.392 540.891 215.812C540.603 216.22 540.201 216.544 539.685 216.784C539.169 217.024 538.575 217.144 537.903 217.144ZM546.593 208.234V214.336C546.593 214.936 546.707 215.35 546.935 215.578C547.163 215.806 547.565 215.92 548.141 215.92H549.293V217H547.943C547.055 217 546.395 216.796 545.963 216.388C545.531 215.968 545.315 215.284 545.315 214.336V208.234H543.947V207.172H545.315V204.706H546.593V207.172H549.293V208.234H546.593ZM553.261 205.318C553.009 205.318 552.793 205.228 552.613 205.048C552.433 204.868 552.343 204.646 552.343 204.382C552.343 204.118 552.433 203.902 552.613 203.734C552.793 203.554 553.009 203.464 553.261 203.464C553.513 203.464 553.729 203.554 553.909 203.734C554.089 203.902 554.179 204.118 554.179 204.382C554.179 204.646 554.089 204.868 553.909 205.048C553.729 205.228 553.513 205.318 553.261 205.318ZM553.891 207.172V217H552.631V207.172H553.891ZM562.612 206.992C563.788 206.992 564.748 207.358 565.492 208.09C566.236 208.81 566.608 209.86 566.608 211.24V217H565.366V211.384C565.366 210.316 565.096 209.5 564.556 208.936C564.028 208.372 563.302 208.09 562.378 208.09C561.43 208.09 560.674 208.39 560.11 208.99C559.546 209.59 559.264 210.472 559.264 211.636V217H558.004V207.172H559.264V208.846C559.576 208.246 560.026 207.79 560.614 207.478C561.202 207.154 561.868 206.992 562.612 206.992ZM574.777 207.028C575.701 207.028 576.505 207.244 577.189 207.676C577.873 208.108 578.365 208.654 578.665 209.314V207.172H579.925V217.252C579.925 218.152 579.727 218.95 579.331 219.646C578.947 220.342 578.407 220.876 577.711 221.248C577.015 221.632 576.223 221.824 575.335 221.824C574.075 221.824 573.025 221.524 572.185 220.924C571.357 220.324 570.841 219.508 570.637 218.476H571.879C572.095 219.16 572.503 219.706 573.103 220.114C573.715 220.522 574.459 220.726 575.335 220.726C575.971 220.726 576.541 220.588 577.045 220.312C577.549 220.048 577.945 219.652 578.233 219.124C578.521 218.596 578.665 217.972 578.665 217.252V214.822C578.353 215.494 577.855 216.052 577.171 216.496C576.499 216.928 575.701 217.144 574.777 217.144C573.877 217.144 573.067 216.934 572.347 216.514C571.639 216.094 571.081 215.5 570.673 214.732C570.277 213.964 570.079 213.076 570.079 212.068C570.079 211.06 570.277 210.178 570.673 209.422C571.081 208.654 571.639 208.066 572.347 207.658C573.067 207.238 573.877 207.028 574.777 207.028ZM578.665 212.086C578.665 211.294 578.503 210.598 578.179 209.998C577.855 209.398 577.411 208.936 576.847 208.612C576.295 208.288 575.683 208.126 575.011 208.126C574.315 208.126 573.691 208.282 573.139 208.594C572.587 208.906 572.149 209.362 571.825 209.962C571.513 210.55 571.357 211.252 571.357 212.068C571.357 212.872 571.513 213.58 571.825 214.192C572.149 214.792 572.587 215.254 573.139 215.578C573.691 215.89 574.315 216.046 575.011 216.046C575.683 216.046 576.295 215.884 576.847 215.56C577.411 215.236 577.855 214.774 578.179 214.174C578.503 213.574 578.665 212.878 578.665 212.086ZM584.277 217.09C584.013 217.09 583.791 217 583.611 216.82C583.443 216.64 583.359 216.418 583.359 216.154C583.359 215.89 583.443 215.674 583.611 215.506C583.791 215.326 584.013 215.236 584.277 215.236C584.529 215.236 584.739 215.326 584.907 215.506C585.087 215.674 585.177 215.89 585.177 216.154C585.177 216.418 585.087 216.64 584.907 216.82C584.739 217 584.529 217.09 584.277 217.09Z" fill="#F6F6F6"/>
<path d="M418.001 53.993C416.113 52.1251 413.605 51.1016 410.942 51.1016C408.278 51.1016 405.77 52.1251 403.882 53.993L401.866 55.9888L403.779 57.8823L405.796 55.8865C407.166 54.5303 409.002 53.7627 410.942 53.7627C412.881 53.7627 414.717 54.5047 416.087 55.8865C417.458 57.2426 418.234 59.0594 418.234 60.9784C418.234 62.8975 417.484 64.7142 416.087 66.0704L413.217 68.9106L398.142 53.993C396.254 52.1251 393.746 51.1016 391.083 51.1016C388.419 51.1016 385.911 52.1251 384.024 53.993C382.136 55.8609 381.102 58.3429 381.102 60.9784C381.102 63.5372 382.084 65.9425 383.868 67.8104L385.782 65.9169C384.515 64.5607 383.817 62.8207 383.817 60.9784C383.817 59.0594 384.567 57.2426 385.937 55.8865C387.307 54.5303 389.143 53.7627 391.083 53.7627C392.945 53.7627 394.729 54.4536 396.073 55.7074C396.125 55.7585 396.953 56.5773 396.953 56.5773L384.748 68.6803L401.012 84.775L409.856 76.024L401.84 68.0918L399.926 69.9853L406.029 76.024L401.012 80.988L388.549 68.6803L398.866 58.4708L413.217 72.672L417.975 67.9639C419.863 66.096 420.897 63.614 420.897 60.9784C420.923 58.3429 419.863 55.8609 418.001 53.993Z" fill="#F6F6F6"/>
<path d="M401 92.4286L380.448 71.9071C377.585 69.0484 376 65.2197 376 61.1869C376 57.1286 377.585 53.3255 380.448 50.4667C383.311 47.5825 387.12 46 391.184 46C394.814 46 398.239 47.2507 401 49.5734C403.735 47.2507 407.186 46 410.816 46C414.88 46 418.689 47.5825 421.552 50.4412C424.415 53.2999 426 57.1286 426 61.1614C426 65.2197 424.415 69.0229 421.552 71.8816L401 92.4286ZM391.184 48.6545C387.835 48.6545 384.691 49.9563 382.314 52.33C379.937 54.7038 378.658 57.8432 378.658 61.1869C378.658 64.5306 379.962 67.6701 382.339 70.0438L401 88.6765L419.661 70.0438C422.038 67.6701 423.342 64.5306 423.342 61.1869C423.342 57.8432 422.038 54.7038 419.661 52.33C417.283 49.9563 414.139 48.6545 410.79 48.6545C407.442 48.6545 404.298 49.9563 401.92 52.33L400.974 53.2744L400.029 52.33C397.677 49.9563 394.533 48.6545 391.184 48.6545Z" fill="#F6F6F6"/>
</g>
</svg>
