<svg width="802" height="285" viewBox="0 0 802 285" fill="none" xmlns="http://www.w3.org/2000/svg">
<mask id="mask0" style="mask-type:alpha" maskUnits="userSpaceOnUse" x="0" y="0" width="802" height="285">
<rect width="802" height="285" rx="17" fill="#FAC725"/>
</mask>
<g mask="url(#mask0)">
<rect width="802" height="285" rx="17" fill="#FF3B63"/>
<path d="M126.408 118.908V137.448C126.408 139.512 125.772 141.168 124.5 142.416C123.228 143.64 121.548 144.252 119.46 144.252C117.348 144.252 115.656 143.628 114.384 142.38C113.112 141.108 112.476 139.38 112.476 137.196H115.752C115.776 138.42 116.088 139.416 116.688 140.184C117.312 140.952 118.236 141.336 119.46 141.336C120.684 141.336 121.596 140.976 122.196 140.256C122.796 139.512 123.096 138.576 123.096 137.448V118.908H126.408ZM150.358 124.272V144H147.082V141.084C146.458 142.092 145.582 142.884 144.454 143.46C143.35 144.012 142.126 144.288 140.782 144.288C139.246 144.288 137.866 143.976 136.642 143.352C135.418 142.704 134.446 141.744 133.726 140.472C133.03 139.2 132.682 137.652 132.682 135.828V124.272H135.922V135.396C135.922 137.34 136.414 138.84 137.398 139.896C138.382 140.928 139.726 141.444 141.43 141.444C143.182 141.444 144.562 140.904 145.57 139.824C146.578 138.744 147.082 137.172 147.082 135.108V124.272H150.358ZM162.873 144.324C161.361 144.324 160.005 144.072 158.805 143.568C157.605 143.04 156.657 142.32 155.961 141.408C155.265 140.472 154.881 139.404 154.809 138.204H158.193C158.289 139.188 158.745 139.992 159.561 140.616C160.401 141.24 161.493 141.552 162.837 141.552C164.085 141.552 165.069 141.276 165.789 140.724C166.509 140.172 166.869 139.476 166.869 138.636C166.869 137.772 166.485 137.136 165.717 136.728C164.949 136.296 163.761 135.876 162.153 135.468C160.689 135.084 159.489 134.7 158.553 134.316C157.641 133.908 156.849 133.32 156.177 132.552C155.529 131.76 155.205 130.728 155.205 129.456C155.205 128.448 155.505 127.524 156.105 126.684C156.705 125.844 157.557 125.184 158.661 124.704C159.765 124.2 161.025 123.948 162.441 123.948C164.625 123.948 166.389 124.5 167.733 125.604C169.077 126.708 169.797 128.22 169.893 130.14H166.617C166.545 129.108 166.125 128.28 165.357 127.656C164.613 127.032 163.605 126.72 162.333 126.72C161.157 126.72 160.221 126.972 159.525 127.476C158.829 127.98 158.481 128.64 158.481 129.456C158.481 130.104 158.685 130.644 159.093 131.076C159.525 131.484 160.053 131.82 160.677 132.084C161.325 132.324 162.213 132.6 163.341 132.912C164.757 133.296 165.909 133.68 166.797 134.064C167.685 134.424 168.441 134.976 169.065 135.72C169.713 136.464 170.049 137.436 170.073 138.636C170.073 139.716 169.773 140.688 169.173 141.552C168.573 142.416 167.721 143.1 166.617 143.604C165.537 144.084 164.289 144.324 162.873 144.324ZM178.694 126.972V138.6C178.694 139.56 178.898 140.244 179.306 140.652C179.714 141.036 180.422 141.228 181.43 141.228H183.842V144H180.89C179.066 144 177.698 143.58 176.786 142.74C175.874 141.9 175.418 140.52 175.418 138.6V126.972H172.862V124.272H175.418V119.304H178.694V124.272H183.842V126.972H178.694ZM189.503 121.068C188.879 121.068 188.351 120.852 187.919 120.42C187.487 119.988 187.271 119.46 187.271 118.836C187.271 118.212 187.487 117.684 187.919 117.252C188.351 116.82 188.879 116.604 189.503 116.604C190.103 116.604 190.607 116.82 191.015 117.252C191.447 117.684 191.663 118.212 191.663 118.836C191.663 119.46 191.447 119.988 191.015 120.42C190.607 120.852 190.103 121.068 189.503 121.068ZM191.087 124.272V144H187.811V124.272H191.087ZM204.698 126.972H200.558V144H197.282V126.972H194.726V124.272H197.282V122.868C197.282 120.66 197.846 119.052 198.974 118.044C200.126 117.012 201.962 116.496 204.482 116.496V119.232C203.042 119.232 202.022 119.52 201.422 120.096C200.846 120.648 200.558 121.572 200.558 122.868V124.272H204.698V126.972ZM210.21 121.068C209.586 121.068 209.058 120.852 208.626 120.42C208.194 119.988 207.978 119.46 207.978 118.836C207.978 118.212 208.194 117.684 208.626 117.252C209.058 116.82 209.586 116.604 210.21 116.604C210.81 116.604 211.314 116.82 211.722 117.252C212.154 117.684 212.37 118.212 212.37 118.836C212.37 119.46 212.154 119.988 211.722 120.42C211.314 120.852 210.81 121.068 210.21 121.068ZM211.794 124.272V144H208.518V124.272H211.794ZM235.377 133.38C235.377 134.004 235.341 134.664 235.269 135.36H219.501C219.621 137.304 220.281 138.828 221.481 139.932C222.705 141.012 224.181 141.552 225.909 141.552C227.325 141.552 228.501 141.228 229.437 140.58C230.397 139.908 231.069 139.02 231.453 137.916H234.981C234.453 139.812 233.397 141.36 231.813 142.56C230.229 143.736 228.261 144.324 225.909 144.324C224.037 144.324 222.357 143.904 220.869 143.064C219.405 142.224 218.253 141.036 217.413 139.5C216.573 137.94 216.153 136.14 216.153 134.1C216.153 132.06 216.561 130.272 217.377 128.736C218.193 127.2 219.333 126.024 220.797 125.208C222.285 124.368 223.989 123.948 225.909 123.948C227.781 123.948 229.437 124.356 230.877 125.172C232.317 125.988 233.421 127.116 234.189 128.556C234.981 129.972 235.377 131.58 235.377 133.38ZM231.993 132.696C231.993 131.448 231.717 130.38 231.165 129.492C230.613 128.58 229.857 127.896 228.897 127.44C227.961 126.96 226.917 126.72 225.765 126.72C224.109 126.72 222.693 127.248 221.517 128.304C220.365 129.36 219.705 130.824 219.537 132.696H231.993ZM238.478 134.064C238.478 132.048 238.886 130.284 239.702 128.772C240.518 127.236 241.634 126.048 243.05 125.208C244.49 124.368 246.098 123.948 247.874 123.948C249.41 123.948 250.838 124.308 252.158 125.028C253.478 125.724 254.486 126.648 255.182 127.8V117.36H258.494V144H255.182V140.292C254.534 141.468 253.574 142.44 252.302 143.208C251.03 143.952 249.542 144.324 247.838 144.324C246.086 144.324 244.49 143.892 243.05 143.028C241.634 142.164 240.518 140.952 239.702 139.392C238.886 137.832 238.478 136.056 238.478 134.064ZM255.182 134.1C255.182 132.612 254.882 131.316 254.282 130.212C253.682 129.108 252.866 128.268 251.834 127.692C250.826 127.092 249.71 126.792 248.486 126.792C247.262 126.792 246.146 127.08 245.138 127.656C244.13 128.232 243.326 129.072 242.726 130.176C242.126 131.28 241.826 132.576 241.826 134.064C241.826 135.576 242.126 136.896 242.726 138.024C243.326 139.128 244.13 139.98 245.138 140.58C246.146 141.156 247.262 141.444 248.486 141.444C249.71 141.444 250.826 141.156 251.834 140.58C252.866 139.98 253.682 139.128 254.282 138.024C254.882 136.896 255.182 135.588 255.182 134.1ZM276.903 127.908C277.551 126.78 278.511 125.844 279.783 125.1C281.079 124.332 282.579 123.948 284.283 123.948C286.035 123.948 287.619 124.368 289.035 125.208C290.475 126.048 291.603 127.236 292.419 128.772C293.235 130.284 293.643 132.048 293.643 134.064C293.643 136.056 293.235 137.832 292.419 139.392C291.603 140.952 290.475 142.164 289.035 143.028C287.619 143.892 286.035 144.324 284.283 144.324C282.603 144.324 281.115 143.952 279.819 143.208C278.547 142.44 277.575 141.492 276.903 140.364V153.36H273.627V124.272H276.903V127.908ZM290.295 134.064C290.295 132.576 289.995 131.28 289.395 130.176C288.795 129.072 287.979 128.232 286.947 127.656C285.939 127.08 284.823 126.792 283.599 126.792C282.399 126.792 281.283 127.092 280.251 127.692C279.243 128.268 278.427 129.12 277.803 130.248C277.203 131.352 276.903 132.636 276.903 134.1C276.903 135.588 277.203 136.896 277.803 138.024C278.427 139.128 279.243 139.98 280.251 140.58C281.283 141.156 282.399 141.444 283.599 141.444C284.823 141.444 285.939 141.156 286.947 140.58C287.979 139.98 288.795 139.128 289.395 138.024C289.995 136.896 290.295 135.576 290.295 134.064ZM296.732 134.064C296.732 132.048 297.14 130.284 297.956 128.772C298.772 127.236 299.888 126.048 301.304 125.208C302.744 124.368 304.34 123.948 306.092 123.948C307.82 123.948 309.32 124.32 310.592 125.064C311.864 125.808 312.812 126.744 313.436 127.872V124.272H316.748V144H313.436V140.328C312.788 141.48 311.816 142.44 310.52 143.208C309.248 143.952 307.76 144.324 306.056 144.324C304.304 144.324 302.72 143.892 301.304 143.028C299.888 142.164 298.772 140.952 297.956 139.392C297.14 137.832 296.732 136.056 296.732 134.064ZM313.436 134.1C313.436 132.612 313.136 131.316 312.536 130.212C311.936 129.108 311.12 128.268 310.088 127.692C309.08 127.092 307.964 126.792 306.74 126.792C305.516 126.792 304.4 127.08 303.392 127.656C302.384 128.232 301.58 129.072 300.98 130.176C300.38 131.28 300.08 132.576 300.08 134.064C300.08 135.576 300.38 136.896 300.98 138.024C301.58 139.128 302.384 139.98 303.392 140.58C304.4 141.156 305.516 141.444 306.74 141.444C307.964 141.444 309.08 141.156 310.088 140.58C311.12 139.98 311.936 139.128 312.536 138.024C313.136 136.896 313.436 135.588 313.436 134.1ZM339.276 124.272L327.396 153.288H324.012L327.9 143.784L319.944 124.272H323.58L329.772 140.256L335.892 124.272H339.276ZM356.163 126.972V138.6C356.163 139.56 356.367 140.244 356.775 140.652C357.183 141.036 357.891 141.228 358.899 141.228H361.311V144H358.359C356.535 144 355.167 143.58 354.255 142.74C353.343 141.9 352.887 140.52 352.887 138.6V126.972H350.331V124.272H352.887V119.304H356.163V124.272H361.311V126.972H356.163ZM373.884 144.324C372.036 144.324 370.356 143.904 368.844 143.064C367.356 142.224 366.18 141.036 365.316 139.5C364.476 137.94 364.056 136.14 364.056 134.1C364.056 132.084 364.488 130.308 365.352 128.772C366.24 127.212 367.44 126.024 368.952 125.208C370.464 124.368 372.156 123.948 374.028 123.948C375.9 123.948 377.592 124.368 379.104 125.208C380.616 126.024 381.804 127.2 382.668 128.736C383.556 130.272 384 132.06 384 134.1C384 136.14 383.544 137.94 382.632 139.5C381.744 141.036 380.532 142.224 378.996 143.064C377.46 143.904 375.756 144.324 373.884 144.324ZM373.884 141.444C375.06 141.444 376.164 141.168 377.196 140.616C378.228 140.064 379.056 139.236 379.68 138.132C380.328 137.028 380.652 135.684 380.652 134.1C380.652 132.516 380.34 131.172 379.716 130.068C379.092 128.964 378.276 128.148 377.268 127.62C376.26 127.068 375.168 126.792 373.992 126.792C372.792 126.792 371.688 127.068 370.68 127.62C369.696 128.148 368.904 128.964 368.304 130.068C367.704 131.172 367.404 132.516 367.404 134.1C367.404 135.708 367.692 137.064 368.268 138.168C368.868 139.272 369.66 140.1 370.644 140.652C371.628 141.18 372.708 141.444 373.884 141.444ZM396.681 131.436C396.681 128.988 397.233 126.792 398.337 124.848C399.441 122.88 400.941 121.344 402.837 120.24C404.757 119.136 406.881 118.584 409.209 118.584C411.945 118.584 414.333 119.244 416.373 120.564C418.413 121.884 419.901 123.756 420.837 126.18H416.913C416.217 124.668 415.209 123.504 413.889 122.688C412.593 121.872 411.033 121.464 409.209 121.464C407.457 121.464 405.885 121.872 404.493 122.688C403.101 123.504 402.009 124.668 401.217 126.18C400.425 127.668 400.029 129.42 400.029 131.436C400.029 133.428 400.425 135.18 401.217 136.692C402.009 138.18 403.101 139.332 404.493 140.148C405.885 140.964 407.457 141.372 409.209 141.372C411.033 141.372 412.593 140.976 413.889 140.184C415.209 139.368 416.217 138.204 416.913 136.692H420.837C419.901 139.092 418.413 140.952 416.373 142.272C414.333 143.568 411.945 144.216 409.209 144.216C406.881 144.216 404.757 143.676 402.837 142.596C400.941 141.492 399.441 139.968 398.337 138.024C397.233 136.08 396.681 133.884 396.681 131.436ZM435.505 123.912C436.993 123.912 438.337 124.236 439.537 124.884C440.737 125.508 441.673 126.456 442.345 127.728C443.041 129 443.389 130.548 443.389 132.372V144H440.149V132.84C440.149 130.872 439.657 129.372 438.673 128.34C437.689 127.284 436.345 126.756 434.641 126.756C432.913 126.756 431.533 127.296 430.501 128.376C429.493 129.456 428.989 131.028 428.989 133.092V144H425.713V117.36H428.989V127.08C429.637 126.072 430.525 125.292 431.653 124.74C432.805 124.188 434.089 123.912 435.505 123.912ZM457.345 144.324C455.497 144.324 453.817 143.904 452.305 143.064C450.817 142.224 449.641 141.036 448.777 139.5C447.937 137.94 447.517 136.14 447.517 134.1C447.517 132.084 447.949 130.308 448.813 128.772C449.701 127.212 450.901 126.024 452.413 125.208C453.925 124.368 455.617 123.948 457.489 123.948C459.361 123.948 461.053 124.368 462.565 125.208C464.077 126.024 465.265 127.2 466.129 128.736C467.017 130.272 467.461 132.06 467.461 134.1C467.461 136.14 467.005 137.94 466.093 139.5C465.205 141.036 463.993 142.224 462.457 143.064C460.921 143.904 459.217 144.324 457.345 144.324ZM457.345 141.444C458.521 141.444 459.625 141.168 460.657 140.616C461.689 140.064 462.517 139.236 463.141 138.132C463.789 137.028 464.113 135.684 464.113 134.1C464.113 132.516 463.801 131.172 463.177 130.068C462.553 128.964 461.737 128.148 460.729 127.62C459.721 127.068 458.629 126.792 457.453 126.792C456.253 126.792 455.149 127.068 454.141 127.62C453.157 128.148 452.365 128.964 451.765 130.068C451.165 131.172 450.865 132.516 450.865 134.1C450.865 135.708 451.153 137.064 451.729 138.168C452.329 139.272 453.121 140.1 454.105 140.652C455.089 141.18 456.169 141.444 457.345 141.444ZM475.044 127.476C475.62 126.348 476.436 125.472 477.492 124.848C478.572 124.224 479.88 123.912 481.416 123.912V127.296H480.552C476.88 127.296 475.044 129.288 475.044 133.272V144H471.768V124.272H475.044V127.476ZM503.198 133.38C503.198 134.004 503.162 134.664 503.09 135.36H487.322C487.442 137.304 488.102 138.828 489.302 139.932C490.526 141.012 492.002 141.552 493.73 141.552C495.146 141.552 496.322 141.228 497.258 140.58C498.218 139.908 498.89 139.02 499.274 137.916H502.802C502.274 139.812 501.218 141.36 499.634 142.56C498.05 143.736 496.082 144.324 493.73 144.324C491.858 144.324 490.178 143.904 488.69 143.064C487.226 142.224 486.074 141.036 485.234 139.5C484.394 137.94 483.974 136.14 483.974 134.1C483.974 132.06 484.382 130.272 485.198 128.736C486.014 127.2 487.154 126.024 488.618 125.208C490.106 124.368 491.81 123.948 493.73 123.948C495.602 123.948 497.258 124.356 498.698 125.172C500.138 125.988 501.242 127.116 502.01 128.556C502.802 129.972 503.198 131.58 503.198 133.38ZM499.814 132.696C499.814 131.448 499.538 130.38 498.986 129.492C498.434 128.58 497.678 127.896 496.718 127.44C495.782 126.96 494.738 126.72 493.586 126.72C491.93 126.72 490.514 127.248 489.338 128.304C488.186 129.36 487.526 130.824 487.358 132.696H499.814ZM516.126 144.324C514.278 144.324 512.598 143.904 511.086 143.064C509.598 142.224 508.422 141.036 507.558 139.5C506.718 137.94 506.298 136.14 506.298 134.1C506.298 132.084 506.73 130.308 507.594 128.772C508.482 127.212 509.682 126.024 511.194 125.208C512.706 124.368 514.398 123.948 516.27 123.948C518.142 123.948 519.834 124.368 521.346 125.208C522.858 126.024 524.046 127.2 524.91 128.736C525.798 130.272 526.242 132.06 526.242 134.1C526.242 136.14 525.786 137.94 524.874 139.5C523.986 141.036 522.774 142.224 521.238 143.064C519.702 143.904 517.998 144.324 516.126 144.324ZM516.126 141.444C517.302 141.444 518.406 141.168 519.438 140.616C520.47 140.064 521.298 139.236 521.922 138.132C522.57 137.028 522.894 135.684 522.894 134.1C522.894 132.516 522.582 131.172 521.958 130.068C521.334 128.964 520.518 128.148 519.51 127.62C518.502 127.068 517.41 126.792 516.234 126.792C515.034 126.792 513.93 127.068 512.922 127.62C511.938 128.148 511.146 128.964 510.546 130.068C509.946 131.172 509.646 132.516 509.646 134.1C509.646 135.708 509.934 137.064 510.51 138.168C511.11 139.272 511.902 140.1 512.886 140.652C513.87 141.18 514.95 141.444 516.126 141.444ZM538.685 123.948C540.389 123.948 541.877 124.32 543.149 125.064C544.445 125.808 545.405 126.744 546.029 127.872V124.272H549.341V144.432C549.341 146.232 548.957 147.828 548.189 149.22C547.421 150.636 546.317 151.74 544.877 152.532C543.461 153.324 541.805 153.72 539.909 153.72C537.317 153.72 535.157 153.108 533.429 151.884C531.701 150.66 530.681 148.992 530.369 146.88H533.609C533.969 148.08 534.713 149.04 535.841 149.76C536.969 150.504 538.325 150.876 539.909 150.876C541.709 150.876 543.173 150.312 544.301 149.184C545.453 148.056 546.029 146.472 546.029 144.432V140.292C545.381 141.444 544.421 142.404 543.149 143.172C541.877 143.94 540.389 144.324 538.685 144.324C536.933 144.324 535.337 143.892 533.897 143.028C532.481 142.164 531.365 140.952 530.549 139.392C529.733 137.832 529.325 136.056 529.325 134.064C529.325 132.048 529.733 130.284 530.549 128.772C531.365 127.236 532.481 126.048 533.897 125.208C535.337 124.368 536.933 123.948 538.685 123.948ZM546.029 134.1C546.029 132.612 545.729 131.316 545.129 130.212C544.529 129.108 543.713 128.268 542.681 127.692C541.673 127.092 540.557 126.792 539.333 126.792C538.109 126.792 536.993 127.08 535.985 127.656C534.977 128.232 534.173 129.072 533.573 130.176C532.973 131.28 532.673 132.576 532.673 134.064C532.673 135.576 532.973 136.896 533.573 138.024C534.173 139.128 534.977 139.98 535.985 140.58C536.993 141.156 538.109 141.444 539.333 141.444C540.557 141.444 541.673 141.156 542.681 140.58C543.713 139.98 544.529 139.128 545.129 138.024C545.729 136.896 546.029 135.588 546.029 134.1ZM558.153 127.476C558.729 126.348 559.545 125.472 560.601 124.848C561.681 124.224 562.989 123.912 564.525 123.912V127.296H563.661C559.989 127.296 558.153 129.288 558.153 133.272V144H554.877V124.272H558.153V127.476ZM567.083 134.064C567.083 132.048 567.491 130.284 568.307 128.772C569.123 127.236 570.239 126.048 571.655 125.208C573.095 124.368 574.691 123.948 576.443 123.948C578.171 123.948 579.671 124.32 580.943 125.064C582.215 125.808 583.163 126.744 583.787 127.872V124.272H587.099V144H583.787V140.328C583.139 141.48 582.167 142.44 580.871 143.208C579.599 143.952 578.111 144.324 576.407 144.324C574.655 144.324 573.071 143.892 571.655 143.028C570.239 142.164 569.123 140.952 568.307 139.392C567.491 137.832 567.083 136.056 567.083 134.064ZM583.787 134.1C583.787 132.612 583.487 131.316 582.887 130.212C582.287 129.108 581.471 128.268 580.439 127.692C579.431 127.092 578.315 126.792 577.091 126.792C575.867 126.792 574.751 127.08 573.743 127.656C572.735 128.232 571.931 129.072 571.331 130.176C570.731 131.28 570.431 132.576 570.431 134.064C570.431 135.576 570.731 136.896 571.331 138.024C571.931 139.128 572.735 139.98 573.743 140.58C574.751 141.156 575.867 141.444 577.091 141.444C578.315 141.444 579.431 141.156 580.439 140.58C581.471 139.98 582.287 139.128 582.887 138.024C583.487 136.896 583.787 135.588 583.787 134.1ZM595.911 127.908C596.559 126.78 597.519 125.844 598.791 125.1C600.087 124.332 601.587 123.948 603.291 123.948C605.043 123.948 606.627 124.368 608.043 125.208C609.483 126.048 610.611 127.236 611.427 128.772C612.243 130.284 612.651 132.048 612.651 134.064C612.651 136.056 612.243 137.832 611.427 139.392C610.611 140.952 609.483 142.164 608.043 143.028C606.627 143.892 605.043 144.324 603.291 144.324C601.611 144.324 600.123 143.952 598.827 143.208C597.555 142.44 596.583 141.492 595.911 140.364V153.36H592.635V124.272H595.911V127.908ZM609.303 134.064C609.303 132.576 609.003 131.28 608.403 130.176C607.803 129.072 606.987 128.232 605.955 127.656C604.947 127.08 603.831 126.792 602.607 126.792C601.407 126.792 600.291 127.092 599.259 127.692C598.251 128.268 597.435 129.12 596.811 130.248C596.211 131.352 595.911 132.636 595.911 134.1C595.911 135.588 596.211 136.896 596.811 138.024C597.435 139.128 598.251 139.98 599.259 140.58C600.291 141.156 601.407 141.444 602.607 141.444C603.831 141.444 604.947 141.156 605.955 140.58C606.987 139.98 607.803 139.128 608.403 138.024C609.003 136.896 609.303 135.576 609.303 134.064ZM626.755 123.912C628.243 123.912 629.587 124.236 630.787 124.884C631.987 125.508 632.923 126.456 633.595 127.728C634.291 129 634.639 130.548 634.639 132.372V144H631.399V132.84C631.399 130.872 630.907 129.372 629.923 128.34C628.939 127.284 627.595 126.756 625.891 126.756C624.163 126.756 622.783 127.296 621.751 128.376C620.743 129.456 620.239 131.028 620.239 133.092V144H616.963V117.36H620.239V127.08C620.887 126.072 621.775 125.292 622.903 124.74C624.055 124.188 625.339 123.912 626.755 123.912ZM657.991 133.38C657.991 134.004 657.955 134.664 657.883 135.36H642.115C642.235 137.304 642.895 138.828 644.095 139.932C645.319 141.012 646.795 141.552 648.523 141.552C649.939 141.552 651.115 141.228 652.051 140.58C653.011 139.908 653.683 139.02 654.067 137.916H657.595C657.067 139.812 656.011 141.36 654.427 142.56C652.843 143.736 650.875 144.324 648.523 144.324C646.651 144.324 644.971 143.904 643.483 143.064C642.019 142.224 640.867 141.036 640.027 139.5C639.187 137.94 638.767 136.14 638.767 134.1C638.767 132.06 639.175 130.272 639.991 128.736C640.807 127.2 641.947 126.024 643.411 125.208C644.899 124.368 646.603 123.948 648.523 123.948C650.395 123.948 652.051 124.356 653.491 125.172C654.931 125.988 656.035 127.116 656.803 128.556C657.595 129.972 657.991 131.58 657.991 133.38ZM654.607 132.696C654.607 131.448 654.331 130.38 653.779 129.492C653.227 128.58 652.471 127.896 651.511 127.44C650.575 126.96 649.531 126.72 648.379 126.72C646.723 126.72 645.307 127.248 644.131 128.304C642.979 129.36 642.319 130.824 642.151 132.696H654.607ZM665.591 127.476C666.167 126.348 666.983 125.472 668.039 124.848C669.119 124.224 670.427 123.912 671.963 123.912V127.296H671.099C667.427 127.296 665.591 129.288 665.591 133.272V144H662.315V124.272H665.591V127.476ZM682.729 144.324C681.217 144.324 679.861 144.072 678.661 143.568C677.461 143.04 676.513 142.32 675.817 141.408C675.121 140.472 674.737 139.404 674.665 138.204H678.049C678.145 139.188 678.601 139.992 679.417 140.616C680.257 141.24 681.349 141.552 682.693 141.552C683.941 141.552 684.925 141.276 685.645 140.724C686.365 140.172 686.725 139.476 686.725 138.636C686.725 137.772 686.341 137.136 685.573 136.728C684.805 136.296 683.617 135.876 682.009 135.468C680.545 135.084 679.345 134.7 678.409 134.316C677.497 133.908 676.705 133.32 676.033 132.552C675.385 131.76 675.061 130.728 675.061 129.456C675.061 128.448 675.361 127.524 675.961 126.684C676.561 125.844 677.413 125.184 678.517 124.704C679.621 124.2 680.881 123.948 682.297 123.948C684.481 123.948 686.245 124.5 687.589 125.604C688.933 126.708 689.653 128.22 689.749 130.14H686.473C686.401 129.108 685.981 128.28 685.213 127.656C684.469 127.032 683.461 126.72 682.189 126.72C681.013 126.72 680.077 126.972 679.381 127.476C678.685 127.98 678.337 128.64 678.337 129.456C678.337 130.104 678.541 130.644 678.949 131.076C679.381 131.484 679.909 131.82 680.533 132.084C681.181 132.324 682.069 132.6 683.197 132.912C684.613 133.296 685.765 133.68 686.653 134.064C687.541 134.424 688.297 134.976 688.921 135.72C689.569 136.464 689.905 137.436 689.929 138.636C689.929 139.716 689.629 140.688 689.029 141.552C688.429 142.416 687.577 143.1 686.473 143.604C685.393 144.084 684.145 144.324 682.729 144.324Z" fill="#F6F6F6"/>
<path d="M161.587 177.502C162.295 177.634 162.895 177.994 163.387 178.582C163.879 179.17 164.125 179.854 164.125 180.634C164.125 181.27 163.963 181.846 163.639 182.362C163.327 182.866 162.865 183.268 162.253 183.568C161.641 183.856 160.909 184 160.057 184H155.701V171.418H159.931C161.203 171.418 162.169 171.712 162.829 172.3C163.501 172.888 163.837 173.65 163.837 174.586C163.837 175.366 163.627 176.002 163.207 176.494C162.787 176.974 162.247 177.31 161.587 177.502ZM156.961 176.98H159.895C160.747 176.98 161.401 176.782 161.857 176.386C162.325 175.978 162.559 175.42 162.559 174.712C162.559 174.016 162.325 173.47 161.857 173.074C161.401 172.678 160.729 172.48 159.841 172.48H156.961V176.98ZM159.967 182.938C160.879 182.938 161.587 182.722 162.091 182.29C162.607 181.858 162.865 181.264 162.865 180.508C162.865 179.752 162.595 179.152 162.055 178.708C161.527 178.252 160.813 178.024 159.913 178.024H156.961V182.938H159.967ZM175.801 174.172L169.969 188.626H168.655L170.563 183.946L166.531 174.172H167.917L171.265 182.56L174.505 174.172H175.801ZM184.393 179.068C184.393 178.06 184.597 177.178 185.005 176.422C185.413 175.654 185.971 175.066 186.679 174.658C187.399 174.238 188.209 174.028 189.109 174.028C189.973 174.028 190.753 174.238 191.449 174.658C192.145 175.078 192.655 175.624 192.979 176.296V170.68H194.239V184H192.979V181.804C192.679 182.488 192.187 183.052 191.503 183.496C190.819 183.928 190.015 184.144 189.091 184.144C188.191 184.144 187.381 183.934 186.661 183.514C185.953 183.094 185.395 182.5 184.987 181.732C184.591 180.964 184.393 180.076 184.393 179.068ZM192.979 179.086C192.979 178.294 192.817 177.598 192.493 176.998C192.169 176.398 191.725 175.936 191.161 175.612C190.609 175.288 189.997 175.126 189.325 175.126C188.629 175.126 188.005 175.282 187.453 175.594C186.901 175.906 186.463 176.362 186.139 176.962C185.827 177.55 185.671 178.252 185.671 179.068C185.671 179.872 185.827 180.58 186.139 181.192C186.463 181.792 186.901 182.254 187.453 182.578C188.005 182.89 188.629 183.046 189.325 183.046C189.997 183.046 190.609 182.884 191.161 182.56C191.725 182.236 192.169 181.774 192.493 181.174C192.817 180.574 192.979 179.878 192.979 179.086ZM199.006 172.318C198.754 172.318 198.538 172.228 198.358 172.048C198.178 171.868 198.088 171.646 198.088 171.382C198.088 171.118 198.178 170.902 198.358 170.734C198.538 170.554 198.754 170.464 199.006 170.464C199.258 170.464 199.474 170.554 199.654 170.734C199.834 170.902 199.924 171.118 199.924 171.382C199.924 171.646 199.834 171.868 199.654 172.048C199.474 172.228 199.258 172.318 199.006 172.318ZM199.636 174.172V184H198.376V174.172H199.636ZM207.241 182.776L210.553 174.172H211.885L207.943 184H206.521L202.579 174.172H203.929L207.241 182.776ZM215.483 172.318C215.231 172.318 215.015 172.228 214.835 172.048C214.655 171.868 214.565 171.646 214.565 171.382C214.565 171.118 214.655 170.902 214.835 170.734C215.015 170.554 215.231 170.464 215.483 170.464C215.735 170.464 215.951 170.554 216.131 170.734C216.311 170.902 216.401 171.118 216.401 171.382C216.401 171.646 216.311 171.868 216.131 172.048C215.951 172.228 215.735 172.318 215.483 172.318ZM216.113 174.172V184H214.853V174.172H216.113ZM219.65 179.068C219.65 178.06 219.854 177.178 220.262 176.422C220.67 175.654 221.228 175.066 221.936 174.658C222.656 174.238 223.466 174.028 224.366 174.028C225.23 174.028 226.01 174.238 226.706 174.658C227.402 175.078 227.912 175.624 228.236 176.296V170.68H229.496V184H228.236V181.804C227.936 182.488 227.444 183.052 226.76 183.496C226.076 183.928 225.272 184.144 224.348 184.144C223.448 184.144 222.638 183.934 221.918 183.514C221.21 183.094 220.652 182.5 220.244 181.732C219.848 180.964 219.65 180.076 219.65 179.068ZM228.236 179.086C228.236 178.294 228.074 177.598 227.75 176.998C227.426 176.398 226.982 175.936 226.418 175.612C225.866 175.288 225.254 175.126 224.582 175.126C223.886 175.126 223.262 175.282 222.71 175.594C222.158 175.906 221.72 176.362 221.396 176.962C221.084 177.55 220.928 178.252 220.928 179.068C220.928 179.872 221.084 180.58 221.396 181.192C221.72 181.792 222.158 182.254 222.71 182.578C223.262 182.89 223.886 183.046 224.582 183.046C225.254 183.046 225.866 182.884 226.418 182.56C226.982 182.236 227.426 181.774 227.75 181.174C228.074 180.574 228.236 179.878 228.236 179.086ZM234.262 172.318C234.01 172.318 233.794 172.228 233.614 172.048C233.434 171.868 233.344 171.646 233.344 171.382C233.344 171.118 233.434 170.902 233.614 170.734C233.794 170.554 234.01 170.464 234.262 170.464C234.514 170.464 234.73 170.554 234.91 170.734C235.09 170.902 235.18 171.118 235.18 171.382C235.18 171.646 235.09 171.868 234.91 172.048C234.73 172.228 234.514 172.318 234.262 172.318ZM234.892 174.172V184H233.632V174.172H234.892ZM243.614 173.992C244.79 173.992 245.75 174.358 246.494 175.09C247.238 175.81 247.61 176.86 247.61 178.24V184H246.368V178.384C246.368 177.316 246.098 176.5 245.558 175.936C245.03 175.372 244.304 175.09 243.38 175.09C242.432 175.09 241.676 175.39 241.112 175.99C240.548 176.59 240.266 177.472 240.266 178.636V184H239.006V174.172H240.266V175.846C240.578 175.246 241.028 174.79 241.616 174.478C242.204 174.154 242.87 173.992 243.614 173.992ZM255.778 174.028C256.702 174.028 257.506 174.244 258.19 174.676C258.874 175.108 259.366 175.654 259.666 176.314V174.172H260.926V184.252C260.926 185.152 260.728 185.95 260.332 186.646C259.948 187.342 259.408 187.876 258.712 188.248C258.016 188.632 257.224 188.824 256.336 188.824C255.076 188.824 254.026 188.524 253.186 187.924C252.358 187.324 251.842 186.508 251.638 185.476H252.88C253.096 186.16 253.504 186.706 254.104 187.114C254.716 187.522 255.46 187.726 256.336 187.726C256.972 187.726 257.542 187.588 258.046 187.312C258.55 187.048 258.946 186.652 259.234 186.124C259.522 185.596 259.666 184.972 259.666 184.252V181.822C259.354 182.494 258.856 183.052 258.172 183.496C257.5 183.928 256.702 184.144 255.778 184.144C254.878 184.144 254.068 183.934 253.348 183.514C252.64 183.094 252.082 182.5 251.674 181.732C251.278 180.964 251.08 180.076 251.08 179.068C251.08 178.06 251.278 177.178 251.674 176.422C252.082 175.654 252.64 175.066 253.348 174.658C254.068 174.238 254.878 174.028 255.778 174.028ZM259.666 179.086C259.666 178.294 259.504 177.598 259.18 176.998C258.856 176.398 258.412 175.936 257.848 175.612C257.296 175.288 256.684 175.126 256.012 175.126C255.316 175.126 254.692 175.282 254.14 175.594C253.588 175.906 253.15 176.362 252.826 176.962C252.514 177.55 252.358 178.252 252.358 179.068C252.358 179.872 252.514 180.58 252.826 181.192C253.15 181.792 253.588 182.254 254.14 182.578C254.692 182.89 255.316 183.046 256.012 183.046C256.684 183.046 257.296 182.884 257.848 182.56C258.412 182.236 258.856 181.774 259.18 181.174C259.504 180.574 259.666 179.878 259.666 179.086ZM272.9 175.234V181.336C272.9 181.936 273.014 182.35 273.242 182.578C273.47 182.806 273.872 182.92 274.448 182.92H275.6V184H274.25C273.362 184 272.702 183.796 272.27 183.388C271.838 182.968 271.622 182.284 271.622 181.336V175.234H270.254V174.172H271.622V171.706H272.9V174.172H275.6V175.234H272.9ZM283.618 173.992C284.362 173.992 285.028 174.148 285.616 174.46C286.216 174.772 286.684 175.252 287.02 175.9C287.368 176.536 287.542 177.316 287.542 178.24V184H286.3V178.384C286.3 177.316 286.03 176.5 285.49 175.936C284.962 175.372 284.236 175.09 283.312 175.09C282.364 175.09 281.608 175.39 281.044 175.99C280.48 176.59 280.198 177.472 280.198 178.636V184H278.938V170.68H280.198V175.846C280.51 175.258 280.966 174.802 281.566 174.478C282.178 174.154 282.862 173.992 283.618 173.992ZM300.481 178.582C300.481 179.014 300.469 179.344 300.445 179.572H292.291C292.327 180.316 292.507 180.952 292.831 181.48C293.155 182.008 293.581 182.41 294.109 182.686C294.637 182.95 295.213 183.082 295.837 183.082C296.653 183.082 297.337 182.884 297.889 182.488C298.453 182.092 298.825 181.558 299.005 180.886H300.337C300.097 181.846 299.581 182.632 298.789 183.244C298.009 183.844 297.025 184.144 295.837 184.144C294.913 184.144 294.085 183.94 293.353 183.532C292.621 183.112 292.045 182.524 291.625 181.768C291.217 181 291.013 180.106 291.013 179.086C291.013 178.066 291.217 177.172 291.625 176.404C292.033 175.636 292.603 175.048 293.335 174.64C294.067 174.232 294.901 174.028 295.837 174.028C296.773 174.028 297.589 174.232 298.285 174.64C298.993 175.048 299.533 175.6 299.905 176.296C300.289 176.98 300.481 177.742 300.481 178.582ZM299.203 178.546C299.215 177.814 299.065 177.19 298.753 176.674C298.453 176.158 298.039 175.768 297.511 175.504C296.983 175.24 296.407 175.108 295.783 175.108C294.847 175.108 294.049 175.408 293.389 176.008C292.729 176.608 292.363 177.454 292.291 178.546H299.203ZM315.746 173.992C316.898 173.992 317.834 174.358 318.554 175.09C319.286 175.81 319.652 176.86 319.652 178.24V184H318.41V178.384C318.41 177.316 318.152 176.5 317.636 175.936C317.12 175.372 316.418 175.09 315.53 175.09C314.606 175.09 313.868 175.396 313.316 176.008C312.764 176.62 312.488 177.508 312.488 178.672V184H311.246V178.384C311.246 177.316 310.988 176.5 310.472 175.936C309.956 175.372 309.248 175.09 308.348 175.09C307.424 175.09 306.686 175.396 306.134 176.008C305.582 176.62 305.306 177.508 305.306 178.672V184H304.046V174.172H305.306V175.864C305.618 175.252 306.062 174.79 306.638 174.478C307.214 174.154 307.856 173.992 308.564 173.992C309.416 173.992 310.16 174.196 310.796 174.604C311.444 175.012 311.912 175.612 312.2 176.404C312.464 175.624 312.914 175.03 313.55 174.622C314.198 174.202 314.93 173.992 315.746 173.992ZM330.54 172.318C330.288 172.318 330.072 172.228 329.892 172.048C329.712 171.868 329.622 171.646 329.622 171.382C329.622 171.118 329.712 170.902 329.892 170.734C330.072 170.554 330.288 170.464 330.54 170.464C330.792 170.464 331.008 170.554 331.188 170.734C331.368 170.902 331.458 171.118 331.458 171.382C331.458 171.646 331.368 171.868 331.188 172.048C331.008 172.228 330.792 172.318 330.54 172.318ZM331.17 174.172V184H329.91V174.172H331.17ZM339.891 173.992C341.067 173.992 342.027 174.358 342.771 175.09C343.515 175.81 343.887 176.86 343.887 178.24V184H342.645V178.384C342.645 177.316 342.375 176.5 341.835 175.936C341.307 175.372 340.581 175.09 339.657 175.09C338.709 175.09 337.953 175.39 337.389 175.99C336.825 176.59 336.543 177.472 336.543 178.636V184H335.283V174.172H336.543V175.846C336.855 175.246 337.305 174.79 337.893 174.478C338.481 174.154 339.147 173.992 339.891 173.992ZM349.572 175.234V181.336C349.572 181.936 349.686 182.35 349.914 182.578C350.142 182.806 350.544 182.92 351.12 182.92H352.272V184H350.922C350.034 184 349.374 183.796 348.942 183.388C348.51 182.968 348.294 182.284 348.294 181.336V175.234H346.926V174.172H348.294V171.706H349.572V174.172H352.272V175.234H349.572ZM359.912 184.144C358.988 184.144 358.154 183.94 357.41 183.532C356.678 183.112 356.096 182.524 355.664 181.768C355.244 181 355.034 180.106 355.034 179.086C355.034 178.066 355.25 177.178 355.682 176.422C356.114 175.654 356.702 175.066 357.446 174.658C358.19 174.238 359.024 174.028 359.948 174.028C360.872 174.028 361.706 174.238 362.45 174.658C363.206 175.066 363.794 175.654 364.214 176.422C364.646 177.178 364.862 178.066 364.862 179.086C364.862 180.094 364.646 180.982 364.214 181.75C363.782 182.518 363.188 183.112 362.432 183.532C361.676 183.94 360.836 184.144 359.912 184.144ZM359.912 183.046C360.56 183.046 361.16 182.902 361.712 182.614C362.264 182.314 362.708 181.87 363.044 181.282C363.392 180.682 363.566 179.95 363.566 179.086C363.566 178.222 363.398 177.496 363.062 176.908C362.726 176.308 362.282 175.864 361.73 175.576C361.178 175.276 360.578 175.126 359.93 175.126C359.282 175.126 358.682 175.276 358.13 175.576C357.578 175.864 357.134 176.308 356.798 176.908C356.474 177.496 356.312 178.222 356.312 179.086C356.312 179.95 356.474 180.682 356.798 181.282C357.134 181.87 357.572 182.314 358.112 182.614C358.664 182.902 359.264 183.046 359.912 183.046ZM374.042 179.068C374.042 178.06 374.246 177.178 374.654 176.422C375.062 175.654 375.62 175.066 376.328 174.658C377.048 174.238 377.858 174.028 378.758 174.028C379.622 174.028 380.402 174.238 381.098 174.658C381.794 175.078 382.304 175.624 382.628 176.296V170.68H383.888V184H382.628V181.804C382.328 182.488 381.836 183.052 381.152 183.496C380.468 183.928 379.664 184.144 378.74 184.144C377.84 184.144 377.03 183.934 376.31 183.514C375.602 183.094 375.044 182.5 374.636 181.732C374.24 180.964 374.042 180.076 374.042 179.068ZM382.628 179.086C382.628 178.294 382.466 177.598 382.142 176.998C381.818 176.398 381.374 175.936 380.81 175.612C380.258 175.288 379.646 175.126 378.974 175.126C378.278 175.126 377.654 175.282 377.102 175.594C376.55 175.906 376.112 176.362 375.788 176.962C375.476 177.55 375.32 178.252 375.32 179.068C375.32 179.872 375.476 180.58 375.788 181.192C376.112 181.792 376.55 182.254 377.102 182.578C377.654 182.89 378.278 183.046 378.974 183.046C379.646 183.046 380.258 182.884 380.81 182.56C381.374 182.236 381.818 181.774 382.142 181.174C382.466 180.574 382.628 179.878 382.628 179.086ZM388.655 172.318C388.403 172.318 388.187 172.228 388.007 172.048C387.827 171.868 387.737 171.646 387.737 171.382C387.737 171.118 387.827 170.902 388.007 170.734C388.187 170.554 388.403 170.464 388.655 170.464C388.907 170.464 389.123 170.554 389.303 170.734C389.483 170.902 389.573 171.118 389.573 171.382C389.573 171.646 389.483 171.868 389.303 172.048C389.123 172.228 388.907 172.318 388.655 172.318ZM389.285 174.172V184H388.025V174.172H389.285ZM397.268 175.234H394.982V184H393.722V175.234H392.354V174.172H393.722V173.488C393.722 172.42 393.992 171.634 394.532 171.13C395.084 170.626 395.972 170.374 397.196 170.374V171.454C396.38 171.454 395.804 171.61 395.468 171.922C395.144 172.234 394.982 172.756 394.982 173.488V174.172H397.268V175.234ZM404.381 175.234H402.095V184H400.835V175.234H399.467V174.172H400.835V173.488C400.835 172.42 401.105 171.634 401.645 171.13C402.197 170.626 403.085 170.374 404.309 170.374V171.454C403.493 171.454 402.917 171.61 402.581 171.922C402.257 172.234 402.095 172.756 402.095 173.488V174.172H404.381V175.234ZM416.517 178.582C416.517 179.014 416.505 179.344 416.481 179.572H408.327C408.363 180.316 408.543 180.952 408.867 181.48C409.191 182.008 409.617 182.41 410.145 182.686C410.673 182.95 411.249 183.082 411.873 183.082C412.689 183.082 413.373 182.884 413.925 182.488C414.489 182.092 414.861 181.558 415.041 180.886H416.373C416.133 181.846 415.617 182.632 414.825 183.244C414.045 183.844 413.061 184.144 411.873 184.144C410.949 184.144 410.121 183.94 409.389 183.532C408.657 183.112 408.081 182.524 407.661 181.768C407.253 181 407.049 180.106 407.049 179.086C407.049 178.066 407.253 177.172 407.661 176.404C408.069 175.636 408.639 175.048 409.371 174.64C410.103 174.232 410.937 174.028 411.873 174.028C412.809 174.028 413.625 174.232 414.321 174.64C415.029 175.048 415.569 175.6 415.941 176.296C416.325 176.98 416.517 177.742 416.517 178.582ZM415.239 178.546C415.251 177.814 415.101 177.19 414.789 176.674C414.489 176.158 414.075 175.768 413.547 175.504C413.019 175.24 412.443 175.108 411.819 175.108C410.883 175.108 410.085 175.408 409.425 176.008C408.765 176.608 408.399 177.454 408.327 178.546H415.239ZM421.342 175.918C421.618 175.306 422.038 174.832 422.602 174.496C423.178 174.16 423.88 173.992 424.708 173.992V175.306H424.366C423.454 175.306 422.722 175.552 422.17 176.044C421.618 176.536 421.342 177.358 421.342 178.51V184H420.082V174.172H421.342V175.918ZM436.756 178.582C436.756 179.014 436.744 179.344 436.72 179.572H428.566C428.602 180.316 428.782 180.952 429.106 181.48C429.43 182.008 429.856 182.41 430.384 182.686C430.912 182.95 431.488 183.082 432.112 183.082C432.928 183.082 433.612 182.884 434.164 182.488C434.728 182.092 435.1 181.558 435.28 180.886H436.612C436.372 181.846 435.856 182.632 435.064 183.244C434.284 183.844 433.3 184.144 432.112 184.144C431.188 184.144 430.36 183.94 429.628 183.532C428.896 183.112 428.32 182.524 427.9 181.768C427.492 181 427.288 180.106 427.288 179.086C427.288 178.066 427.492 177.172 427.9 176.404C428.308 175.636 428.878 175.048 429.61 174.64C430.342 174.232 431.176 174.028 432.112 174.028C433.048 174.028 433.864 174.232 434.56 174.64C435.268 175.048 435.808 175.6 436.18 176.296C436.564 176.98 436.756 177.742 436.756 178.582ZM435.478 178.546C435.49 177.814 435.34 177.19 435.028 176.674C434.728 176.158 434.314 175.768 433.786 175.504C433.258 175.24 432.682 175.108 432.058 175.108C431.122 175.108 430.324 175.408 429.664 176.008C429.004 176.608 428.638 177.454 428.566 178.546H435.478ZM444.929 173.992C446.105 173.992 447.065 174.358 447.809 175.09C448.553 175.81 448.925 176.86 448.925 178.24V184H447.683V178.384C447.683 177.316 447.413 176.5 446.873 175.936C446.345 175.372 445.619 175.09 444.695 175.09C443.747 175.09 442.991 175.39 442.427 175.99C441.863 176.59 441.581 177.472 441.581 178.636V184H440.321V174.172H441.581V175.846C441.893 175.246 442.343 174.79 442.931 174.478C443.519 174.154 444.185 173.992 444.929 173.992ZM454.61 175.234V181.336C454.61 181.936 454.724 182.35 454.952 182.578C455.18 182.806 455.582 182.92 456.158 182.92H457.31V184H455.96C455.072 184 454.412 183.796 453.98 183.388C453.548 182.968 453.332 182.284 453.332 181.336V175.234H451.964V174.172H453.332V171.706H454.61V174.172H457.31V175.234H454.61ZM468.089 176.332C468.401 175.672 468.893 175.126 469.565 174.694C470.249 174.25 471.059 174.028 471.995 174.028C472.883 174.028 473.681 174.238 474.389 174.658C475.109 175.066 475.667 175.654 476.063 176.422C476.471 177.178 476.675 178.06 476.675 179.068C476.675 180.076 476.471 180.964 476.063 181.732C475.667 182.5 475.109 183.094 474.389 183.514C473.681 183.934 472.883 184.144 471.995 184.144C471.071 184.144 470.267 183.928 469.583 183.496C468.899 183.052 468.401 182.5 468.089 181.84V188.644H466.847V174.172H468.089V176.332ZM475.397 179.068C475.397 178.252 475.235 177.55 474.911 176.962C474.599 176.362 474.167 175.906 473.615 175.594C473.063 175.282 472.439 175.126 471.743 175.126C471.071 175.126 470.453 175.288 469.889 175.612C469.337 175.936 468.899 176.398 468.575 176.998C468.251 177.598 468.089 178.294 468.089 179.086C468.089 179.878 468.251 180.574 468.575 181.174C468.899 181.774 469.337 182.236 469.889 182.56C470.453 182.884 471.071 183.046 471.743 183.046C472.439 183.046 473.063 182.89 473.615 182.578C474.167 182.254 474.599 181.792 474.911 181.192C475.235 180.58 475.397 179.872 475.397 179.068ZM481.514 175.918C481.79 175.306 482.21 174.832 482.774 174.496C483.35 174.16 484.052 173.992 484.88 173.992V175.306H484.538C483.626 175.306 482.894 175.552 482.342 176.044C481.79 176.536 481.514 177.358 481.514 178.51V184H480.254V174.172H481.514V175.918ZM488.665 172.318C488.413 172.318 488.197 172.228 488.017 172.048C487.837 171.868 487.747 171.646 487.747 171.382C487.747 171.118 487.837 170.902 488.017 170.734C488.197 170.554 488.413 170.464 488.665 170.464C488.917 170.464 489.133 170.554 489.313 170.734C489.493 170.902 489.583 171.118 489.583 171.382C489.583 171.646 489.493 171.868 489.313 172.048C489.133 172.228 488.917 172.318 488.665 172.318ZM489.295 174.172V184H488.035V174.172H489.295ZM492.832 179.086C492.832 178.066 493.036 177.178 493.444 176.422C493.852 175.654 494.416 175.066 495.136 174.658C495.856 174.238 496.678 174.028 497.602 174.028C498.814 174.028 499.81 174.328 500.59 174.928C501.382 175.528 501.892 176.344 502.12 177.376H500.77C500.602 176.668 500.236 176.116 499.672 175.72C499.12 175.312 498.43 175.108 497.602 175.108C496.942 175.108 496.348 175.258 495.82 175.558C495.292 175.858 494.872 176.308 494.56 176.908C494.26 177.496 494.11 178.222 494.11 179.086C494.11 179.95 494.26 180.682 494.56 181.282C494.872 181.882 495.292 182.332 495.82 182.632C496.348 182.932 496.942 183.082 497.602 183.082C498.43 183.082 499.12 182.884 499.672 182.488C500.236 182.08 500.602 181.516 500.77 180.796H502.12C501.892 181.804 501.382 182.614 500.59 183.226C499.798 183.838 498.802 184.144 497.602 184.144C496.678 184.144 495.856 183.94 495.136 183.532C494.416 183.112 493.852 182.524 493.444 181.768C493.036 181 492.832 180.106 492.832 179.086ZM506.337 172.318C506.085 172.318 505.869 172.228 505.689 172.048C505.509 171.868 505.419 171.646 505.419 171.382C505.419 171.118 505.509 170.902 505.689 170.734C505.869 170.554 506.085 170.464 506.337 170.464C506.589 170.464 506.805 170.554 506.985 170.734C507.165 170.902 507.255 171.118 507.255 171.382C507.255 171.646 507.165 171.868 506.985 172.048C506.805 172.228 506.589 172.318 506.337 172.318ZM506.967 174.172V184H505.707V174.172H506.967ZM515.689 173.992C516.865 173.992 517.825 174.358 518.569 175.09C519.313 175.81 519.685 176.86 519.685 178.24V184H518.443V178.384C518.443 177.316 518.173 176.5 517.633 175.936C517.105 175.372 516.379 175.09 515.455 175.09C514.507 175.09 513.751 175.39 513.187 175.99C512.623 176.59 512.341 177.472 512.341 178.636V184H511.081V174.172H512.341V175.846C512.653 175.246 513.103 174.79 513.691 174.478C514.279 174.154 514.945 173.992 515.689 173.992ZM527.853 174.028C528.777 174.028 529.581 174.244 530.265 174.676C530.949 175.108 531.441 175.654 531.741 176.314V174.172H533.001V184.252C533.001 185.152 532.803 185.95 532.407 186.646C532.023 187.342 531.483 187.876 530.787 188.248C530.091 188.632 529.299 188.824 528.411 188.824C527.151 188.824 526.101 188.524 525.261 187.924C524.433 187.324 523.917 186.508 523.713 185.476H524.955C525.171 186.16 525.579 186.706 526.179 187.114C526.791 187.522 527.535 187.726 528.411 187.726C529.047 187.726 529.617 187.588 530.121 187.312C530.625 187.048 531.021 186.652 531.309 186.124C531.597 185.596 531.741 184.972 531.741 184.252V181.822C531.429 182.494 530.931 183.052 530.247 183.496C529.575 183.928 528.777 184.144 527.853 184.144C526.953 184.144 526.143 183.934 525.423 183.514C524.715 183.094 524.157 182.5 523.749 181.732C523.353 180.964 523.155 180.076 523.155 179.068C523.155 178.06 523.353 177.178 523.749 176.422C524.157 175.654 524.715 175.066 525.423 174.658C526.143 174.238 526.953 174.028 527.853 174.028ZM531.741 179.086C531.741 178.294 531.579 177.598 531.255 176.998C530.931 176.398 530.487 175.936 529.923 175.612C529.371 175.288 528.759 175.126 528.087 175.126C527.391 175.126 526.767 175.282 526.215 175.594C525.663 175.906 525.225 176.362 524.901 176.962C524.589 177.55 524.433 178.252 524.433 179.068C524.433 179.872 524.589 180.58 524.901 181.192C525.225 181.792 525.663 182.254 526.215 182.578C526.767 182.89 527.391 183.046 528.087 183.046C528.759 183.046 529.371 182.884 529.923 182.56C530.487 182.236 530.931 181.774 531.255 181.174C531.579 180.574 531.741 179.878 531.741 179.086ZM542.761 179.086C542.761 178.066 542.965 177.178 543.373 176.422C543.781 175.654 544.345 175.066 545.065 174.658C545.785 174.238 546.607 174.028 547.531 174.028C548.743 174.028 549.739 174.328 550.519 174.928C551.311 175.528 551.821 176.344 552.049 177.376H550.699C550.531 176.668 550.165 176.116 549.601 175.72C549.049 175.312 548.359 175.108 547.531 175.108C546.871 175.108 546.277 175.258 545.749 175.558C545.221 175.858 544.801 176.308 544.489 176.908C544.189 177.496 544.039 178.222 544.039 179.086C544.039 179.95 544.189 180.682 544.489 181.282C544.801 181.882 545.221 182.332 545.749 182.632C546.277 182.932 546.871 183.082 547.531 183.082C548.359 183.082 549.049 182.884 549.601 182.488C550.165 182.08 550.531 181.516 550.699 180.796H552.049C551.821 181.804 551.311 182.614 550.519 183.226C549.727 183.838 548.731 184.144 547.531 184.144C546.607 184.144 545.785 183.94 545.065 183.532C544.345 183.112 543.781 182.524 543.373 181.768C542.965 181 542.761 180.106 542.761 179.086ZM555.06 179.068C555.06 178.06 555.258 177.178 555.654 176.422C556.062 175.654 556.62 175.066 557.328 174.658C558.048 174.238 558.858 174.028 559.758 174.028C560.694 174.028 561.498 174.244 562.17 174.676C562.854 175.108 563.346 175.66 563.646 176.332V174.172H564.906V184H563.646V181.822C563.334 182.494 562.836 183.052 562.152 183.496C561.48 183.928 560.676 184.144 559.74 184.144C558.852 184.144 558.048 183.934 557.328 183.514C556.62 183.094 556.062 182.5 555.654 181.732C555.258 180.964 555.06 180.076 555.06 179.068ZM563.646 179.086C563.646 178.294 563.484 177.598 563.16 176.998C562.836 176.398 562.392 175.936 561.828 175.612C561.276 175.288 560.664 175.126 559.992 175.126C559.296 175.126 558.672 175.282 558.12 175.594C557.568 175.906 557.13 176.362 556.806 176.962C556.494 177.55 556.338 178.252 556.338 179.068C556.338 179.872 556.494 180.58 556.806 181.192C557.13 181.792 557.568 182.254 558.12 182.578C558.672 182.89 559.296 183.046 559.992 183.046C560.664 183.046 561.276 182.884 561.828 182.56C562.392 182.236 562.836 181.774 563.16 181.174C563.484 180.574 563.646 179.878 563.646 179.086ZM570.681 175.234V181.336C570.681 181.936 570.795 182.35 571.023 182.578C571.251 182.806 571.653 182.92 572.229 182.92H573.381V184H572.031C571.143 184 570.483 183.796 570.051 183.388C569.619 182.968 569.403 182.284 569.403 181.336V175.234H568.035V174.172H569.403V171.706H570.681V174.172H573.381V175.234H570.681ZM585.611 178.582C585.611 179.014 585.599 179.344 585.575 179.572H577.421C577.457 180.316 577.637 180.952 577.961 181.48C578.285 182.008 578.711 182.41 579.239 182.686C579.767 182.95 580.343 183.082 580.967 183.082C581.783 183.082 582.467 182.884 583.019 182.488C583.583 182.092 583.955 181.558 584.135 180.886H585.467C585.227 181.846 584.711 182.632 583.919 183.244C583.139 183.844 582.155 184.144 580.967 184.144C580.043 184.144 579.215 183.94 578.483 183.532C577.751 183.112 577.175 182.524 576.755 181.768C576.347 181 576.143 180.106 576.143 179.086C576.143 178.066 576.347 177.172 576.755 176.404C577.163 175.636 577.733 175.048 578.465 174.64C579.197 174.232 580.031 174.028 580.967 174.028C581.903 174.028 582.719 174.232 583.415 174.64C584.123 175.048 584.663 175.6 585.035 176.296C585.419 176.98 585.611 177.742 585.611 178.582ZM584.333 178.546C584.345 177.814 584.195 177.19 583.883 176.674C583.583 176.158 583.169 175.768 582.641 175.504C582.113 175.24 581.537 175.108 580.913 175.108C579.977 175.108 579.179 175.408 578.519 176.008C577.859 176.608 577.493 177.454 577.421 178.546H584.333ZM593.298 174.028C594.222 174.028 595.026 174.244 595.71 174.676C596.394 175.108 596.886 175.654 597.186 176.314V174.172H598.446V184.252C598.446 185.152 598.248 185.95 597.852 186.646C597.468 187.342 596.928 187.876 596.232 188.248C595.536 188.632 594.744 188.824 593.856 188.824C592.596 188.824 591.546 188.524 590.706 187.924C589.878 187.324 589.362 186.508 589.158 185.476H590.4C590.616 186.16 591.024 186.706 591.624 187.114C592.236 187.522 592.98 187.726 593.856 187.726C594.492 187.726 595.062 187.588 595.566 187.312C596.07 187.048 596.466 186.652 596.754 186.124C597.042 185.596 597.186 184.972 597.186 184.252V181.822C596.874 182.494 596.376 183.052 595.692 183.496C595.02 183.928 594.222 184.144 593.298 184.144C592.398 184.144 591.588 183.934 590.868 183.514C590.16 183.094 589.602 182.5 589.194 181.732C588.798 180.964 588.6 180.076 588.6 179.068C588.6 178.06 588.798 177.178 589.194 176.422C589.602 175.654 590.16 175.066 590.868 174.658C591.588 174.238 592.398 174.028 593.298 174.028ZM597.186 179.086C597.186 178.294 597.024 177.598 596.7 176.998C596.376 176.398 595.932 175.936 595.368 175.612C594.816 175.288 594.204 175.126 593.532 175.126C592.836 175.126 592.212 175.282 591.66 175.594C591.108 175.906 590.67 176.362 590.346 176.962C590.034 177.55 589.878 178.252 589.878 179.068C589.878 179.872 590.034 180.58 590.346 181.192C590.67 181.792 591.108 182.254 591.66 182.578C592.212 182.89 592.836 183.046 593.532 183.046C594.204 183.046 594.816 182.884 595.368 182.56C595.932 182.236 596.376 181.774 596.7 181.174C597.024 180.574 597.186 179.878 597.186 179.086ZM606.885 184.144C605.961 184.144 605.127 183.94 604.383 183.532C603.651 183.112 603.069 182.524 602.637 181.768C602.217 181 602.007 180.106 602.007 179.086C602.007 178.066 602.223 177.178 602.655 176.422C603.087 175.654 603.675 175.066 604.419 174.658C605.163 174.238 605.997 174.028 606.921 174.028C607.845 174.028 608.679 174.238 609.423 174.658C610.179 175.066 610.767 175.654 611.187 176.422C611.619 177.178 611.835 178.066 611.835 179.086C611.835 180.094 611.619 180.982 611.187 181.75C610.755 182.518 610.161 183.112 609.405 183.532C608.649 183.94 607.809 184.144 606.885 184.144ZM606.885 183.046C607.533 183.046 608.133 182.902 608.685 182.614C609.237 182.314 609.681 181.87 610.017 181.282C610.365 180.682 610.539 179.95 610.539 179.086C610.539 178.222 610.371 177.496 610.035 176.908C609.699 176.308 609.255 175.864 608.703 175.576C608.151 175.276 607.551 175.126 606.903 175.126C606.255 175.126 605.655 175.276 605.103 175.576C604.551 175.864 604.107 176.308 603.771 176.908C603.447 177.496 603.285 178.222 603.285 179.086C603.285 179.95 603.447 180.682 603.771 181.282C604.107 181.87 604.545 182.314 605.085 182.614C605.637 182.902 606.237 183.046 606.885 183.046ZM616.651 175.918C616.927 175.306 617.347 174.832 617.911 174.496C618.487 174.16 619.189 173.992 620.017 173.992V175.306H619.675C618.763 175.306 618.031 175.552 617.479 176.044C616.927 176.536 616.651 177.358 616.651 178.51V184H615.391V174.172H616.651V175.918ZM623.803 172.318C623.551 172.318 623.335 172.228 623.155 172.048C622.975 171.868 622.885 171.646 622.885 171.382C622.885 171.118 622.975 170.902 623.155 170.734C623.335 170.554 623.551 170.464 623.803 170.464C624.055 170.464 624.271 170.554 624.451 170.734C624.631 170.902 624.721 171.118 624.721 171.382C624.721 171.646 624.631 171.868 624.451 172.048C624.271 172.228 624.055 172.318 623.803 172.318ZM624.433 174.172V184H623.173V174.172H624.433ZM637.438 178.582C637.438 179.014 637.426 179.344 637.402 179.572H629.248C629.284 180.316 629.464 180.952 629.788 181.48C630.112 182.008 630.538 182.41 631.066 182.686C631.594 182.95 632.17 183.082 632.794 183.082C633.61 183.082 634.294 182.884 634.846 182.488C635.41 182.092 635.782 181.558 635.962 180.886H637.294C637.054 181.846 636.538 182.632 635.746 183.244C634.966 183.844 633.982 184.144 632.794 184.144C631.87 184.144 631.042 183.94 630.31 183.532C629.578 183.112 629.002 182.524 628.582 181.768C628.174 181 627.97 180.106 627.97 179.086C627.97 178.066 628.174 177.172 628.582 176.404C628.99 175.636 629.56 175.048 630.292 174.64C631.024 174.232 631.858 174.028 632.794 174.028C633.73 174.028 634.546 174.232 635.242 174.64C635.95 175.048 636.49 175.6 636.862 176.296C637.246 176.98 637.438 177.742 637.438 178.582ZM636.16 178.546C636.172 177.814 636.022 177.19 635.71 176.674C635.41 176.158 634.996 175.768 634.468 175.504C633.94 175.24 633.364 175.108 632.74 175.108C631.804 175.108 631.006 175.408 630.346 176.008C629.686 176.608 629.32 177.454 629.248 178.546H636.16ZM644.387 184.144C643.259 184.144 642.335 183.886 641.615 183.37C640.907 182.842 640.511 182.128 640.427 181.228H641.723C641.783 181.78 642.041 182.23 642.497 182.578C642.965 182.914 643.589 183.082 644.369 183.082C645.053 183.082 645.587 182.92 645.971 182.596C646.367 182.272 646.565 181.87 646.565 181.39C646.565 181.054 646.457 180.778 646.241 180.562C646.025 180.346 645.749 180.178 645.413 180.058C645.089 179.926 644.645 179.788 644.081 179.644C643.349 179.452 642.755 179.26 642.299 179.068C641.843 178.876 641.453 178.594 641.129 178.222C640.817 177.838 640.661 177.328 640.661 176.692C640.661 176.212 640.805 175.768 641.093 175.36C641.381 174.952 641.789 174.628 642.317 174.388C642.845 174.148 643.445 174.028 644.117 174.028C645.173 174.028 646.025 174.298 646.673 174.838C647.321 175.366 647.669 176.098 647.717 177.034H646.457C646.421 176.458 646.193 175.996 645.773 175.648C645.365 175.288 644.801 175.108 644.081 175.108C643.445 175.108 642.929 175.258 642.533 175.558C642.137 175.858 641.939 176.23 641.939 176.674C641.939 177.058 642.053 177.376 642.281 177.628C642.521 177.868 642.815 178.06 643.163 178.204C643.511 178.336 643.979 178.486 644.567 178.654C645.275 178.846 645.839 179.032 646.259 179.212C646.679 179.392 647.039 179.656 647.339 180.004C647.639 180.352 647.795 180.814 647.807 181.39C647.807 181.918 647.663 182.392 647.375 182.812C647.087 183.22 646.685 183.544 646.169 183.784C645.653 184.024 645.059 184.144 644.387 184.144ZM221.172 209.35C221.496 208.666 221.994 208.108 222.666 207.676C223.35 207.244 224.154 207.028 225.078 207.028C225.978 207.028 226.782 207.238 227.49 207.658C228.198 208.066 228.75 208.654 229.146 209.422C229.554 210.178 229.758 211.06 229.758 212.068C229.758 213.076 229.554 213.964 229.146 214.732C228.75 215.5 228.192 216.094 227.472 216.514C226.764 216.934 225.966 217.144 225.078 217.144C224.142 217.144 223.332 216.934 222.648 216.514C221.976 216.082 221.484 215.524 221.172 214.84V217H219.93V203.68H221.172V209.35ZM228.48 212.068C228.48 211.252 228.318 210.55 227.994 209.962C227.682 209.362 227.25 208.906 226.698 208.594C226.146 208.282 225.522 208.126 224.826 208.126C224.154 208.126 223.536 208.288 222.972 208.612C222.42 208.936 221.982 209.398 221.658 209.998C221.334 210.598 221.172 211.294 221.172 212.086C221.172 212.878 221.334 213.574 221.658 214.174C221.982 214.774 222.42 215.236 222.972 215.56C223.536 215.884 224.154 216.046 224.826 216.046C225.522 216.046 226.146 215.89 226.698 215.578C227.25 215.254 227.682 214.792 227.994 214.192C228.318 213.58 228.48 212.872 228.48 212.068ZM232.76 212.068C232.76 211.06 232.958 210.178 233.354 209.422C233.762 208.654 234.32 208.066 235.028 207.658C235.748 207.238 236.558 207.028 237.458 207.028C238.394 207.028 239.198 207.244 239.87 207.676C240.554 208.108 241.046 208.66 241.346 209.332V207.172H242.606V217H241.346V214.822C241.034 215.494 240.536 216.052 239.852 216.496C239.18 216.928 238.376 217.144 237.44 217.144C236.552 217.144 235.748 216.934 235.028 216.514C234.32 216.094 233.762 215.5 233.354 214.732C232.958 213.964 232.76 213.076 232.76 212.068ZM241.346 212.086C241.346 211.294 241.184 210.598 240.86 209.998C240.536 209.398 240.092 208.936 239.528 208.612C238.976 208.288 238.364 208.126 237.692 208.126C236.996 208.126 236.372 208.282 235.82 208.594C235.268 208.906 234.83 209.362 234.506 209.962C234.194 210.55 234.038 211.252 234.038 212.068C234.038 212.872 234.194 213.58 234.506 214.192C234.83 214.792 235.268 215.254 235.82 215.578C236.372 215.89 236.996 216.046 237.692 216.046C238.364 216.046 238.976 215.884 239.528 215.56C240.092 215.236 240.536 214.774 240.86 214.174C241.184 213.574 241.346 212.878 241.346 212.086ZM250.127 217.144C248.999 217.144 248.075 216.886 247.355 216.37C246.647 215.842 246.251 215.128 246.167 214.228H247.463C247.523 214.78 247.781 215.23 248.237 215.578C248.705 215.914 249.329 216.082 250.109 216.082C250.793 216.082 251.327 215.92 251.711 215.596C252.107 215.272 252.305 214.87 252.305 214.39C252.305 214.054 252.197 213.778 251.981 213.562C251.765 213.346 251.489 213.178 251.153 213.058C250.829 212.926 250.385 212.788 249.821 212.644C249.089 212.452 248.495 212.26 248.039 212.068C247.583 211.876 247.193 211.594 246.869 211.222C246.557 210.838 246.401 210.328 246.401 209.692C246.401 209.212 246.545 208.768 246.833 208.36C247.121 207.952 247.529 207.628 248.057 207.388C248.585 207.148 249.185 207.028 249.857 207.028C250.913 207.028 251.765 207.298 252.413 207.838C253.061 208.366 253.409 209.098 253.457 210.034H252.197C252.161 209.458 251.933 208.996 251.513 208.648C251.105 208.288 250.541 208.108 249.821 208.108C249.185 208.108 248.669 208.258 248.273 208.558C247.877 208.858 247.679 209.23 247.679 209.674C247.679 210.058 247.793 210.376 248.021 210.628C248.261 210.868 248.555 211.06 248.903 211.204C249.251 211.336 249.719 211.486 250.307 211.654C251.015 211.846 251.579 212.032 251.999 212.212C252.419 212.392 252.779 212.656 253.079 213.004C253.379 213.352 253.535 213.814 253.547 214.39C253.547 214.918 253.403 215.392 253.115 215.812C252.827 216.22 252.425 216.544 251.909 216.784C251.393 217.024 250.799 217.144 250.127 217.144ZM266.071 211.582C266.071 212.014 266.059 212.344 266.035 212.572H257.881C257.917 213.316 258.097 213.952 258.421 214.48C258.745 215.008 259.171 215.41 259.699 215.686C260.227 215.95 260.803 216.082 261.427 216.082C262.243 216.082 262.927 215.884 263.479 215.488C264.043 215.092 264.415 214.558 264.595 213.886H265.927C265.687 214.846 265.171 215.632 264.379 216.244C263.599 216.844 262.615 217.144 261.427 217.144C260.503 217.144 259.675 216.94 258.943 216.532C258.211 216.112 257.635 215.524 257.215 214.768C256.807 214 256.603 213.106 256.603 212.086C256.603 211.066 256.807 210.172 257.215 209.404C257.623 208.636 258.193 208.048 258.925 207.64C259.657 207.232 260.491 207.028 261.427 207.028C262.363 207.028 263.179 207.232 263.875 207.64C264.583 208.048 265.123 208.6 265.495 209.296C265.879 209.98 266.071 210.742 266.071 211.582ZM264.793 211.546C264.805 210.814 264.655 210.19 264.343 209.674C264.043 209.158 263.629 208.768 263.101 208.504C262.573 208.24 261.997 208.108 261.373 208.108C260.437 208.108 259.639 208.408 258.979 209.008C258.319 209.608 257.953 210.454 257.881 211.546H264.793ZM269.06 212.068C269.06 211.06 269.264 210.178 269.672 209.422C270.08 208.654 270.638 208.066 271.346 207.658C272.066 207.238 272.876 207.028 273.776 207.028C274.64 207.028 275.42 207.238 276.116 207.658C276.812 208.078 277.322 208.624 277.646 209.296V203.68H278.906V217H277.646V214.804C277.346 215.488 276.854 216.052 276.17 216.496C275.486 216.928 274.682 217.144 273.758 217.144C272.858 217.144 272.048 216.934 271.328 216.514C270.62 216.094 270.062 215.5 269.654 214.732C269.258 213.964 269.06 213.076 269.06 212.068ZM277.646 212.086C277.646 211.294 277.484 210.598 277.16 209.998C276.836 209.398 276.392 208.936 275.828 208.612C275.276 208.288 274.664 208.126 273.992 208.126C273.296 208.126 272.672 208.282 272.12 208.594C271.568 208.906 271.13 209.362 270.806 209.962C270.494 210.55 270.338 211.252 270.338 212.068C270.338 212.872 270.494 213.58 270.806 214.192C271.13 214.792 271.568 215.254 272.12 215.578C272.672 215.89 273.296 216.046 273.992 216.046C274.664 216.046 275.276 215.884 275.828 215.56C276.392 215.236 276.836 214.774 277.16 214.174C277.484 213.574 277.646 212.878 277.646 212.086ZM293.544 217.144C292.62 217.144 291.786 216.94 291.042 216.532C290.31 216.112 289.728 215.524 289.296 214.768C288.876 214 288.666 213.106 288.666 212.086C288.666 211.066 288.882 210.178 289.314 209.422C289.746 208.654 290.334 208.066 291.078 207.658C291.822 207.238 292.656 207.028 293.58 207.028C294.504 207.028 295.338 207.238 296.082 207.658C296.838 208.066 297.426 208.654 297.846 209.422C298.278 210.178 298.494 211.066 298.494 212.086C298.494 213.094 298.278 213.982 297.846 214.75C297.414 215.518 296.82 216.112 296.064 216.532C295.308 216.94 294.468 217.144 293.544 217.144ZM293.544 216.046C294.192 216.046 294.792 215.902 295.344 215.614C295.896 215.314 296.34 214.87 296.676 214.282C297.024 213.682 297.198 212.95 297.198 212.086C297.198 211.222 297.03 210.496 296.694 209.908C296.358 209.308 295.914 208.864 295.362 208.576C294.81 208.276 294.21 208.126 293.562 208.126C292.914 208.126 292.314 208.276 291.762 208.576C291.21 208.864 290.766 209.308 290.43 209.908C290.106 210.496 289.944 211.222 289.944 212.086C289.944 212.95 290.106 213.682 290.43 214.282C290.766 214.87 291.204 215.314 291.744 215.614C292.296 215.902 292.896 216.046 293.544 216.046ZM306.659 206.992C307.835 206.992 308.795 207.358 309.539 208.09C310.283 208.81 310.655 209.86 310.655 211.24V217H309.413V211.384C309.413 210.316 309.143 209.5 308.603 208.936C308.075 208.372 307.349 208.09 306.425 208.09C305.477 208.09 304.721 208.39 304.157 208.99C303.593 209.59 303.311 210.472 303.311 211.636V217H302.051V207.172H303.311V208.846C303.623 208.246 304.073 207.79 304.661 207.478C305.249 207.154 305.915 206.992 306.659 206.992ZM322.539 208.234V214.336C322.539 214.936 322.653 215.35 322.881 215.578C323.109 215.806 323.511 215.92 324.087 215.92H325.239V217H323.889C323.001 217 322.341 216.796 321.909 216.388C321.477 215.968 321.261 215.284 321.261 214.336V208.234H319.893V207.172H321.261V204.706H322.539V207.172H325.239V208.234H322.539ZM333.257 206.992C334.001 206.992 334.667 207.148 335.255 207.46C335.855 207.772 336.323 208.252 336.659 208.9C337.007 209.536 337.181 210.316 337.181 211.24V217H335.939V211.384C335.939 210.316 335.669 209.5 335.129 208.936C334.601 208.372 333.875 208.09 332.951 208.09C332.003 208.09 331.247 208.39 330.683 208.99C330.119 209.59 329.837 210.472 329.837 211.636V217H328.577V203.68H329.837V208.846C330.149 208.258 330.605 207.802 331.205 207.478C331.817 207.154 332.501 206.992 333.257 206.992ZM350.119 211.582C350.119 212.014 350.107 212.344 350.083 212.572H341.929C341.965 213.316 342.145 213.952 342.469 214.48C342.793 215.008 343.219 215.41 343.747 215.686C344.275 215.95 344.851 216.082 345.475 216.082C346.291 216.082 346.975 215.884 347.527 215.488C348.091 215.092 348.463 214.558 348.643 213.886H349.975C349.735 214.846 349.219 215.632 348.427 216.244C347.647 216.844 346.663 217.144 345.475 217.144C344.551 217.144 343.723 216.94 342.991 216.532C342.259 216.112 341.683 215.524 341.263 214.768C340.855 214 340.651 213.106 340.651 212.086C340.651 211.066 340.855 210.172 341.263 209.404C341.671 208.636 342.241 208.048 342.973 207.64C343.705 207.232 344.539 207.028 345.475 207.028C346.411 207.028 347.227 207.232 347.923 207.64C348.631 208.048 349.171 208.6 349.543 209.296C349.927 209.98 350.119 210.742 350.119 211.582ZM348.841 211.546C348.853 210.814 348.703 210.19 348.391 209.674C348.091 209.158 347.677 208.768 347.149 208.504C346.621 208.24 346.045 208.108 345.421 208.108C344.485 208.108 343.687 208.408 343.027 209.008C342.367 209.608 342.001 210.454 341.929 211.546H348.841ZM354.315 205.318C354.063 205.318 353.847 205.228 353.667 205.048C353.487 204.868 353.397 204.646 353.397 204.382C353.397 204.118 353.487 203.902 353.667 203.734C353.847 203.554 354.063 203.464 354.315 203.464C354.567 203.464 354.783 203.554 354.963 203.734C355.143 203.902 355.233 204.118 355.233 204.382C355.233 204.646 355.143 204.868 354.963 205.048C354.783 205.228 354.567 205.318 354.315 205.318ZM354.945 207.172V217H353.685V207.172H354.945ZM360.318 208.918C360.594 208.306 361.014 207.832 361.578 207.496C362.154 207.16 362.856 206.992 363.684 206.992V208.306H363.342C362.43 208.306 361.698 208.552 361.146 209.044C360.594 209.536 360.318 210.358 360.318 211.51V217H359.058V207.172H360.318V208.918ZM376.423 217.144C375.295 217.144 374.371 216.886 373.651 216.37C372.943 215.842 372.547 215.128 372.463 214.228H373.759C373.819 214.78 374.077 215.23 374.533 215.578C375.001 215.914 375.625 216.082 376.405 216.082C377.089 216.082 377.623 215.92 378.007 215.596C378.403 215.272 378.601 214.87 378.601 214.39C378.601 214.054 378.493 213.778 378.277 213.562C378.061 213.346 377.785 213.178 377.449 213.058C377.125 212.926 376.681 212.788 376.117 212.644C375.385 212.452 374.791 212.26 374.335 212.068C373.879 211.876 373.489 211.594 373.165 211.222C372.853 210.838 372.697 210.328 372.697 209.692C372.697 209.212 372.841 208.768 373.129 208.36C373.417 207.952 373.825 207.628 374.353 207.388C374.881 207.148 375.481 207.028 376.153 207.028C377.209 207.028 378.061 207.298 378.709 207.838C379.357 208.366 379.705 209.098 379.753 210.034H378.493C378.457 209.458 378.229 208.996 377.809 208.648C377.401 208.288 376.837 208.108 376.117 208.108C375.481 208.108 374.965 208.258 374.569 208.558C374.173 208.858 373.975 209.23 373.975 209.674C373.975 210.058 374.089 210.376 374.317 210.628C374.557 210.868 374.851 211.06 375.199 211.204C375.547 211.336 376.015 211.486 376.603 211.654C377.311 211.846 377.875 212.032 378.295 212.212C378.715 212.392 379.075 212.656 379.375 213.004C379.675 213.352 379.831 213.814 379.843 214.39C379.843 214.918 379.699 215.392 379.411 215.812C379.123 216.22 378.721 216.544 378.205 216.784C377.689 217.024 377.095 217.144 376.423 217.144ZM388.785 217L384.735 212.59V217H383.475V203.68H384.735V211.564L388.695 207.172H390.459L385.797 212.068L390.495 217H388.785ZM394.013 205.318C393.761 205.318 393.545 205.228 393.365 205.048C393.185 204.868 393.095 204.646 393.095 204.382C393.095 204.118 393.185 203.902 393.365 203.734C393.545 203.554 393.761 203.464 394.013 203.464C394.265 203.464 394.481 203.554 394.661 203.734C394.841 203.902 394.931 204.118 394.931 204.382C394.931 204.646 394.841 204.868 394.661 205.048C394.481 205.228 394.265 205.318 394.013 205.318ZM394.643 207.172V217H393.383V207.172H394.643ZM400.016 203.68V217H398.756V203.68H400.016ZM405.39 203.68V217H404.13V203.68H405.39ZM412.887 217.144C411.759 217.144 410.835 216.886 410.115 216.37C409.407 215.842 409.011 215.128 408.927 214.228H410.223C410.283 214.78 410.541 215.23 410.997 215.578C411.465 215.914 412.089 216.082 412.869 216.082C413.553 216.082 414.087 215.92 414.471 215.596C414.867 215.272 415.065 214.87 415.065 214.39C415.065 214.054 414.957 213.778 414.741 213.562C414.525 213.346 414.249 213.178 413.913 213.058C413.589 212.926 413.145 212.788 412.581 212.644C411.849 212.452 411.255 212.26 410.799 212.068C410.343 211.876 409.953 211.594 409.629 211.222C409.317 210.838 409.161 210.328 409.161 209.692C409.161 209.212 409.305 208.768 409.593 208.36C409.881 207.952 410.289 207.628 410.817 207.388C411.345 207.148 411.945 207.028 412.617 207.028C413.673 207.028 414.525 207.298 415.173 207.838C415.821 208.366 416.169 209.098 416.217 210.034H414.957C414.921 209.458 414.693 208.996 414.273 208.648C413.865 208.288 413.301 208.108 412.581 208.108C411.945 208.108 411.429 208.258 411.033 208.558C410.637 208.858 410.439 209.23 410.439 209.674C410.439 210.058 410.553 210.376 410.781 210.628C411.021 210.868 411.315 211.06 411.663 211.204C412.011 211.336 412.479 211.486 413.067 211.654C413.775 211.846 414.339 212.032 414.759 212.212C415.179 212.392 415.539 212.656 415.839 213.004C416.139 213.352 416.295 213.814 416.307 214.39C416.307 214.918 416.163 215.392 415.875 215.812C415.587 216.22 415.185 216.544 414.669 216.784C414.153 217.024 413.559 217.144 412.887 217.144ZM425.562 212.068C425.562 211.06 425.76 210.178 426.156 209.422C426.564 208.654 427.122 208.066 427.83 207.658C428.55 207.238 429.36 207.028 430.26 207.028C431.196 207.028 432 207.244 432.672 207.676C433.356 208.108 433.848 208.66 434.148 209.332V207.172H435.408V217H434.148V214.822C433.836 215.494 433.338 216.052 432.654 216.496C431.982 216.928 431.178 217.144 430.242 217.144C429.354 217.144 428.55 216.934 427.83 216.514C427.122 216.094 426.564 215.5 426.156 214.732C425.76 213.964 425.562 213.076 425.562 212.068ZM434.148 212.086C434.148 211.294 433.986 210.598 433.662 209.998C433.338 209.398 432.894 208.936 432.33 208.612C431.778 208.288 431.166 208.126 430.494 208.126C429.798 208.126 429.174 208.282 428.622 208.594C428.07 208.906 427.632 209.362 427.308 209.962C426.996 210.55 426.84 211.252 426.84 212.068C426.84 212.872 426.996 213.58 427.308 214.192C427.632 214.792 428.07 215.254 428.622 215.578C429.174 215.89 429.798 216.046 430.494 216.046C431.166 216.046 431.778 215.884 432.33 215.56C432.894 215.236 433.338 214.774 433.662 214.174C433.986 213.574 434.148 212.878 434.148 212.086ZM444.153 206.992C445.329 206.992 446.289 207.358 447.033 208.09C447.777 208.81 448.149 209.86 448.149 211.24V217H446.907V211.384C446.907 210.316 446.637 209.5 446.097 208.936C445.569 208.372 444.843 208.09 443.919 208.09C442.971 208.09 442.215 208.39 441.651 208.99C441.087 209.59 440.805 210.472 440.805 211.636V217H439.545V207.172H440.805V208.846C441.117 208.246 441.567 207.79 442.155 207.478C442.743 207.154 443.409 206.992 444.153 206.992ZM451.619 212.068C451.619 211.06 451.823 210.178 452.231 209.422C452.639 208.654 453.197 208.066 453.905 207.658C454.625 207.238 455.435 207.028 456.335 207.028C457.199 207.028 457.979 207.238 458.675 207.658C459.371 208.078 459.881 208.624 460.205 209.296V203.68H461.465V217H460.205V214.804C459.905 215.488 459.413 216.052 458.729 216.496C458.045 216.928 457.241 217.144 456.317 217.144C455.417 217.144 454.607 216.934 453.887 216.514C453.179 216.094 452.621 215.5 452.213 214.732C451.817 213.964 451.619 213.076 451.619 212.068ZM460.205 212.086C460.205 211.294 460.043 210.598 459.719 209.998C459.395 209.398 458.951 208.936 458.387 208.612C457.835 208.288 457.223 208.126 456.551 208.126C455.855 208.126 455.231 208.282 454.679 208.594C454.127 208.906 453.689 209.362 453.365 209.962C453.053 210.55 452.897 211.252 452.897 212.068C452.897 212.872 453.053 213.58 453.365 214.192C453.689 214.792 454.127 215.254 454.679 215.578C455.231 215.89 455.855 216.046 456.551 216.046C457.223 216.046 457.835 215.884 458.387 215.56C458.951 215.236 459.395 214.774 459.719 214.174C460.043 213.574 460.205 212.878 460.205 212.086ZM480.693 211.582C480.693 212.014 480.681 212.344 480.657 212.572H472.503C472.539 213.316 472.719 213.952 473.043 214.48C473.367 215.008 473.793 215.41 474.321 215.686C474.849 215.95 475.425 216.082 476.049 216.082C476.865 216.082 477.549 215.884 478.101 215.488C478.665 215.092 479.037 214.558 479.217 213.886H480.549C480.309 214.846 479.793 215.632 479.001 216.244C478.221 216.844 477.237 217.144 476.049 217.144C475.125 217.144 474.297 216.94 473.565 216.532C472.833 216.112 472.257 215.524 471.837 214.768C471.429 214 471.225 213.106 471.225 212.086C471.225 211.066 471.429 210.172 471.837 209.404C472.245 208.636 472.815 208.048 473.547 207.64C474.279 207.232 475.113 207.028 476.049 207.028C476.985 207.028 477.801 207.232 478.497 207.64C479.205 208.048 479.745 208.6 480.117 209.296C480.501 209.98 480.693 210.742 480.693 211.582ZM479.415 211.546C479.427 210.814 479.277 210.19 478.965 209.674C478.665 209.158 478.251 208.768 477.723 208.504C477.195 208.24 476.619 208.108 475.995 208.108C475.059 208.108 474.261 208.408 473.601 209.008C472.941 209.608 472.575 210.454 472.503 211.546H479.415ZM489.407 217L486.869 213.04L484.421 217H483.089L486.257 212.086L483.125 207.172H484.547L487.049 211.078L489.479 207.172H490.793L487.661 212.032L490.829 217H489.407ZM495.04 209.332C495.352 208.672 495.844 208.126 496.516 207.694C497.2 207.25 498.01 207.028 498.946 207.028C499.834 207.028 500.632 207.238 501.34 207.658C502.06 208.066 502.618 208.654 503.014 209.422C503.422 210.178 503.626 211.06 503.626 212.068C503.626 213.076 503.422 213.964 503.014 214.732C502.618 215.5 502.06 216.094 501.34 216.514C500.632 216.934 499.834 217.144 498.946 217.144C498.022 217.144 497.218 216.928 496.534 216.496C495.85 216.052 495.352 215.5 495.04 214.84V221.644H493.798V207.172H495.04V209.332ZM502.348 212.068C502.348 211.252 502.186 210.55 501.862 209.962C501.55 209.362 501.118 208.906 500.566 208.594C500.014 208.282 499.39 208.126 498.694 208.126C498.022 208.126 497.404 208.288 496.84 208.612C496.288 208.936 495.85 209.398 495.526 209.998C495.202 210.598 495.04 211.294 495.04 212.086C495.04 212.878 495.202 213.574 495.526 214.174C495.85 214.774 496.288 215.236 496.84 215.56C497.404 215.884 498.022 216.046 498.694 216.046C499.39 216.046 500.014 215.89 500.566 215.578C501.118 215.254 501.55 214.792 501.862 214.192C502.186 213.58 502.348 212.872 502.348 212.068ZM516.096 211.582C516.096 212.014 516.084 212.344 516.06 212.572H507.906C507.942 213.316 508.122 213.952 508.446 214.48C508.77 215.008 509.196 215.41 509.724 215.686C510.252 215.95 510.828 216.082 511.452 216.082C512.268 216.082 512.952 215.884 513.504 215.488C514.068 215.092 514.44 214.558 514.62 213.886H515.952C515.712 214.846 515.196 215.632 514.404 216.244C513.624 216.844 512.64 217.144 511.452 217.144C510.528 217.144 509.7 216.94 508.968 216.532C508.236 216.112 507.66 215.524 507.24 214.768C506.832 214 506.628 213.106 506.628 212.086C506.628 211.066 506.832 210.172 507.24 209.404C507.648 208.636 508.218 208.048 508.95 207.64C509.682 207.232 510.516 207.028 511.452 207.028C512.388 207.028 513.204 207.232 513.9 207.64C514.608 208.048 515.148 208.6 515.52 209.296C515.904 209.98 516.096 210.742 516.096 211.582ZM514.818 211.546C514.83 210.814 514.68 210.19 514.368 209.674C514.068 209.158 513.654 208.768 513.126 208.504C512.598 208.24 512.022 208.108 511.398 208.108C510.462 208.108 509.664 208.408 509.004 209.008C508.344 209.608 507.978 210.454 507.906 211.546H514.818ZM520.922 208.918C521.198 208.306 521.618 207.832 522.182 207.496C522.758 207.16 523.46 206.992 524.288 206.992V208.306H523.946C523.034 208.306 522.302 208.552 521.75 209.044C521.198 209.536 520.922 210.358 520.922 211.51V217H519.662V207.172H520.922V208.918ZM528.073 205.318C527.821 205.318 527.605 205.228 527.425 205.048C527.245 204.868 527.155 204.646 527.155 204.382C527.155 204.118 527.245 203.902 527.425 203.734C527.605 203.554 527.821 203.464 528.073 203.464C528.325 203.464 528.541 203.554 528.721 203.734C528.901 203.902 528.991 204.118 528.991 204.382C528.991 204.646 528.901 204.868 528.721 205.048C528.541 205.228 528.325 205.318 528.073 205.318ZM528.703 207.172V217H527.443V207.172H528.703ZM541.708 211.582C541.708 212.014 541.696 212.344 541.672 212.572H533.518C533.554 213.316 533.734 213.952 534.058 214.48C534.382 215.008 534.808 215.41 535.336 215.686C535.864 215.95 536.44 216.082 537.064 216.082C537.88 216.082 538.564 215.884 539.116 215.488C539.68 215.092 540.052 214.558 540.232 213.886H541.564C541.324 214.846 540.808 215.632 540.016 216.244C539.236 216.844 538.252 217.144 537.064 217.144C536.14 217.144 535.312 216.94 534.58 216.532C533.848 216.112 533.272 215.524 532.852 214.768C532.444 214 532.24 213.106 532.24 212.086C532.24 211.066 532.444 210.172 532.852 209.404C533.26 208.636 533.83 208.048 534.562 207.64C535.294 207.232 536.128 207.028 537.064 207.028C538 207.028 538.816 207.232 539.512 207.64C540.22 208.048 540.76 208.6 541.132 209.296C541.516 209.98 541.708 210.742 541.708 211.582ZM540.43 211.546C540.442 210.814 540.292 210.19 539.98 209.674C539.68 209.158 539.266 208.768 538.738 208.504C538.21 208.24 537.634 208.108 537.01 208.108C536.074 208.108 535.276 208.408 534.616 209.008C533.956 209.608 533.59 210.454 533.518 211.546H540.43ZM549.882 206.992C551.058 206.992 552.018 207.358 552.762 208.09C553.506 208.81 553.878 209.86 553.878 211.24V217H552.636V211.384C552.636 210.316 552.366 209.5 551.826 208.936C551.298 208.372 550.572 208.09 549.648 208.09C548.7 208.09 547.944 208.39 547.38 208.99C546.816 209.59 546.534 210.472 546.534 211.636V217H545.274V207.172H546.534V208.846C546.846 208.246 547.296 207.79 547.884 207.478C548.472 207.154 549.138 206.992 549.882 206.992ZM557.348 212.086C557.348 211.066 557.552 210.178 557.96 209.422C558.368 208.654 558.932 208.066 559.652 207.658C560.372 207.238 561.194 207.028 562.118 207.028C563.33 207.028 564.326 207.328 565.106 207.928C565.898 208.528 566.408 209.344 566.636 210.376H565.286C565.118 209.668 564.752 209.116 564.188 208.72C563.636 208.312 562.946 208.108 562.118 208.108C561.458 208.108 560.864 208.258 560.336 208.558C559.808 208.858 559.388 209.308 559.076 209.908C558.776 210.496 558.626 211.222 558.626 212.086C558.626 212.95 558.776 213.682 559.076 214.282C559.388 214.882 559.808 215.332 560.336 215.632C560.864 215.932 561.458 216.082 562.118 216.082C562.946 216.082 563.636 215.884 564.188 215.488C564.752 215.08 565.118 214.516 565.286 213.796H566.636C566.408 214.804 565.898 215.614 565.106 216.226C564.314 216.838 563.318 217.144 562.118 217.144C561.194 217.144 560.372 216.94 559.652 216.532C558.932 216.112 558.368 215.524 557.96 214.768C557.552 214 557.348 213.106 557.348 212.086ZM579.115 211.582C579.115 212.014 579.103 212.344 579.079 212.572H570.925C570.961 213.316 571.141 213.952 571.465 214.48C571.789 215.008 572.215 215.41 572.743 215.686C573.271 215.95 573.847 216.082 574.471 216.082C575.287 216.082 575.971 215.884 576.523 215.488C577.087 215.092 577.459 214.558 577.639 213.886H578.971C578.731 214.846 578.215 215.632 577.423 216.244C576.643 216.844 575.659 217.144 574.471 217.144C573.547 217.144 572.719 216.94 571.987 216.532C571.255 216.112 570.679 215.524 570.259 214.768C569.851 214 569.647 213.106 569.647 212.086C569.647 211.066 569.851 210.172 570.259 209.404C570.667 208.636 571.237 208.048 571.969 207.64C572.701 207.232 573.535 207.028 574.471 207.028C575.407 207.028 576.223 207.232 576.919 207.64C577.627 208.048 578.167 208.6 578.539 209.296C578.923 209.98 579.115 210.742 579.115 211.582ZM577.837 211.546C577.849 210.814 577.699 210.19 577.387 209.674C577.087 209.158 576.673 208.768 576.145 208.504C575.617 208.24 575.041 208.108 574.417 208.108C573.481 208.108 572.683 208.408 572.023 209.008C571.363 209.608 570.997 210.454 570.925 211.546H577.837ZM582.897 217.09C582.633 217.09 582.411 217 582.231 216.82C582.063 216.64 581.979 216.418 581.979 216.154C581.979 215.89 582.063 215.674 582.231 215.506C582.411 215.326 582.633 215.236 582.897 215.236C583.149 215.236 583.359 215.326 583.527 215.506C583.707 215.674 583.797 215.89 583.797 216.154C583.797 216.418 583.707 216.64 583.527 216.82C583.359 217 583.149 217.09 582.897 217.09Z" fill="#F6F6F6"/>
<path d="M418.001 53.993C416.113 52.1251 413.605 51.1016 410.942 51.1016C408.278 51.1016 405.77 52.1251 403.882 53.993L401.866 55.9888L403.779 57.8823L405.796 55.8865C407.166 54.5303 409.002 53.7627 410.942 53.7627C412.881 53.7627 414.717 54.5047 416.087 55.8865C417.458 57.2426 418.234 59.0594 418.234 60.9784C418.234 62.8975 417.484 64.7142 416.087 66.0704L413.217 68.9106L398.142 53.993C396.254 52.1251 393.746 51.1016 391.083 51.1016C388.419 51.1016 385.911 52.1251 384.024 53.993C382.136 55.8609 381.102 58.3429 381.102 60.9784C381.102 63.5372 382.084 65.9425 383.868 67.8104L385.782 65.9169C384.515 64.5607 383.817 62.8207 383.817 60.9784C383.817 59.0594 384.567 57.2426 385.937 55.8865C387.307 54.5303 389.143 53.7627 391.083 53.7627C392.945 53.7627 394.729 54.4536 396.073 55.7074C396.125 55.7585 396.953 56.5773 396.953 56.5773L384.748 68.6803L401.012 84.775L409.856 76.024L401.84 68.0918L399.926 69.9853L406.029 76.024L401.012 80.988L388.549 68.6803L398.866 58.4708L413.217 72.672L417.975 67.9639C419.863 66.096 420.897 63.614 420.897 60.9784C420.923 58.3429 419.863 55.8609 418.001 53.993Z" fill="#F6F6F6"/>
<path d="M401 92.4286L380.448 71.9071C377.585 69.0484 376 65.2197 376 61.1869C376 57.1286 377.585 53.3255 380.448 50.4667C383.311 47.5825 387.12 46 391.184 46C394.814 46 398.239 47.2507 401 49.5734C403.735 47.2507 407.186 46 410.816 46C414.88 46 418.689 47.5825 421.552 50.4412C424.415 53.2999 426 57.1286 426 61.1614C426 65.2197 424.415 69.0229 421.552 71.8816L401 92.4286ZM391.184 48.6545C387.835 48.6545 384.691 49.9563 382.314 52.33C379.937 54.7038 378.658 57.8432 378.658 61.1869C378.658 64.5306 379.962 67.6701 382.339 70.0438L401 88.6765L419.661 70.0438C422.038 67.6701 423.342 64.5306 423.342 61.1869C423.342 57.8432 422.038 54.7038 419.661 52.33C417.283 49.9563 414.139 48.6545 410.79 48.6545C407.442 48.6545 404.298 49.9563 401.92 52.33L400.974 53.2744L400.029 52.33C397.677 49.9563 394.533 48.6545 391.184 48.6545Z" fill="#F6F6F6"/>
<g opacity="0.5">
<path d="M44.3238 142.261C46.6761 149.043 41.6626 155.866 38.987 158.372C38.73 158.637 38.5069 158.831 38.2837 159.025C38.04 158.993 37.6926 158.997 37.3271 158.948C33.76 158.549 25.5643 156.366 23.2121 149.584C22.0178 146.141 23.6006 142.495 26.7129 141.415C28.7877 140.695 31.0194 141.265 32.6383 142.749C32.9905 140.582 34.3899 138.752 36.4647 138.033C39.6108 136.883 43.1296 138.818 44.3238 142.261Z" stroke="#F6F6F6" stroke-miterlimit="10" stroke-linecap="round" stroke-linejoin="round"/>
<path d="M38.9681 153.702C36.8586 152.926 34.7491 152.149 32.6577 151.425C33.9961 151.331 35.1711 150.576 35.6668 149.575C36.0028 148.806 35.9638 147.985 35.9457 147.931C35.9081 147.467 35.8351 147.075 35.5301 146.701C34.7041 145.491 33.1886 145.943 33.1886 145.943L30.9961 146.684" stroke="#F6F6F6" stroke-miterlimit="10" stroke-linecap="round" stroke-linejoin="round"/>
<path d="M31.7891 149.036L36.9763 147.283" stroke="#F6F6F6" stroke-miterlimit="10" stroke-linecap="round" stroke-linejoin="round"/>
<path d="M30.9766 146.63L36.1638 144.877" stroke="#F6F6F6" stroke-miterlimit="10" stroke-linecap="round" stroke-linejoin="round"/>
<path d="M631.408 39.1593C627.367 45.0915 618.9 45.1358 615.293 44.4822C614.927 44.4337 614.638 44.3704 614.349 44.3071C614.23 44.0922 614.02 43.8154 613.841 43.4931C612.034 40.3916 608.9 32.5105 612.941 26.5783C614.993 23.5666 618.864 22.6627 621.586 24.5174C623.401 25.7539 624.274 27.8853 624.048 30.0698C625.998 29.06 628.302 29.0923 630.117 30.3288C632.915 32.1688 633.46 36.1476 631.408 39.1593Z" stroke="#F6F6F6" stroke-miterlimit="10" stroke-linecap="round" stroke-linejoin="round"/>
<path d="M619.03 41.6832C618.396 39.5266 617.761 37.37 617.095 35.2598C617.969 36.2777 619.275 36.771 620.375 36.5717C621.193 36.3829 621.828 35.862 621.861 35.8156C622.211 35.5088 622.482 35.2162 622.6 34.7486C623.079 33.3637 621.812 32.417 621.812 32.417L619.91 31.0986" stroke="#F6F6F6" stroke-miterlimit="10" stroke-linecap="round" stroke-linejoin="round"/>
<path d="M618.496 33.1387L622.996 36.2576" stroke="#F6F6F6" stroke-miterlimit="10" stroke-linecap="round" stroke-linejoin="round"/>
<path d="M619.941 31.0508L624.442 34.1697" stroke="#F6F6F6" stroke-miterlimit="10" stroke-linecap="round" stroke-linejoin="round"/>
<path d="M798.408 195.159C794.367 201.092 785.9 201.136 782.293 200.482C781.927 200.434 781.638 200.37 781.349 200.307C781.23 200.092 781.02 199.815 780.841 199.493C779.034 196.392 775.9 188.511 779.941 182.578C781.993 179.567 785.864 178.663 788.586 180.517C790.401 181.754 791.274 183.885 791.048 186.07C792.998 185.06 795.302 185.092 797.117 186.329C799.915 188.169 800.46 192.148 798.408 195.159Z" stroke="#F6F6F6" stroke-miterlimit="10" stroke-linecap="round" stroke-linejoin="round"/>
<path d="M786.03 197.683C785.396 195.527 784.761 193.37 784.095 191.26C784.969 192.278 786.275 192.771 787.375 192.572C788.193 192.383 788.828 191.862 788.861 191.816C789.211 191.509 789.482 191.216 789.6 190.749C790.079 189.364 788.812 188.417 788.812 188.417L786.91 187.099" stroke="#F6F6F6" stroke-miterlimit="10" stroke-linecap="round" stroke-linejoin="round"/>
<path d="M785.496 189.139L789.996 192.258" stroke="#F6F6F6" stroke-miterlimit="10" stroke-linecap="round" stroke-linejoin="round"/>
<path d="M786.941 187.051L791.442 190.17" stroke="#F6F6F6" stroke-miterlimit="10" stroke-linecap="round" stroke-linejoin="round"/>
<path d="M138.324 226.261C140.676 233.043 135.663 239.866 132.987 242.372C132.73 242.637 132.507 242.831 132.284 243.025C132.04 242.993 131.693 242.997 131.327 242.948C127.76 242.549 119.564 240.366 117.212 233.584C116.018 230.141 117.601 226.495 120.713 225.415C122.788 224.695 125.019 225.265 126.638 226.749C126.991 224.582 128.39 222.752 130.465 222.033C133.611 220.883 137.13 222.818 138.324 226.261Z" stroke="#F6F6F6" stroke-miterlimit="10" stroke-linecap="round" stroke-linejoin="round"/>
<path d="M132.968 237.702C130.859 236.926 128.749 236.149 126.658 235.425C127.996 235.331 129.171 234.576 129.667 233.575C130.003 232.806 129.964 231.985 129.946 231.931C129.908 231.467 129.835 231.075 129.53 230.701C128.704 229.491 127.189 229.943 127.189 229.943L124.996 230.684" stroke="#F6F6F6" stroke-miterlimit="10" stroke-linecap="round" stroke-linejoin="round"/>
<path d="M125.789 233.036L130.976 231.283" stroke="#F6F6F6" stroke-miterlimit="10" stroke-linecap="round" stroke-linejoin="round"/>
<path d="M124.977 230.63L130.164 228.877" stroke="#F6F6F6" stroke-miterlimit="10" stroke-linecap="round" stroke-linejoin="round"/>
<path d="M32.91 244.14C33.3199 251.821 26.1335 257.359 22.6352 259.145C22.2921 259.341 22.0047 259.475 21.7173 259.609C21.476 259.503 21.1172 259.404 20.7553 259.246C17.201 257.776 9.41026 253.097 9.00031 245.417C8.79218 241.517 11.5036 238.232 15.0284 238.044C17.3782 237.919 19.5069 239.168 20.7334 241.176C21.7392 239.049 23.7228 237.58 26.0727 237.455C29.653 237.204 32.7019 240.241 32.91 244.14Z" stroke="#F6F6F6" stroke-miterlimit="10" stroke-linecap="round" stroke-linejoin="round"/>
<path d="M-8.38297 274.735L-1.01241 266.724C-1.01241 266.724 1.11895 264.29 4.03717 264.381L17.4594 263.772C17.4594 263.772 19.1372 263.696 19.3095 265.024C19.5935 266.346 19.0393 266.482 17.946 267.088L8.74778 269.397L12.0256 272.475L23.4345 271.958L32.8346 261.74C32.8346 261.74 34.1265 260.569 35.4022 261.513C36.6728 262.345 35.9503 263.713 35.523 264.177C35.0907 264.531 24.2969 276.147 24.2969 276.147C24.2969 276.147 23.9965 276.939 21.8814 277.257L4.20876 278.058C4.20876 278.058 2.20046 278.261 1.68649 279.285L-0.551693 281.835L-8.38297 274.735Z" stroke="#F6F6F6" stroke-miterlimit="10" stroke-linecap="round" stroke-linejoin="round"/>
<path d="M24.001 254.332C22.0595 252.906 20.1179 251.481 18.1791 250.115C19.5853 250.415 21.019 249.987 21.8265 249.103C22.4006 248.411 22.604 247.554 22.6012 247.493C22.7002 247.004 22.7414 246.579 22.5382 246.104C22.0468 244.612 20.3523 244.628 20.3523 244.628L17.875 244.741" stroke="#F6F6F6" stroke-miterlimit="10" stroke-linecap="round" stroke-linejoin="round"/>
<path d="M17.9961 247.399L23.857 247.133" stroke="#F6F6F6" stroke-miterlimit="10" stroke-linecap="round" stroke-linejoin="round"/>
<path d="M17.8711 244.68L23.732 244.415" stroke="#F6F6F6" stroke-miterlimit="10" stroke-linecap="round" stroke-linejoin="round"/>
<path d="M115.482 35.6529C114.148 43.2277 105.898 47.0018 102.087 47.9529C101.708 48.0665 101.398 48.1321 101.088 48.1976C100.876 48.0403 100.549 47.8626 100.232 47.6266C97.1013 45.3934 90.5671 39.0769 91.9004 31.5021C92.5774 27.6564 95.96 25.0679 99.4363 25.6798C101.754 26.0878 103.546 27.7849 104.288 30.018C105.748 28.1724 108.011 27.1892 110.329 27.5971C113.873 28.161 116.159 31.8072 115.482 35.6529Z" stroke="#F6F6F6" stroke-miterlimit="10" stroke-linecap="round" stroke-linejoin="round"/>
<path d="M68.3504 56.1428L77.3383 50.0008C77.3383 50.0008 79.9636 48.1112 82.7862 48.8575L95.9997 51.2929C95.9997 51.2929 97.6514 51.5974 97.5197 52.9294C97.4982 54.2817 96.9275 54.2895 95.7256 54.6331L86.2438 54.8069L88.7427 58.5451L99.9741 60.6153L111.437 52.782C111.437 52.782 112.96 51.9324 113.99 53.1395C115.04 54.2372 114.027 55.4069 113.506 55.7629C113.005 56.0097 99.8692 64.8908 99.8692 64.8908C99.8692 64.8908 99.3978 65.5951 97.2654 65.4281L79.8676 62.2214C79.8676 62.2214 77.8655 61.9654 77.1336 62.8477L74.378 64.8264L68.3504 56.1428Z" stroke="#F6F6F6" stroke-miterlimit="10" stroke-linecap="round" stroke-linejoin="round"/>
<path d="M104.503 43.5713C102.934 41.7444 101.364 39.9175 99.783 38.15C101.085 38.7591 102.579 38.6653 103.565 37.9861C104.28 37.4414 104.672 36.6525 104.683 36.593C104.889 36.1391 105.026 35.7337 104.935 35.225C104.792 33.6612 103.138 33.2947 103.138 33.2947L100.699 32.8452" stroke="#F6F6F6" stroke-miterlimit="10" stroke-linecap="round" stroke-linejoin="round"/>
<path d="M100.219 35.4624L105.988 36.5259" stroke="#F6F6F6" stroke-miterlimit="10" stroke-linecap="round" stroke-linejoin="round"/>
<path d="M100.711 32.7856L106.481 33.8491" stroke="#F6F6F6" stroke-miterlimit="10" stroke-linecap="round" stroke-linejoin="round"/>
<path d="M778.482 70.6529C777.148 78.2277 768.898 82.0018 765.087 82.9529C764.708 83.0665 764.398 83.1321 764.088 83.1976C763.876 83.0403 763.549 82.8626 763.232 82.6266C760.101 80.3934 753.567 74.0769 754.9 66.5021C755.577 62.6564 758.96 60.0679 762.436 60.6798C764.754 61.0878 766.546 62.7849 767.288 65.018C768.748 63.1724 771.011 62.1892 773.329 62.5971C776.873 63.161 779.159 66.8072 778.482 70.6529Z" stroke="#F6F6F6" stroke-miterlimit="10" stroke-linecap="round" stroke-linejoin="round"/>
<path d="M731.35 91.1428L740.338 85.0008C740.338 85.0008 742.964 83.1112 745.786 83.8575L759 86.2929C759 86.2929 760.651 86.5974 760.52 87.9294C760.498 89.2817 759.927 89.2895 758.726 89.6331L749.244 89.8069L751.743 93.5451L762.974 95.6153L774.437 87.782C774.437 87.782 775.96 86.9324 776.99 88.1395C778.04 89.2372 777.027 90.4069 776.506 90.7629C776.005 91.0097 762.869 99.8908 762.869 99.8908C762.869 99.8908 762.398 100.595 760.265 100.428L742.868 97.2214C742.868 97.2214 740.865 96.9654 740.134 97.8477L737.378 99.8264L731.35 91.1428Z" stroke="#F6F6F6" stroke-miterlimit="10" stroke-linecap="round" stroke-linejoin="round"/>
<path d="M767.503 78.5713C765.934 76.7444 764.364 74.9175 762.783 73.15C764.085 73.7591 765.579 73.6653 766.565 72.9861C767.28 72.4414 767.672 71.6525 767.683 71.593C767.889 71.1391 768.026 70.7337 767.935 70.225C767.792 68.6612 766.138 68.2947 766.138 68.2947L763.699 67.8452" stroke="#F6F6F6" stroke-miterlimit="10" stroke-linecap="round" stroke-linejoin="round"/>
<path d="M763.219 70.4624L768.988 71.5259" stroke="#F6F6F6" stroke-miterlimit="10" stroke-linecap="round" stroke-linejoin="round"/>
<path d="M763.711 67.7856L769.481 68.8491" stroke="#F6F6F6" stroke-miterlimit="10" stroke-linecap="round" stroke-linejoin="round"/>
<path d="M719.032 240.021C718.623 247.701 710.889 252.444 707.22 253.848C706.858 254.007 706.558 254.109 706.258 254.212C706.03 254.081 705.683 253.944 705.34 253.748C701.962 251.91 694.713 246.429 695.122 238.748C695.329 234.849 698.375 231.871 701.899 232.058C704.249 232.183 706.233 233.652 707.239 235.779C708.465 233.771 710.594 232.521 712.944 232.646C716.53 232.778 719.239 236.121 719.032 240.021Z" stroke="#F6F6F6" stroke-miterlimit="10" stroke-linecap="round" stroke-linejoin="round"/>
<path d="M674.721 266.053L682.902 258.87C682.902 258.87 685.28 256.677 688.172 257.077L701.583 257.899C701.583 257.899 703.259 258.002 703.289 259.34C703.431 260.685 702.866 260.762 701.714 261.248L692.323 262.566L695.255 265.975L706.654 266.673L717.087 257.513C717.087 257.513 718.496 256.486 719.664 257.559C720.839 258.522 719.975 259.806 719.501 260.222C719.033 260.528 707.066 270.93 707.066 270.93C707.066 270.93 706.683 271.686 704.546 271.778L686.888 270.696C686.888 270.696 684.87 270.684 684.25 271.648L681.754 273.945L674.721 266.053Z" stroke="#F6F6F6" stroke-miterlimit="10" stroke-linecap="round" stroke-linejoin="round"/>
<path d="M709.087 249.207C707.308 247.583 705.529 245.959 703.747 244.395C705.113 244.843 706.584 244.569 707.481 243.776C708.126 243.149 708.419 242.318 708.422 242.258C708.573 241.782 708.659 241.363 708.508 240.869C708.177 239.334 706.491 239.17 706.491 239.17L704.016 239.019" stroke="#F6F6F6" stroke-miterlimit="10" stroke-linecap="round" stroke-linejoin="round"/>
<path d="M703.852 241.675L709.707 242.034" stroke="#F6F6F6" stroke-miterlimit="10" stroke-linecap="round" stroke-linejoin="round"/>
<path d="M704.02 238.958L709.875 239.317" stroke="#F6F6F6" stroke-miterlimit="10" stroke-linecap="round" stroke-linejoin="round"/>
</g>
</g>
</svg>
