<svg width="802" height="285" viewBox="0 0 802 285" fill="none" xmlns="http://www.w3.org/2000/svg">
<mask id="mask0" style="mask-type:alpha" maskUnits="userSpaceOnUse" x="0" y="0" width="802" height="285">
<rect width="802" height="285" rx="17" fill="#4760F0"/>
</mask>
<g mask="url(#mask0)">
<rect width="802" height="285" rx="17" fill="#4760F0"/>
<path d="M271.181 144.252C269.525 144.252 268.037 143.964 266.717 143.388C265.421 142.788 264.401 141.972 263.657 140.94C262.913 139.884 262.529 138.672 262.505 137.304H265.997C266.117 138.48 266.597 139.476 267.437 140.292C268.301 141.084 269.549 141.48 271.181 141.48C272.741 141.48 273.965 141.096 274.853 140.328C275.765 139.536 276.221 138.528 276.221 137.304C276.221 136.344 275.957 135.564 275.429 134.964C274.901 134.364 274.241 133.908 273.449 133.596C272.657 133.284 271.589 132.948 270.245 132.588C268.589 132.156 267.257 131.724 266.249 131.292C265.265 130.86 264.413 130.188 263.693 129.276C262.997 128.34 262.649 127.092 262.649 125.532C262.649 124.164 262.997 122.952 263.693 121.896C264.389 120.84 265.361 120.024 266.609 119.448C267.881 118.872 269.333 118.584 270.965 118.584C273.317 118.584 275.237 119.172 276.725 120.348C278.237 121.524 279.089 123.084 279.281 125.028H275.681C275.561 124.068 275.057 123.228 274.169 122.508C273.281 121.764 272.105 121.392 270.641 121.392C269.273 121.392 268.157 121.752 267.293 122.472C266.429 123.168 265.997 124.152 265.997 125.424C265.997 126.336 266.249 127.08 266.753 127.656C267.281 128.232 267.917 128.676 268.661 128.988C269.429 129.276 270.497 129.612 271.865 129.996C273.521 130.452 274.853 130.908 275.861 131.364C276.869 131.796 277.733 132.48 278.453 133.416C279.173 134.328 279.533 135.576 279.533 137.16C279.533 138.384 279.209 139.536 278.561 140.616C277.913 141.696 276.953 142.572 275.681 143.244C274.409 143.916 272.909 144.252 271.181 144.252ZM301.85 124.272V144H298.574V141.084C297.95 142.092 297.074 142.884 295.946 143.46C294.842 144.012 293.618 144.288 292.274 144.288C290.738 144.288 289.358 143.976 288.134 143.352C286.91 142.704 285.938 141.744 285.218 140.472C284.522 139.2 284.174 137.652 284.174 135.828V124.272H287.414V135.396C287.414 137.34 287.906 138.84 288.89 139.896C289.874 140.928 291.218 141.444 292.922 141.444C294.674 141.444 296.054 140.904 297.062 139.824C298.07 138.744 298.574 137.172 298.574 135.108V124.272H301.85ZM310.657 127.908C311.305 126.78 312.265 125.844 313.537 125.1C314.833 124.332 316.333 123.948 318.037 123.948C319.789 123.948 321.373 124.368 322.789 125.208C324.229 126.048 325.357 127.236 326.173 128.772C326.989 130.284 327.397 132.048 327.397 134.064C327.397 136.056 326.989 137.832 326.173 139.392C325.357 140.952 324.229 142.164 322.789 143.028C321.373 143.892 319.789 144.324 318.037 144.324C316.357 144.324 314.869 143.952 313.573 143.208C312.301 142.44 311.329 141.492 310.657 140.364V153.36H307.381V124.272H310.657V127.908ZM324.049 134.064C324.049 132.576 323.749 131.28 323.149 130.176C322.549 129.072 321.733 128.232 320.701 127.656C319.693 127.08 318.577 126.792 317.353 126.792C316.153 126.792 315.037 127.092 314.005 127.692C312.997 128.268 312.181 129.12 311.557 130.248C310.957 131.352 310.657 132.636 310.657 134.1C310.657 135.588 310.957 136.896 311.557 138.024C312.181 139.128 312.997 139.98 314.005 140.58C315.037 141.156 316.153 141.444 317.353 141.444C318.577 141.444 319.693 141.156 320.701 140.58C321.733 139.98 322.549 139.128 323.149 138.024C323.749 136.896 324.049 135.576 324.049 134.064ZM334.986 127.908C335.634 126.78 336.594 125.844 337.866 125.1C339.162 124.332 340.662 123.948 342.366 123.948C344.118 123.948 345.702 124.368 347.117 125.208C348.557 126.048 349.686 127.236 350.502 128.772C351.318 130.284 351.726 132.048 351.726 134.064C351.726 136.056 351.318 137.832 350.502 139.392C349.686 140.952 348.557 142.164 347.117 143.028C345.702 143.892 344.118 144.324 342.366 144.324C340.686 144.324 339.198 143.952 337.902 143.208C336.63 142.44 335.658 141.492 334.986 140.364V153.36H331.71V124.272H334.986V127.908ZM348.378 134.064C348.378 132.576 348.078 131.28 347.478 130.176C346.878 129.072 346.062 128.232 345.03 127.656C344.022 127.08 342.906 126.792 341.682 126.792C340.482 126.792 339.366 127.092 338.334 127.692C337.326 128.268 336.51 129.12 335.886 130.248C335.286 131.352 334.986 132.636 334.986 134.1C334.986 135.588 335.286 136.896 335.886 138.024C336.51 139.128 337.326 139.98 338.334 140.58C339.366 141.156 340.482 141.444 341.682 141.444C342.906 141.444 344.022 141.156 345.03 140.58C346.062 139.98 346.878 139.128 347.478 138.024C348.078 136.896 348.378 135.576 348.378 134.064ZM364.642 144.324C362.794 144.324 361.114 143.904 359.602 143.064C358.114 142.224 356.938 141.036 356.074 139.5C355.234 137.94 354.814 136.14 354.814 134.1C354.814 132.084 355.246 130.308 356.11 128.772C356.998 127.212 358.198 126.024 359.71 125.208C361.222 124.368 362.914 123.948 364.786 123.948C366.658 123.948 368.35 124.368 369.862 125.208C371.374 126.024 372.562 127.2 373.426 128.736C374.314 130.272 374.758 132.06 374.758 134.1C374.758 136.14 374.302 137.94 373.39 139.5C372.502 141.036 371.29 142.224 369.754 143.064C368.218 143.904 366.514 144.324 364.642 144.324ZM364.642 141.444C365.818 141.444 366.922 141.168 367.954 140.616C368.986 140.064 369.814 139.236 370.438 138.132C371.086 137.028 371.41 135.684 371.41 134.1C371.41 132.516 371.098 131.172 370.474 130.068C369.85 128.964 369.034 128.148 368.026 127.62C367.018 127.068 365.926 126.792 364.75 126.792C363.55 126.792 362.446 127.068 361.438 127.62C360.454 128.148 359.662 128.964 359.062 130.068C358.462 131.172 358.162 132.516 358.162 134.1C358.162 135.708 358.45 137.064 359.026 138.168C359.626 139.272 360.418 140.1 361.402 140.652C362.386 141.18 363.466 141.444 364.642 141.444ZM382.341 127.476C382.917 126.348 383.733 125.472 384.789 124.848C385.869 124.224 387.177 123.912 388.713 123.912V127.296H387.849C384.177 127.296 382.341 129.288 382.341 133.272V144H379.065V124.272H382.341V127.476ZM396.491 126.972V138.6C396.491 139.56 396.695 140.244 397.103 140.652C397.511 141.036 398.219 141.228 399.227 141.228H401.639V144H398.687C396.863 144 395.495 143.58 394.583 142.74C393.671 141.9 393.215 140.52 393.215 138.6V126.972H390.659V124.272H393.215V119.304H396.491V124.272H401.639V126.972H396.491ZM423.162 144.252C421.506 144.252 420.018 143.964 418.698 143.388C417.402 142.788 416.382 141.972 415.638 140.94C414.894 139.884 414.51 138.672 414.486 137.304H417.978C418.098 138.48 418.578 139.476 419.418 140.292C420.282 141.084 421.53 141.48 423.162 141.48C424.722 141.48 425.946 141.096 426.834 140.328C427.746 139.536 428.202 138.528 428.202 137.304C428.202 136.344 427.938 135.564 427.41 134.964C426.882 134.364 426.222 133.908 425.43 133.596C424.638 133.284 423.57 132.948 422.226 132.588C420.57 132.156 419.238 131.724 418.23 131.292C417.246 130.86 416.394 130.188 415.674 129.276C414.978 128.34 414.63 127.092 414.63 125.532C414.63 124.164 414.978 122.952 415.674 121.896C416.37 120.84 417.342 120.024 418.59 119.448C419.862 118.872 421.314 118.584 422.946 118.584C425.298 118.584 427.218 119.172 428.706 120.348C430.218 121.524 431.07 123.084 431.262 125.028H427.662C427.542 124.068 427.038 123.228 426.15 122.508C425.262 121.764 424.086 121.392 422.622 121.392C421.254 121.392 420.138 121.752 419.274 122.472C418.41 123.168 417.978 124.152 417.978 125.424C417.978 126.336 418.23 127.08 418.734 127.656C419.262 128.232 419.898 128.676 420.642 128.988C421.41 129.276 422.478 129.612 423.846 129.996C425.502 130.452 426.834 130.908 427.842 131.364C428.85 131.796 429.714 132.48 430.434 133.416C431.154 134.328 431.514 135.576 431.514 137.16C431.514 138.384 431.19 139.536 430.542 140.616C429.894 141.696 428.934 142.572 427.662 143.244C426.39 143.916 424.89 144.252 423.162 144.252ZM454.335 133.38C454.335 134.004 454.299 134.664 454.227 135.36H438.459C438.579 137.304 439.239 138.828 440.439 139.932C441.663 141.012 443.139 141.552 444.867 141.552C446.283 141.552 447.459 141.228 448.395 140.58C449.355 139.908 450.027 139.02 450.411 137.916H453.939C453.411 139.812 452.355 141.36 450.771 142.56C449.187 143.736 447.219 144.324 444.867 144.324C442.995 144.324 441.315 143.904 439.827 143.064C438.363 142.224 437.211 141.036 436.371 139.5C435.531 137.94 435.111 136.14 435.111 134.1C435.111 132.06 435.519 130.272 436.335 128.736C437.151 127.2 438.291 126.024 439.755 125.208C441.243 124.368 442.947 123.948 444.867 123.948C446.739 123.948 448.395 124.356 449.835 125.172C451.275 125.988 452.379 127.116 453.147 128.556C453.939 129.972 454.335 131.58 454.335 133.38ZM450.951 132.696C450.951 131.448 450.675 130.38 450.123 129.492C449.571 128.58 448.815 127.896 447.855 127.44C446.919 126.96 445.875 126.72 444.723 126.72C443.067 126.72 441.651 127.248 440.475 128.304C439.323 129.36 438.663 130.824 438.495 132.696H450.951ZM461.935 127.476C462.511 126.348 463.327 125.472 464.383 124.848C465.463 124.224 466.771 123.912 468.307 123.912V127.296H467.443C463.771 127.296 461.935 129.288 461.935 133.272V144H458.659V124.272H461.935V127.476ZM479.432 140.976L485.552 124.272H489.044L481.304 144H477.488L469.748 124.272H473.276L479.432 140.976ZM493.96 121.068C493.336 121.068 492.808 120.852 492.376 120.42C491.944 119.988 491.728 119.46 491.728 118.836C491.728 118.212 491.944 117.684 492.376 117.252C492.808 116.82 493.336 116.604 493.96 116.604C494.56 116.604 495.064 116.82 495.472 117.252C495.904 117.684 496.12 118.212 496.12 118.836C496.12 119.46 495.904 119.988 495.472 120.42C495.064 120.852 494.56 121.068 493.96 121.068ZM495.544 124.272V144H492.268V124.272H495.544ZM499.903 134.1C499.903 132.06 500.311 130.284 501.127 128.772C501.943 127.236 503.071 126.048 504.511 125.208C505.975 124.368 507.643 123.948 509.515 123.948C511.939 123.948 513.931 124.536 515.491 125.712C517.075 126.888 518.119 128.52 518.623 130.608H515.095C514.759 129.408 514.099 128.46 513.115 127.764C512.155 127.068 510.955 126.72 509.515 126.72C507.643 126.72 506.131 127.368 504.979 128.664C503.827 129.936 503.251 131.748 503.251 134.1C503.251 136.476 503.827 138.312 504.979 139.608C506.131 140.904 507.643 141.552 509.515 141.552C510.955 141.552 512.155 141.216 513.115 140.544C514.075 139.872 514.735 138.912 515.095 137.664H518.623C518.095 139.68 517.039 141.3 515.455 142.524C513.871 143.724 511.891 144.324 509.515 144.324C507.643 144.324 505.975 143.904 504.511 143.064C503.071 142.224 501.943 141.036 501.127 139.5C500.311 137.964 499.903 136.164 499.903 134.1ZM540.995 133.38C540.995 134.004 540.959 134.664 540.887 135.36H525.119C525.239 137.304 525.899 138.828 527.099 139.932C528.323 141.012 529.799 141.552 531.527 141.552C532.943 141.552 534.119 141.228 535.055 140.58C536.015 139.908 536.687 139.02 537.071 137.916H540.599C540.071 139.812 539.015 141.36 537.431 142.56C535.847 143.736 533.879 144.324 531.527 144.324C529.655 144.324 527.975 143.904 526.487 143.064C525.023 142.224 523.871 141.036 523.031 139.5C522.191 137.94 521.771 136.14 521.771 134.1C521.771 132.06 522.179 130.272 522.995 128.736C523.811 127.2 524.951 126.024 526.415 125.208C527.903 124.368 529.607 123.948 531.527 123.948C533.399 123.948 535.055 124.356 536.495 125.172C537.935 125.988 539.039 127.116 539.807 128.556C540.599 129.972 540.995 131.58 540.995 133.38ZM537.611 132.696C537.611 131.448 537.335 130.38 536.783 129.492C536.231 128.58 535.475 127.896 534.515 127.44C533.579 126.96 532.535 126.72 531.383 126.72C529.727 126.72 528.311 127.248 527.135 128.304C525.983 129.36 525.323 130.824 525.155 132.696H537.611Z" fill="#F6F6F6"/>
<path d="M201.5 181.012H195.776L194.678 184H193.346L197.936 171.58H199.358L203.93 184H202.598L201.5 181.012ZM201.122 179.968L198.638 173.164L196.154 179.968H201.122ZM216.795 184.144C215.667 184.144 214.743 183.886 214.023 183.37C213.315 182.842 212.919 182.128 212.835 181.228H214.131C214.191 181.78 214.449 182.23 214.905 182.578C215.373 182.914 215.997 183.082 216.777 183.082C217.461 183.082 217.995 182.92 218.379 182.596C218.775 182.272 218.973 181.87 218.973 181.39C218.973 181.054 218.865 180.778 218.649 180.562C218.433 180.346 218.157 180.178 217.821 180.058C217.497 179.926 217.053 179.788 216.489 179.644C215.757 179.452 215.163 179.26 214.707 179.068C214.251 178.876 213.861 178.594 213.537 178.222C213.225 177.838 213.069 177.328 213.069 176.692C213.069 176.212 213.213 175.768 213.501 175.36C213.789 174.952 214.197 174.628 214.725 174.388C215.253 174.148 215.853 174.028 216.525 174.028C217.581 174.028 218.433 174.298 219.081 174.838C219.729 175.366 220.077 176.098 220.125 177.034H218.865C218.829 176.458 218.601 175.996 218.181 175.648C217.773 175.288 217.209 175.108 216.489 175.108C215.853 175.108 215.337 175.258 214.941 175.558C214.545 175.858 214.347 176.23 214.347 176.674C214.347 177.058 214.461 177.376 214.689 177.628C214.929 177.868 215.223 178.06 215.571 178.204C215.919 178.336 216.387 178.486 216.975 178.654C217.683 178.846 218.247 179.032 218.667 179.212C219.087 179.392 219.447 179.656 219.747 180.004C220.047 180.352 220.203 180.814 220.215 181.39C220.215 181.918 220.071 182.392 219.783 182.812C219.495 183.22 219.093 183.544 218.577 183.784C218.061 184.024 217.467 184.144 216.795 184.144ZM225.485 175.234V181.336C225.485 181.936 225.599 182.35 225.827 182.578C226.055 182.806 226.457 182.92 227.033 182.92H228.185V184H226.835C225.947 184 225.287 183.796 224.855 183.388C224.423 182.968 224.207 182.284 224.207 181.336V175.234H222.839V174.172H224.207V171.706H225.485V174.172H228.185V175.234H225.485ZM232.783 175.918C233.059 175.306 233.479 174.832 234.043 174.496C234.619 174.16 235.321 173.992 236.149 173.992V175.306H235.807C234.895 175.306 234.163 175.552 233.611 176.044C233.059 176.536 232.783 177.358 232.783 178.51V184H231.523V174.172H232.783V175.918ZM243.607 184.144C242.683 184.144 241.849 183.94 241.105 183.532C240.373 183.112 239.791 182.524 239.359 181.768C238.939 181 238.729 180.106 238.729 179.086C238.729 178.066 238.945 177.178 239.377 176.422C239.809 175.654 240.397 175.066 241.141 174.658C241.885 174.238 242.719 174.028 243.643 174.028C244.567 174.028 245.401 174.238 246.145 174.658C246.901 175.066 247.489 175.654 247.909 176.422C248.341 177.178 248.557 178.066 248.557 179.086C248.557 180.094 248.341 180.982 247.909 181.75C247.477 182.518 246.883 183.112 246.127 183.532C245.371 183.94 244.531 184.144 243.607 184.144ZM243.607 183.046C244.255 183.046 244.855 182.902 245.407 182.614C245.959 182.314 246.403 181.87 246.739 181.282C247.087 180.682 247.261 179.95 247.261 179.086C247.261 178.222 247.093 177.496 246.757 176.908C246.421 176.308 245.977 175.864 245.425 175.576C244.873 175.276 244.273 175.126 243.625 175.126C242.977 175.126 242.377 175.276 241.825 175.576C241.273 175.864 240.829 176.308 240.493 176.908C240.169 177.496 240.007 178.222 240.007 179.086C240.007 179.95 240.169 180.682 240.493 181.282C240.829 181.87 241.267 182.314 241.807 182.614C242.359 182.902 242.959 183.046 243.607 183.046ZM256.721 173.992C257.897 173.992 258.857 174.358 259.601 175.09C260.345 175.81 260.717 176.86 260.717 178.24V184H259.475V178.384C259.475 177.316 259.205 176.5 258.665 175.936C258.137 175.372 257.411 175.09 256.487 175.09C255.539 175.09 254.783 175.39 254.219 175.99C253.655 176.59 253.373 177.472 253.373 178.636V184H252.113V174.172H253.373V175.846C253.685 175.246 254.135 174.79 254.723 174.478C255.311 174.154 255.977 173.992 256.721 173.992ZM268.886 174.028C269.81 174.028 270.614 174.244 271.298 174.676C271.982 175.108 272.474 175.654 272.774 176.314V174.172H274.034V184.252C274.034 185.152 273.836 185.95 273.44 186.646C273.056 187.342 272.516 187.876 271.82 188.248C271.124 188.632 270.332 188.824 269.444 188.824C268.184 188.824 267.134 188.524 266.294 187.924C265.466 187.324 264.95 186.508 264.746 185.476H265.988C266.204 186.16 266.612 186.706 267.212 187.114C267.824 187.522 268.568 187.726 269.444 187.726C270.08 187.726 270.65 187.588 271.154 187.312C271.658 187.048 272.054 186.652 272.342 186.124C272.63 185.596 272.774 184.972 272.774 184.252V181.822C272.462 182.494 271.964 183.052 271.28 183.496C270.608 183.928 269.81 184.144 268.886 184.144C267.986 184.144 267.176 183.934 266.456 183.514C265.748 183.094 265.19 182.5 264.782 181.732C264.386 180.964 264.188 180.076 264.188 179.068C264.188 178.06 264.386 177.178 264.782 176.422C265.19 175.654 265.748 175.066 266.456 174.658C267.176 174.238 267.986 174.028 268.886 174.028ZM272.774 179.086C272.774 178.294 272.612 177.598 272.288 176.998C271.964 176.398 271.52 175.936 270.956 175.612C270.404 175.288 269.792 175.126 269.12 175.126C268.424 175.126 267.8 175.282 267.248 175.594C266.696 175.906 266.258 176.362 265.934 176.962C265.622 177.55 265.466 178.252 265.466 179.068C265.466 179.872 265.622 180.58 265.934 181.192C266.258 181.792 266.696 182.254 267.248 182.578C267.8 182.89 268.424 183.046 269.12 183.046C269.792 183.046 270.404 182.884 270.956 182.56C271.52 182.236 271.964 181.774 272.288 181.174C272.612 180.574 272.774 179.878 272.774 179.086ZM287.754 184.144C286.626 184.144 285.702 183.886 284.982 183.37C284.274 182.842 283.878 182.128 283.794 181.228H285.09C285.15 181.78 285.408 182.23 285.864 182.578C286.332 182.914 286.956 183.082 287.736 183.082C288.42 183.082 288.954 182.92 289.338 182.596C289.734 182.272 289.932 181.87 289.932 181.39C289.932 181.054 289.824 180.778 289.608 180.562C289.392 180.346 289.116 180.178 288.78 180.058C288.456 179.926 288.012 179.788 287.448 179.644C286.716 179.452 286.122 179.26 285.666 179.068C285.21 178.876 284.82 178.594 284.496 178.222C284.184 177.838 284.028 177.328 284.028 176.692C284.028 176.212 284.172 175.768 284.46 175.36C284.748 174.952 285.156 174.628 285.684 174.388C286.212 174.148 286.812 174.028 287.484 174.028C288.54 174.028 289.392 174.298 290.04 174.838C290.688 175.366 291.036 176.098 291.084 177.034H289.824C289.788 176.458 289.56 175.996 289.14 175.648C288.732 175.288 288.168 175.108 287.448 175.108C286.812 175.108 286.296 175.258 285.9 175.558C285.504 175.858 285.306 176.23 285.306 176.674C285.306 177.058 285.42 177.376 285.648 177.628C285.888 177.868 286.182 178.06 286.53 178.204C286.878 178.336 287.346 178.486 287.934 178.654C288.642 178.846 289.206 179.032 289.626 179.212C290.046 179.392 290.406 179.656 290.706 180.004C291.006 180.352 291.162 180.814 291.174 181.39C291.174 181.918 291.03 182.392 290.742 182.812C290.454 183.22 290.052 183.544 289.536 183.784C289.02 184.024 288.426 184.144 287.754 184.144ZM303.32 174.172V184H302.06V182.272C301.772 182.884 301.328 183.352 300.728 183.676C300.128 184 299.456 184.162 298.712 184.162C297.536 184.162 296.576 183.802 295.832 183.082C295.088 182.35 294.716 181.294 294.716 179.914V174.172H295.958V179.77C295.958 180.838 296.222 181.654 296.75 182.218C297.29 182.782 298.022 183.064 298.946 183.064C299.894 183.064 300.65 182.764 301.214 182.164C301.778 181.564 302.06 180.682 302.06 179.518V174.172H303.32ZM308.698 176.332C309.01 175.672 309.502 175.126 310.174 174.694C310.858 174.25 311.668 174.028 312.604 174.028C313.492 174.028 314.29 174.238 314.998 174.658C315.718 175.066 316.276 175.654 316.672 176.422C317.08 177.178 317.284 178.06 317.284 179.068C317.284 180.076 317.08 180.964 316.672 181.732C316.276 182.5 315.718 183.094 314.998 183.514C314.29 183.934 313.492 184.144 312.604 184.144C311.68 184.144 310.876 183.928 310.192 183.496C309.508 183.052 309.01 182.5 308.698 181.84V188.644H307.456V174.172H308.698V176.332ZM316.006 179.068C316.006 178.252 315.844 177.55 315.52 176.962C315.208 176.362 314.776 175.906 314.224 175.594C313.672 175.282 313.048 175.126 312.352 175.126C311.68 175.126 311.062 175.288 310.498 175.612C309.946 175.936 309.508 176.398 309.184 176.998C308.86 177.598 308.698 178.294 308.698 179.086C308.698 179.878 308.86 180.574 309.184 181.174C309.508 181.774 309.946 182.236 310.498 182.56C311.062 182.884 311.68 183.046 312.352 183.046C313.048 183.046 313.672 182.89 314.224 182.578C314.776 182.254 315.208 181.792 315.52 181.192C315.844 180.58 316.006 179.872 316.006 179.068ZM322.105 176.332C322.417 175.672 322.909 175.126 323.581 174.694C324.265 174.25 325.075 174.028 326.011 174.028C326.899 174.028 327.697 174.238 328.405 174.658C329.125 175.066 329.683 175.654 330.079 176.422C330.487 177.178 330.691 178.06 330.691 179.068C330.691 180.076 330.487 180.964 330.079 181.732C329.683 182.5 329.125 183.094 328.405 183.514C327.697 183.934 326.899 184.144 326.011 184.144C325.087 184.144 324.283 183.928 323.599 183.496C322.915 183.052 322.417 182.5 322.105 181.84V188.644H320.863V174.172H322.105V176.332ZM329.413 179.068C329.413 178.252 329.251 177.55 328.927 176.962C328.615 176.362 328.183 175.906 327.631 175.594C327.079 175.282 326.455 175.126 325.759 175.126C325.087 175.126 324.469 175.288 323.905 175.612C323.353 175.936 322.915 176.398 322.591 176.998C322.267 177.598 322.105 178.294 322.105 179.086C322.105 179.878 322.267 180.574 322.591 181.174C322.915 181.774 323.353 182.236 323.905 182.56C324.469 182.884 325.087 183.046 325.759 183.046C326.455 183.046 327.079 182.89 327.631 182.578C328.183 182.254 328.615 181.792 328.927 181.192C329.251 180.58 329.413 179.872 329.413 179.068ZM338.571 184.144C337.647 184.144 336.813 183.94 336.069 183.532C335.337 183.112 334.755 182.524 334.323 181.768C333.903 181 333.693 180.106 333.693 179.086C333.693 178.066 333.909 177.178 334.341 176.422C334.773 175.654 335.361 175.066 336.105 174.658C336.849 174.238 337.683 174.028 338.607 174.028C339.531 174.028 340.365 174.238 341.109 174.658C341.865 175.066 342.453 175.654 342.873 176.422C343.305 177.178 343.521 178.066 343.521 179.086C343.521 180.094 343.305 180.982 342.873 181.75C342.441 182.518 341.847 183.112 341.091 183.532C340.335 183.94 339.495 184.144 338.571 184.144ZM338.571 183.046C339.219 183.046 339.819 182.902 340.371 182.614C340.923 182.314 341.367 181.87 341.703 181.282C342.051 180.682 342.225 179.95 342.225 179.086C342.225 178.222 342.057 177.496 341.721 176.908C341.385 176.308 340.941 175.864 340.389 175.576C339.837 175.276 339.237 175.126 338.589 175.126C337.941 175.126 337.341 175.276 336.789 175.576C336.237 175.864 335.793 176.308 335.457 176.908C335.133 177.496 334.971 178.222 334.971 179.086C334.971 179.95 335.133 180.682 335.457 181.282C335.793 181.87 336.231 182.314 336.771 182.614C337.323 182.902 337.923 183.046 338.571 183.046ZM348.338 175.918C348.614 175.306 349.034 174.832 349.598 174.496C350.174 174.16 350.876 173.992 351.704 173.992V175.306H351.362C350.45 175.306 349.718 175.552 349.166 176.044C348.614 176.536 348.338 177.358 348.338 178.51V184H347.078V174.172H348.338V175.918ZM356.498 175.234V181.336C356.498 181.936 356.612 182.35 356.84 182.578C357.068 182.806 357.47 182.92 358.046 182.92H359.198V184H357.848C356.96 184 356.3 183.796 355.868 183.388C355.436 182.968 355.22 182.284 355.22 181.336V175.234H353.852V174.172H355.22V171.706H356.498V174.172H359.198V175.234H356.498ZM372.119 184.144C370.991 184.144 370.067 183.886 369.347 183.37C368.639 182.842 368.243 182.128 368.159 181.228H369.455C369.515 181.78 369.773 182.23 370.229 182.578C370.697 182.914 371.321 183.082 372.101 183.082C372.785 183.082 373.319 182.92 373.703 182.596C374.099 182.272 374.297 181.87 374.297 181.39C374.297 181.054 374.189 180.778 373.973 180.562C373.757 180.346 373.481 180.178 373.145 180.058C372.821 179.926 372.377 179.788 371.813 179.644C371.081 179.452 370.487 179.26 370.031 179.068C369.575 178.876 369.185 178.594 368.861 178.222C368.549 177.838 368.393 177.328 368.393 176.692C368.393 176.212 368.537 175.768 368.825 175.36C369.113 174.952 369.521 174.628 370.049 174.388C370.577 174.148 371.177 174.028 371.849 174.028C372.905 174.028 373.757 174.298 374.405 174.838C375.053 175.366 375.401 176.098 375.449 177.034H374.189C374.153 176.458 373.925 175.996 373.505 175.648C373.097 175.288 372.533 175.108 371.813 175.108C371.177 175.108 370.661 175.258 370.265 175.558C369.869 175.858 369.671 176.23 369.671 176.674C369.671 177.058 369.785 177.376 370.013 177.628C370.253 177.868 370.547 178.06 370.895 178.204C371.243 178.336 371.711 178.486 372.299 178.654C373.007 178.846 373.571 179.032 373.991 179.212C374.411 179.392 374.771 179.656 375.071 180.004C375.371 180.352 375.527 180.814 375.539 181.39C375.539 181.918 375.395 182.392 375.107 182.812C374.819 183.22 374.417 183.544 373.901 183.784C373.385 184.024 372.791 184.144 372.119 184.144ZM388.063 178.582C388.063 179.014 388.051 179.344 388.027 179.572H379.873C379.909 180.316 380.089 180.952 380.413 181.48C380.737 182.008 381.163 182.41 381.691 182.686C382.219 182.95 382.795 183.082 383.419 183.082C384.235 183.082 384.919 182.884 385.471 182.488C386.035 182.092 386.407 181.558 386.587 180.886H387.919C387.679 181.846 387.163 182.632 386.371 183.244C385.591 183.844 384.607 184.144 383.419 184.144C382.495 184.144 381.667 183.94 380.935 183.532C380.203 183.112 379.627 182.524 379.207 181.768C378.799 181 378.595 180.106 378.595 179.086C378.595 178.066 378.799 177.172 379.207 176.404C379.615 175.636 380.185 175.048 380.917 174.64C381.649 174.232 382.483 174.028 383.419 174.028C384.355 174.028 385.171 174.232 385.867 174.64C386.575 175.048 387.115 175.6 387.487 176.296C387.871 176.98 388.063 177.742 388.063 178.582ZM386.785 178.546C386.797 177.814 386.647 177.19 386.335 176.674C386.035 176.158 385.621 175.768 385.093 175.504C384.565 175.24 383.989 175.108 383.365 175.108C382.429 175.108 381.631 175.408 380.971 176.008C380.311 176.608 379.945 177.454 379.873 178.546H386.785ZM392.888 175.918C393.164 175.306 393.584 174.832 394.148 174.496C394.724 174.16 395.426 173.992 396.254 173.992V175.306H395.912C395 175.306 394.268 175.552 393.716 176.044C393.164 176.536 392.888 177.358 392.888 178.51V184H391.628V174.172H392.888V175.918ZM402.902 182.776L406.214 174.172H407.546L403.604 184H402.182L398.24 174.172H399.59L402.902 182.776ZM411.143 172.318C410.891 172.318 410.675 172.228 410.495 172.048C410.315 171.868 410.225 171.646 410.225 171.382C410.225 171.118 410.315 170.902 410.495 170.734C410.675 170.554 410.891 170.464 411.143 170.464C411.395 170.464 411.611 170.554 411.791 170.734C411.971 170.902 412.061 171.118 412.061 171.382C412.061 171.646 411.971 171.868 411.791 172.048C411.611 172.228 411.395 172.318 411.143 172.318ZM411.773 174.172V184H410.513V174.172H411.773ZM415.311 179.086C415.311 178.066 415.515 177.178 415.923 176.422C416.331 175.654 416.895 175.066 417.615 174.658C418.335 174.238 419.157 174.028 420.081 174.028C421.293 174.028 422.289 174.328 423.069 174.928C423.861 175.528 424.371 176.344 424.599 177.376H423.249C423.081 176.668 422.715 176.116 422.151 175.72C421.599 175.312 420.909 175.108 420.081 175.108C419.421 175.108 418.827 175.258 418.299 175.558C417.771 175.858 417.351 176.308 417.039 176.908C416.739 177.496 416.589 178.222 416.589 179.086C416.589 179.95 416.739 180.682 417.039 181.282C417.351 181.882 417.771 182.332 418.299 182.632C418.827 182.932 419.421 183.082 420.081 183.082C420.909 183.082 421.599 182.884 422.151 182.488C422.715 182.08 423.081 181.516 423.249 180.796H424.599C424.371 181.804 423.861 182.614 423.069 183.226C422.277 183.838 421.281 184.144 420.081 184.144C419.157 184.144 418.335 183.94 417.615 183.532C416.895 183.112 416.331 182.524 415.923 181.768C415.515 181 415.311 180.106 415.311 179.086ZM437.078 178.582C437.078 179.014 437.066 179.344 437.042 179.572H428.888C428.924 180.316 429.104 180.952 429.428 181.48C429.752 182.008 430.178 182.41 430.706 182.686C431.234 182.95 431.81 183.082 432.434 183.082C433.25 183.082 433.934 182.884 434.486 182.488C435.05 182.092 435.422 181.558 435.602 180.886H436.934C436.694 181.846 436.178 182.632 435.386 183.244C434.606 183.844 433.622 184.144 432.434 184.144C431.51 184.144 430.682 183.94 429.95 183.532C429.218 183.112 428.642 182.524 428.222 181.768C427.814 181 427.61 180.106 427.61 179.086C427.61 178.066 427.814 177.172 428.222 176.404C428.63 175.636 429.2 175.048 429.932 174.64C430.664 174.232 431.498 174.028 432.434 174.028C433.37 174.028 434.186 174.232 434.882 174.64C435.59 175.048 436.13 175.6 436.502 176.296C436.886 176.98 437.078 177.742 437.078 178.582ZM435.8 178.546C435.812 177.814 435.662 177.19 435.35 176.674C435.05 176.158 434.636 175.768 434.108 175.504C433.58 175.24 433.004 175.108 432.38 175.108C431.444 175.108 430.646 175.408 429.986 176.008C429.326 176.608 428.96 177.454 428.888 178.546H435.8ZM448.48 175.234V181.336C448.48 181.936 448.594 182.35 448.822 182.578C449.05 182.806 449.452 182.92 450.028 182.92H451.18V184H449.83C448.942 184 448.282 183.796 447.85 183.388C447.418 182.968 447.202 182.284 447.202 181.336V175.234H445.834V174.172H447.202V171.706H448.48V174.172H451.18V175.234H448.48ZM458.82 184.144C457.896 184.144 457.062 183.94 456.318 183.532C455.586 183.112 455.004 182.524 454.572 181.768C454.152 181 453.942 180.106 453.942 179.086C453.942 178.066 454.158 177.178 454.59 176.422C455.022 175.654 455.61 175.066 456.354 174.658C457.098 174.238 457.932 174.028 458.856 174.028C459.78 174.028 460.614 174.238 461.358 174.658C462.114 175.066 462.702 175.654 463.122 176.422C463.554 177.178 463.77 178.066 463.77 179.086C463.77 180.094 463.554 180.982 463.122 181.75C462.69 182.518 462.096 183.112 461.34 183.532C460.584 183.94 459.744 184.144 458.82 184.144ZM458.82 183.046C459.468 183.046 460.068 182.902 460.62 182.614C461.172 182.314 461.616 181.87 461.952 181.282C462.3 180.682 462.474 179.95 462.474 179.086C462.474 178.222 462.306 177.496 461.97 176.908C461.634 176.308 461.19 175.864 460.638 175.576C460.086 175.276 459.486 175.126 458.838 175.126C458.19 175.126 457.59 175.276 457.038 175.576C456.486 175.864 456.042 176.308 455.706 176.908C455.382 177.496 455.22 178.222 455.22 179.086C455.22 179.95 455.382 180.682 455.706 181.282C456.042 181.87 456.48 182.314 457.02 182.614C457.572 182.902 458.172 183.046 458.82 183.046ZM474.769 176.35C475.093 175.666 475.591 175.108 476.263 174.676C476.947 174.244 477.751 174.028 478.675 174.028C479.575 174.028 480.379 174.238 481.087 174.658C481.795 175.066 482.347 175.654 482.743 176.422C483.151 177.178 483.355 178.06 483.355 179.068C483.355 180.076 483.151 180.964 482.743 181.732C482.347 182.5 481.789 183.094 481.069 183.514C480.361 183.934 479.563 184.144 478.675 184.144C477.739 184.144 476.929 183.934 476.245 183.514C475.573 183.082 475.081 182.524 474.769 181.84V184H473.527V170.68H474.769V176.35ZM482.077 179.068C482.077 178.252 481.915 177.55 481.591 176.962C481.279 176.362 480.847 175.906 480.295 175.594C479.743 175.282 479.119 175.126 478.423 175.126C477.751 175.126 477.133 175.288 476.569 175.612C476.017 175.936 475.579 176.398 475.255 176.998C474.931 177.598 474.769 178.294 474.769 179.086C474.769 179.878 474.931 180.574 475.255 181.174C475.579 181.774 476.017 182.236 476.569 182.56C477.133 182.884 477.751 183.046 478.423 183.046C479.119 183.046 479.743 182.89 480.295 182.578C480.847 182.254 481.279 181.792 481.591 181.192C481.915 180.58 482.077 179.872 482.077 179.068ZM491.235 184.144C490.311 184.144 489.477 183.94 488.733 183.532C488.001 183.112 487.419 182.524 486.987 181.768C486.567 181 486.357 180.106 486.357 179.086C486.357 178.066 486.573 177.178 487.005 176.422C487.437 175.654 488.025 175.066 488.769 174.658C489.513 174.238 490.347 174.028 491.271 174.028C492.195 174.028 493.029 174.238 493.773 174.658C494.529 175.066 495.117 175.654 495.537 176.422C495.969 177.178 496.185 178.066 496.185 179.086C496.185 180.094 495.969 180.982 495.537 181.75C495.105 182.518 494.511 183.112 493.755 183.532C492.999 183.94 492.159 184.144 491.235 184.144ZM491.235 183.046C491.883 183.046 492.483 182.902 493.035 182.614C493.587 182.314 494.031 181.87 494.367 181.282C494.715 180.682 494.889 179.95 494.889 179.086C494.889 178.222 494.721 177.496 494.385 176.908C494.049 176.308 493.605 175.864 493.053 175.576C492.501 175.276 491.901 175.126 491.253 175.126C490.605 175.126 490.005 175.276 489.453 175.576C488.901 175.864 488.457 176.308 488.121 176.908C487.797 177.496 487.635 178.222 487.635 179.086C487.635 179.95 487.797 180.682 488.121 181.282C488.457 181.87 488.895 182.314 489.435 182.614C489.987 182.902 490.587 183.046 491.235 183.046ZM501.38 175.234V181.336C501.38 181.936 501.494 182.35 501.722 182.578C501.95 182.806 502.352 182.92 502.928 182.92H504.08V184H502.73C501.842 184 501.182 183.796 500.75 183.388C500.318 182.968 500.102 182.284 500.102 181.336V175.234H498.734V174.172H500.102V171.706H501.38V174.172H504.08V175.234H501.38ZM512.098 173.992C512.842 173.992 513.508 174.148 514.096 174.46C514.696 174.772 515.164 175.252 515.5 175.9C515.848 176.536 516.022 177.316 516.022 178.24V184H514.78V178.384C514.78 177.316 514.51 176.5 513.97 175.936C513.442 175.372 512.716 175.09 511.792 175.09C510.844 175.09 510.088 175.39 509.524 175.99C508.96 176.59 508.678 177.472 508.678 178.636V184H507.418V170.68H508.678V175.846C508.99 175.258 509.446 174.802 510.046 174.478C510.658 174.154 511.342 173.992 512.098 173.992ZM525.692 179.086C525.692 178.066 525.896 177.178 526.304 176.422C526.712 175.654 527.276 175.066 527.996 174.658C528.716 174.238 529.538 174.028 530.462 174.028C531.674 174.028 532.67 174.328 533.45 174.928C534.242 175.528 534.752 176.344 534.98 177.376H533.63C533.462 176.668 533.096 176.116 532.532 175.72C531.98 175.312 531.29 175.108 530.462 175.108C529.802 175.108 529.208 175.258 528.68 175.558C528.152 175.858 527.732 176.308 527.42 176.908C527.12 177.496 526.97 178.222 526.97 179.086C526.97 179.95 527.12 180.682 527.42 181.282C527.732 181.882 528.152 182.332 528.68 182.632C529.208 182.932 529.802 183.082 530.462 183.082C531.29 183.082 531.98 182.884 532.532 182.488C533.096 182.08 533.462 181.516 533.63 180.796H534.98C534.752 181.804 534.242 182.614 533.45 183.226C532.658 183.838 531.662 184.144 530.462 184.144C529.538 184.144 528.716 183.94 527.996 183.532C527.276 183.112 526.712 182.524 526.304 181.768C525.896 181 525.692 180.106 525.692 179.086ZM539.827 170.68V184H538.567V170.68H539.827ZM544.57 172.318C544.318 172.318 544.102 172.228 543.922 172.048C543.742 171.868 543.652 171.646 543.652 171.382C543.652 171.118 543.742 170.902 543.922 170.734C544.102 170.554 544.318 170.464 544.57 170.464C544.822 170.464 545.038 170.554 545.218 170.734C545.398 170.902 545.488 171.118 545.488 171.382C545.488 171.646 545.398 171.868 545.218 172.048C545.038 172.228 544.822 172.318 544.57 172.318ZM545.2 174.172V184H543.94V174.172H545.2ZM558.206 178.582C558.206 179.014 558.194 179.344 558.17 179.572H550.016C550.052 180.316 550.232 180.952 550.556 181.48C550.88 182.008 551.306 182.41 551.834 182.686C552.362 182.95 552.938 183.082 553.562 183.082C554.378 183.082 555.062 182.884 555.614 182.488C556.178 182.092 556.55 181.558 556.73 180.886H558.062C557.822 181.846 557.306 182.632 556.514 183.244C555.734 183.844 554.75 184.144 553.562 184.144C552.638 184.144 551.81 183.94 551.078 183.532C550.346 183.112 549.77 182.524 549.35 181.768C548.942 181 548.738 180.106 548.738 179.086C548.738 178.066 548.942 177.172 549.35 176.404C549.758 175.636 550.328 175.048 551.06 174.64C551.792 174.232 552.626 174.028 553.562 174.028C554.498 174.028 555.314 174.232 556.01 174.64C556.718 175.048 557.258 175.6 557.63 176.296C558.014 176.98 558.206 177.742 558.206 178.582ZM556.928 178.546C556.94 177.814 556.79 177.19 556.478 176.674C556.178 176.158 555.764 175.768 555.236 175.504C554.708 175.24 554.132 175.108 553.508 175.108C552.572 175.108 551.774 175.408 551.114 176.008C550.454 176.608 550.088 177.454 550.016 178.546H556.928ZM566.379 173.992C567.555 173.992 568.515 174.358 569.259 175.09C570.003 175.81 570.375 176.86 570.375 178.24V184H569.133V178.384C569.133 177.316 568.863 176.5 568.323 175.936C567.795 175.372 567.069 175.09 566.145 175.09C565.197 175.09 564.441 175.39 563.877 175.99C563.313 176.59 563.031 177.472 563.031 178.636V184H561.771V174.172H563.031V175.846C563.343 175.246 563.793 174.79 564.381 174.478C564.969 174.154 565.635 173.992 566.379 173.992ZM576.06 175.234V181.336C576.06 181.936 576.174 182.35 576.402 182.578C576.63 182.806 577.032 182.92 577.608 182.92H578.76V184H577.41C576.522 184 575.862 183.796 575.43 183.388C574.998 182.968 574.782 182.284 574.782 181.336V175.234H573.414V174.172H574.782V171.706H576.06V174.172H578.76V175.234H576.06ZM585.482 184.144C584.354 184.144 583.43 183.886 582.71 183.37C582.002 182.842 581.606 182.128 581.522 181.228H582.818C582.878 181.78 583.136 182.23 583.592 182.578C584.06 182.914 584.684 183.082 585.464 183.082C586.148 183.082 586.682 182.92 587.066 182.596C587.462 182.272 587.66 181.87 587.66 181.39C587.66 181.054 587.552 180.778 587.336 180.562C587.12 180.346 586.844 180.178 586.508 180.058C586.184 179.926 585.74 179.788 585.176 179.644C584.444 179.452 583.85 179.26 583.394 179.068C582.938 178.876 582.548 178.594 582.224 178.222C581.912 177.838 581.756 177.328 581.756 176.692C581.756 176.212 581.9 175.768 582.188 175.36C582.476 174.952 582.884 174.628 583.412 174.388C583.94 174.148 584.54 174.028 585.212 174.028C586.268 174.028 587.12 174.298 587.768 174.838C588.416 175.366 588.764 176.098 588.812 177.034H587.552C587.516 176.458 587.288 175.996 586.868 175.648C586.46 175.288 585.896 175.108 585.176 175.108C584.54 175.108 584.024 175.258 583.628 175.558C583.232 175.858 583.034 176.23 583.034 176.674C583.034 177.058 583.148 177.376 583.376 177.628C583.616 177.868 583.91 178.06 584.258 178.204C584.606 178.336 585.074 178.486 585.662 178.654C586.37 178.846 586.934 179.032 587.354 179.212C587.774 179.392 588.134 179.656 588.434 180.004C588.734 180.352 588.89 180.814 588.902 181.39C588.902 181.918 588.758 182.392 588.47 182.812C588.182 183.22 587.78 183.544 587.264 183.784C586.748 184.024 586.154 184.144 585.482 184.144ZM608.309 184L606.599 182.254C605.987 182.926 605.333 183.424 604.637 183.748C603.941 184.06 603.155 184.216 602.279 184.216C601.439 184.216 600.695 184.06 600.047 183.748C599.399 183.424 598.895 182.974 598.535 182.398C598.175 181.822 597.995 181.156 597.995 180.4C597.995 179.512 598.247 178.738 598.751 178.078C599.255 177.418 599.993 176.902 600.965 176.53C600.545 176.062 600.239 175.63 600.047 175.234C599.855 174.826 599.759 174.388 599.759 173.92C599.759 173.116 600.047 172.468 600.623 171.976C601.199 171.472 601.967 171.22 602.927 171.22C603.827 171.22 604.559 171.478 605.123 171.994C605.687 172.51 605.951 173.182 605.915 174.01H604.655C604.667 173.47 604.499 173.044 604.151 172.732C603.815 172.42 603.389 172.264 602.873 172.264C602.321 172.264 601.871 172.42 601.523 172.732C601.187 173.032 601.019 173.422 601.019 173.902C601.019 174.286 601.121 174.658 601.325 175.018C601.541 175.378 601.877 175.804 602.333 176.296L606.473 180.49C606.641 180.262 606.869 179.902 607.157 179.41L608.309 177.484H609.659L608.291 179.842C607.967 180.406 607.643 180.91 607.319 181.354L609.947 184H608.309ZM602.279 183.118C602.987 183.118 603.617 182.98 604.169 182.704C604.733 182.428 605.267 181.996 605.771 181.408L601.757 177.34C600.089 177.952 599.255 178.96 599.255 180.364C599.255 180.892 599.381 181.366 599.633 181.786C599.897 182.194 600.257 182.518 600.713 182.758C601.169 182.998 601.691 183.118 602.279 183.118ZM191.308 212.086C191.308 211.066 191.512 210.178 191.92 209.422C192.328 208.654 192.892 208.066 193.612 207.658C194.332 207.238 195.154 207.028 196.078 207.028C197.29 207.028 198.286 207.328 199.066 207.928C199.858 208.528 200.368 209.344 200.596 210.376H199.246C199.078 209.668 198.712 209.116 198.148 208.72C197.596 208.312 196.906 208.108 196.078 208.108C195.418 208.108 194.824 208.258 194.296 208.558C193.768 208.858 193.348 209.308 193.036 209.908C192.736 210.496 192.586 211.222 192.586 212.086C192.586 212.95 192.736 213.682 193.036 214.282C193.348 214.882 193.768 215.332 194.296 215.632C194.824 215.932 195.418 216.082 196.078 216.082C196.906 216.082 197.596 215.884 198.148 215.488C198.712 215.08 199.078 214.516 199.246 213.796H200.596C200.368 214.804 199.858 215.614 199.066 216.226C198.274 216.838 197.278 217.144 196.078 217.144C195.154 217.144 194.332 216.94 193.612 216.532C192.892 216.112 192.328 215.524 191.92 214.768C191.512 214 191.308 213.106 191.308 212.086ZM208.863 206.992C209.607 206.992 210.273 207.148 210.861 207.46C211.461 207.772 211.929 208.252 212.265 208.9C212.613 209.536 212.787 210.316 212.787 211.24V217H211.545V211.384C211.545 210.316 211.275 209.5 210.735 208.936C210.207 208.372 209.481 208.09 208.557 208.09C207.609 208.09 206.853 208.39 206.289 208.99C205.725 209.59 205.443 210.472 205.443 211.636V217H204.183V203.68H205.443V208.846C205.755 208.258 206.211 207.802 206.811 207.478C207.423 207.154 208.107 206.992 208.863 206.992ZM221.135 217.144C220.211 217.144 219.377 216.94 218.633 216.532C217.901 216.112 217.319 215.524 216.887 214.768C216.467 214 216.257 213.106 216.257 212.086C216.257 211.066 216.473 210.178 216.905 209.422C217.337 208.654 217.925 208.066 218.669 207.658C219.413 207.238 220.247 207.028 221.171 207.028C222.095 207.028 222.929 207.238 223.673 207.658C224.429 208.066 225.017 208.654 225.437 209.422C225.869 210.178 226.085 211.066 226.085 212.086C226.085 213.094 225.869 213.982 225.437 214.75C225.005 215.518 224.411 216.112 223.655 216.532C222.899 216.94 222.059 217.144 221.135 217.144ZM221.135 216.046C221.783 216.046 222.383 215.902 222.935 215.614C223.487 215.314 223.931 214.87 224.267 214.282C224.615 213.682 224.789 212.95 224.789 212.086C224.789 211.222 224.621 210.496 224.285 209.908C223.949 209.308 223.505 208.864 222.953 208.576C222.401 208.276 221.801 208.126 221.153 208.126C220.505 208.126 219.905 208.276 219.353 208.576C218.801 208.864 218.357 209.308 218.021 209.908C217.697 210.496 217.535 211.222 217.535 212.086C217.535 212.95 217.697 213.682 218.021 214.282C218.357 214.87 218.795 215.314 219.335 215.614C219.887 215.902 220.487 216.046 221.135 216.046ZM230.902 208.918C231.178 208.306 231.598 207.832 232.162 207.496C232.738 207.16 233.44 206.992 234.268 206.992V208.306H233.926C233.014 208.306 232.282 208.552 231.73 209.044C231.178 209.536 230.902 210.358 230.902 211.51V217H229.642V207.172H230.902V208.918ZM246.316 211.582C246.316 212.014 246.304 212.344 246.28 212.572H238.126C238.162 213.316 238.342 213.952 238.666 214.48C238.99 215.008 239.416 215.41 239.944 215.686C240.472 215.95 241.048 216.082 241.672 216.082C242.488 216.082 243.172 215.884 243.724 215.488C244.288 215.092 244.66 214.558 244.84 213.886H246.172C245.932 214.846 245.416 215.632 244.624 216.244C243.844 216.844 242.86 217.144 241.672 217.144C240.748 217.144 239.92 216.94 239.188 216.532C238.456 216.112 237.88 215.524 237.46 214.768C237.052 214 236.848 213.106 236.848 212.086C236.848 211.066 237.052 210.172 237.46 209.404C237.868 208.636 238.438 208.048 239.17 207.64C239.902 207.232 240.736 207.028 241.672 207.028C242.608 207.028 243.424 207.232 244.12 207.64C244.828 208.048 245.368 208.6 245.74 209.296C246.124 209.98 246.316 210.742 246.316 211.582ZM245.038 211.546C245.05 210.814 244.9 210.19 244.588 209.674C244.288 209.158 243.874 208.768 243.346 208.504C242.818 208.24 242.242 208.108 241.618 208.108C240.682 208.108 239.884 208.408 239.224 209.008C238.564 209.608 238.198 210.454 238.126 211.546H245.038ZM254.183 217.144C253.259 217.144 252.425 216.94 251.681 216.532C250.949 216.112 250.367 215.524 249.935 214.768C249.515 214 249.305 213.106 249.305 212.086C249.305 211.066 249.521 210.178 249.953 209.422C250.385 208.654 250.973 208.066 251.717 207.658C252.461 207.238 253.295 207.028 254.219 207.028C255.143 207.028 255.977 207.238 256.721 207.658C257.477 208.066 258.065 208.654 258.485 209.422C258.917 210.178 259.133 211.066 259.133 212.086C259.133 213.094 258.917 213.982 258.485 214.75C258.053 215.518 257.459 216.112 256.703 216.532C255.947 216.94 255.107 217.144 254.183 217.144ZM254.183 216.046C254.831 216.046 255.431 215.902 255.983 215.614C256.535 215.314 256.979 214.87 257.315 214.282C257.663 213.682 257.837 212.95 257.837 212.086C257.837 211.222 257.669 210.496 257.333 209.908C256.997 209.308 256.553 208.864 256.001 208.576C255.449 208.276 254.849 208.126 254.201 208.126C253.553 208.126 252.953 208.276 252.401 208.576C251.849 208.864 251.405 209.308 251.069 209.908C250.745 210.496 250.583 211.222 250.583 212.086C250.583 212.95 250.745 213.682 251.069 214.282C251.405 214.87 251.843 215.314 252.383 215.614C252.935 215.902 253.535 216.046 254.183 216.046ZM266.812 207.028C267.736 207.028 268.54 207.244 269.224 207.676C269.908 208.108 270.4 208.654 270.7 209.314V207.172H271.96V217.252C271.96 218.152 271.762 218.95 271.366 219.646C270.982 220.342 270.442 220.876 269.746 221.248C269.05 221.632 268.258 221.824 267.37 221.824C266.11 221.824 265.06 221.524 264.22 220.924C263.392 220.324 262.876 219.508 262.672 218.476H263.914C264.13 219.16 264.538 219.706 265.138 220.114C265.75 220.522 266.494 220.726 267.37 220.726C268.006 220.726 268.576 220.588 269.08 220.312C269.584 220.048 269.98 219.652 270.268 219.124C270.556 218.596 270.7 217.972 270.7 217.252V214.822C270.388 215.494 269.89 216.052 269.206 216.496C268.534 216.928 267.736 217.144 266.812 217.144C265.912 217.144 265.102 216.934 264.382 216.514C263.674 216.094 263.116 215.5 262.708 214.732C262.312 213.964 262.114 213.076 262.114 212.068C262.114 211.06 262.312 210.178 262.708 209.422C263.116 208.654 263.674 208.066 264.382 207.658C265.102 207.238 265.912 207.028 266.812 207.028ZM270.7 212.086C270.7 211.294 270.538 210.598 270.214 209.998C269.89 209.398 269.446 208.936 268.882 208.612C268.33 208.288 267.718 208.126 267.046 208.126C266.35 208.126 265.726 208.282 265.174 208.594C264.622 208.906 264.184 209.362 263.86 209.962C263.548 210.55 263.392 211.252 263.392 212.068C263.392 212.872 263.548 213.58 263.86 214.192C264.184 214.792 264.622 215.254 265.174 215.578C265.726 215.89 266.35 216.046 267.046 216.046C267.718 216.046 268.33 215.884 268.882 215.56C269.446 215.236 269.89 214.774 270.214 214.174C270.538 213.574 270.7 212.878 270.7 212.086ZM277.356 208.918C277.632 208.306 278.052 207.832 278.616 207.496C279.192 207.16 279.894 206.992 280.722 206.992V208.306H280.38C279.468 208.306 278.736 208.552 278.184 209.044C277.632 209.536 277.356 210.358 277.356 211.51V217H276.096V207.172H277.356V208.918ZM283.302 212.068C283.302 211.06 283.5 210.178 283.896 209.422C284.304 208.654 284.862 208.066 285.57 207.658C286.29 207.238 287.1 207.028 288 207.028C288.936 207.028 289.74 207.244 290.412 207.676C291.096 208.108 291.588 208.66 291.888 209.332V207.172H293.148V217H291.888V214.822C291.576 215.494 291.078 216.052 290.394 216.496C289.722 216.928 288.918 217.144 287.982 217.144C287.094 217.144 286.29 216.934 285.57 216.514C284.862 216.094 284.304 215.5 283.896 214.732C283.5 213.964 283.302 213.076 283.302 212.068ZM291.888 212.086C291.888 211.294 291.726 210.598 291.402 209.998C291.078 209.398 290.634 208.936 290.07 208.612C289.518 208.288 288.906 208.126 288.234 208.126C287.538 208.126 286.914 208.282 286.362 208.594C285.81 208.906 285.372 209.362 285.048 209.962C284.736 210.55 284.58 211.252 284.58 212.068C284.58 212.872 284.736 213.58 285.048 214.192C285.372 214.792 285.81 215.254 286.362 215.578C286.914 215.89 287.538 216.046 288.234 216.046C288.906 216.046 289.518 215.884 290.07 215.56C290.634 215.236 291.078 214.774 291.402 214.174C291.726 213.574 291.888 212.878 291.888 212.086ZM298.526 209.332C298.838 208.672 299.33 208.126 300.002 207.694C300.686 207.25 301.496 207.028 302.432 207.028C303.32 207.028 304.118 207.238 304.826 207.658C305.546 208.066 306.104 208.654 306.5 209.422C306.908 210.178 307.112 211.06 307.112 212.068C307.112 213.076 306.908 213.964 306.5 214.732C306.104 215.5 305.546 216.094 304.826 216.514C304.118 216.934 303.32 217.144 302.432 217.144C301.508 217.144 300.704 216.928 300.02 216.496C299.336 216.052 298.838 215.5 298.526 214.84V221.644H297.284V207.172H298.526V209.332ZM305.834 212.068C305.834 211.252 305.672 210.55 305.348 209.962C305.036 209.362 304.604 208.906 304.052 208.594C303.5 208.282 302.876 208.126 302.18 208.126C301.508 208.126 300.89 208.288 300.326 208.612C299.774 208.936 299.336 209.398 299.012 209.998C298.688 210.598 298.526 211.294 298.526 212.086C298.526 212.878 298.688 213.574 299.012 214.174C299.336 214.774 299.774 215.236 300.326 215.56C300.89 215.884 301.508 216.046 302.18 216.046C302.876 216.046 303.5 215.89 304.052 215.578C304.604 215.254 305.036 214.792 305.348 214.192C305.672 213.58 305.834 212.872 305.834 212.068ZM315.371 206.992C316.115 206.992 316.781 207.148 317.369 207.46C317.969 207.772 318.437 208.252 318.773 208.9C319.121 209.536 319.295 210.316 319.295 211.24V217H318.053V211.384C318.053 210.316 317.783 209.5 317.243 208.936C316.715 208.372 315.989 208.09 315.065 208.09C314.117 208.09 313.361 208.39 312.797 208.99C312.233 209.59 311.951 210.472 311.951 211.636V217H310.691V203.68H311.951V208.846C312.263 208.258 312.719 207.802 313.319 207.478C313.931 207.154 314.615 206.992 315.371 206.992ZM332.233 211.582C332.233 212.014 332.221 212.344 332.197 212.572H324.043C324.079 213.316 324.259 213.952 324.583 214.48C324.907 215.008 325.333 215.41 325.861 215.686C326.389 215.95 326.965 216.082 327.589 216.082C328.405 216.082 329.089 215.884 329.641 215.488C330.205 215.092 330.577 214.558 330.757 213.886H332.089C331.849 214.846 331.333 215.632 330.541 216.244C329.761 216.844 328.777 217.144 327.589 217.144C326.665 217.144 325.837 216.94 325.105 216.532C324.373 216.112 323.797 215.524 323.377 214.768C322.969 214 322.765 213.106 322.765 212.086C322.765 211.066 322.969 210.172 323.377 209.404C323.785 208.636 324.355 208.048 325.087 207.64C325.819 207.232 326.653 207.028 327.589 207.028C328.525 207.028 329.341 207.232 330.037 207.64C330.745 208.048 331.285 208.6 331.657 209.296C332.041 209.98 332.233 210.742 332.233 211.582ZM330.955 211.546C330.967 210.814 330.817 210.19 330.505 209.674C330.205 209.158 329.791 208.768 329.263 208.504C328.735 208.24 328.159 208.108 327.535 208.108C326.599 208.108 325.801 208.408 325.141 209.008C324.481 209.608 324.115 210.454 324.043 211.546H330.955ZM337.059 208.918C337.335 208.306 337.755 207.832 338.319 207.496C338.895 207.16 339.597 206.992 340.425 206.992V208.306H340.083C339.171 208.306 338.439 208.552 337.887 209.044C337.335 209.536 337.059 210.358 337.059 211.51V217H335.799V207.172H337.059V208.918ZM346.964 217.144C345.836 217.144 344.912 216.886 344.192 216.37C343.484 215.842 343.088 215.128 343.004 214.228H344.3C344.36 214.78 344.618 215.23 345.074 215.578C345.542 215.914 346.166 216.082 346.946 216.082C347.63 216.082 348.164 215.92 348.548 215.596C348.944 215.272 349.142 214.87 349.142 214.39C349.142 214.054 349.034 213.778 348.818 213.562C348.602 213.346 348.326 213.178 347.99 213.058C347.666 212.926 347.222 212.788 346.658 212.644C345.926 212.452 345.332 212.26 344.876 212.068C344.42 211.876 344.03 211.594 343.706 211.222C343.394 210.838 343.238 210.328 343.238 209.692C343.238 209.212 343.382 208.768 343.67 208.36C343.958 207.952 344.366 207.628 344.894 207.388C345.422 207.148 346.022 207.028 346.694 207.028C347.75 207.028 348.602 207.298 349.25 207.838C349.898 208.366 350.246 209.098 350.294 210.034H349.034C348.998 209.458 348.77 208.996 348.35 208.648C347.942 208.288 347.378 208.108 346.658 208.108C346.022 208.108 345.506 208.258 345.11 208.558C344.714 208.858 344.516 209.23 344.516 209.674C344.516 210.058 344.63 210.376 344.858 210.628C345.098 210.868 345.392 211.06 345.74 211.204C346.088 211.336 346.556 211.486 347.144 211.654C347.852 211.846 348.416 212.032 348.836 212.212C349.256 212.392 349.616 212.656 349.916 213.004C350.216 213.352 350.372 213.814 350.384 214.39C350.384 214.918 350.24 215.392 349.952 215.812C349.664 216.22 349.262 216.544 348.746 216.784C348.23 217.024 347.636 217.144 346.964 217.144ZM364.085 208.234H361.799V217H360.539V208.234H359.171V207.172H360.539V206.488C360.539 205.42 360.809 204.634 361.349 204.13C361.901 203.626 362.789 203.374 364.013 203.374V204.454C363.197 204.454 362.621 204.61 362.285 204.922C361.961 205.234 361.799 205.756 361.799 206.488V207.172H364.085V208.234ZM371.631 217.144C370.707 217.144 369.873 216.94 369.129 216.532C368.397 216.112 367.815 215.524 367.383 214.768C366.963 214 366.753 213.106 366.753 212.086C366.753 211.066 366.969 210.178 367.401 209.422C367.833 208.654 368.421 208.066 369.165 207.658C369.909 207.238 370.743 207.028 371.667 207.028C372.591 207.028 373.425 207.238 374.169 207.658C374.925 208.066 375.513 208.654 375.933 209.422C376.365 210.178 376.581 211.066 376.581 212.086C376.581 213.094 376.365 213.982 375.933 214.75C375.501 215.518 374.907 216.112 374.151 216.532C373.395 216.94 372.555 217.144 371.631 217.144ZM371.631 216.046C372.279 216.046 372.879 215.902 373.431 215.614C373.983 215.314 374.427 214.87 374.763 214.282C375.111 213.682 375.285 212.95 375.285 212.086C375.285 211.222 375.117 210.496 374.781 209.908C374.445 209.308 374.001 208.864 373.449 208.576C372.897 208.276 372.297 208.126 371.649 208.126C371.001 208.126 370.401 208.276 369.849 208.576C369.297 208.864 368.853 209.308 368.517 209.908C368.193 210.496 368.031 211.222 368.031 212.086C368.031 212.95 368.193 213.682 368.517 214.282C368.853 214.87 369.291 215.314 369.831 215.614C370.383 215.902 370.983 216.046 371.631 216.046ZM381.398 208.918C381.674 208.306 382.094 207.832 382.658 207.496C383.234 207.16 383.936 206.992 384.764 206.992V208.306H384.422C383.51 208.306 382.778 208.552 382.226 209.044C381.674 209.536 381.398 210.358 381.398 211.51V217H380.138V207.172H381.398V208.918ZM393.543 212.068C393.543 211.06 393.741 210.178 394.137 209.422C394.545 208.654 395.103 208.066 395.811 207.658C396.531 207.238 397.341 207.028 398.241 207.028C399.177 207.028 399.981 207.244 400.653 207.676C401.337 208.108 401.829 208.66 402.129 209.332V207.172H403.389V217H402.129V214.822C401.817 215.494 401.319 216.052 400.635 216.496C399.963 216.928 399.159 217.144 398.223 217.144C397.335 217.144 396.531 216.934 395.811 216.514C395.103 216.094 394.545 215.5 394.137 214.732C393.741 213.964 393.543 213.076 393.543 212.068ZM402.129 212.086C402.129 211.294 401.967 210.598 401.643 209.998C401.319 209.398 400.875 208.936 400.311 208.612C399.759 208.288 399.147 208.126 398.475 208.126C397.779 208.126 397.155 208.282 396.603 208.594C396.051 208.906 395.613 209.362 395.289 209.962C394.977 210.55 394.821 211.252 394.821 212.068C394.821 212.872 394.977 213.58 395.289 214.192C395.613 214.792 396.051 215.254 396.603 215.578C397.155 215.89 397.779 216.046 398.475 216.046C399.147 216.046 399.759 215.884 400.311 215.56C400.875 215.236 401.319 214.774 401.643 214.174C401.967 213.574 402.129 212.878 402.129 212.086ZM412.133 206.992C413.309 206.992 414.269 207.358 415.013 208.09C415.757 208.81 416.129 209.86 416.129 211.24V217H414.887V211.384C414.887 210.316 414.617 209.5 414.077 208.936C413.549 208.372 412.823 208.09 411.899 208.09C410.951 208.09 410.195 208.39 409.631 208.99C409.067 209.59 408.785 210.472 408.785 211.636V217H407.525V207.172H408.785V208.846C409.097 208.246 409.547 207.79 410.135 207.478C410.723 207.154 411.389 206.992 412.133 206.992ZM428.276 207.172L422.444 221.626H421.13L423.038 216.946L419.006 207.172H420.392L423.74 215.56L426.98 207.172H428.276ZM438.686 209.332C438.998 208.672 439.49 208.126 440.162 207.694C440.846 207.25 441.656 207.028 442.592 207.028C443.48 207.028 444.278 207.238 444.986 207.658C445.706 208.066 446.264 208.654 446.66 209.422C447.068 210.178 447.272 211.06 447.272 212.068C447.272 213.076 447.068 213.964 446.66 214.732C446.264 215.5 445.706 216.094 444.986 216.514C444.278 216.934 443.48 217.144 442.592 217.144C441.668 217.144 440.864 216.928 440.18 216.496C439.496 216.052 438.998 215.5 438.686 214.84V221.644H437.444V207.172H438.686V209.332ZM445.994 212.068C445.994 211.252 445.832 210.55 445.508 209.962C445.196 209.362 444.764 208.906 444.212 208.594C443.66 208.282 443.036 208.126 442.34 208.126C441.668 208.126 441.05 208.288 440.486 208.612C439.934 208.936 439.496 209.398 439.172 209.998C438.848 210.598 438.686 211.294 438.686 212.086C438.686 212.878 438.848 213.574 439.172 214.174C439.496 214.774 439.934 215.236 440.486 215.56C441.05 215.884 441.668 216.046 442.34 216.046C443.036 216.046 443.66 215.89 444.212 215.578C444.764 215.254 445.196 214.792 445.508 214.192C445.832 213.58 445.994 212.872 445.994 212.068ZM452.11 208.918C452.386 208.306 452.806 207.832 453.37 207.496C453.946 207.16 454.648 206.992 455.476 206.992V208.306H455.134C454.222 208.306 453.49 208.552 452.938 209.044C452.386 209.536 452.11 210.358 452.11 211.51V217H450.85V207.172H452.11V208.918ZM462.934 217.144C462.01 217.144 461.176 216.94 460.432 216.532C459.7 216.112 459.118 215.524 458.686 214.768C458.266 214 458.056 213.106 458.056 212.086C458.056 211.066 458.272 210.178 458.704 209.422C459.136 208.654 459.724 208.066 460.468 207.658C461.212 207.238 462.046 207.028 462.97 207.028C463.894 207.028 464.728 207.238 465.472 207.658C466.228 208.066 466.816 208.654 467.236 209.422C467.668 210.178 467.884 211.066 467.884 212.086C467.884 213.094 467.668 213.982 467.236 214.75C466.804 215.518 466.21 216.112 465.454 216.532C464.698 216.94 463.858 217.144 462.934 217.144ZM462.934 216.046C463.582 216.046 464.182 215.902 464.734 215.614C465.286 215.314 465.73 214.87 466.066 214.282C466.414 213.682 466.588 212.95 466.588 212.086C466.588 211.222 466.42 210.496 466.084 209.908C465.748 209.308 465.304 208.864 464.752 208.576C464.2 208.276 463.6 208.126 462.952 208.126C462.304 208.126 461.704 208.276 461.152 208.576C460.6 208.864 460.156 209.308 459.82 209.908C459.496 210.496 459.334 211.222 459.334 212.086C459.334 212.95 459.496 213.682 459.82 214.282C460.156 214.87 460.594 215.314 461.134 215.614C461.686 215.902 462.286 216.046 462.934 216.046ZM472.683 209.35C473.007 208.666 473.505 208.108 474.177 207.676C474.861 207.244 475.665 207.028 476.589 207.028C477.489 207.028 478.293 207.238 479.001 207.658C479.709 208.066 480.261 208.654 480.657 209.422C481.065 210.178 481.269 211.06 481.269 212.068C481.269 213.076 481.065 213.964 480.657 214.732C480.261 215.5 479.703 216.094 478.983 216.514C478.275 216.934 477.477 217.144 476.589 217.144C475.653 217.144 474.843 216.934 474.159 216.514C473.487 216.082 472.995 215.524 472.683 214.84V217H471.441V203.68H472.683V209.35ZM479.991 212.068C479.991 211.252 479.829 210.55 479.505 209.962C479.193 209.362 478.761 208.906 478.209 208.594C477.657 208.282 477.033 208.126 476.337 208.126C475.665 208.126 475.047 208.288 474.483 208.612C473.931 208.936 473.493 209.398 473.169 209.998C472.845 210.598 472.683 211.294 472.683 212.086C472.683 212.878 472.845 213.574 473.169 214.174C473.493 214.774 473.931 215.236 474.483 215.56C475.047 215.884 475.665 216.046 476.337 216.046C477.033 216.046 477.657 215.89 478.209 215.578C478.761 215.254 479.193 214.792 479.505 214.192C479.829 213.58 479.991 212.872 479.991 212.068ZM486.107 203.68V217H484.847V203.68H486.107ZM499.112 211.582C499.112 212.014 499.1 212.344 499.076 212.572H490.922C490.958 213.316 491.138 213.952 491.462 214.48C491.786 215.008 492.212 215.41 492.74 215.686C493.268 215.95 493.844 216.082 494.468 216.082C495.284 216.082 495.968 215.884 496.52 215.488C497.084 215.092 497.456 214.558 497.636 213.886H498.968C498.728 214.846 498.212 215.632 497.42 216.244C496.64 216.844 495.656 217.144 494.468 217.144C493.544 217.144 492.716 216.94 491.984 216.532C491.252 216.112 490.676 215.524 490.256 214.768C489.848 214 489.644 213.106 489.644 212.086C489.644 211.066 489.848 210.172 490.256 209.404C490.664 208.636 491.234 208.048 491.966 207.64C492.698 207.232 493.532 207.028 494.468 207.028C495.404 207.028 496.22 207.232 496.916 207.64C497.624 208.048 498.164 208.6 498.536 209.296C498.92 209.98 499.112 210.742 499.112 211.582ZM497.834 211.546C497.846 210.814 497.696 210.19 497.384 209.674C497.084 209.158 496.67 208.768 496.142 208.504C495.614 208.24 495.038 208.108 494.414 208.108C493.478 208.108 492.68 208.408 492.02 209.008C491.36 209.608 490.994 210.454 490.922 211.546H497.834ZM514.378 206.992C515.53 206.992 516.466 207.358 517.186 208.09C517.918 208.81 518.284 209.86 518.284 211.24V217H517.042V211.384C517.042 210.316 516.784 209.5 516.268 208.936C515.752 208.372 515.05 208.09 514.162 208.09C513.238 208.09 512.5 208.396 511.948 209.008C511.396 209.62 511.12 210.508 511.12 211.672V217H509.878V211.384C509.878 210.316 509.62 209.5 509.104 208.936C508.588 208.372 507.88 208.09 506.98 208.09C506.056 208.09 505.318 208.396 504.766 209.008C504.214 209.62 503.938 210.508 503.938 211.672V217H502.678V207.172H503.938V208.864C504.25 208.252 504.694 207.79 505.27 207.478C505.846 207.154 506.488 206.992 507.196 206.992C508.048 206.992 508.792 207.196 509.428 207.604C510.076 208.012 510.544 208.612 510.832 209.404C511.096 208.624 511.546 208.03 512.182 207.622C512.83 207.202 513.562 206.992 514.378 206.992ZM538.117 217L536.407 215.254C535.795 215.926 535.141 216.424 534.445 216.748C533.749 217.06 532.963 217.216 532.087 217.216C531.247 217.216 530.503 217.06 529.855 216.748C529.207 216.424 528.703 215.974 528.343 215.398C527.983 214.822 527.803 214.156 527.803 213.4C527.803 212.512 528.055 211.738 528.559 211.078C529.063 210.418 529.801 209.902 530.773 209.53C530.353 209.062 530.047 208.63 529.855 208.234C529.663 207.826 529.567 207.388 529.567 206.92C529.567 206.116 529.855 205.468 530.431 204.976C531.007 204.472 531.775 204.22 532.735 204.22C533.635 204.22 534.367 204.478 534.931 204.994C535.495 205.51 535.759 206.182 535.723 207.01H534.463C534.475 206.47 534.307 206.044 533.959 205.732C533.623 205.42 533.197 205.264 532.681 205.264C532.129 205.264 531.679 205.42 531.331 205.732C530.995 206.032 530.827 206.422 530.827 206.902C530.827 207.286 530.929 207.658 531.133 208.018C531.349 208.378 531.685 208.804 532.141 209.296L536.281 213.49C536.449 213.262 536.677 212.902 536.965 212.41L538.117 210.484H539.467L538.099 212.842C537.775 213.406 537.451 213.91 537.127 214.354L539.755 217H538.117ZM532.087 216.118C532.795 216.118 533.425 215.98 533.977 215.704C534.541 215.428 535.075 214.996 535.579 214.408L531.565 210.34C529.897 210.952 529.063 211.96 529.063 213.364C529.063 213.892 529.189 214.366 529.441 214.786C529.705 215.194 530.065 215.518 530.521 215.758C530.977 215.998 531.499 216.118 532.087 216.118ZM549.568 205.318C549.316 205.318 549.1 205.228 548.92 205.048C548.74 204.868 548.65 204.646 548.65 204.382C548.65 204.118 548.74 203.902 548.92 203.734C549.1 203.554 549.316 203.464 549.568 203.464C549.82 203.464 550.036 203.554 550.216 203.734C550.396 203.902 550.486 204.118 550.486 204.382C550.486 204.646 550.396 204.868 550.216 205.048C550.036 205.228 549.82 205.318 549.568 205.318ZM550.198 207.172V217H548.938V207.172H550.198ZM557.696 217.144C556.568 217.144 555.644 216.886 554.924 216.37C554.216 215.842 553.82 215.128 553.736 214.228H555.032C555.092 214.78 555.35 215.23 555.806 215.578C556.274 215.914 556.898 216.082 557.678 216.082C558.362 216.082 558.896 215.92 559.28 215.596C559.676 215.272 559.874 214.87 559.874 214.39C559.874 214.054 559.766 213.778 559.55 213.562C559.334 213.346 559.058 213.178 558.722 213.058C558.398 212.926 557.954 212.788 557.39 212.644C556.658 212.452 556.064 212.26 555.608 212.068C555.152 211.876 554.762 211.594 554.438 211.222C554.126 210.838 553.97 210.328 553.97 209.692C553.97 209.212 554.114 208.768 554.402 208.36C554.69 207.952 555.098 207.628 555.626 207.388C556.154 207.148 556.754 207.028 557.426 207.028C558.482 207.028 559.334 207.298 559.982 207.838C560.63 208.366 560.978 209.098 561.026 210.034H559.766C559.73 209.458 559.502 208.996 559.082 208.648C558.674 208.288 558.11 208.108 557.39 208.108C556.754 208.108 556.238 208.258 555.842 208.558C555.446 208.858 555.248 209.23 555.248 209.674C555.248 210.058 555.362 210.376 555.59 210.628C555.83 210.868 556.124 211.06 556.472 211.204C556.82 211.336 557.288 211.486 557.876 211.654C558.584 211.846 559.148 212.032 559.568 212.212C559.988 212.392 560.348 212.656 560.648 213.004C560.948 213.352 561.104 213.814 561.116 214.39C561.116 214.918 560.972 215.392 560.684 215.812C560.396 216.22 559.994 216.544 559.478 216.784C558.962 217.024 558.368 217.144 557.696 217.144ZM568.131 217.144C567.003 217.144 566.079 216.886 565.359 216.37C564.651 215.842 564.255 215.128 564.171 214.228H565.467C565.527 214.78 565.785 215.23 566.241 215.578C566.709 215.914 567.333 216.082 568.113 216.082C568.797 216.082 569.331 215.92 569.715 215.596C570.111 215.272 570.309 214.87 570.309 214.39C570.309 214.054 570.201 213.778 569.985 213.562C569.769 213.346 569.493 213.178 569.157 213.058C568.833 212.926 568.389 212.788 567.825 212.644C567.093 212.452 566.499 212.26 566.043 212.068C565.587 211.876 565.197 211.594 564.873 211.222C564.561 210.838 564.405 210.328 564.405 209.692C564.405 209.212 564.549 208.768 564.837 208.36C565.125 207.952 565.533 207.628 566.061 207.388C566.589 207.148 567.189 207.028 567.861 207.028C568.917 207.028 569.769 207.298 570.417 207.838C571.065 208.366 571.413 209.098 571.461 210.034H570.201C570.165 209.458 569.937 208.996 569.517 208.648C569.109 208.288 568.545 208.108 567.825 208.108C567.189 208.108 566.673 208.258 566.277 208.558C565.881 208.858 565.683 209.23 565.683 209.674C565.683 210.058 565.797 210.376 566.025 210.628C566.265 210.868 566.559 211.06 566.907 211.204C567.255 211.336 567.723 211.486 568.311 211.654C569.019 211.846 569.583 212.032 570.003 212.212C570.423 212.392 570.783 212.656 571.083 213.004C571.383 213.352 571.539 213.814 571.551 214.39C571.551 214.918 571.407 215.392 571.119 215.812C570.831 216.22 570.429 216.544 569.913 216.784C569.397 217.024 568.803 217.144 568.131 217.144ZM583.697 207.172V217H582.437V215.272C582.149 215.884 581.705 216.352 581.105 216.676C580.505 217 579.833 217.162 579.089 217.162C577.913 217.162 576.953 216.802 576.209 216.082C575.465 215.35 575.093 214.294 575.093 212.914V207.172H576.335V212.77C576.335 213.838 576.599 214.654 577.127 215.218C577.667 215.782 578.399 216.064 579.323 216.064C580.271 216.064 581.027 215.764 581.591 215.164C582.155 214.564 582.437 213.682 582.437 212.518V207.172H583.697ZM596.726 211.582C596.726 212.014 596.714 212.344 596.69 212.572H588.536C588.572 213.316 588.752 213.952 589.076 214.48C589.4 215.008 589.826 215.41 590.354 215.686C590.882 215.95 591.458 216.082 592.082 216.082C592.898 216.082 593.582 215.884 594.134 215.488C594.698 215.092 595.07 214.558 595.25 213.886H596.582C596.342 214.846 595.826 215.632 595.034 216.244C594.254 216.844 593.27 217.144 592.082 217.144C591.158 217.144 590.33 216.94 589.598 216.532C588.866 216.112 588.29 215.524 587.87 214.768C587.462 214 587.258 213.106 587.258 212.086C587.258 211.066 587.462 210.172 587.87 209.404C588.278 208.636 588.848 208.048 589.58 207.64C590.312 207.232 591.146 207.028 592.082 207.028C593.018 207.028 593.834 207.232 594.53 207.64C595.238 208.048 595.778 208.6 596.15 209.296C596.534 209.98 596.726 210.742 596.726 211.582ZM595.448 211.546C595.46 210.814 595.31 210.19 594.998 209.674C594.698 209.158 594.284 208.768 593.756 208.504C593.228 208.24 592.652 208.108 592.028 208.108C591.092 208.108 590.294 208.408 589.634 209.008C588.974 209.608 588.608 210.454 588.536 211.546H595.448ZM603.675 217.144C602.547 217.144 601.623 216.886 600.903 216.37C600.195 215.842 599.799 215.128 599.715 214.228H601.011C601.071 214.78 601.329 215.23 601.785 215.578C602.253 215.914 602.877 216.082 603.657 216.082C604.341 216.082 604.875 215.92 605.259 215.596C605.655 215.272 605.853 214.87 605.853 214.39C605.853 214.054 605.745 213.778 605.529 213.562C605.313 213.346 605.037 213.178 604.701 213.058C604.377 212.926 603.933 212.788 603.369 212.644C602.637 212.452 602.043 212.26 601.587 212.068C601.131 211.876 600.741 211.594 600.417 211.222C600.105 210.838 599.949 210.328 599.949 209.692C599.949 209.212 600.093 208.768 600.381 208.36C600.669 207.952 601.077 207.628 601.605 207.388C602.133 207.148 602.733 207.028 603.405 207.028C604.461 207.028 605.313 207.298 605.961 207.838C606.609 208.366 606.957 209.098 607.005 210.034H605.745C605.709 209.458 605.481 208.996 605.061 208.648C604.653 208.288 604.089 208.108 603.369 208.108C602.733 208.108 602.217 208.258 601.821 208.558C601.425 208.858 601.227 209.23 601.227 209.674C601.227 210.058 601.341 210.376 601.569 210.628C601.809 210.868 602.103 211.06 602.451 211.204C602.799 211.336 603.267 211.486 603.855 211.654C604.563 211.846 605.127 212.032 605.547 212.212C605.967 212.392 606.327 212.656 606.627 213.004C606.927 213.352 607.083 213.814 607.095 214.39C607.095 214.918 606.951 215.392 606.663 215.812C606.375 216.22 605.973 216.544 605.457 216.784C604.941 217.024 604.347 217.144 603.675 217.144ZM610.943 217.09C610.679 217.09 610.457 217 610.277 216.82C610.109 216.64 610.025 216.418 610.025 216.154C610.025 215.89 610.109 215.674 610.277 215.506C610.457 215.326 610.679 215.236 610.943 215.236C611.195 215.236 611.405 215.326 611.573 215.506C611.753 215.674 611.843 215.89 611.843 216.154C611.843 216.418 611.753 216.64 611.573 216.82C611.405 217 611.195 217.09 610.943 217.09Z" fill="#F6F6F6"/>
<path d="M418.001 53.993C416.113 52.1251 413.605 51.1016 410.942 51.1016C408.278 51.1016 405.77 52.1251 403.882 53.993L401.866 55.9888L403.779 57.8823L405.796 55.8865C407.166 54.5303 409.002 53.7627 410.942 53.7627C412.881 53.7627 414.717 54.5047 416.087 55.8865C417.458 57.2426 418.234 59.0594 418.234 60.9784C418.234 62.8975 417.484 64.7142 416.087 66.0704L413.217 68.9106L398.142 53.993C396.254 52.1251 393.746 51.1016 391.083 51.1016C388.419 51.1016 385.911 52.1251 384.024 53.993C382.136 55.8609 381.102 58.3429 381.102 60.9784C381.102 63.5372 382.084 65.9425 383.868 67.8104L385.782 65.9169C384.515 64.5607 383.817 62.8207 383.817 60.9784C383.817 59.0594 384.567 57.2426 385.937 55.8865C387.307 54.5303 389.143 53.7627 391.083 53.7627C392.945 53.7627 394.729 54.4536 396.073 55.7074C396.125 55.7585 396.953 56.5773 396.953 56.5773L384.748 68.6803L401.012 84.775L409.856 76.024L401.84 68.0918L399.926 69.9853L406.029 76.024L401.012 80.988L388.549 68.6803L398.866 58.4708L413.217 72.672L417.975 67.9639C419.863 66.096 420.897 63.614 420.897 60.9784C420.923 58.3429 419.863 55.8609 418.001 53.993Z" fill="#F6F6F6"/>
<path d="M401 92.4286L380.448 71.9071C377.585 69.0484 376 65.2197 376 61.1869C376 57.1286 377.585 53.3255 380.448 50.4667C383.311 47.5825 387.12 46 391.184 46C394.814 46 398.239 47.2507 401 49.5734C403.735 47.2507 407.186 46 410.816 46C414.88 46 418.689 47.5825 421.552 50.4412C424.415 53.2999 426 57.1286 426 61.1614C426 65.2197 424.415 69.0229 421.552 71.8816L401 92.4286ZM391.184 48.6545C387.835 48.6545 384.691 49.9563 382.314 52.33C379.937 54.7038 378.658 57.8432 378.658 61.1869C378.658 64.5306 379.962 67.6701 382.339 70.0438L401 88.6765L419.661 70.0438C422.038 67.6701 423.342 64.5306 423.342 61.1869C423.342 57.8432 422.038 54.7038 419.661 52.33C417.283 49.9563 414.139 48.6545 410.79 48.6545C407.442 48.6545 404.298 49.9563 401.92 52.33L400.974 53.2744L400.029 52.33C397.677 49.9563 394.533 48.6545 391.184 48.6545Z" fill="#F6F6F6"/>
<path d="M157 250V341" stroke="white" stroke-opacity="0.3" stroke-width="2" stroke-linecap="round"/>
<path d="M165 263L165 329" stroke="white" stroke-opacity="0.3" stroke-width="2" stroke-linecap="round"/>
<path d="M269 263L269 329" stroke="white" stroke-opacity="0.3" stroke-width="2" stroke-linecap="round"/>
<path d="M533 263L533 329" stroke="white" stroke-opacity="0.3" stroke-width="2" stroke-linecap="round"/>
<path d="M365 263L365 329" stroke="white" stroke-opacity="0.3" stroke-width="2" stroke-linecap="round"/>
<path d="M629 263L629 329" stroke="white" stroke-opacity="0.3" stroke-width="2" stroke-linecap="round"/>
<path d="M349 263L349 329" stroke="white" stroke-opacity="0.3" stroke-width="2" stroke-linecap="round"/>
<path d="M613 263L613 329" stroke="white" stroke-opacity="0.3" stroke-width="2" stroke-linecap="round"/>
<path d="M445 263L445 329" stroke="white" stroke-opacity="0.3" stroke-width="2" stroke-linecap="round"/>
<path d="M229 263L229 329" stroke="white" stroke-opacity="0.3" stroke-width="2" stroke-linecap="round"/>
<path d="M493 263L493 329" stroke="white" stroke-opacity="0.3" stroke-width="2" stroke-linecap="round"/>
<path d="M309 263L309 329" stroke="white" stroke-opacity="0.3" stroke-width="2" stroke-linecap="round"/>
<path d="M573 263L573 329" stroke="white" stroke-opacity="0.3" stroke-width="2" stroke-linecap="round"/>
<path d="M405 263L405 329" stroke="white" stroke-opacity="0.3" stroke-width="2" stroke-linecap="round"/>
<path d="M173 272L173 320" stroke="white" stroke-opacity="0.3" stroke-width="2" stroke-linecap="round"/>
<path d="M277 272L277 320" stroke="white" stroke-opacity="0.3" stroke-width="2" stroke-linecap="round"/>
<path d="M541 272L541 320" stroke="white" stroke-opacity="0.3" stroke-width="2" stroke-linecap="round"/>
<path d="M373 272L373 320" stroke="white" stroke-opacity="0.3" stroke-width="2" stroke-linecap="round"/>
<path d="M637 272L637 320" stroke="white" stroke-opacity="0.3" stroke-width="2" stroke-linecap="round"/>
<path d="M357 272L357 320" stroke="white" stroke-opacity="0.3" stroke-width="2" stroke-linecap="round"/>
<path d="M621 272L621 320" stroke="white" stroke-opacity="0.3" stroke-width="2" stroke-linecap="round"/>
<path d="M453 272L453 320" stroke="white" stroke-opacity="0.3" stroke-width="2" stroke-linecap="round"/>
<path d="M237 272L237 320" stroke="white" stroke-opacity="0.3" stroke-width="2" stroke-linecap="round"/>
<path d="M501 272L501 320" stroke="white" stroke-opacity="0.3" stroke-width="2" stroke-linecap="round"/>
<path d="M317 272L317 320" stroke="white" stroke-opacity="0.3" stroke-width="2" stroke-linecap="round"/>
<path d="M581 272L581 320" stroke="white" stroke-opacity="0.3" stroke-width="2" stroke-linecap="round"/>
<path d="M413 272L413 320" stroke="white" stroke-opacity="0.3" stroke-width="2" stroke-linecap="round"/>
<path d="M197 280L197 312" stroke="white" stroke-opacity="0.3" stroke-width="2" stroke-linecap="round"/>
<path d="M461 280L461 312" stroke="white" stroke-opacity="0.3" stroke-width="2" stroke-linecap="round"/>
<path d="M661 280L661 312" stroke="white" stroke-opacity="0.3" stroke-width="2" stroke-linecap="round"/>
<path d="M141 280L141 312" stroke="white" stroke-opacity="0.3" stroke-width="2" stroke-linecap="round"/>
<path d="M261 280L261 312" stroke="white" stroke-opacity="0.3" stroke-width="2" stroke-linecap="round"/>
<path d="M525 280L525 312" stroke="white" stroke-opacity="0.3" stroke-width="2" stroke-linecap="round"/>
<path d="M341 280L341 312" stroke="white" stroke-opacity="0.3" stroke-width="2" stroke-linecap="round"/>
<path d="M605 280L605 312" stroke="white" stroke-opacity="0.3" stroke-width="2" stroke-linecap="round"/>
<path d="M437 280L437 312" stroke="white" stroke-opacity="0.3" stroke-width="2" stroke-linecap="round"/>
<path d="M221 280L221 312" stroke="white" stroke-opacity="0.3" stroke-width="2" stroke-linecap="round"/>
<path d="M485 280L485 312" stroke="white" stroke-opacity="0.3" stroke-width="2" stroke-linecap="round"/>
<path d="M301 280L301 312" stroke="white" stroke-opacity="0.3" stroke-width="2" stroke-linecap="round"/>
<path d="M565 280L565 312" stroke="white" stroke-opacity="0.3" stroke-width="2" stroke-linecap="round"/>
<path d="M397 280L397 312" stroke="white" stroke-opacity="0.3" stroke-width="2" stroke-linecap="round"/>
<path d="M181 268L181 324" stroke="white" stroke-opacity="0.3" stroke-width="2" stroke-linecap="round"/>
<path d="M285 268L285 324" stroke="white" stroke-opacity="0.3" stroke-width="2" stroke-linecap="round"/>
<path d="M549 268L549 324" stroke="white" stroke-opacity="0.3" stroke-width="2" stroke-linecap="round"/>
<path d="M381 268L381 324" stroke="white" stroke-opacity="0.3" stroke-width="2" stroke-linecap="round"/>
<path d="M645 268L645 324" stroke="white" stroke-opacity="0.3" stroke-width="2" stroke-linecap="round"/>
<path d="M245 268L245 324" stroke="white" stroke-opacity="0.3" stroke-width="2" stroke-linecap="round"/>
<path d="M509 268L509 324" stroke="white" stroke-opacity="0.3" stroke-width="2" stroke-linecap="round"/>
<path d="M325 268L325 324" stroke="white" stroke-opacity="0.3" stroke-width="2" stroke-linecap="round"/>
<path d="M589 268L589 324" stroke="white" stroke-opacity="0.3" stroke-width="2" stroke-linecap="round"/>
<path d="M421 268L421 324" stroke="white" stroke-opacity="0.3" stroke-width="2" stroke-linecap="round"/>
<path d="M189 258L189 334" stroke="white" stroke-opacity="0.3" stroke-width="2" stroke-linecap="round"/>
<path d="M653 258L653 334" stroke="white" stroke-opacity="0.3" stroke-width="2" stroke-linecap="round"/>
<path d="M149 258L149 334" stroke="white" stroke-opacity="0.3" stroke-width="2" stroke-linecap="round"/>
<path d="M253 258L253 334" stroke="white" stroke-opacity="0.3" stroke-width="2" stroke-linecap="round"/>
<path d="M517 258L517 334" stroke="white" stroke-opacity="0.3" stroke-width="2" stroke-linecap="round"/>
<path d="M333 258L333 334" stroke="white" stroke-opacity="0.3" stroke-width="2" stroke-linecap="round"/>
<path d="M597 258L597 334" stroke="white" stroke-opacity="0.3" stroke-width="2" stroke-linecap="round"/>
<path d="M429 258L429 334" stroke="white" stroke-opacity="0.3" stroke-width="2" stroke-linecap="round"/>
<path d="M139.588 100.301C143.26 99.5598 145.636 95.9819 144.895 92.3096C144.153 88.6373 140.575 86.2614 136.903 87.0027C133.231 87.744 130.855 91.3219 131.596 94.9942C132.338 98.6664 135.915 101.042 139.588 100.301Z" stroke="#F6F6F6" stroke-opacity="0.5" stroke-miterlimit="10" stroke-linecap="round" stroke-linejoin="round"/>
<path d="M150.619 115.093C153.135 114.586 154.388 111.527 152.838 109.409C150.027 105.674 145.313 103.633 140.461 104.613C135.609 105.592 131.876 109.338 130.914 113.835C130.307 116.388 132.648 118.721 135.164 118.213L150.619 115.093Z" stroke="#F6F6F6" stroke-opacity="0.5" stroke-miterlimit="10" stroke-linecap="round" stroke-linejoin="round"/>
<path d="M131.559 92.0099C130.481 92.2276 129.582 92.409 128.504 92.6266C127.606 92.808 127.032 93.672 127.213 94.5705L127.83 97.6255C128.011 98.5241 128.875 99.0978 129.774 98.9164L138.759 97.1025" stroke="#F6F6F6" stroke-opacity="0.5" stroke-miterlimit="10" stroke-linecap="round" stroke-linejoin="round"/>
<path d="M785.248 99.3011C781.576 98.5598 779.2 94.9819 779.941 91.3096C780.683 87.6373 784.261 85.2614 787.933 86.0027C791.605 86.744 793.981 90.3219 793.24 93.9942C792.498 97.6664 788.921 100.042 785.248 99.3011Z" stroke="#F6F6F6" stroke-opacity="0.5" stroke-miterlimit="10" stroke-linecap="round" stroke-linejoin="round"/>
<path d="M774.217 114.093C771.701 113.586 770.448 110.527 771.998 108.409C774.809 104.674 779.523 102.633 784.375 103.613C789.227 104.592 792.959 108.338 793.922 112.835C794.529 115.388 792.188 117.721 789.672 117.213L774.217 114.093Z" stroke="#F6F6F6" stroke-opacity="0.5" stroke-miterlimit="10" stroke-linecap="round" stroke-linejoin="round"/>
<path d="M793.277 91.0099C794.355 91.2276 795.254 91.409 796.332 91.6266C797.23 91.808 797.804 92.672 797.623 93.5705L797.006 96.6255C796.825 97.5241 795.961 98.0978 795.062 97.9164L786.077 96.1025" stroke="#F6F6F6" stroke-opacity="0.5" stroke-miterlimit="10" stroke-linecap="round" stroke-linejoin="round"/>
<path d="M741.248 274.301C737.576 273.56 735.2 269.982 735.941 266.31C736.683 262.638 740.261 260.262 743.933 261.003C747.605 261.744 749.981 265.322 749.24 268.994C748.498 272.667 744.921 275.043 741.248 274.301Z" stroke="#F6F6F6" stroke-opacity="0.5" stroke-miterlimit="10" stroke-linecap="round" stroke-linejoin="round"/>
<path d="M730.217 289.094C727.701 288.586 726.448 285.527 727.998 283.409C730.809 279.675 735.523 277.634 740.375 278.613C745.227 279.593 748.959 283.339 749.922 287.835C750.529 290.389 748.188 292.722 745.672 292.214L730.217 289.094Z" stroke="#F6F6F6" stroke-opacity="0.5" stroke-miterlimit="10" stroke-linecap="round" stroke-linejoin="round"/>
<path d="M749.277 266.01C750.355 266.228 751.254 266.409 752.332 266.627C753.23 266.809 753.804 267.672 753.623 268.571L753.006 271.626C752.825 272.525 751.961 273.098 751.062 272.917L742.077 271.103" stroke="#F6F6F6" stroke-opacity="0.5" stroke-miterlimit="10" stroke-linecap="round" stroke-linejoin="round"/>
<path d="M27.5877 276.301C31.2599 275.56 33.6359 271.982 32.8946 268.31C32.1533 264.638 28.5754 262.262 24.9031 263.003C21.2309 263.744 18.8549 267.322 19.5962 270.994C20.3375 274.667 23.9154 277.043 27.5877 276.301Z" stroke="#F6F6F6" stroke-opacity="0.5" stroke-miterlimit="10" stroke-linecap="round" stroke-linejoin="round"/>
<path d="M38.6192 291.094C41.1351 290.586 42.388 287.527 40.8382 285.409C38.027 281.675 33.3132 279.634 28.4611 280.613C23.609 281.593 19.8764 285.339 18.9138 289.835C18.3071 292.389 20.6484 294.722 23.1643 294.214L38.6192 291.094Z" stroke="#F6F6F6" stroke-opacity="0.5" stroke-miterlimit="10" stroke-linecap="round" stroke-linejoin="round"/>
<path d="M19.5591 268.01C18.4809 268.228 17.5823 268.409 16.5041 268.627C15.6056 268.809 15.0318 269.672 15.2132 270.571L15.8299 273.626C16.0113 274.525 16.8753 275.098 17.7738 274.917L26.7592 273.103" stroke="#F6F6F6" stroke-opacity="0.5" stroke-miterlimit="10" stroke-linecap="round" stroke-linejoin="round"/>
<path d="M91.3408 186.791C93.4781 195.25 86.6915 202.987 83.1886 205.742C82.8498 206.035 82.5591 206.247 82.2685 206.459C81.9768 206.394 81.5557 206.362 81.1182 206.265C76.8405 205.407 67.1449 201.904 65.0075 193.445C63.9224 189.151 66.2214 184.901 70.1034 183.92C72.6914 183.266 75.3341 184.191 77.1389 186.157C77.7928 183.569 79.6791 181.501 82.2672 180.847C86.1975 179.784 90.2557 182.497 91.3408 186.791Z" stroke="#F6F6F6" stroke-opacity="0.5" stroke-miterlimit="10" stroke-linecap="round" stroke-linejoin="round"/>
<path d="M79.2098 193.817C80.1443 193.589 80.7169 192.646 80.4887 191.712C80.2606 190.777 79.318 190.204 78.3835 190.433C77.449 190.661 76.8764 191.603 77.1045 192.538C77.3327 193.472 78.2752 194.045 79.2098 193.817Z" stroke="#F6F6F6" stroke-opacity="0.5" stroke-width="0.4" stroke-miterlimit="10" stroke-linecap="round" stroke-linejoin="round"/>
<path d="M82.191 197.499C82.8312 197.342 83.1211 196.545 82.7015 196.017C81.9417 195.088 80.7112 194.613 79.4764 194.915C78.2416 195.216 77.3227 196.216 77.1222 197.379C76.9929 198.041 77.6177 198.615 78.258 198.459L82.191 197.499Z" stroke="#F6F6F6" stroke-opacity="0.5" stroke-width="0.4" stroke-miterlimit="10" stroke-linecap="round" stroke-linejoin="round"/>
<path d="M77.0601 191.773C76.7857 191.84 76.5571 191.896 76.2827 191.962C76.054 192.018 75.9158 192.246 75.9716 192.475L76.1614 193.252C76.2172 193.481 76.4448 193.619 76.6735 193.563L78.9601 193.005" stroke="#F6F6F6" stroke-opacity="0.5" stroke-width="0.4" stroke-miterlimit="10" stroke-linecap="round" stroke-linejoin="round"/>
<path d="M43.3408 51.7912C45.4781 60.25 38.6915 67.9872 35.1886 70.7413C34.8498 71.0346 34.5591 71.2465 34.2685 71.4583C33.9768 71.3936 33.5557 71.3616 33.1182 71.2644C28.8405 70.4071 19.1449 66.9038 17.0075 58.4449C15.9224 54.1504 18.2214 49.9007 22.1034 48.9198C24.6914 48.2659 27.3341 49.1903 29.1389 51.1571C29.7928 48.5691 31.6791 46.5003 34.2672 45.8464C38.1975 44.784 42.2557 47.4967 43.3408 51.7912Z" stroke="#F6F6F6" stroke-opacity="0.5" stroke-miterlimit="10" stroke-linecap="round" stroke-linejoin="round"/>
<path d="M31.2098 58.8168C32.1443 58.5886 32.7169 57.6461 32.4887 56.7116C32.2606 55.777 31.318 55.2044 30.3835 55.4326C29.449 55.6607 28.8764 56.6033 29.1045 57.5378C29.3327 58.4723 30.2752 59.045 31.2098 58.8168Z" stroke="#F6F6F6" stroke-opacity="0.5" stroke-width="0.4" stroke-miterlimit="10" stroke-linecap="round" stroke-linejoin="round"/>
<path d="M34.191 62.4983C34.8312 62.342 35.1211 61.5443 34.7015 61.0168C33.9417 60.0878 32.7112 59.6128 31.4764 59.9143C30.2416 60.2158 29.3227 61.2155 29.1222 62.379C28.9929 63.0405 29.6177 63.6148 30.258 63.4585L34.191 62.4983Z" stroke="#F6F6F6" stroke-opacity="0.5" stroke-width="0.4" stroke-miterlimit="10" stroke-linecap="round" stroke-linejoin="round"/>
<path d="M29.0601 56.7724C28.7857 56.8394 28.5571 56.8953 28.2827 56.9623C28.054 57.0181 27.9158 57.2457 27.9716 57.4743L28.1614 58.2518C28.2172 58.4805 28.4448 58.6187 28.6735 58.5629L30.9601 58.0046" stroke="#F6F6F6" stroke-opacity="0.5" stroke-width="0.4" stroke-miterlimit="10" stroke-linecap="round" stroke-linejoin="round"/>
<path d="M705.179 11.7912C703.041 20.25 709.828 27.9872 713.331 30.7413C713.67 31.0346 713.96 31.2465 714.251 31.4583C714.543 31.3936 714.964 31.3616 715.401 31.2644C719.679 30.4071 729.375 26.9038 731.512 18.4449C732.597 14.1504 730.298 9.90075 726.416 8.91985C723.828 8.26591 721.185 9.19029 719.381 11.1571C718.727 8.56906 716.84 6.50029 714.252 5.84636C710.322 4.78404 706.264 7.49666 705.179 11.7912Z" stroke="#F6F6F6" stroke-opacity="0.5" stroke-miterlimit="10" stroke-linecap="round" stroke-linejoin="round"/>
<path d="M717.31 18.8168C716.375 18.5886 715.803 17.6461 716.031 16.7116C716.259 15.777 717.201 15.2044 718.136 15.4326C719.071 15.6607 719.643 16.6033 719.415 17.5378C719.187 18.4723 718.244 19.045 717.31 18.8168Z" stroke="#F6F6F6" stroke-opacity="0.5" stroke-width="0.4" stroke-miterlimit="10" stroke-linecap="round" stroke-linejoin="round"/>
<path d="M714.329 22.4983C713.688 22.342 713.398 21.5443 713.818 21.0168C714.578 20.0878 715.808 19.6128 717.043 19.9143C718.278 20.2158 719.197 21.2155 719.397 22.379C719.527 23.0405 718.902 23.6148 718.262 23.4585L714.329 22.4983Z" stroke="#F6F6F6" stroke-opacity="0.5" stroke-width="0.4" stroke-miterlimit="10" stroke-linecap="round" stroke-linejoin="round"/>
<path d="M719.459 16.7724C719.734 16.8394 719.962 16.8953 720.237 16.9623C720.466 17.0181 720.604 17.2457 720.548 17.4743L720.358 18.2518C720.302 18.4805 720.075 18.6187 719.846 18.5629L717.559 18.0046" stroke="#F6F6F6" stroke-opacity="0.5" stroke-width="0.4" stroke-miterlimit="10" stroke-linecap="round" stroke-linejoin="round"/>
<path d="M667.179 126.791C665.041 135.25 671.828 142.987 675.331 145.741C675.67 146.035 675.96 146.246 676.251 146.458C676.543 146.394 676.964 146.362 677.401 146.264C681.679 145.407 691.375 141.904 693.512 133.445C694.597 129.15 692.298 124.901 688.416 123.92C685.828 123.266 683.185 124.19 681.381 126.157C680.727 123.569 678.84 121.5 676.252 120.846C672.322 119.784 668.264 122.497 667.179 126.791Z" stroke="#F6F6F6" stroke-opacity="0.5" stroke-miterlimit="10" stroke-linecap="round" stroke-linejoin="round"/>
<path d="M679.31 133.817C678.375 133.589 677.803 132.646 678.031 131.712C678.259 130.777 679.201 130.204 680.136 130.433C681.071 130.661 681.643 131.603 681.415 132.538C681.187 133.472 680.244 134.045 679.31 133.817Z" stroke="#F6F6F6" stroke-opacity="0.5" stroke-width="0.4" stroke-miterlimit="10" stroke-linecap="round" stroke-linejoin="round"/>
<path d="M676.329 137.499C675.688 137.342 675.398 136.545 675.818 136.017C676.578 135.088 677.808 134.613 679.043 134.915C680.278 135.216 681.197 136.216 681.397 137.379C681.527 138.041 680.902 138.615 680.262 138.459L676.329 137.499Z" stroke="#F6F6F6" stroke-opacity="0.5" stroke-width="0.4" stroke-miterlimit="10" stroke-linecap="round" stroke-linejoin="round"/>
<path d="M681.459 131.773C681.734 131.84 681.962 131.896 682.237 131.962C682.466 132.018 682.604 132.246 682.548 132.475L682.358 133.252C682.302 133.481 682.075 133.619 681.846 133.563L679.559 133.005" stroke="#F6F6F6" stroke-opacity="0.5" stroke-width="0.4" stroke-miterlimit="10" stroke-linecap="round" stroke-linejoin="round"/>
<path d="M773.179 198.791C771.041 207.25 777.828 214.987 781.331 217.742C781.67 218.035 781.96 218.247 782.251 218.459C782.543 218.394 782.964 218.362 783.401 218.265C787.679 217.407 797.375 213.904 799.512 205.445C800.597 201.151 798.298 196.901 794.416 195.92C791.828 195.266 789.185 196.191 787.381 198.157C786.727 195.569 784.84 193.501 782.252 192.847C778.322 191.784 774.264 194.497 773.179 198.791Z" stroke="#F6F6F6" stroke-opacity="0.5" stroke-miterlimit="10" stroke-linecap="round" stroke-linejoin="round"/>
<path d="M785.31 205.817C784.375 205.589 783.803 204.646 784.031 203.712C784.259 202.777 785.201 202.204 786.136 202.433C787.071 202.661 787.643 203.603 787.415 204.538C787.187 205.472 786.244 206.045 785.31 205.817Z" stroke="#F6F6F6" stroke-opacity="0.5" stroke-width="0.4" stroke-miterlimit="10" stroke-linecap="round" stroke-linejoin="round"/>
<path d="M782.329 209.499C781.688 209.342 781.398 208.545 781.818 208.017C782.578 207.088 783.808 206.613 785.043 206.915C786.278 207.216 787.197 208.216 787.397 209.379C787.527 210.041 786.902 210.615 786.262 210.459L782.329 209.499Z" stroke="#F6F6F6" stroke-opacity="0.5" stroke-width="0.4" stroke-miterlimit="10" stroke-linecap="round" stroke-linejoin="round"/>
<path d="M787.459 203.773C787.734 203.84 787.962 203.896 788.237 203.962C788.466 204.018 788.604 204.246 788.548 204.475L788.358 205.252C788.302 205.481 788.075 205.619 787.846 205.563L785.559 205.005" stroke="#F6F6F6" stroke-opacity="0.5" stroke-width="0.4" stroke-miterlimit="10" stroke-linecap="round" stroke-linejoin="round"/>
</g>
</svg>
