<svg width="802" height="285" viewBox="0 0 802 285" fill="none" xmlns="http://www.w3.org/2000/svg">
<mask id="mask0" style="mask-type:alpha" maskUnits="userSpaceOnUse" x="0" y="0" width="802" height="285">
<rect width="802" height="285" rx="17" fill="#FC6E20"/>
</mask>
<g mask="url(#mask0)">
<rect width="802" height="285" rx="17" fill="#4760F0"/>
<path d="M244.497 118.908V121.572H237.657V144H234.381V121.572H227.505V118.908H244.497ZM251.806 127.476C252.382 126.348 253.198 125.472 254.254 124.848C255.334 124.224 256.642 123.912 258.178 123.912V127.296H257.314C253.642 127.296 251.806 129.288 251.806 133.272V144H248.53V124.272H251.806V127.476ZM260.736 134.064C260.736 132.048 261.144 130.284 261.96 128.772C262.776 127.236 263.892 126.048 265.308 125.208C266.748 124.368 268.344 123.948 270.096 123.948C271.824 123.948 273.324 124.32 274.596 125.064C275.868 125.808 276.816 126.744 277.44 127.872V124.272H280.752V144H277.44V140.328C276.792 141.48 275.82 142.44 274.524 143.208C273.252 143.952 271.764 144.324 270.06 144.324C268.308 144.324 266.724 143.892 265.308 143.028C263.892 142.164 262.776 140.952 261.96 139.392C261.144 137.832 260.736 136.056 260.736 134.064ZM277.44 134.1C277.44 132.612 277.14 131.316 276.54 130.212C275.94 129.108 275.124 128.268 274.092 127.692C273.084 127.092 271.968 126.792 270.744 126.792C269.52 126.792 268.404 127.08 267.396 127.656C266.388 128.232 265.584 129.072 264.984 130.176C264.384 131.28 264.084 132.576 264.084 134.064C264.084 135.576 264.384 136.896 264.984 138.024C265.584 139.128 266.388 139.98 267.396 140.58C268.404 141.156 269.52 141.444 270.744 141.444C271.968 141.444 273.084 141.156 274.092 140.58C275.124 139.98 275.94 139.128 276.54 138.024C277.14 136.896 277.44 135.588 277.44 134.1ZM295.9 123.912C298.3 123.912 300.244 124.644 301.732 126.108C303.22 127.548 303.964 129.636 303.964 132.372V144H300.724V132.84C300.724 130.872 300.232 129.372 299.248 128.34C298.264 127.284 296.92 126.756 295.216 126.756C293.488 126.756 292.108 127.296 291.076 128.376C290.068 129.456 289.564 131.028 289.564 133.092V144H286.288V124.272H289.564V127.08C290.212 126.072 291.088 125.292 292.192 124.74C293.32 124.188 294.556 123.912 295.9 123.912ZM316.299 144.324C314.787 144.324 313.431 144.072 312.231 143.568C311.031 143.04 310.083 142.32 309.387 141.408C308.691 140.472 308.307 139.404 308.235 138.204H311.619C311.715 139.188 312.171 139.992 312.987 140.616C313.827 141.24 314.919 141.552 316.263 141.552C317.511 141.552 318.495 141.276 319.215 140.724C319.935 140.172 320.295 139.476 320.295 138.636C320.295 137.772 319.911 137.136 319.143 136.728C318.375 136.296 317.187 135.876 315.579 135.468C314.115 135.084 312.915 134.7 311.979 134.316C311.067 133.908 310.275 133.32 309.603 132.552C308.955 131.76 308.631 130.728 308.631 129.456C308.631 128.448 308.931 127.524 309.531 126.684C310.131 125.844 310.983 125.184 312.087 124.704C313.191 124.2 314.451 123.948 315.867 123.948C318.051 123.948 319.815 124.5 321.159 125.604C322.503 126.708 323.223 128.22 323.319 130.14H320.043C319.971 129.108 319.551 128.28 318.783 127.656C318.039 127.032 317.031 126.72 315.759 126.72C314.583 126.72 313.647 126.972 312.951 127.476C312.255 127.98 311.907 128.64 311.907 129.456C311.907 130.104 312.111 130.644 312.519 131.076C312.951 131.484 313.479 131.82 314.103 132.084C314.751 132.324 315.639 132.6 316.767 132.912C318.183 133.296 319.335 133.68 320.223 134.064C321.111 134.424 321.867 134.976 322.491 135.72C323.139 136.464 323.475 137.436 323.499 138.636C323.499 139.716 323.199 140.688 322.599 141.552C321.999 142.416 321.147 143.1 320.043 143.604C318.963 144.084 317.715 144.324 316.299 144.324ZM331.4 127.908C332.048 126.78 333.008 125.844 334.28 125.1C335.576 124.332 337.076 123.948 338.78 123.948C340.532 123.948 342.116 124.368 343.532 125.208C344.972 126.048 346.1 127.236 346.916 128.772C347.732 130.284 348.14 132.048 348.14 134.064C348.14 136.056 347.732 137.832 346.916 139.392C346.1 140.952 344.972 142.164 343.532 143.028C342.116 143.892 340.532 144.324 338.78 144.324C337.1 144.324 335.612 143.952 334.316 143.208C333.044 142.44 332.072 141.492 331.4 140.364V153.36H328.124V124.272H331.4V127.908ZM344.792 134.064C344.792 132.576 344.492 131.28 343.892 130.176C343.292 129.072 342.476 128.232 341.444 127.656C340.436 127.08 339.32 126.792 338.096 126.792C336.896 126.792 335.78 127.092 334.748 127.692C333.74 128.268 332.924 129.12 332.3 130.248C331.7 131.352 331.4 132.636 331.4 134.1C331.4 135.588 331.7 136.896 332.3 138.024C332.924 139.128 333.74 139.98 334.748 140.58C335.78 141.156 336.896 141.444 338.096 141.444C339.32 141.444 340.436 141.156 341.444 140.58C342.476 139.98 343.292 139.128 343.892 138.024C344.492 136.896 344.792 135.576 344.792 134.064ZM351.228 134.064C351.228 132.048 351.636 130.284 352.452 128.772C353.268 127.236 354.384 126.048 355.8 125.208C357.24 124.368 358.836 123.948 360.588 123.948C362.316 123.948 363.816 124.32 365.088 125.064C366.36 125.808 367.308 126.744 367.932 127.872V124.272H371.244V144H367.932V140.328C367.284 141.48 366.312 142.44 365.016 143.208C363.744 143.952 362.256 144.324 360.552 144.324C358.8 144.324 357.216 143.892 355.8 143.028C354.384 142.164 353.268 140.952 352.452 139.392C351.636 137.832 351.228 136.056 351.228 134.064ZM367.932 134.1C367.932 132.612 367.632 131.316 367.032 130.212C366.432 129.108 365.616 128.268 364.584 127.692C363.576 127.092 362.46 126.792 361.236 126.792C360.012 126.792 358.896 127.08 357.888 127.656C356.88 128.232 356.076 129.072 355.476 130.176C354.876 131.28 354.576 132.576 354.576 134.064C354.576 135.576 354.876 136.896 355.476 138.024C356.076 139.128 356.88 139.98 357.888 140.58C358.896 141.156 360.012 141.444 361.236 141.444C362.46 141.444 363.576 141.156 364.584 140.58C365.616 139.98 366.432 139.128 367.032 138.024C367.632 136.896 367.932 135.588 367.932 134.1ZM380.056 127.476C380.632 126.348 381.448 125.472 382.504 124.848C383.584 124.224 384.892 123.912 386.428 123.912V127.296H385.564C381.892 127.296 380.056 129.288 380.056 133.272V144H376.78V124.272H380.056V127.476ZM408.21 133.38C408.21 134.004 408.174 134.664 408.102 135.36H392.334C392.454 137.304 393.114 138.828 394.314 139.932C395.538 141.012 397.014 141.552 398.742 141.552C400.158 141.552 401.334 141.228 402.27 140.58C403.23 139.908 403.902 139.02 404.286 137.916H407.814C407.286 139.812 406.23 141.36 404.646 142.56C403.062 143.736 401.094 144.324 398.742 144.324C396.87 144.324 395.19 143.904 393.702 143.064C392.238 142.224 391.086 141.036 390.246 139.5C389.406 137.94 388.986 136.14 388.986 134.1C388.986 132.06 389.394 130.272 390.21 128.736C391.026 127.2 392.166 126.024 393.63 125.208C395.118 124.368 396.822 123.948 398.742 123.948C400.614 123.948 402.27 124.356 403.71 125.172C405.15 125.988 406.254 127.116 407.022 128.556C407.814 129.972 408.21 131.58 408.21 133.38ZM404.826 132.696C404.826 131.448 404.55 130.38 403.998 129.492C403.446 128.58 402.69 127.896 401.73 127.44C400.794 126.96 399.75 126.72 398.598 126.72C396.942 126.72 395.526 127.248 394.35 128.304C393.198 129.36 392.538 130.824 392.37 132.696H404.826ZM422.146 123.912C424.546 123.912 426.49 124.644 427.978 126.108C429.466 127.548 430.21 129.636 430.21 132.372V144H426.97V132.84C426.97 130.872 426.478 129.372 425.494 128.34C424.51 127.284 423.166 126.756 421.462 126.756C419.734 126.756 418.354 127.296 417.322 128.376C416.314 129.456 415.81 131.028 415.81 133.092V144H412.534V124.272H415.81V127.08C416.458 126.072 417.334 125.292 418.438 124.74C419.566 124.188 420.802 123.912 422.146 123.912ZM439.557 126.972V138.6C439.557 139.56 439.761 140.244 440.169 140.652C440.577 141.036 441.285 141.228 442.293 141.228H444.705V144H441.753C439.929 144 438.561 143.58 437.649 142.74C436.737 141.9 436.281 140.52 436.281 138.6V126.972H433.725V124.272H436.281V119.304H439.557V124.272H444.705V126.972H439.557ZM475.048 126.252C475.048 128.34 474.328 130.08 472.888 131.472C471.472 132.84 469.3 133.524 466.372 133.524H461.548V144H458.272V118.908H466.372C469.204 118.908 471.352 119.592 472.816 120.96C474.304 122.328 475.048 124.092 475.048 126.252ZM466.372 130.824C468.196 130.824 469.54 130.428 470.404 129.636C471.268 128.844 471.7 127.716 471.7 126.252C471.7 123.156 469.924 121.608 466.372 121.608H461.548V130.824H466.372ZM482.396 127.476C482.972 126.348 483.788 125.472 484.844 124.848C485.924 124.224 487.232 123.912 488.768 123.912V127.296H487.904C484.232 127.296 482.396 129.288 482.396 133.272V144H479.12V124.272H482.396V127.476ZM494.241 121.068C493.617 121.068 493.089 120.852 492.657 120.42C492.225 119.988 492.009 119.46 492.009 118.836C492.009 118.212 492.225 117.684 492.657 117.252C493.089 116.82 493.617 116.604 494.241 116.604C494.841 116.604 495.345 116.82 495.753 117.252C496.185 117.684 496.401 118.212 496.401 118.836C496.401 119.46 496.185 119.988 495.753 120.42C495.345 120.852 494.841 121.068 494.241 121.068ZM495.825 124.272V144H492.549V124.272H495.825ZM500.185 134.1C500.185 132.06 500.593 130.284 501.409 128.772C502.225 127.236 503.353 126.048 504.793 125.208C506.257 124.368 507.925 123.948 509.797 123.948C512.221 123.948 514.213 124.536 515.773 125.712C517.357 126.888 518.401 128.52 518.905 130.608H515.377C515.041 129.408 514.381 128.46 513.397 127.764C512.437 127.068 511.237 126.72 509.797 126.72C507.925 126.72 506.413 127.368 505.261 128.664C504.109 129.936 503.533 131.748 503.533 134.1C503.533 136.476 504.109 138.312 505.261 139.608C506.413 140.904 507.925 141.552 509.797 141.552C511.237 141.552 512.437 141.216 513.397 140.544C514.357 139.872 515.017 138.912 515.377 137.664H518.905C518.377 139.68 517.321 141.3 515.737 142.524C514.153 143.724 512.173 144.324 509.797 144.324C507.925 144.324 506.257 143.904 504.793 143.064C503.353 142.224 502.225 141.036 501.409 139.5C500.593 137.964 500.185 136.164 500.185 134.1ZM524.968 121.068C524.344 121.068 523.816 120.852 523.384 120.42C522.952 119.988 522.736 119.46 522.736 118.836C522.736 118.212 522.952 117.684 523.384 117.252C523.816 116.82 524.344 116.604 524.968 116.604C525.568 116.604 526.072 116.82 526.48 117.252C526.912 117.684 527.128 118.212 527.128 118.836C527.128 119.46 526.912 119.988 526.48 120.42C526.072 120.852 525.568 121.068 524.968 121.068ZM526.552 124.272V144H523.276V124.272H526.552ZM541.747 123.912C544.147 123.912 546.091 124.644 547.579 126.108C549.067 127.548 549.811 129.636 549.811 132.372V144H546.571V132.84C546.571 130.872 546.079 129.372 545.095 128.34C544.111 127.284 542.767 126.756 541.063 126.756C539.335 126.756 537.955 127.296 536.923 128.376C535.915 129.456 535.411 131.028 535.411 133.092V144H532.135V124.272H535.411V127.08C536.059 126.072 536.935 125.292 538.039 124.74C539.167 124.188 540.403 123.912 541.747 123.912ZM563.299 123.948C565.003 123.948 566.491 124.32 567.763 125.064C569.059 125.808 570.019 126.744 570.643 127.872V124.272H573.955V144.432C573.955 146.232 573.571 147.828 572.803 149.22C572.035 150.636 570.931 151.74 569.491 152.532C568.075 153.324 566.419 153.72 564.523 153.72C561.931 153.72 559.771 153.108 558.043 151.884C556.315 150.66 555.295 148.992 554.983 146.88H558.223C558.583 148.08 559.327 149.04 560.455 149.76C561.583 150.504 562.939 150.876 564.523 150.876C566.323 150.876 567.787 150.312 568.915 149.184C570.067 148.056 570.643 146.472 570.643 144.432V140.292C569.995 141.444 569.035 142.404 567.763 143.172C566.491 143.94 565.003 144.324 563.299 144.324C561.547 144.324 559.951 143.892 558.511 143.028C557.095 142.164 555.979 140.952 555.163 139.392C554.347 137.832 553.939 136.056 553.939 134.064C553.939 132.048 554.347 130.284 555.163 128.772C555.979 127.236 557.095 126.048 558.511 125.208C559.951 124.368 561.547 123.948 563.299 123.948ZM570.643 134.1C570.643 132.612 570.343 131.316 569.743 130.212C569.143 129.108 568.327 128.268 567.295 127.692C566.287 127.092 565.171 126.792 563.947 126.792C562.723 126.792 561.607 127.08 560.599 127.656C559.591 128.232 558.787 129.072 558.187 130.176C557.587 131.28 557.287 132.576 557.287 134.064C557.287 135.576 557.587 136.896 558.187 138.024C558.787 139.128 559.591 139.98 560.599 140.58C561.607 141.156 562.723 141.444 563.947 141.444C565.171 141.444 566.287 141.156 567.295 140.58C568.327 139.98 569.143 139.128 569.743 138.024C570.343 136.896 570.643 135.588 570.643 134.1Z" fill="white"/>
<path d="M207.317 177.7C207.317 176.464 207.587 175.36 208.127 174.388C208.667 173.404 209.405 172.642 210.341 172.102C211.277 171.55 212.321 171.274 213.473 171.274C214.877 171.274 216.077 171.61 217.073 172.282C218.081 172.942 218.813 173.878 219.269 175.09H217.793C217.433 174.238 216.881 173.572 216.137 173.092C215.405 172.612 214.517 172.372 213.473 172.372C212.549 172.372 211.715 172.588 210.971 173.02C210.239 173.452 209.663 174.076 209.243 174.892C208.823 175.696 208.613 176.632 208.613 177.7C208.613 178.768 208.823 179.704 209.243 180.508C209.663 181.312 210.239 181.93 210.971 182.362C211.715 182.794 212.549 183.01 213.473 183.01C214.517 183.01 215.405 182.776 216.137 182.308C216.881 181.828 217.433 181.168 217.793 180.328H219.269C218.813 181.528 218.081 182.458 217.073 183.118C216.065 183.778 214.865 184.108 213.473 184.108C212.321 184.108 211.277 183.838 210.341 183.298C209.405 182.746 208.667 181.984 208.127 181.012C207.587 180.04 207.317 178.936 207.317 177.7ZM224.299 170.68V184H223.039V170.68H224.299ZM229.043 172.318C228.791 172.318 228.575 172.228 228.395 172.048C228.215 171.868 228.125 171.646 228.125 171.382C228.125 171.118 228.215 170.902 228.395 170.734C228.575 170.554 228.791 170.464 229.043 170.464C229.295 170.464 229.511 170.554 229.691 170.734C229.871 170.902 229.961 171.118 229.961 171.382C229.961 171.646 229.871 171.868 229.691 172.048C229.511 172.228 229.295 172.318 229.043 172.318ZM229.673 174.172V184H228.413V174.172H229.673ZM242.678 178.582C242.678 179.014 242.666 179.344 242.642 179.572H234.488C234.524 180.316 234.704 180.952 235.028 181.48C235.352 182.008 235.778 182.41 236.306 182.686C236.834 182.95 237.41 183.082 238.034 183.082C238.85 183.082 239.534 182.884 240.086 182.488C240.65 182.092 241.022 181.558 241.202 180.886H242.534C242.294 181.846 241.778 182.632 240.986 183.244C240.206 183.844 239.222 184.144 238.034 184.144C237.11 184.144 236.282 183.94 235.55 183.532C234.818 183.112 234.242 182.524 233.822 181.768C233.414 181 233.21 180.106 233.21 179.086C233.21 178.066 233.414 177.172 233.822 176.404C234.23 175.636 234.8 175.048 235.532 174.64C236.264 174.232 237.098 174.028 238.034 174.028C238.97 174.028 239.786 174.232 240.482 174.64C241.19 175.048 241.73 175.6 242.102 176.296C242.486 176.98 242.678 177.742 242.678 178.582ZM241.4 178.546C241.412 177.814 241.262 177.19 240.95 176.674C240.65 176.158 240.236 175.768 239.708 175.504C239.18 175.24 238.604 175.108 237.98 175.108C237.044 175.108 236.246 175.408 235.586 176.008C234.926 176.608 234.56 177.454 234.488 178.546H241.4ZM250.851 173.992C252.027 173.992 252.987 174.358 253.731 175.09C254.475 175.81 254.847 176.86 254.847 178.24V184H253.605V178.384C253.605 177.316 253.335 176.5 252.795 175.936C252.267 175.372 251.541 175.09 250.617 175.09C249.669 175.09 248.913 175.39 248.349 175.99C247.785 176.59 247.503 177.472 247.503 178.636V184H246.243V174.172H247.503V175.846C247.815 175.246 248.265 174.79 248.853 174.478C249.441 174.154 250.107 173.992 250.851 173.992ZM260.532 175.234V181.336C260.532 181.936 260.646 182.35 260.874 182.578C261.102 182.806 261.504 182.92 262.08 182.92H263.232V184H261.882C260.994 184 260.334 183.796 259.902 183.388C259.47 182.968 259.254 182.284 259.254 181.336V175.234H257.886V174.172H259.254V171.706H260.532V174.172H263.232V175.234H260.532ZM269.954 184.144C268.826 184.144 267.902 183.886 267.182 183.37C266.474 182.842 266.078 182.128 265.994 181.228H267.29C267.35 181.78 267.608 182.23 268.064 182.578C268.532 182.914 269.156 183.082 269.936 183.082C270.62 183.082 271.154 182.92 271.538 182.596C271.934 182.272 272.132 181.87 272.132 181.39C272.132 181.054 272.024 180.778 271.808 180.562C271.592 180.346 271.316 180.178 270.98 180.058C270.656 179.926 270.212 179.788 269.648 179.644C268.916 179.452 268.322 179.26 267.866 179.068C267.41 178.876 267.02 178.594 266.696 178.222C266.384 177.838 266.228 177.328 266.228 176.692C266.228 176.212 266.372 175.768 266.66 175.36C266.948 174.952 267.356 174.628 267.884 174.388C268.412 174.148 269.012 174.028 269.684 174.028C270.74 174.028 271.592 174.298 272.24 174.838C272.888 175.366 273.236 176.098 273.284 177.034H272.024C271.988 176.458 271.76 175.996 271.34 175.648C270.932 175.288 270.368 175.108 269.648 175.108C269.012 175.108 268.496 175.258 268.1 175.558C267.704 175.858 267.506 176.23 267.506 176.674C267.506 177.058 267.62 177.376 267.848 177.628C268.088 177.868 268.382 178.06 268.73 178.204C269.078 178.336 269.546 178.486 270.134 178.654C270.842 178.846 271.406 179.032 271.826 179.212C272.246 179.392 272.606 179.656 272.906 180.004C273.206 180.352 273.362 180.814 273.374 181.39C273.374 181.918 273.23 182.392 272.942 182.812C272.654 183.22 272.252 183.544 271.736 183.784C271.22 184.024 270.626 184.144 269.954 184.144ZM287.327 174.028C288.251 174.028 289.055 174.244 289.739 174.676C290.423 175.108 290.915 175.654 291.215 176.314V174.172H292.475V184.252C292.475 185.152 292.277 185.95 291.881 186.646C291.497 187.342 290.957 187.876 290.261 188.248C289.565 188.632 288.773 188.824 287.885 188.824C286.625 188.824 285.575 188.524 284.735 187.924C283.907 187.324 283.391 186.508 283.187 185.476H284.429C284.645 186.16 285.053 186.706 285.653 187.114C286.265 187.522 287.009 187.726 287.885 187.726C288.521 187.726 289.091 187.588 289.595 187.312C290.099 187.048 290.495 186.652 290.783 186.124C291.071 185.596 291.215 184.972 291.215 184.252V181.822C290.903 182.494 290.405 183.052 289.721 183.496C289.049 183.928 288.251 184.144 287.327 184.144C286.427 184.144 285.617 183.934 284.897 183.514C284.189 183.094 283.631 182.5 283.223 181.732C282.827 180.964 282.629 180.076 282.629 179.068C282.629 178.06 282.827 177.178 283.223 176.422C283.631 175.654 284.189 175.066 284.897 174.658C285.617 174.238 286.427 174.028 287.327 174.028ZM291.215 179.086C291.215 178.294 291.053 177.598 290.729 176.998C290.405 176.398 289.961 175.936 289.397 175.612C288.845 175.288 288.233 175.126 287.561 175.126C286.865 175.126 286.241 175.282 285.689 175.594C285.137 175.906 284.699 176.362 284.375 176.962C284.063 177.55 283.907 178.252 283.907 179.068C283.907 179.872 284.063 180.58 284.375 181.192C284.699 181.792 285.137 182.254 285.689 182.578C286.241 182.89 286.865 183.046 287.561 183.046C288.233 183.046 288.845 182.884 289.397 182.56C289.961 182.236 290.405 181.774 290.729 181.174C291.053 180.574 291.215 179.878 291.215 179.086ZM305.504 178.582C305.504 179.014 305.492 179.344 305.468 179.572H297.314C297.35 180.316 297.53 180.952 297.854 181.48C298.178 182.008 298.604 182.41 299.132 182.686C299.66 182.95 300.236 183.082 300.86 183.082C301.676 183.082 302.36 182.884 302.912 182.488C303.476 182.092 303.848 181.558 304.028 180.886H305.36C305.12 181.846 304.604 182.632 303.812 183.244C303.032 183.844 302.048 184.144 300.86 184.144C299.936 184.144 299.108 183.94 298.376 183.532C297.644 183.112 297.068 182.524 296.648 181.768C296.24 181 296.036 180.106 296.036 179.086C296.036 178.066 296.24 177.172 296.648 176.404C297.056 175.636 297.626 175.048 298.358 174.64C299.09 174.232 299.924 174.028 300.86 174.028C301.796 174.028 302.612 174.232 303.308 174.64C304.016 175.048 304.556 175.6 304.928 176.296C305.312 176.98 305.504 177.742 305.504 178.582ZM304.226 178.546C304.238 177.814 304.088 177.19 303.776 176.674C303.476 176.158 303.062 175.768 302.534 175.504C302.006 175.24 301.43 175.108 300.806 175.108C299.87 175.108 299.072 175.408 298.412 176.008C297.752 176.608 297.386 177.454 297.314 178.546H304.226ZM310.707 175.234V181.336C310.707 181.936 310.821 182.35 311.049 182.578C311.277 182.806 311.679 182.92 312.255 182.92H313.407V184H312.057C311.169 184 310.509 183.796 310.077 183.388C309.645 182.968 309.429 182.284 309.429 181.336V175.234H308.061V174.172H309.429V171.706H310.707V174.172H313.407V175.234H310.707ZM322.368 179.068C322.368 178.06 322.566 177.178 322.962 176.422C323.37 175.654 323.928 175.066 324.636 174.658C325.356 174.238 326.166 174.028 327.066 174.028C328.002 174.028 328.806 174.244 329.478 174.676C330.162 175.108 330.654 175.66 330.954 176.332V174.172H332.214V184H330.954V181.822C330.642 182.494 330.144 183.052 329.46 183.496C328.788 183.928 327.984 184.144 327.048 184.144C326.16 184.144 325.356 183.934 324.636 183.514C323.928 183.094 323.37 182.5 322.962 181.732C322.566 180.964 322.368 180.076 322.368 179.068ZM330.954 179.086C330.954 178.294 330.792 177.598 330.468 176.998C330.144 176.398 329.7 175.936 329.136 175.612C328.584 175.288 327.972 175.126 327.3 175.126C326.604 175.126 325.98 175.282 325.428 175.594C324.876 175.906 324.438 176.362 324.114 176.962C323.802 177.55 323.646 178.252 323.646 179.068C323.646 179.872 323.802 180.58 324.114 181.192C324.438 181.792 324.876 182.254 325.428 182.578C325.98 182.89 326.604 183.046 327.3 183.046C327.972 183.046 328.584 182.884 329.136 182.56C329.7 182.236 330.144 181.774 330.468 181.174C330.792 180.574 330.954 179.878 330.954 179.086ZM341.974 179.086C341.974 178.066 342.178 177.178 342.586 176.422C342.994 175.654 343.558 175.066 344.278 174.658C344.998 174.238 345.82 174.028 346.744 174.028C347.956 174.028 348.952 174.328 349.732 174.928C350.524 175.528 351.034 176.344 351.262 177.376H349.912C349.744 176.668 349.378 176.116 348.814 175.72C348.262 175.312 347.572 175.108 346.744 175.108C346.084 175.108 345.49 175.258 344.962 175.558C344.434 175.858 344.014 176.308 343.702 176.908C343.402 177.496 343.252 178.222 343.252 179.086C343.252 179.95 343.402 180.682 343.702 181.282C344.014 181.882 344.434 182.332 344.962 182.632C345.49 182.932 346.084 183.082 346.744 183.082C347.572 183.082 348.262 182.884 348.814 182.488C349.378 182.08 349.744 181.516 349.912 180.796H351.262C351.034 181.804 350.524 182.614 349.732 183.226C348.94 183.838 347.944 184.144 346.744 184.144C345.82 184.144 344.998 183.94 344.278 183.532C343.558 183.112 342.994 182.524 342.586 181.768C342.178 181 341.974 180.106 341.974 179.086ZM356.109 170.68V184H354.849V170.68H356.109ZM369.115 178.582C369.115 179.014 369.103 179.344 369.079 179.572H360.925C360.961 180.316 361.141 180.952 361.465 181.48C361.789 182.008 362.215 182.41 362.743 182.686C363.271 182.95 363.847 183.082 364.471 183.082C365.287 183.082 365.971 182.884 366.523 182.488C367.087 182.092 367.459 181.558 367.639 180.886H368.971C368.731 181.846 368.215 182.632 367.423 183.244C366.643 183.844 365.659 184.144 364.471 184.144C363.547 184.144 362.719 183.94 361.987 183.532C361.255 183.112 360.679 182.524 360.259 181.768C359.851 181 359.647 180.106 359.647 179.086C359.647 178.066 359.851 177.172 360.259 176.404C360.667 175.636 361.237 175.048 361.969 174.64C362.701 174.232 363.535 174.028 364.471 174.028C365.407 174.028 366.223 174.232 366.919 174.64C367.627 175.048 368.167 175.6 368.539 176.296C368.923 176.98 369.115 177.742 369.115 178.582ZM367.837 178.546C367.849 177.814 367.699 177.19 367.387 176.674C367.087 176.158 366.673 175.768 366.145 175.504C365.617 175.24 365.041 175.108 364.417 175.108C363.481 175.108 362.683 175.408 362.023 176.008C361.363 176.608 360.997 177.454 360.925 178.546H367.837ZM372.104 179.068C372.104 178.06 372.302 177.178 372.698 176.422C373.106 175.654 373.664 175.066 374.372 174.658C375.092 174.238 375.902 174.028 376.802 174.028C377.738 174.028 378.542 174.244 379.214 174.676C379.898 175.108 380.39 175.66 380.69 176.332V174.172H381.95V184H380.69V181.822C380.378 182.494 379.88 183.052 379.196 183.496C378.524 183.928 377.72 184.144 376.784 184.144C375.896 184.144 375.092 183.934 374.372 183.514C373.664 183.094 373.106 182.5 372.698 181.732C372.302 180.964 372.104 180.076 372.104 179.068ZM380.69 179.086C380.69 178.294 380.528 177.598 380.204 176.998C379.88 176.398 379.436 175.936 378.872 175.612C378.32 175.288 377.708 175.126 377.036 175.126C376.34 175.126 375.716 175.282 375.164 175.594C374.612 175.906 374.174 176.362 373.85 176.962C373.538 177.55 373.382 178.252 373.382 179.068C373.382 179.872 373.538 180.58 373.85 181.192C374.174 181.792 374.612 182.254 375.164 182.578C375.716 182.89 376.34 183.046 377.036 183.046C377.708 183.046 378.32 182.884 378.872 182.56C379.436 182.236 379.88 181.774 380.204 181.174C380.528 180.574 380.69 179.878 380.69 179.086ZM387.346 175.918C387.622 175.306 388.042 174.832 388.606 174.496C389.182 174.16 389.884 173.992 390.712 173.992V175.306H390.37C389.458 175.306 388.726 175.552 388.174 176.044C387.622 176.536 387.346 177.358 387.346 178.51V184H386.086V174.172H387.346V175.918ZM405.377 184L401.327 179.59V184H400.067V170.68H401.327V178.564L405.287 174.172H407.051L402.389 179.068L407.087 184H405.377ZM414.584 173.992C415.76 173.992 416.72 174.358 417.464 175.09C418.208 175.81 418.58 176.86 418.58 178.24V184H417.338V178.384C417.338 177.316 417.068 176.5 416.528 175.936C416 175.372 415.274 175.09 414.35 175.09C413.402 175.09 412.646 175.39 412.082 175.99C411.518 176.59 411.236 177.472 411.236 178.636V184H409.976V174.172H411.236V175.846C411.548 175.246 411.998 174.79 412.586 174.478C413.174 174.154 413.84 173.992 414.584 173.992ZM426.928 184.144C426.004 184.144 425.17 183.94 424.426 183.532C423.694 183.112 423.112 182.524 422.68 181.768C422.26 181 422.05 180.106 422.05 179.086C422.05 178.066 422.266 177.178 422.698 176.422C423.13 175.654 423.718 175.066 424.462 174.658C425.206 174.238 426.04 174.028 426.964 174.028C427.888 174.028 428.722 174.238 429.466 174.658C430.222 175.066 430.81 175.654 431.23 176.422C431.662 177.178 431.878 178.066 431.878 179.086C431.878 180.094 431.662 180.982 431.23 181.75C430.798 182.518 430.204 183.112 429.448 183.532C428.692 183.94 427.852 184.144 426.928 184.144ZM426.928 183.046C427.576 183.046 428.176 182.902 428.728 182.614C429.28 182.314 429.724 181.87 430.06 181.282C430.408 180.682 430.582 179.95 430.582 179.086C430.582 178.222 430.414 177.496 430.078 176.908C429.742 176.308 429.298 175.864 428.746 175.576C428.194 175.276 427.594 175.126 426.946 175.126C426.298 175.126 425.698 175.276 425.146 175.576C424.594 175.864 424.15 176.308 423.814 176.908C423.49 177.496 423.328 178.222 423.328 179.086C423.328 179.95 423.49 180.682 423.814 181.282C424.15 181.87 424.588 182.314 425.128 182.614C425.68 182.902 426.28 183.046 426.928 183.046ZM448.395 174.172L445.317 184H444.057L441.339 175.756L438.621 184H437.343L434.265 174.172H435.543L437.991 182.722L440.745 174.172H442.005L444.723 182.74L447.153 174.172H448.395ZM452.633 170.68V184H451.373V170.68H452.633ZM465.638 178.582C465.638 179.014 465.626 179.344 465.602 179.572H457.448C457.484 180.316 457.664 180.952 457.988 181.48C458.312 182.008 458.738 182.41 459.266 182.686C459.794 182.95 460.37 183.082 460.994 183.082C461.81 183.082 462.494 182.884 463.046 182.488C463.61 182.092 463.982 181.558 464.162 180.886H465.494C465.254 181.846 464.738 182.632 463.946 183.244C463.166 183.844 462.182 184.144 460.994 184.144C460.07 184.144 459.242 183.94 458.51 183.532C457.778 183.112 457.202 182.524 456.782 181.768C456.374 181 456.17 180.106 456.17 179.086C456.17 178.066 456.374 177.172 456.782 176.404C457.19 175.636 457.76 175.048 458.492 174.64C459.224 174.232 460.058 174.028 460.994 174.028C461.93 174.028 462.746 174.232 463.442 174.64C464.15 175.048 464.69 175.6 465.062 176.296C465.446 176.98 465.638 177.742 465.638 178.582ZM464.36 178.546C464.372 177.814 464.222 177.19 463.91 176.674C463.61 176.158 463.196 175.768 462.668 175.504C462.14 175.24 461.564 175.108 460.94 175.108C460.004 175.108 459.206 175.408 458.546 176.008C457.886 176.608 457.52 177.454 457.448 178.546H464.36ZM468.627 179.068C468.627 178.06 468.831 177.178 469.239 176.422C469.647 175.654 470.205 175.066 470.913 174.658C471.633 174.238 472.443 174.028 473.343 174.028C474.207 174.028 474.987 174.238 475.683 174.658C476.379 175.078 476.889 175.624 477.213 176.296V170.68H478.473V184H477.213V181.804C476.913 182.488 476.421 183.052 475.737 183.496C475.053 183.928 474.249 184.144 473.325 184.144C472.425 184.144 471.615 183.934 470.895 183.514C470.187 183.094 469.629 182.5 469.221 181.732C468.825 180.964 468.627 180.076 468.627 179.068ZM477.213 179.086C477.213 178.294 477.051 177.598 476.727 176.998C476.403 176.398 475.959 175.936 475.395 175.612C474.843 175.288 474.231 175.126 473.559 175.126C472.863 175.126 472.239 175.282 471.687 175.594C471.135 175.906 470.697 176.362 470.373 176.962C470.061 177.55 469.905 178.252 469.905 179.068C469.905 179.872 470.061 180.58 470.373 181.192C470.697 181.792 471.135 182.254 471.687 182.578C472.239 182.89 472.863 183.046 473.559 183.046C474.231 183.046 474.843 182.884 475.395 182.56C475.959 182.236 476.403 181.774 476.727 181.174C477.051 180.574 477.213 179.878 477.213 179.086ZM486.732 174.028C487.656 174.028 488.46 174.244 489.144 174.676C489.828 175.108 490.32 175.654 490.62 176.314V174.172H491.88V184.252C491.88 185.152 491.682 185.95 491.286 186.646C490.902 187.342 490.362 187.876 489.666 188.248C488.97 188.632 488.178 188.824 487.29 188.824C486.03 188.824 484.98 188.524 484.14 187.924C483.312 187.324 482.796 186.508 482.592 185.476H483.834C484.05 186.16 484.458 186.706 485.058 187.114C485.67 187.522 486.414 187.726 487.29 187.726C487.926 187.726 488.496 187.588 489 187.312C489.504 187.048 489.9 186.652 490.188 186.124C490.476 185.596 490.62 184.972 490.62 184.252V181.822C490.308 182.494 489.81 183.052 489.126 183.496C488.454 183.928 487.656 184.144 486.732 184.144C485.832 184.144 485.022 183.934 484.302 183.514C483.594 183.094 483.036 182.5 482.628 181.732C482.232 180.964 482.034 180.076 482.034 179.068C482.034 178.06 482.232 177.178 482.628 176.422C483.036 175.654 483.594 175.066 484.302 174.658C485.022 174.238 485.832 174.028 486.732 174.028ZM490.62 179.086C490.62 178.294 490.458 177.598 490.134 176.998C489.81 176.398 489.366 175.936 488.802 175.612C488.25 175.288 487.638 175.126 486.966 175.126C486.27 175.126 485.646 175.282 485.094 175.594C484.542 175.906 484.104 176.362 483.78 176.962C483.468 177.55 483.312 178.252 483.312 179.068C483.312 179.872 483.468 180.58 483.78 181.192C484.104 181.792 484.542 182.254 485.094 182.578C485.646 182.89 486.27 183.046 486.966 183.046C487.638 183.046 488.25 182.884 488.802 182.56C489.366 182.236 489.81 181.774 490.134 181.174C490.458 180.574 490.62 179.878 490.62 179.086ZM504.908 178.582C504.908 179.014 504.896 179.344 504.872 179.572H496.718C496.754 180.316 496.934 180.952 497.258 181.48C497.582 182.008 498.008 182.41 498.536 182.686C499.064 182.95 499.64 183.082 500.264 183.082C501.08 183.082 501.764 182.884 502.316 182.488C502.88 182.092 503.252 181.558 503.432 180.886H504.764C504.524 181.846 504.008 182.632 503.216 183.244C502.436 183.844 501.452 184.144 500.264 184.144C499.34 184.144 498.512 183.94 497.78 183.532C497.048 183.112 496.472 182.524 496.052 181.768C495.644 181 495.44 180.106 495.44 179.086C495.44 178.066 495.644 177.172 496.052 176.404C496.46 175.636 497.03 175.048 497.762 174.64C498.494 174.232 499.328 174.028 500.264 174.028C501.2 174.028 502.016 174.232 502.712 174.64C503.42 175.048 503.96 175.6 504.332 176.296C504.716 176.98 504.908 177.742 504.908 178.582ZM503.63 178.546C503.642 177.814 503.492 177.19 503.18 176.674C502.88 176.158 502.466 175.768 501.938 175.504C501.41 175.24 500.834 175.108 500.21 175.108C499.274 175.108 498.476 175.408 497.816 176.008C497.156 176.608 496.79 177.454 496.718 178.546H503.63ZM518.543 175.234H516.257V184H514.997V175.234H513.629V174.172H514.997V173.488C514.997 172.42 515.267 171.634 515.807 171.13C516.359 170.626 517.247 170.374 518.471 170.374V171.454C517.655 171.454 517.079 171.61 516.743 171.922C516.419 172.234 516.257 172.756 516.257 173.488V174.172H518.543V175.234ZM526.089 184.144C525.165 184.144 524.331 183.94 523.587 183.532C522.855 183.112 522.273 182.524 521.841 181.768C521.421 181 521.211 180.106 521.211 179.086C521.211 178.066 521.427 177.178 521.859 176.422C522.291 175.654 522.879 175.066 523.623 174.658C524.367 174.238 525.201 174.028 526.125 174.028C527.049 174.028 527.883 174.238 528.627 174.658C529.383 175.066 529.971 175.654 530.391 176.422C530.823 177.178 531.039 178.066 531.039 179.086C531.039 180.094 530.823 180.982 530.391 181.75C529.959 182.518 529.365 183.112 528.609 183.532C527.853 183.94 527.013 184.144 526.089 184.144ZM526.089 183.046C526.737 183.046 527.337 182.902 527.889 182.614C528.441 182.314 528.885 181.87 529.221 181.282C529.569 180.682 529.743 179.95 529.743 179.086C529.743 178.222 529.575 177.496 529.239 176.908C528.903 176.308 528.459 175.864 527.907 175.576C527.355 175.276 526.755 175.126 526.107 175.126C525.459 175.126 524.859 175.276 524.307 175.576C523.755 175.864 523.311 176.308 522.975 176.908C522.651 177.496 522.489 178.222 522.489 179.086C522.489 179.95 522.651 180.682 522.975 181.282C523.311 181.87 523.749 182.314 524.289 182.614C524.841 182.902 525.441 183.046 526.089 183.046ZM535.856 175.918C536.132 175.306 536.552 174.832 537.116 174.496C537.692 174.16 538.394 173.992 539.222 173.992V175.306H538.88C537.968 175.306 537.236 175.552 536.684 176.044C536.132 176.536 535.856 177.358 535.856 178.51V184H534.596V174.172H535.856V175.918ZM561.536 174.172L558.458 184H557.198L554.48 175.756L551.762 184H550.484L547.406 174.172H548.684L551.132 182.722L553.886 174.172H555.146L557.864 182.74L560.294 174.172H561.536ZM569.194 173.992C569.938 173.992 570.604 174.148 571.192 174.46C571.792 174.772 572.26 175.252 572.596 175.9C572.944 176.536 573.118 177.316 573.118 178.24V184H571.876V178.384C571.876 177.316 571.606 176.5 571.066 175.936C570.538 175.372 569.812 175.09 568.888 175.09C567.94 175.09 567.184 175.39 566.62 175.99C566.056 176.59 565.774 177.472 565.774 178.636V184H564.514V170.68H565.774V175.846C566.086 175.258 566.542 174.802 567.142 174.478C567.754 174.154 568.438 173.992 569.194 173.992ZM576.589 179.068C576.589 178.06 576.787 177.178 577.183 176.422C577.591 175.654 578.149 175.066 578.857 174.658C579.577 174.238 580.387 174.028 581.287 174.028C582.223 174.028 583.027 174.244 583.699 174.676C584.383 175.108 584.875 175.66 585.175 176.332V174.172H586.435V184H585.175V181.822C584.863 182.494 584.365 183.052 583.681 183.496C583.009 183.928 582.205 184.144 581.269 184.144C580.381 184.144 579.577 183.934 578.857 183.514C578.149 183.094 577.591 182.5 577.183 181.732C576.787 180.964 576.589 180.076 576.589 179.068ZM585.175 179.086C585.175 178.294 585.013 177.598 584.689 176.998C584.365 176.398 583.921 175.936 583.357 175.612C582.805 175.288 582.193 175.126 581.521 175.126C580.825 175.126 580.201 175.282 579.649 175.594C579.097 175.906 578.659 176.362 578.335 176.962C578.023 177.55 577.867 178.252 577.867 179.068C577.867 179.872 578.023 180.58 578.335 181.192C578.659 181.792 579.097 182.254 579.649 182.578C580.201 182.89 580.825 183.046 581.521 183.046C582.193 183.046 582.805 182.884 583.357 182.56C583.921 182.236 584.365 181.774 584.689 181.174C585.013 180.574 585.175 179.878 585.175 179.086ZM592.209 175.234V181.336C592.209 181.936 592.323 182.35 592.551 182.578C592.779 182.806 593.181 182.92 593.757 182.92H594.909V184H593.559C592.671 184 592.011 183.796 591.579 183.388C591.147 182.968 590.931 182.284 590.931 181.336V175.234H589.563V174.172H590.931V171.706H592.209V174.172H594.909V175.234H592.209ZM322.839 208.234V214.336C322.839 214.936 322.953 215.35 323.181 215.578C323.409 215.806 323.811 215.92 324.387 215.92H325.539V217H324.189C323.301 217 322.641 216.796 322.209 216.388C321.777 215.968 321.561 215.284 321.561 214.336V208.234H320.193V207.172H321.561V204.706H322.839V207.172H325.539V208.234H322.839ZM333.557 206.992C334.301 206.992 334.967 207.148 335.555 207.46C336.155 207.772 336.623 208.252 336.959 208.9C337.307 209.536 337.481 210.316 337.481 211.24V217H336.239V211.384C336.239 210.316 335.969 209.5 335.429 208.936C334.901 208.372 334.175 208.09 333.251 208.09C332.303 208.09 331.547 208.39 330.983 208.99C330.419 209.59 330.137 210.472 330.137 211.636V217H328.877V203.68H330.137V208.846C330.449 208.258 330.905 207.802 331.505 207.478C332.117 207.154 332.801 206.992 333.557 206.992ZM350.42 211.582C350.42 212.014 350.408 212.344 350.384 212.572H342.23C342.266 213.316 342.446 213.952 342.77 214.48C343.094 215.008 343.52 215.41 344.048 215.686C344.576 215.95 345.152 216.082 345.776 216.082C346.592 216.082 347.276 215.884 347.828 215.488C348.392 215.092 348.764 214.558 348.944 213.886H350.276C350.036 214.846 349.52 215.632 348.728 216.244C347.948 216.844 346.964 217.144 345.776 217.144C344.852 217.144 344.024 216.94 343.292 216.532C342.56 216.112 341.984 215.524 341.564 214.768C341.156 214 340.952 213.106 340.952 212.086C340.952 211.066 341.156 210.172 341.564 209.404C341.972 208.636 342.542 208.048 343.274 207.64C344.006 207.232 344.84 207.028 345.776 207.028C346.712 207.028 347.528 207.232 348.224 207.64C348.932 208.048 349.472 208.6 349.844 209.296C350.228 209.98 350.42 210.742 350.42 211.582ZM349.142 211.546C349.154 210.814 349.004 210.19 348.692 209.674C348.392 209.158 347.978 208.768 347.45 208.504C346.922 208.24 346.346 208.108 345.722 208.108C344.786 208.108 343.988 208.408 343.328 209.008C342.668 209.608 342.302 210.454 342.23 211.546H349.142ZM362.085 207.172L356.253 221.626H354.939L356.847 216.946L352.815 207.172H354.201L357.549 215.56L360.789 207.172H362.085ZM370.677 212.068C370.677 211.06 370.875 210.178 371.271 209.422C371.679 208.654 372.237 208.066 372.945 207.658C373.665 207.238 374.475 207.028 375.375 207.028C376.311 207.028 377.115 207.244 377.787 207.676C378.471 208.108 378.963 208.66 379.263 209.332V207.172H380.523V217H379.263V214.822C378.951 215.494 378.453 216.052 377.769 216.496C377.097 216.928 376.293 217.144 375.357 217.144C374.469 217.144 373.665 216.934 372.945 216.514C372.237 216.094 371.679 215.5 371.271 214.732C370.875 213.964 370.677 213.076 370.677 212.068ZM379.263 212.086C379.263 211.294 379.101 210.598 378.777 209.998C378.453 209.398 378.009 208.936 377.445 208.612C376.893 208.288 376.281 208.126 375.609 208.126C374.913 208.126 374.289 208.282 373.737 208.594C373.185 208.906 372.747 209.362 372.423 209.962C372.111 210.55 371.955 211.252 371.955 212.068C371.955 212.872 372.111 213.58 372.423 214.192C372.747 214.792 373.185 215.254 373.737 215.578C374.289 215.89 374.913 216.046 375.609 216.046C376.281 216.046 376.893 215.884 377.445 215.56C378.009 215.236 378.453 214.774 378.777 214.174C379.101 213.574 379.263 212.878 379.263 212.086ZM385.919 208.918C386.195 208.306 386.615 207.832 387.179 207.496C387.755 207.16 388.457 206.992 389.285 206.992V208.306H388.943C388.031 208.306 387.299 208.552 386.747 209.044C386.195 209.536 385.919 210.358 385.919 211.51V217H384.659V207.172H385.919V208.918ZM401.333 211.582C401.333 212.014 401.321 212.344 401.297 212.572H393.143C393.179 213.316 393.359 213.952 393.683 214.48C394.007 215.008 394.433 215.41 394.961 215.686C395.489 215.95 396.065 216.082 396.689 216.082C397.505 216.082 398.189 215.884 398.741 215.488C399.305 215.092 399.677 214.558 399.857 213.886H401.189C400.949 214.846 400.433 215.632 399.641 216.244C398.861 216.844 397.877 217.144 396.689 217.144C395.765 217.144 394.937 216.94 394.205 216.532C393.473 216.112 392.897 215.524 392.477 214.768C392.069 214 391.865 213.106 391.865 212.086C391.865 211.066 392.069 210.172 392.477 209.404C392.885 208.636 393.455 208.048 394.187 207.64C394.919 207.232 395.753 207.028 396.689 207.028C397.625 207.028 398.441 207.232 399.137 207.64C399.845 208.048 400.385 208.6 400.757 209.296C401.141 209.98 401.333 210.742 401.333 211.582ZM400.055 211.546C400.067 210.814 399.917 210.19 399.605 209.674C399.305 209.158 398.891 208.768 398.363 208.504C397.835 208.24 397.259 208.108 396.635 208.108C395.699 208.108 394.901 208.408 394.241 209.008C393.581 209.608 393.215 210.454 393.143 211.546H400.055ZM412.34 209.332C412.652 208.672 413.144 208.126 413.816 207.694C414.5 207.25 415.31 207.028 416.246 207.028C417.134 207.028 417.932 207.238 418.64 207.658C419.36 208.066 419.918 208.654 420.314 209.422C420.722 210.178 420.926 211.06 420.926 212.068C420.926 213.076 420.722 213.964 420.314 214.732C419.918 215.5 419.36 216.094 418.64 216.514C417.932 216.934 417.134 217.144 416.246 217.144C415.322 217.144 414.518 216.928 413.834 216.496C413.15 216.052 412.652 215.5 412.34 214.84V221.644H411.098V207.172H412.34V209.332ZM419.648 212.068C419.648 211.252 419.486 210.55 419.162 209.962C418.85 209.362 418.418 208.906 417.866 208.594C417.314 208.282 416.69 208.126 415.994 208.126C415.322 208.126 414.704 208.288 414.14 208.612C413.588 208.936 413.15 209.398 412.826 209.998C412.502 210.598 412.34 211.294 412.34 212.086C412.34 212.878 412.502 213.574 412.826 214.174C413.15 214.774 413.588 215.236 414.14 215.56C414.704 215.884 415.322 216.046 415.994 216.046C416.69 216.046 417.314 215.89 417.866 215.578C418.418 215.254 418.85 214.792 419.162 214.192C419.486 213.58 419.648 212.872 419.648 212.068ZM423.928 212.068C423.928 211.06 424.126 210.178 424.522 209.422C424.93 208.654 425.488 208.066 426.196 207.658C426.916 207.238 427.726 207.028 428.626 207.028C429.562 207.028 430.366 207.244 431.038 207.676C431.722 208.108 432.214 208.66 432.514 209.332V207.172H433.774V217H432.514V214.822C432.202 215.494 431.704 216.052 431.02 216.496C430.348 216.928 429.544 217.144 428.608 217.144C427.72 217.144 426.916 216.934 426.196 216.514C425.488 216.094 424.93 215.5 424.522 214.732C424.126 213.964 423.928 213.076 423.928 212.068ZM432.514 212.086C432.514 211.294 432.352 210.598 432.028 209.998C431.704 209.398 431.26 208.936 430.696 208.612C430.144 208.288 429.532 208.126 428.86 208.126C428.164 208.126 427.54 208.282 426.988 208.594C426.436 208.906 425.998 209.362 425.674 209.962C425.362 210.55 425.206 211.252 425.206 212.068C425.206 212.872 425.362 213.58 425.674 214.192C425.998 214.792 426.436 215.254 426.988 215.578C427.54 215.89 428.164 216.046 428.86 216.046C429.532 216.046 430.144 215.884 430.696 215.56C431.26 215.236 431.704 214.774 432.028 214.174C432.352 213.574 432.514 212.878 432.514 212.086ZM446.011 207.172L440.179 221.626H438.865L440.773 216.946L436.741 207.172H438.127L441.475 215.56L444.715 207.172H446.011ZM449.609 205.318C449.357 205.318 449.141 205.228 448.961 205.048C448.781 204.868 448.691 204.646 448.691 204.382C448.691 204.118 448.781 203.902 448.961 203.734C449.141 203.554 449.357 203.464 449.609 203.464C449.861 203.464 450.077 203.554 450.257 203.734C450.437 203.902 450.527 204.118 450.527 204.382C450.527 204.646 450.437 204.868 450.257 205.048C450.077 205.228 449.861 205.318 449.609 205.318ZM450.239 207.172V217H448.979V207.172H450.239ZM458.96 206.992C460.136 206.992 461.096 207.358 461.84 208.09C462.584 208.81 462.956 209.86 462.956 211.24V217H461.714V211.384C461.714 210.316 461.444 209.5 460.904 208.936C460.376 208.372 459.65 208.09 458.726 208.09C457.778 208.09 457.022 208.39 456.458 208.99C455.894 209.59 455.612 210.472 455.612 211.636V217H454.352V207.172H455.612V208.846C455.924 208.246 456.374 207.79 456.962 207.478C457.55 207.154 458.216 206.992 458.96 206.992ZM471.125 207.028C472.049 207.028 472.853 207.244 473.537 207.676C474.221 208.108 474.713 208.654 475.013 209.314V207.172H476.273V217.252C476.273 218.152 476.075 218.95 475.679 219.646C475.295 220.342 474.755 220.876 474.059 221.248C473.363 221.632 472.571 221.824 471.683 221.824C470.423 221.824 469.373 221.524 468.533 220.924C467.705 220.324 467.189 219.508 466.985 218.476H468.227C468.443 219.16 468.851 219.706 469.451 220.114C470.063 220.522 470.807 220.726 471.683 220.726C472.319 220.726 472.889 220.588 473.393 220.312C473.897 220.048 474.293 219.652 474.581 219.124C474.869 218.596 475.013 217.972 475.013 217.252V214.822C474.701 215.494 474.203 216.052 473.519 216.496C472.847 216.928 472.049 217.144 471.125 217.144C470.225 217.144 469.415 216.934 468.695 216.514C467.987 216.094 467.429 215.5 467.021 214.732C466.625 213.964 466.427 213.076 466.427 212.068C466.427 211.06 466.625 210.178 467.021 209.422C467.429 208.654 467.987 208.066 468.695 207.658C469.415 207.238 470.225 207.028 471.125 207.028ZM475.013 212.086C475.013 211.294 474.851 210.598 474.527 209.998C474.203 209.398 473.759 208.936 473.195 208.612C472.643 208.288 472.031 208.126 471.359 208.126C470.663 208.126 470.039 208.282 469.487 208.594C468.935 208.906 468.497 209.362 468.173 209.962C467.861 210.55 467.705 211.252 467.705 212.068C467.705 212.872 467.861 213.58 468.173 214.192C468.497 214.792 468.935 215.254 469.487 215.578C470.039 215.89 470.663 216.046 471.359 216.046C472.031 216.046 472.643 215.884 473.195 215.56C473.759 215.236 474.203 214.774 474.527 214.174C474.851 213.574 475.013 212.878 475.013 212.086ZM480.626 217.09C480.362 217.09 480.14 217 479.96 216.82C479.792 216.64 479.708 216.418 479.708 216.154C479.708 215.89 479.792 215.674 479.96 215.506C480.14 215.326 480.362 215.236 480.626 215.236C480.878 215.236 481.088 215.326 481.256 215.506C481.436 215.674 481.526 215.89 481.526 216.154C481.526 216.418 481.436 216.64 481.256 216.82C481.088 217 480.878 217.09 480.626 217.09Z" fill="white"/>
<path d="M418.001 53.993C416.113 52.1251 413.605 51.1016 410.942 51.1016C408.278 51.1016 405.77 52.1251 403.882 53.993L401.866 55.9888L403.779 57.8823L405.796 55.8865C407.166 54.5303 409.002 53.7627 410.942 53.7627C412.881 53.7627 414.717 54.5047 416.087 55.8865C417.458 57.2426 418.234 59.0594 418.234 60.9784C418.234 62.8975 417.484 64.7142 416.087 66.0704L413.217 68.9106L398.142 53.993C396.254 52.1251 393.746 51.1016 391.083 51.1016C388.419 51.1016 385.911 52.1251 384.024 53.993C382.136 55.8609 381.102 58.3429 381.102 60.9784C381.102 63.5372 382.084 65.9425 383.868 67.8104L385.782 65.9169C384.515 64.5607 383.817 62.8207 383.817 60.9784C383.817 59.0594 384.567 57.2426 385.937 55.8865C387.307 54.5303 389.143 53.7627 391.083 53.7627C392.945 53.7627 394.729 54.4536 396.073 55.7074C396.125 55.7585 396.953 56.5773 396.953 56.5773L384.748 68.6803L401.012 84.775L409.856 76.024L401.84 68.0918L399.926 69.9853L406.029 76.024L401.012 80.988L388.549 68.6803L398.866 58.4708L413.217 72.672L417.975 67.9639C419.863 66.096 420.897 63.614 420.897 60.9784C420.923 58.3429 419.863 55.8609 418.001 53.993Z" fill="white"/>
<path d="M401 92.4286L380.448 71.9071C377.585 69.0484 376 65.2197 376 61.1869C376 57.1286 377.585 53.3255 380.448 50.4667C383.311 47.5825 387.12 46 391.184 46C394.814 46 398.239 47.2507 401 49.5734C403.735 47.2507 407.186 46 410.816 46C414.88 46 418.689 47.5825 421.552 50.4412C424.415 53.2999 426 57.1286 426 61.1614C426 65.2197 424.415 69.0229 421.552 71.8816L401 92.4286ZM391.184 48.6545C387.835 48.6545 384.691 49.9563 382.314 52.33C379.937 54.7038 378.658 57.8432 378.658 61.1869C378.658 64.5306 379.962 67.6701 382.339 70.0438L401 88.6765L419.661 70.0438C422.038 67.6701 423.342 64.5306 423.342 61.1869C423.342 57.8432 422.038 54.7038 419.661 52.33C417.283 49.9563 414.139 48.6545 410.79 48.6545C407.442 48.6545 404.298 49.9563 401.92 52.33L400.974 53.2744L400.029 52.33C397.677 49.9563 394.533 48.6545 391.184 48.6545Z" fill="white"/>
<g opacity="0.5">
<path d="M143.482 120.653C142.148 128.228 133.898 132.002 130.087 132.953C129.708 133.067 129.398 133.132 129.088 133.198C128.876 133.04 128.549 132.863 128.232 132.627C125.101 130.393 118.567 124.077 119.9 116.502C120.577 112.656 123.96 110.068 127.436 110.68C129.754 111.088 131.546 112.785 132.288 115.018C133.748 113.172 136.011 112.189 138.329 112.597C141.873 113.161 144.159 116.807 143.482 120.653Z" stroke="white" stroke-miterlimit="10" stroke-linecap="round" stroke-linejoin="round"/>
<path d="M96.3504 141.143L105.338 135.001C105.338 135.001 107.964 133.111 110.786 133.857L124 136.293C124 136.293 125.651 136.597 125.52 137.929C125.498 139.282 124.927 139.29 123.726 139.633L114.244 139.807L116.743 143.545L127.974 145.615L139.437 137.782C139.437 137.782 140.96 136.932 141.99 138.139C143.04 139.237 142.027 140.407 141.506 140.763C141.005 141.01 127.869 149.891 127.869 149.891C127.869 149.891 127.398 150.595 125.265 150.428L107.868 147.221C107.868 147.221 105.865 146.965 105.134 147.848L102.378 149.826L96.3504 141.143Z" stroke="white" stroke-miterlimit="10" stroke-linecap="round" stroke-linejoin="round"/>
<path d="M132.503 128.571C130.934 126.744 129.364 124.917 127.783 123.15C129.085 123.759 130.579 123.665 131.565 122.986C132.28 122.441 132.672 121.652 132.683 121.593C132.889 121.139 133.026 120.733 132.935 120.224C132.792 118.661 131.138 118.294 131.138 118.294L128.699 117.845" stroke="white" stroke-miterlimit="10" stroke-linecap="round" stroke-linejoin="round"/>
<path d="M128.219 120.462L133.988 121.525" stroke="white" stroke-miterlimit="10" stroke-linecap="round" stroke-linejoin="round"/>
<path d="M128.711 117.785L134.481 118.849" stroke="white" stroke-miterlimit="10" stroke-linecap="round" stroke-linejoin="round"/>
<g filter="url(#filter0_bd)">
<rect x="112" y="107.049" width="38" height="36" rx="18" fill="url(#paint0_linear)" shape-rendering="crispEdges"/>
<rect x="112.5" y="107.549" width="37" height="35" rx="17.5" stroke="url(#paint1_linear)" shape-rendering="crispEdges"/>
</g>
<path d="M219.482 268.653C218.148 276.228 209.898 280.002 206.087 280.953C205.708 281.067 205.398 281.132 205.088 281.198C204.876 281.04 204.549 280.863 204.232 280.627C201.101 278.393 194.567 272.077 195.9 264.502C196.577 260.656 199.96 258.068 203.436 258.68C205.754 259.088 207.546 260.785 208.288 263.018C209.748 261.172 212.011 260.189 214.329 260.597C217.873 261.161 220.159 264.807 219.482 268.653Z" stroke="white" stroke-miterlimit="10" stroke-linecap="round" stroke-linejoin="round"/>
<path d="M172.35 289.143L181.338 283.001C181.338 283.001 183.964 281.111 186.786 281.857L200 284.293C200 284.293 201.651 284.597 201.52 285.929C201.498 287.282 200.927 287.29 199.726 287.633L190.244 287.807L192.743 291.545L203.974 293.615L215.437 285.782C215.437 285.782 216.96 284.932 217.99 286.139C219.04 287.237 218.027 288.407 217.506 288.763C217.005 289.01 203.869 297.891 203.869 297.891C203.869 297.891 203.398 298.595 201.265 298.428L183.868 295.221C183.868 295.221 181.865 294.965 181.134 295.848L178.378 297.826L172.35 289.143Z" stroke="white" stroke-miterlimit="10" stroke-linecap="round" stroke-linejoin="round"/>
<path d="M208.503 276.571C206.934 274.744 205.364 272.917 203.783 271.15C205.085 271.759 206.579 271.665 207.565 270.986C208.28 270.441 208.672 269.652 208.683 269.593C208.889 269.139 209.026 268.733 208.935 268.224C208.792 266.661 207.138 266.294 207.138 266.294L204.699 265.845" stroke="white" stroke-miterlimit="10" stroke-linecap="round" stroke-linejoin="round"/>
<path d="M204.219 268.462L209.988 269.525" stroke="white" stroke-miterlimit="10" stroke-linecap="round" stroke-linejoin="round"/>
<path d="M204.711 265.785L210.481 266.849" stroke="white" stroke-miterlimit="10" stroke-linecap="round" stroke-linejoin="round"/>
<g filter="url(#filter1_bd)">
<rect x="188" y="255.049" width="38" height="36" rx="18" fill="url(#paint2_linear)" shape-rendering="crispEdges"/>
<rect x="188.5" y="255.549" width="37" height="35" rx="17.5" stroke="url(#paint3_linear)" shape-rendering="crispEdges"/>
</g>
<path d="M766.482 148.653C765.148 156.228 756.898 160.002 753.087 160.953C752.708 161.067 752.398 161.132 752.088 161.198C751.876 161.04 751.549 160.863 751.232 160.627C748.101 158.393 741.567 152.077 742.9 144.502C743.577 140.656 746.96 138.068 750.436 138.68C752.754 139.088 754.546 140.785 755.288 143.018C756.748 141.172 759.011 140.189 761.329 140.597C764.873 141.161 767.159 144.807 766.482 148.653Z" stroke="white" stroke-miterlimit="10" stroke-linecap="round" stroke-linejoin="round"/>
<path d="M719.35 169.143L728.338 163.001C728.338 163.001 730.964 161.111 733.786 161.857L747 164.293C747 164.293 748.651 164.597 748.52 165.929C748.498 167.282 747.927 167.29 746.726 167.633L737.244 167.807L739.743 171.545L750.974 173.615L762.437 165.782C762.437 165.782 763.96 164.932 764.99 166.139C766.04 167.237 765.027 168.407 764.506 168.763C764.005 169.01 750.869 177.891 750.869 177.891C750.869 177.891 750.398 178.595 748.265 178.428L730.868 175.221C730.868 175.221 728.865 174.965 728.134 175.848L725.378 177.826L719.35 169.143Z" stroke="white" stroke-miterlimit="10" stroke-linecap="round" stroke-linejoin="round"/>
<path d="M755.503 156.571C753.934 154.744 752.364 152.917 750.783 151.15C752.085 151.759 753.579 151.665 754.565 150.986C755.28 150.441 755.672 149.652 755.683 149.593C755.889 149.139 756.026 148.733 755.935 148.224C755.792 146.661 754.138 146.294 754.138 146.294L751.699 145.845" stroke="white" stroke-miterlimit="10" stroke-linecap="round" stroke-linejoin="round"/>
<path d="M751.219 148.462L756.988 149.525" stroke="white" stroke-miterlimit="10" stroke-linecap="round" stroke-linejoin="round"/>
<path d="M751.711 145.785L757.481 146.849" stroke="white" stroke-miterlimit="10" stroke-linecap="round" stroke-linejoin="round"/>
<g filter="url(#filter2_bd)">
<rect x="735" y="135.049" width="38" height="36" rx="18" fill="url(#paint4_linear)" shape-rendering="crispEdges"/>
<rect x="735.5" y="135.549" width="37" height="35" rx="17.5" stroke="url(#paint5_linear)" shape-rendering="crispEdges"/>
</g>
<path d="M630.192 271.91C633.539 281.561 626.404 291.272 622.597 294.839C622.231 295.215 621.913 295.491 621.596 295.768C621.249 295.722 620.755 295.727 620.234 295.658C615.158 295.09 603.494 291.983 600.147 282.332C598.447 277.432 600.7 272.242 605.129 270.706C608.082 269.682 611.258 270.493 613.561 272.605C614.063 269.52 616.054 266.917 619.007 265.892C623.484 264.256 628.492 267.01 630.192 271.91Z" stroke="white" stroke-miterlimit="10" stroke-linecap="round" stroke-linejoin="round"/>
<path d="M622.572 288.192C619.57 287.087 616.568 285.981 613.591 284.952C615.496 284.817 617.168 283.743 617.874 282.318C618.352 281.223 618.296 280.055 618.271 279.979C618.217 279.319 618.113 278.76 617.679 278.229C616.503 276.506 614.347 277.15 614.347 277.15L611.227 278.204" stroke="white" stroke-miterlimit="10" stroke-linecap="round" stroke-linejoin="round"/>
<path d="M612.355 281.552L619.738 279.058" stroke="white" stroke-miterlimit="10" stroke-linecap="round" stroke-linejoin="round"/>
<path d="M611.199 278.128L618.581 275.634" stroke="white" stroke-miterlimit="10" stroke-linecap="round" stroke-linejoin="round"/>
<g filter="url(#filter3_bd)">
<rect x="604" y="269.049" width="38" height="36" rx="18" fill="url(#paint6_linear)" shape-rendering="crispEdges"/>
<rect x="604.5" y="269.549" width="37" height="35" rx="17.5" stroke="url(#paint7_linear)" shape-rendering="crispEdges"/>
</g>
<path d="M61.1917 30.9102C64.5393 40.5614 57.4044 50.2721 53.5966 53.8385C53.2309 54.2149 52.9133 54.4914 52.5957 54.7679C52.2489 54.7218 51.7545 54.727 51.2343 54.6579C46.1579 54.0899 34.4943 50.9828 31.1467 41.3316C29.4472 36.4318 31.6996 31.2424 36.1288 29.7061C39.0816 28.6819 42.2576 29.4932 44.5615 31.6051C45.0628 28.5202 47.0543 25.9165 50.0071 24.8923C54.4844 23.2561 59.4921 26.0104 61.1917 30.9102Z" stroke="white" stroke-miterlimit="10" stroke-linecap="round" stroke-linejoin="round"/>
<path d="M53.5719 47.192C50.5698 46.0865 47.5677 44.9811 44.5913 43.9517C46.496 43.8169 48.1682 42.7431 48.8736 41.3176C49.3518 40.2233 49.2962 39.055 49.2705 38.9789C49.217 38.3187 49.1131 37.7602 48.6791 37.2285C47.5035 35.5059 45.3469 36.1498 45.3469 36.1498L42.2266 37.2041" stroke="white" stroke-miterlimit="10" stroke-linecap="round" stroke-linejoin="round"/>
<path d="M43.3555 40.5522L50.7376 38.0579" stroke="white" stroke-miterlimit="10" stroke-linecap="round" stroke-linejoin="round"/>
<path d="M42.1992 37.1279L49.5814 34.6336" stroke="white" stroke-miterlimit="10" stroke-linecap="round" stroke-linejoin="round"/>
<g filter="url(#filter4_bd)">
<rect x="35" y="28.0488" width="38" height="36" rx="18" fill="url(#paint8_linear)" shape-rendering="crispEdges"/>
<rect x="35.5" y="28.5488" width="37" height="35" rx="17.5" stroke="url(#paint9_linear)" shape-rendering="crispEdges"/>
</g>
<path d="M55.5327 254.37C52.2688 264.05 40.6815 267.357 35.4872 267.845C34.9676 267.919 34.5472 267.943 34.1268 267.967C33.8808 267.718 33.4868 267.419 33.1179 267.046C29.4526 263.488 22.1347 253.889 25.3986 244.209C27.0557 239.295 32.0143 236.572 36.4567 238.07C39.4183 239.069 41.4322 241.655 41.9602 244.735C44.2457 242.604 47.4145 241.765 50.3761 242.763C54.9176 244.212 57.1898 249.456 55.5327 254.37Z" stroke="white" stroke-miterlimit="10" stroke-linecap="round" stroke-linejoin="round"/>
<path d="M39.5321 262.575C37.8358 259.863 36.1395 257.15 34.4169 254.514C36.0052 255.574 37.9847 255.749 39.4154 255.054C40.4636 254.482 41.1351 253.524 41.1614 253.448C41.5234 252.894 41.7833 252.388 41.7658 251.702C41.8913 249.621 39.7921 248.809 39.7921 248.809L36.6797 247.731" stroke="white" stroke-miterlimit="10" stroke-linecap="round" stroke-linejoin="round"/>
<path d="M35.5234 251.071L42.8869 253.62" stroke="white" stroke-miterlimit="10" stroke-linecap="round" stroke-linejoin="round"/>
<path d="M36.707 247.655L44.0705 250.204" stroke="white" stroke-miterlimit="10" stroke-linecap="round" stroke-linejoin="round"/>
<g filter="url(#filter5_bd)">
<rect x="36.5781" y="236.069" width="38" height="36" rx="18" transform="rotate(37.7632 36.5781 236.069)" fill="url(#paint10_linear)" shape-rendering="crispEdges"/>
<rect x="36.6672" y="236.77" width="37" height="35" rx="17.5" transform="rotate(37.7632 36.6672 236.77)" stroke="url(#paint11_linear)" shape-rendering="crispEdges"/>
</g>
<path d="M688.533 16.3703C685.269 26.05 673.681 29.3574 668.487 29.845C667.968 29.9186 667.547 29.9427 667.127 29.9667C666.881 29.718 666.487 29.4193 666.118 29.0461C662.453 25.4883 655.135 15.8892 658.399 6.20939C660.056 1.29504 665.014 -1.42803 669.457 0.069891C672.418 1.0685 674.432 3.65486 674.96 6.7353C677.246 4.60355 680.415 3.76475 683.376 4.76337C687.918 6.21179 690.19 11.4559 688.533 16.3703Z" stroke="white" stroke-miterlimit="10" stroke-linecap="round" stroke-linejoin="round"/>
<path d="M672.532 24.5752C670.836 21.8628 669.139 19.1504 667.417 16.5139C669.005 17.5737 670.985 17.7489 672.415 17.0541C673.464 16.4818 674.135 15.5242 674.161 15.4482C674.523 14.8935 674.783 14.3884 674.766 13.7023C674.891 11.6205 672.792 10.8088 672.792 10.8088L669.68 9.73145" stroke="white" stroke-miterlimit="10" stroke-linecap="round" stroke-linejoin="round"/>
<path d="M668.523 13.0708L675.887 15.6197" stroke="white" stroke-miterlimit="10" stroke-linecap="round" stroke-linejoin="round"/>
<path d="M669.707 9.65527L677.07 12.2042" stroke="white" stroke-miterlimit="10" stroke-linecap="round" stroke-linejoin="round"/>
<g filter="url(#filter6_bd)">
<rect x="669.578" y="-1.93115" width="38" height="36" rx="18" transform="rotate(37.7632 669.578 -1.93115)" fill="url(#paint12_linear)" shape-rendering="crispEdges"/>
<rect x="669.667" y="-1.22968" width="37" height="35" rx="17.5" transform="rotate(37.7632 669.667 -1.22968)" stroke="url(#paint13_linear)" shape-rendering="crispEdges"/>
</g>
</g>
</g>
<defs>
<filter id="filter0_bd" x="87" y="83.0488" width="88" height="86" filterUnits="userSpaceOnUse" color-interpolation-filters="sRGB">
<feFlood flood-opacity="0" result="BackgroundImageFix"/>
<feGaussianBlur in="BackgroundImage" stdDeviation="1"/>
<feComposite in2="SourceAlpha" operator="in" result="effect1_backgroundBlur"/>
<feColorMatrix in="SourceAlpha" type="matrix" values="0 0 0 0 0 0 0 0 0 0 0 0 0 0 0 0 0 0 127 0" result="hardAlpha"/>
<feMorphology radius="1" operator="dilate" in="SourceAlpha" result="effect2_dropShadow"/>
<feOffset dy="1"/>
<feGaussianBlur stdDeviation="12"/>
<feComposite in2="hardAlpha" operator="out"/>
<feColorMatrix type="matrix" values="0 0 0 0 0 0 0 0 0 0 0 0 0 0 0 0 0 0 0.1 0"/>
<feBlend mode="normal" in2="effect1_backgroundBlur" result="effect2_dropShadow"/>
<feBlend mode="normal" in="SourceGraphic" in2="effect2_dropShadow" result="shape"/>
</filter>
<filter id="filter1_bd" x="163" y="231.049" width="88" height="86" filterUnits="userSpaceOnUse" color-interpolation-filters="sRGB">
<feFlood flood-opacity="0" result="BackgroundImageFix"/>
<feGaussianBlur in="BackgroundImage" stdDeviation="1"/>
<feComposite in2="SourceAlpha" operator="in" result="effect1_backgroundBlur"/>
<feColorMatrix in="SourceAlpha" type="matrix" values="0 0 0 0 0 0 0 0 0 0 0 0 0 0 0 0 0 0 127 0" result="hardAlpha"/>
<feMorphology radius="1" operator="dilate" in="SourceAlpha" result="effect2_dropShadow"/>
<feOffset dy="1"/>
<feGaussianBlur stdDeviation="12"/>
<feComposite in2="hardAlpha" operator="out"/>
<feColorMatrix type="matrix" values="0 0 0 0 0 0 0 0 0 0 0 0 0 0 0 0 0 0 0.1 0"/>
<feBlend mode="normal" in2="effect1_backgroundBlur" result="effect2_dropShadow"/>
<feBlend mode="normal" in="SourceGraphic" in2="effect2_dropShadow" result="shape"/>
</filter>
<filter id="filter2_bd" x="710" y="111.049" width="88" height="86" filterUnits="userSpaceOnUse" color-interpolation-filters="sRGB">
<feFlood flood-opacity="0" result="BackgroundImageFix"/>
<feGaussianBlur in="BackgroundImage" stdDeviation="1"/>
<feComposite in2="SourceAlpha" operator="in" result="effect1_backgroundBlur"/>
<feColorMatrix in="SourceAlpha" type="matrix" values="0 0 0 0 0 0 0 0 0 0 0 0 0 0 0 0 0 0 127 0" result="hardAlpha"/>
<feMorphology radius="1" operator="dilate" in="SourceAlpha" result="effect2_dropShadow"/>
<feOffset dy="1"/>
<feGaussianBlur stdDeviation="12"/>
<feComposite in2="hardAlpha" operator="out"/>
<feColorMatrix type="matrix" values="0 0 0 0 0 0 0 0 0 0 0 0 0 0 0 0 0 0 0.1 0"/>
<feBlend mode="normal" in2="effect1_backgroundBlur" result="effect2_dropShadow"/>
<feBlend mode="normal" in="SourceGraphic" in2="effect2_dropShadow" result="shape"/>
</filter>
<filter id="filter3_bd" x="579" y="245.049" width="88" height="86" filterUnits="userSpaceOnUse" color-interpolation-filters="sRGB">
<feFlood flood-opacity="0" result="BackgroundImageFix"/>
<feGaussianBlur in="BackgroundImage" stdDeviation="1"/>
<feComposite in2="SourceAlpha" operator="in" result="effect1_backgroundBlur"/>
<feColorMatrix in="SourceAlpha" type="matrix" values="0 0 0 0 0 0 0 0 0 0 0 0 0 0 0 0 0 0 127 0" result="hardAlpha"/>
<feMorphology radius="1" operator="dilate" in="SourceAlpha" result="effect2_dropShadow"/>
<feOffset dy="1"/>
<feGaussianBlur stdDeviation="12"/>
<feComposite in2="hardAlpha" operator="out"/>
<feColorMatrix type="matrix" values="0 0 0 0 0 0 0 0 0 0 0 0 0 0 0 0 0 0 0.1 0"/>
<feBlend mode="normal" in2="effect1_backgroundBlur" result="effect2_dropShadow"/>
<feBlend mode="normal" in="SourceGraphic" in2="effect2_dropShadow" result="shape"/>
</filter>
<filter id="filter4_bd" x="10" y="4.04883" width="88" height="86" filterUnits="userSpaceOnUse" color-interpolation-filters="sRGB">
<feFlood flood-opacity="0" result="BackgroundImageFix"/>
<feGaussianBlur in="BackgroundImage" stdDeviation="1"/>
<feComposite in2="SourceAlpha" operator="in" result="effect1_backgroundBlur"/>
<feColorMatrix in="SourceAlpha" type="matrix" values="0 0 0 0 0 0 0 0 0 0 0 0 0 0 0 0 0 0 127 0" result="hardAlpha"/>
<feMorphology radius="1" operator="dilate" in="SourceAlpha" result="effect2_dropShadow"/>
<feOffset dy="1"/>
<feGaussianBlur stdDeviation="12"/>
<feComposite in2="hardAlpha" operator="out"/>
<feColorMatrix type="matrix" values="0 0 0 0 0 0 0 0 0 0 0 0 0 0 0 0 0 0 0.1 0"/>
<feBlend mode="normal" in2="effect1_backgroundBlur" result="effect2_dropShadow"/>
<feBlend mode="normal" in="SourceGraphic" in2="effect2_dropShadow" result="shape"/>
</filter>
<filter id="filter5_bd" x="-10.4688" y="212.069" width="102.086" height="101.731" filterUnits="userSpaceOnUse" color-interpolation-filters="sRGB">
<feFlood flood-opacity="0" result="BackgroundImageFix"/>
<feGaussianBlur in="BackgroundImage" stdDeviation="1"/>
<feComposite in2="SourceAlpha" operator="in" result="effect1_backgroundBlur"/>
<feColorMatrix in="SourceAlpha" type="matrix" values="0 0 0 0 0 0 0 0 0 0 0 0 0 0 0 0 0 0 127 0" result="hardAlpha"/>
<feMorphology radius="1" operator="dilate" in="SourceAlpha" result="effect2_dropShadow"/>
<feOffset dy="1"/>
<feGaussianBlur stdDeviation="12"/>
<feComposite in2="hardAlpha" operator="out"/>
<feColorMatrix type="matrix" values="0 0 0 0 0 0 0 0 0 0 0 0 0 0 0 0 0 0 0.1 0"/>
<feBlend mode="normal" in2="effect1_backgroundBlur" result="effect2_dropShadow"/>
<feBlend mode="normal" in="SourceGraphic" in2="effect2_dropShadow" result="shape"/>
</filter>
<filter id="filter6_bd" x="622.531" y="-25.9312" width="102.086" height="101.731" filterUnits="userSpaceOnUse" color-interpolation-filters="sRGB">
<feFlood flood-opacity="0" result="BackgroundImageFix"/>
<feGaussianBlur in="BackgroundImage" stdDeviation="1"/>
<feComposite in2="SourceAlpha" operator="in" result="effect1_backgroundBlur"/>
<feColorMatrix in="SourceAlpha" type="matrix" values="0 0 0 0 0 0 0 0 0 0 0 0 0 0 0 0 0 0 127 0" result="hardAlpha"/>
<feMorphology radius="1" operator="dilate" in="SourceAlpha" result="effect2_dropShadow"/>
<feOffset dy="1"/>
<feGaussianBlur stdDeviation="12"/>
<feComposite in2="hardAlpha" operator="out"/>
<feColorMatrix type="matrix" values="0 0 0 0 0 0 0 0 0 0 0 0 0 0 0 0 0 0 0.1 0"/>
<feBlend mode="normal" in2="effect1_backgroundBlur" result="effect2_dropShadow"/>
<feBlend mode="normal" in="SourceGraphic" in2="effect2_dropShadow" result="shape"/>
</filter>
<linearGradient id="paint0_linear" x1="114.568" y1="108.987" x2="146.704" y2="136.746" gradientUnits="userSpaceOnUse">
<stop stop-color="white" stop-opacity="0.4"/>
<stop offset="1" stop-color="white" stop-opacity="0.1"/>
</linearGradient>
<linearGradient id="paint1_linear" x1="113.541" y1="107.049" x2="152.05" y2="140.969" gradientUnits="userSpaceOnUse">
<stop stop-color="white" stop-opacity="0.5"/>
<stop offset="0.375" stop-color="white" stop-opacity="0"/>
<stop offset="0.692708" stop-color="#EFEFEF" stop-opacity="0"/>
<stop offset="1" stop-color="#FC6E20" stop-opacity="0.5"/>
</linearGradient>
<linearGradient id="paint2_linear" x1="190.568" y1="256.987" x2="222.704" y2="284.746" gradientUnits="userSpaceOnUse">
<stop stop-color="white" stop-opacity="0.4"/>
<stop offset="1" stop-color="white" stop-opacity="0.1"/>
</linearGradient>
<linearGradient id="paint3_linear" x1="189.541" y1="255.049" x2="228.05" y2="288.969" gradientUnits="userSpaceOnUse">
<stop stop-color="white" stop-opacity="0.5"/>
<stop offset="0.375" stop-color="white" stop-opacity="0"/>
<stop offset="0.692708" stop-color="#EFEFEF" stop-opacity="0"/>
<stop offset="1" stop-color="#FC6E20" stop-opacity="0.5"/>
</linearGradient>
<linearGradient id="paint4_linear" x1="737.568" y1="136.987" x2="769.704" y2="164.746" gradientUnits="userSpaceOnUse">
<stop stop-color="white" stop-opacity="0.4"/>
<stop offset="1" stop-color="white" stop-opacity="0.1"/>
</linearGradient>
<linearGradient id="paint5_linear" x1="736.541" y1="135.049" x2="775.05" y2="168.969" gradientUnits="userSpaceOnUse">
<stop stop-color="white" stop-opacity="0.5"/>
<stop offset="0.375" stop-color="white" stop-opacity="0"/>
<stop offset="0.692708" stop-color="#EFEFEF" stop-opacity="0"/>
<stop offset="1" stop-color="#FC6E20" stop-opacity="0.5"/>
</linearGradient>
<linearGradient id="paint6_linear" x1="606.568" y1="270.987" x2="638.704" y2="298.746" gradientUnits="userSpaceOnUse">
<stop stop-color="white" stop-opacity="0.4"/>
<stop offset="1" stop-color="white" stop-opacity="0.1"/>
</linearGradient>
<linearGradient id="paint7_linear" x1="605.541" y1="269.049" x2="644.05" y2="302.969" gradientUnits="userSpaceOnUse">
<stop stop-color="white" stop-opacity="0.5"/>
<stop offset="0.375" stop-color="white" stop-opacity="0"/>
<stop offset="0.692708" stop-color="#EFEFEF" stop-opacity="0"/>
<stop offset="1" stop-color="#FC6E20" stop-opacity="0.5"/>
</linearGradient>
<linearGradient id="paint8_linear" x1="37.5676" y1="29.9873" x2="69.7037" y2="57.7458" gradientUnits="userSpaceOnUse">
<stop stop-color="white" stop-opacity="0.4"/>
<stop offset="1" stop-color="white" stop-opacity="0.1"/>
</linearGradient>
<linearGradient id="paint9_linear" x1="36.5405" y1="28.0488" x2="75.0503" y2="61.9689" gradientUnits="userSpaceOnUse">
<stop stop-color="white" stop-opacity="0.5"/>
<stop offset="0.375" stop-color="white" stop-opacity="0"/>
<stop offset="0.692708" stop-color="#EFEFEF" stop-opacity="0"/>
<stop offset="1" stop-color="#FC6E20" stop-opacity="0.5"/>
</linearGradient>
<linearGradient id="paint10_linear" x1="39.1457" y1="238.007" x2="71.2818" y2="265.766" gradientUnits="userSpaceOnUse">
<stop stop-color="white" stop-opacity="0.4"/>
<stop offset="1" stop-color="white" stop-opacity="0.1"/>
</linearGradient>
<linearGradient id="paint11_linear" x1="38.1187" y1="236.069" x2="76.6284" y2="269.989" gradientUnits="userSpaceOnUse">
<stop stop-color="white" stop-opacity="0.5"/>
<stop offset="0.375" stop-color="white" stop-opacity="0"/>
<stop offset="0.692708" stop-color="#EFEFEF" stop-opacity="0"/>
<stop offset="1" stop-color="#FC6E20" stop-opacity="0.5"/>
</linearGradient>
<linearGradient id="paint12_linear" x1="672.146" y1="0.00730979" x2="704.282" y2="27.7659" gradientUnits="userSpaceOnUse">
<stop stop-color="white" stop-opacity="0.4"/>
<stop offset="1" stop-color="white" stop-opacity="0.1"/>
</linearGradient>
<linearGradient id="paint13_linear" x1="671.119" y1="-1.93115" x2="709.628" y2="31.9889" gradientUnits="userSpaceOnUse">
<stop stop-color="white" stop-opacity="0.5"/>
<stop offset="0.375" stop-color="white" stop-opacity="0"/>
<stop offset="0.692708" stop-color="#EFEFEF" stop-opacity="0"/>
<stop offset="1" stop-color="#FC6E20" stop-opacity="0.5"/>
</linearGradient>
</defs>
</svg>
