<svg width="63" height="52" viewBox="0 0 63 52" fill="none" xmlns="http://www.w3.org/2000/svg">
<path d="M6.916 43.012H2.842L2.142 45H0.476L3.962 35.256H5.81L9.296 45H7.616L6.916 43.012ZM6.468 41.71L4.886 37.188L3.29 41.71H6.468ZM12.4077 38.434C12.6784 38.0607 13.0471 37.7573 13.5137 37.524C13.9897 37.2813 14.5171 37.16 15.0957 37.16C15.7771 37.16 16.3931 37.3233 16.9437 37.65C17.4944 37.9767 17.9284 38.4433 18.2457 39.05C18.5631 39.6473 18.7217 40.3333 18.7217 41.108C18.7217 41.8827 18.5631 42.578 18.2457 43.194C17.9284 43.8007 17.4897 44.2767 16.9297 44.622C16.3791 44.958 15.7677 45.126 15.0957 45.126C14.4984 45.126 13.9664 45.0093 13.4997 44.776C13.0424 44.5427 12.6784 44.244 12.4077 43.88V45H10.8117V34.64H12.4077V38.434ZM17.0977 41.108C17.0977 40.576 16.9857 40.1187 16.7617 39.736C16.5471 39.344 16.2577 39.05 15.8937 38.854C15.5391 38.6487 15.1564 38.546 14.7457 38.546C14.3444 38.546 13.9617 38.6487 13.5977 38.854C13.2431 39.0593 12.9537 39.358 12.7297 39.75C12.5151 40.142 12.4077 40.604 12.4077 41.136C12.4077 41.668 12.5151 42.1347 12.7297 42.536C12.9537 42.928 13.2431 43.2267 13.5977 43.432C13.9617 43.6373 14.3444 43.74 14.7457 43.74C15.1564 43.74 15.5391 43.6373 15.8937 43.432C16.2577 43.2173 16.5471 42.9093 16.7617 42.508C16.9857 42.1067 17.0977 41.64 17.0977 41.108ZM23.646 45.126C22.918 45.126 22.26 44.9627 21.672 44.636C21.084 44.3 20.622 43.8333 20.286 43.236C19.95 42.6293 19.782 41.9293 19.782 41.136C19.782 40.352 19.9547 39.6567 20.3 39.05C20.6453 38.4433 21.1167 37.9767 21.714 37.65C22.3113 37.3233 22.9787 37.16 23.716 37.16C24.4533 37.16 25.1207 37.3233 25.718 37.65C26.3153 37.9767 26.7867 38.4433 27.132 39.05C27.4773 39.6567 27.65 40.352 27.65 41.136C27.65 41.92 27.4727 42.6153 27.118 43.222C26.7633 43.8287 26.278 44.3 25.662 44.636C25.0553 44.9627 24.3833 45.126 23.646 45.126ZM23.646 43.74C24.0567 43.74 24.4393 43.642 24.794 43.446C25.158 43.25 25.452 42.956 25.676 42.564C25.9 42.172 26.012 41.696 26.012 41.136C26.012 40.576 25.9047 40.1047 25.69 39.722C25.4753 39.33 25.1907 39.036 24.836 38.84C24.4813 38.644 24.0987 38.546 23.688 38.546C23.2773 38.546 22.8947 38.644 22.54 38.84C22.1947 39.036 21.9193 39.33 21.714 39.722C21.5087 40.1047 21.406 40.576 21.406 41.136C21.406 41.9667 21.616 42.6107 22.036 43.068C22.4653 43.516 23.002 43.74 23.646 43.74ZM36.2137 37.286V45H34.6177V44.09C34.3657 44.4073 34.0344 44.6593 33.6237 44.846C33.2224 45.0233 32.7931 45.112 32.3357 45.112C31.7291 45.112 31.1831 44.986 30.6977 44.734C30.2217 44.482 29.8437 44.1087 29.5637 43.614C29.2931 43.1193 29.1577 42.522 29.1577 41.822V37.286H30.7397V41.584C30.7397 42.2747 30.9124 42.8067 31.2577 43.18C31.6031 43.544 32.0744 43.726 32.6717 43.726C33.2691 43.726 33.7404 43.544 34.0857 43.18C34.4404 42.8067 34.6177 42.2747 34.6177 41.584V37.286H36.2137ZM40.1815 38.588V42.858C40.1815 43.1473 40.2469 43.3573 40.3775 43.488C40.5175 43.6093 40.7509 43.67 41.0775 43.67H42.0575V45H40.7975C40.0789 45 39.5282 44.832 39.1455 44.496C38.7629 44.16 38.5715 43.614 38.5715 42.858V38.588H37.6615V37.286H38.5715V35.368H40.1815V37.286H42.0575V38.588H40.1815ZM54.1512 37.286V45H52.5552V44.09C52.3032 44.4073 51.9719 44.6593 51.5612 44.846C51.1599 45.0233 50.7306 45.112 50.2732 45.112C49.6666 45.112 49.1206 44.986 48.6352 44.734C48.1592 44.482 47.7812 44.1087 47.5012 43.614C47.2306 43.1193 47.0952 42.522 47.0952 41.822V37.286H48.6772V41.584C48.6772 42.2747 48.8499 42.8067 49.1952 43.18C49.5406 43.544 50.0119 43.726 50.6092 43.726C51.2066 43.726 51.6779 43.544 52.0232 43.18C52.3779 42.8067 52.5552 42.2747 52.5552 41.584V37.286H54.1512ZM59.057 45.126C58.4504 45.126 57.9044 45.0187 57.419 44.804C56.943 44.58 56.565 44.2813 56.285 43.908C56.005 43.5253 55.8557 43.1007 55.837 42.634H57.489C57.517 42.9607 57.671 43.236 57.951 43.46C58.2404 43.6747 58.5997 43.782 59.029 43.782C59.477 43.782 59.8224 43.698 60.065 43.53C60.317 43.3527 60.443 43.1287 60.443 42.858C60.443 42.5687 60.303 42.354 60.023 42.214C59.7524 42.074 59.3184 41.92 58.721 41.752C58.1424 41.5933 57.671 41.4393 57.307 41.29C56.943 41.1407 56.6257 40.912 56.355 40.604C56.0937 40.296 55.963 39.89 55.963 39.386C55.963 38.9753 56.0844 38.602 56.327 38.266C56.5697 37.9207 56.915 37.65 57.363 37.454C57.8204 37.258 58.343 37.16 58.931 37.16C59.8084 37.16 60.513 37.384 61.045 37.832C61.5864 38.2707 61.8757 38.8727 61.913 39.638H60.317C60.289 39.2927 60.149 39.0173 59.897 38.812C59.645 38.6067 59.3044 38.504 58.875 38.504C58.455 38.504 58.133 38.5833 57.909 38.742C57.685 38.9007 57.573 39.1107 57.573 39.372C57.573 39.5773 57.6477 39.75 57.797 39.89C57.9464 40.03 58.1284 40.142 58.343 40.226C58.5577 40.3007 58.875 40.3987 59.295 40.52C59.855 40.6693 60.3124 40.8233 60.667 40.982C61.031 41.1313 61.3437 41.3553 61.605 41.654C61.8664 41.9527 62.0017 42.3493 62.011 42.844C62.011 43.2827 61.8897 43.6747 61.647 44.02C61.4044 44.3653 61.059 44.636 60.611 44.832C60.1724 45.028 59.6544 45.126 59.057 45.126Z" fill="#616161"/>
<g opacity="0.4">
<path d="M30.7956 17.3353C30.4537 16.3785 29.7004 15.533 28.6526 14.9299C27.6047 14.3269 26.3208 14 25 14C23.6792 14 22.3953 14.3269 21.3474 14.9299C20.2996 15.533 19.5463 16.3785 19.2044 17.3353" stroke="#818181" stroke-linecap="round"/>
<path d="M42.7956 17.3353C42.4537 16.3785 41.7004 15.533 40.6526 14.9299C39.6047 14.3269 38.3208 14 37 14C35.6792 14 34.3953 14.3269 33.3474 14.9299C32.2996 15.533 31.5463 16.3785 31.2044 17.3353" stroke="#818181" stroke-linecap="round"/>
<circle cx="25" cy="8" r="3" stroke="#818181" stroke-linecap="round"/>
<circle cx="37" cy="8" r="3" stroke="#818181" stroke-linecap="round"/>
</g>
<path d="M38.7274 20.4471C38.2716 19.1713 37.2672 18.0439 35.8701 17.2399C34.4729 16.4358 32.7611 16 31 16C29.2389 16 27.5271 16.4358 26.1299 17.2399C24.7328 18.0439 23.7284 19.1713 23.2726 20.4471" stroke="#818181" stroke-width="1.2" stroke-linecap="round"/>
<circle cx="31" cy="8" r="4" stroke="#818181" stroke-width="1.2" stroke-linecap="round"/>
</svg>
