<svg width="78" height="52" viewBox="0 0 78 52" fill="none" xmlns="http://www.w3.org/2000/svg">
<path d="M0.840266 40.114C0.840266 39.162 1.0596 38.308 1.49827 37.552C1.94627 36.796 2.54827 36.208 3.30427 35.788C4.0696 35.3587 4.90493 35.144 5.81027 35.144C6.84627 35.144 7.7656 35.4007 8.56827 35.914C9.38027 36.418 9.96827 37.1367 10.3323 38.07H8.41427C8.16227 37.5567 7.81227 37.174 7.36427 36.922C6.91627 36.67 6.39827 36.544 5.81027 36.544C5.16627 36.544 4.59227 36.6887 4.08827 36.978C3.58427 37.2673 3.1876 37.6827 2.89827 38.224C2.61827 38.7653 2.47827 39.3953 2.47827 40.114C2.47827 40.8327 2.61827 41.4627 2.89827 42.004C3.1876 42.5453 3.58427 42.9653 4.08827 43.264C4.59227 43.5533 5.16627 43.698 5.81027 43.698C6.39827 43.698 6.91627 43.572 7.36427 43.32C7.81227 43.068 8.16227 42.6853 8.41427 42.172H10.3323C9.96827 43.1053 9.38027 43.824 8.56827 44.328C7.7656 44.832 6.84627 45.084 5.81027 45.084C4.8956 45.084 4.06027 44.874 3.30427 44.454C2.54827 44.0247 1.94627 43.432 1.49827 42.676C1.0596 41.92 0.840266 41.066 0.840266 40.114ZM15.5464 45.126C14.8184 45.126 14.1604 44.9627 13.5724 44.636C12.9844 44.3 12.5224 43.8333 12.1864 43.236C11.8504 42.6293 11.6824 41.9293 11.6824 41.136C11.6824 40.352 11.8551 39.6567 12.2004 39.05C12.5457 38.4433 13.0171 37.9767 13.6144 37.65C14.2117 37.3233 14.8791 37.16 15.6164 37.16C16.3537 37.16 17.0211 37.3233 17.6184 37.65C18.2157 37.9767 18.6871 38.4433 19.0324 39.05C19.3777 39.6567 19.5504 40.352 19.5504 41.136C19.5504 41.92 19.3731 42.6153 19.0184 43.222C18.6637 43.8287 18.1784 44.3 17.5624 44.636C16.9557 44.9627 16.2837 45.126 15.5464 45.126ZM15.5464 43.74C15.9571 43.74 16.3397 43.642 16.6944 43.446C17.0584 43.25 17.3524 42.956 17.5764 42.564C17.8004 42.172 17.9124 41.696 17.9124 41.136C17.9124 40.576 17.8051 40.1047 17.5904 39.722C17.3757 39.33 17.0911 39.036 16.7364 38.84C16.3817 38.644 15.9991 38.546 15.5884 38.546C15.1777 38.546 14.7951 38.644 14.4404 38.84C14.0951 39.036 13.8197 39.33 13.6144 39.722C13.4091 40.1047 13.3064 40.576 13.3064 41.136C13.3064 41.9667 13.5164 42.6107 13.9364 43.068C14.3657 43.516 14.9024 43.74 15.5464 43.74ZM25.0201 37.16C25.6268 37.16 26.1681 37.286 26.6441 37.538C27.1295 37.79 27.5075 38.1633 27.7781 38.658C28.0488 39.1527 28.1841 39.75 28.1841 40.45V45H26.6021V40.688C26.6021 39.9973 26.4295 39.47 26.0841 39.106C25.7388 38.7327 25.2675 38.546 24.6701 38.546C24.0728 38.546 23.5968 38.7327 23.2421 39.106C22.8968 39.47 22.7241 39.9973 22.7241 40.688V45H21.1281V37.286H22.7241V38.168C22.9855 37.8507 23.3168 37.6033 23.7181 37.426C24.1288 37.2487 24.5628 37.16 25.0201 37.16ZM32.0819 38.588V42.858C32.0819 43.1473 32.1473 43.3573 32.2779 43.488C32.4179 43.6093 32.6513 43.67 32.9779 43.67H33.9579V45H32.6979C31.9793 45 31.4286 44.832 31.0459 44.496C30.6633 44.16 30.4719 43.614 30.4719 42.858V38.588H29.5619V37.286H30.4719V35.368H32.0819V37.286H33.9579V38.588H32.0819ZM34.8969 41.108C34.8969 40.3333 35.0556 39.6473 35.3729 39.05C35.6996 38.4527 36.1382 37.9907 36.6889 37.664C37.2489 37.328 37.8649 37.16 38.5369 37.16C39.1436 37.16 39.6709 37.2813 40.1189 37.524C40.5762 37.7573 40.9402 38.0513 41.2109 38.406V37.286H42.8209V45H41.2109V43.852C40.9402 44.216 40.5716 44.5193 40.1049 44.762C39.6382 45.0047 39.1062 45.126 38.5089 45.126C37.8462 45.126 37.2396 44.958 36.6889 44.622C36.1382 44.2767 35.6996 43.8007 35.3729 43.194C35.0556 42.578 34.8969 41.8827 34.8969 41.108ZM41.2109 41.136C41.2109 40.604 41.0989 40.142 40.8749 39.75C40.6602 39.358 40.3756 39.0593 40.0209 38.854C39.6662 38.6487 39.2836 38.546 38.8729 38.546C38.4622 38.546 38.0796 38.6487 37.7249 38.854C37.3702 39.05 37.0809 39.344 36.8569 39.736C36.6422 40.1187 36.5349 40.576 36.5349 41.108C36.5349 41.64 36.6422 42.1067 36.8569 42.508C37.0809 42.9093 37.3702 43.2173 37.7249 43.432C38.0889 43.6373 38.4716 43.74 38.8729 43.74C39.2836 43.74 39.6662 43.6373 40.0209 43.432C40.3756 43.2267 40.6602 42.928 40.8749 42.536C41.0989 42.1347 41.2109 41.668 41.2109 41.136ZM44.3852 41.136C44.3852 40.3427 44.5439 39.6473 44.8612 39.05C45.1879 38.4433 45.6359 37.9767 46.2052 37.65C46.7745 37.3233 47.4279 37.16 48.1652 37.16C49.0985 37.16 49.8685 37.384 50.4752 37.832C51.0912 38.2707 51.5065 38.9007 51.7212 39.722H49.9992C49.8592 39.3393 49.6352 39.0407 49.3272 38.826C49.0192 38.6113 48.6319 38.504 48.1652 38.504C47.5119 38.504 46.9892 38.7373 46.5972 39.204C46.2145 39.6613 46.0232 40.3053 46.0232 41.136C46.0232 41.9667 46.2145 42.6153 46.5972 43.082C46.9892 43.5487 47.5119 43.782 48.1652 43.782C49.0892 43.782 49.7005 43.376 49.9992 42.564H51.7212C51.4972 43.348 51.0772 43.9733 50.4612 44.44C49.8452 44.8973 49.0799 45.126 48.1652 45.126C47.4279 45.126 46.7745 44.9627 46.2052 44.636C45.6359 44.3 45.1879 43.8333 44.8612 43.236C44.5439 42.6293 44.3852 41.9293 44.3852 41.136ZM55.1737 38.588V42.858C55.1737 43.1473 55.2391 43.3573 55.3697 43.488C55.5097 43.6093 55.7431 43.67 56.0697 43.67H57.0497V45H55.7897C55.0711 45 54.5204 44.832 54.1377 44.496C53.7551 44.16 53.5637 43.614 53.5637 42.858V38.588H52.6537V37.286H53.5637V35.368H55.1737V37.286H57.0497V38.588H55.1737ZM69.1434 37.286V45H67.5474V44.09C67.2954 44.4073 66.9641 44.6593 66.5534 44.846C66.1521 45.0233 65.7228 45.112 65.2654 45.112C64.6588 45.112 64.1128 44.986 63.6274 44.734C63.1514 44.482 62.7734 44.1087 62.4934 43.614C62.2228 43.1193 62.0874 42.522 62.0874 41.822V37.286H63.6694V41.584C63.6694 42.2747 63.8421 42.8067 64.1874 43.18C64.5328 43.544 65.0041 43.726 65.6014 43.726C66.1988 43.726 66.6701 43.544 67.0154 43.18C67.3701 42.8067 67.5474 42.2747 67.5474 41.584V37.286H69.1434ZM74.0492 45.126C73.4426 45.126 72.8966 45.0187 72.4112 44.804C71.9352 44.58 71.5572 44.2813 71.2772 43.908C70.9972 43.5253 70.8479 43.1007 70.8292 42.634H72.4812C72.5092 42.9607 72.6632 43.236 72.9432 43.46C73.2326 43.6747 73.5919 43.782 74.0212 43.782C74.4692 43.782 74.8146 43.698 75.0572 43.53C75.3092 43.3527 75.4352 43.1287 75.4352 42.858C75.4352 42.5687 75.2952 42.354 75.0152 42.214C74.7446 42.074 74.3106 41.92 73.7132 41.752C73.1346 41.5933 72.6632 41.4393 72.2992 41.29C71.9352 41.1407 71.6179 40.912 71.3472 40.604C71.0859 40.296 70.9552 39.89 70.9552 39.386C70.9552 38.9753 71.0766 38.602 71.3192 38.266C71.5619 37.9207 71.9072 37.65 72.3552 37.454C72.8126 37.258 73.3352 37.16 73.9232 37.16C74.8006 37.16 75.5052 37.384 76.0372 37.832C76.5786 38.2707 76.8679 38.8727 76.9052 39.638H75.3092C75.2812 39.2927 75.1412 39.0173 74.8892 38.812C74.6372 38.6067 74.2966 38.504 73.8672 38.504C73.4472 38.504 73.1252 38.5833 72.9012 38.742C72.6772 38.9007 72.5652 39.1107 72.5652 39.372C72.5652 39.5773 72.6399 39.75 72.7892 39.89C72.9386 40.03 73.1206 40.142 73.3352 40.226C73.5499 40.3007 73.8672 40.3987 74.2872 40.52C74.8472 40.6693 75.3046 40.8233 75.6592 40.982C76.0232 41.1313 76.3359 41.3553 76.5972 41.654C76.8586 41.9527 76.9939 42.3493 77.0032 42.844C77.0032 43.2827 76.8819 43.6747 76.6392 44.02C76.3966 44.3653 76.0512 44.636 75.6032 44.832C75.1646 45.028 74.6466 45.126 74.0492 45.126Z" fill="#616161"/>
<path d="M44.7071 13.7071L47.3552 16.3552C47.7113 16.7113 47.7113 17.2887 47.3552 17.6448C45.43 19.57 42.3821 19.7866 40.204 18.153L38.6286 16.9714C36.885 15.6638 35.3362 14.115 34.0286 12.3714L32.847 10.796C31.2134 8.61788 31.43 5.56999 33.3552 3.64477C33.7113 3.28867 34.2887 3.28867 34.6448 3.64477L37.2929 6.29289C37.6834 6.68342 37.6834 7.31658 37.2929 7.70711L36.2717 8.72825C36.1095 8.89054 36.0692 9.13846 36.1719 9.34373C37.3585 11.7171 39.2829 13.6415 41.6563 14.8281C41.8615 14.9308 42.1095 14.8905 42.2717 14.7283L43.2929 13.7071C43.6834 13.3166 44.3166 13.3166 44.7071 13.7071Z" stroke="#818181" stroke-width="1.2"/>
</svg>
