<svg width="50" height="52" viewBox="0 0 50 52" fill="none" xmlns="http://www.w3.org/2000/svg">
<mask id="mask0_93:320" style="mask-type:alpha" maskUnits="userSpaceOnUse" x="16" y="3" width="18" height="18">
<path d="M16 11C16 7.22876 16 5.34315 17.1716 4.17157C18.3431 3 20.2288 3 24 3H26C29.7712 3 31.6569 3 32.8284 4.17157C34 5.34315 34 7.22876 34 11V13C34 16.7712 34 18.6569 32.8284 19.8284C31.6569 21 29.7712 21 26 21H24C20.2288 21 18.3431 21 17.1716 19.8284C16 18.6569 16 16.7712 16 13V11Z" fill="#273B4A"/>
</mask>
<g mask="url(#mask0_93:320)">
<path d="M18.4099 12.5901L18.2571 12.7429C17.2765 13.7235 16.7861 14.2139 16.4926 14.8158C16.3907 15.025 16.3071 15.2427 16.243 15.4664C16.0584 16.1102 16.0949 16.8027 16.1678 18.1877L16.5 24.5H34V19.7573C34 18.3059 34 17.5802 33.7614 16.9207C33.6962 16.7404 33.6181 16.565 33.5277 16.3959C33.1971 15.7774 32.6577 15.2919 31.5789 14.321L31.3643 14.1279C30.4682 13.3214 30.0202 12.9182 29.5078 12.8039C29.1864 12.7322 28.8523 12.741 28.5352 12.8295C28.0295 12.9705 27.6033 13.3967 26.7508 14.2492C26.1184 14.8816 25.8023 15.1977 25.4625 15.2406C25.2519 15.2672 25.0383 15.226 24.8526 15.1231C24.5531 14.9572 24.3742 14.5399 24.0166 13.7053C23.2559 11.9304 22.8755 11.0429 22.2217 10.7151C21.8925 10.5501 21.5241 10.4792 21.1572 10.5101C20.4284 10.5716 19.7555 11.2445 18.4099 12.5901L18.4099 12.5901Z" stroke="#818181"/>
</g>
<path d="M16 11C16 7.22876 16 5.34315 17.1716 4.17157C18.3431 3 20.2288 3 24 3H26C29.7712 3 31.6569 3 32.8284 4.17157C34 5.34315 34 7.22876 34 11V13C34 16.7712 34 18.6569 32.8284 19.8284C31.6569 21 29.7712 21 26 21H24C20.2288 21 18.3431 21 17.1716 19.8284C16 18.6569 16 16.7712 16 13V11Z" stroke="#818181" stroke-width="1.2"/>
<circle cx="29.5" cy="7.5" r="1.5" fill="#818181"/>
<path d="M8.16134 38.07C7.90934 37.5847 7.55934 37.2207 7.11134 36.978C6.66334 36.726 6.14534 36.6 5.55734 36.6C4.91334 36.6 4.33934 36.7447 3.83534 37.034C3.33134 37.3233 2.93467 37.734 2.64534 38.266C2.36534 38.798 2.22534 39.414 2.22534 40.114C2.22534 40.814 2.36534 41.4347 2.64534 41.976C2.93467 42.508 3.33134 42.9187 3.83534 43.208C4.33934 43.4973 4.91334 43.642 5.55734 43.642C6.42534 43.642 7.13 43.3993 7.67134 42.914C8.21267 42.4287 8.544 41.7707 8.66534 40.94H5.01134V39.666H10.3733V40.912C10.2707 41.668 10 42.3633 9.56134 42.998C9.132 43.6327 8.56734 44.1413 7.86734 44.524C7.17667 44.8973 6.40667 45.084 5.55734 45.084C4.64267 45.084 3.80734 44.874 3.05134 44.454C2.29534 44.0247 1.69334 43.432 1.24534 42.676C0.806669 41.92 0.587336 41.066 0.587336 40.114C0.587336 39.162 0.806669 38.308 1.24534 37.552C1.69334 36.796 2.29534 36.208 3.05134 35.788C3.81667 35.3587 4.652 35.144 5.55734 35.144C6.59334 35.144 7.51267 35.4007 8.31534 35.914C9.12734 36.418 9.71534 37.1367 10.0793 38.07H8.16134ZM11.4155 41.108C11.4155 40.3333 11.5741 39.6473 11.8915 39.05C12.2181 38.4527 12.6568 37.9907 13.2075 37.664C13.7675 37.328 14.3835 37.16 15.0555 37.16C15.6621 37.16 16.1895 37.2813 16.6375 37.524C17.0948 37.7573 17.4588 38.0513 17.7295 38.406V37.286H19.3395V45H17.7295V43.852C17.4588 44.216 17.0901 44.5193 16.6235 44.762C16.1568 45.0047 15.6248 45.126 15.0275 45.126C14.3648 45.126 13.7581 44.958 13.2075 44.622C12.6568 44.2767 12.2181 43.8007 11.8915 43.194C11.5741 42.578 11.4155 41.8827 11.4155 41.108ZM17.7295 41.136C17.7295 40.604 17.6175 40.142 17.3935 39.75C17.1788 39.358 16.8941 39.0593 16.5395 38.854C16.1848 38.6487 15.8021 38.546 15.3915 38.546C14.9808 38.546 14.5981 38.6487 14.2435 38.854C13.8888 39.05 13.5995 39.344 13.3755 39.736C13.1608 40.1187 13.0535 40.576 13.0535 41.108C13.0535 41.64 13.1608 42.1067 13.3755 42.508C13.5995 42.9093 13.8888 43.2173 14.2435 43.432C14.6075 43.6373 14.9901 43.74 15.3915 43.74C15.8021 43.74 16.1848 43.6373 16.5395 43.432C16.8941 43.2267 17.1788 42.928 17.3935 42.536C17.6175 42.1347 17.7295 41.668 17.7295 41.136ZM23.0317 34.64V45H21.4357V34.64H23.0317ZM26.7231 34.64V45H25.1271V34.64H26.7231ZM35.8886 40.954C35.8886 41.2433 35.8699 41.5047 35.8326 41.738H29.9386C29.9852 42.354 30.2139 42.8487 30.6246 43.222C31.0352 43.5953 31.5392 43.782 32.1366 43.782C32.9952 43.782 33.6019 43.4227 33.9566 42.704H35.6786C35.4452 43.4133 35.0206 43.9967 34.4046 44.454C33.7979 44.902 33.0419 45.126 32.1366 45.126C31.3992 45.126 30.7366 44.9627 30.1486 44.636C29.5699 44.3 29.1126 43.8333 28.7766 43.236C28.4499 42.6293 28.2866 41.9293 28.2866 41.136C28.2866 40.3427 28.4452 39.6473 28.7626 39.05C29.0892 38.4433 29.5419 37.9767 30.1206 37.65C30.7086 37.3233 31.3806 37.16 32.1366 37.16C32.8646 37.16 33.5132 37.3187 34.0826 37.636C34.6519 37.9533 35.0952 38.4013 35.4126 38.98C35.7299 39.5493 35.8886 40.2073 35.8886 40.954ZM34.2226 40.45C34.2132 39.862 34.0032 39.3907 33.5926 39.036C33.1819 38.6813 32.6732 38.504 32.0666 38.504C31.5159 38.504 31.0446 38.6813 30.6526 39.036C30.2606 39.3813 30.0272 39.8527 29.9526 40.45H34.2226ZM39.0552 38.406C39.2885 38.014 39.5965 37.7107 39.9792 37.496C40.3712 37.272 40.8332 37.16 41.3652 37.16V38.812H40.9592C40.3338 38.812 39.8578 38.9707 39.5312 39.288C39.2138 39.6053 39.0552 40.156 39.0552 40.94V45H37.4592V37.286H39.0552V38.406ZM49.7762 37.286L45.0442 48.626H43.3922L44.9602 44.874L41.9222 37.286H43.7002L45.8702 43.166L48.1242 37.286H49.7762Z" fill="#616161"/>
</svg>
