<svg width="42" height="52" viewBox="0 0 42 52" fill="none" xmlns="http://www.w3.org/2000/svg">
<path d="M14 12.7595C14 11.4018 14 10.7229 14.2745 10.1262C14.5489 9.52943 15.0644 9.08763 16.0953 8.20401L17.0953 7.34687C18.9586 5.74974 19.8902 4.95117 21 4.95117C22.1098 4.95117 23.0414 5.74974 24.9047 7.34687L25.9047 8.20401C26.9356 9.08763 27.4511 9.52943 27.7255 10.1262C28 10.7229 28 11.4018 28 12.7595V16.9999C28 18.8856 28 19.8284 27.4142 20.4142C26.8284 20.9999 25.8856 20.9999 24 20.9999H18C16.1144 20.9999 15.1716 20.9999 14.5858 20.4142C14 19.8284 14 18.8856 14 16.9999V12.7595Z" stroke="#FF3B63"/>
<path d="M23.5 21V16C23.5 15.4477 23.0523 15 22.5 15H19.5C18.9477 15 18.5 15.4477 18.5 16V21" stroke="#FF3B63" stroke-linecap="round" stroke-linejoin="round"/>
<path d="M8.82684 35.27V45H7.23084V40.744H2.65284V45H1.05684V35.27H2.65284V39.442H7.23084V35.27H8.82684ZM14.2739 45.126C13.5459 45.126 12.8879 44.9627 12.2999 44.636C11.7119 44.3 11.2499 43.8333 10.9139 43.236C10.5779 42.6293 10.4099 41.9293 10.4099 41.136C10.4099 40.352 10.5826 39.6567 10.9279 39.05C11.2733 38.4433 11.7446 37.9767 12.3419 37.65C12.9393 37.3233 13.6066 37.16 14.3439 37.16C15.0813 37.16 15.7486 37.3233 16.3459 37.65C16.9433 37.9767 17.4146 38.4433 17.7599 39.05C18.1053 39.6567 18.2779 40.352 18.2779 41.136C18.2779 41.92 18.1006 42.6153 17.7459 43.222C17.3913 43.8287 16.9059 44.3 16.2899 44.636C15.6833 44.9627 15.0113 45.126 14.2739 45.126ZM14.2739 43.74C14.6846 43.74 15.0673 43.642 15.4219 43.446C15.7859 43.25 16.0799 42.956 16.3039 42.564C16.5279 42.172 16.6399 41.696 16.6399 41.136C16.6399 40.576 16.5326 40.1047 16.3179 39.722C16.1033 39.33 15.8186 39.036 15.4639 38.84C15.1093 38.644 14.7266 38.546 14.3159 38.546C13.9053 38.546 13.5226 38.644 13.1679 38.84C12.8226 39.036 12.5473 39.33 12.3419 39.722C12.1366 40.1047 12.0339 40.576 12.0339 41.136C12.0339 41.9667 12.2439 42.6107 12.6639 43.068C13.0933 43.516 13.6299 43.74 14.2739 43.74ZM29.1937 37.16C29.8003 37.16 30.3417 37.286 30.8177 37.538C31.303 37.79 31.681 38.1633 31.9517 38.658C32.2317 39.1527 32.3717 39.75 32.3717 40.45V45H30.7897V40.688C30.7897 39.9973 30.617 39.47 30.2717 39.106C29.9263 38.7327 29.455 38.546 28.8577 38.546C28.2603 38.546 27.7843 38.7327 27.4297 39.106C27.0843 39.47 26.9117 39.9973 26.9117 40.688V45H25.3297V40.688C25.3297 39.9973 25.157 39.47 24.8117 39.106C24.4663 38.7327 23.995 38.546 23.3977 38.546C22.8003 38.546 22.3243 38.7327 21.9697 39.106C21.6243 39.47 21.4517 39.9973 21.4517 40.688V45H19.8557V37.286H21.4517V38.168C21.713 37.8507 22.0443 37.6033 22.4457 37.426C22.847 37.2487 23.2763 37.16 23.7337 37.16C24.3497 37.16 24.9003 37.2907 25.3857 37.552C25.871 37.8133 26.2443 38.1913 26.5057 38.686C26.739 38.2193 27.103 37.8507 27.5977 37.58C28.0923 37.3 28.6243 37.16 29.1937 37.16ZM41.4725 40.954C41.4725 41.2433 41.4539 41.5047 41.4165 41.738H35.5225C35.5692 42.354 35.7979 42.8487 36.2085 43.222C36.6192 43.5953 37.1232 43.782 37.7205 43.782C38.5792 43.782 39.1859 43.4227 39.5405 42.704H41.2625C41.0292 43.4133 40.6045 43.9967 39.9885 44.454C39.3819 44.902 38.6259 45.126 37.7205 45.126C36.9832 45.126 36.3205 44.9627 35.7325 44.636C35.1539 44.3 34.6965 43.8333 34.3605 43.236C34.0339 42.6293 33.8705 41.9293 33.8705 41.136C33.8705 40.3427 34.0292 39.6473 34.3465 39.05C34.6732 38.4433 35.1259 37.9767 35.7045 37.65C36.2925 37.3233 36.9645 37.16 37.7205 37.16C38.4485 37.16 39.0972 37.3187 39.6665 37.636C40.2359 37.9533 40.6792 38.4013 40.9965 38.98C41.3139 39.5493 41.4725 40.2073 41.4725 40.954ZM39.8065 40.45C39.7972 39.862 39.5872 39.3907 39.1765 39.036C38.7659 38.6813 38.2572 38.504 37.6505 38.504C37.0999 38.504 36.6285 38.6813 36.2365 39.036C35.8445 39.3813 35.6112 39.8527 35.5365 40.45H39.8065Z" fill="#FF3B63"/>
</svg>
