<svg width="50" height="52" viewBox="0 0 50 52" fill="none" xmlns="http://www.w3.org/2000/svg">
<path d="M6.356 35.27V42.284C6.356 43.152 6.09 43.838 5.558 44.342C5.03533 44.846 4.34467 45.098 3.486 45.098C2.62733 45.098 1.932 44.846 1.4 44.342C0.877333 43.838 0.616 43.152 0.616 42.284H2.226C2.23533 42.7133 2.34267 43.054 2.548 43.306C2.76267 43.558 3.07533 43.684 3.486 43.684C3.89667 43.684 4.20933 43.558 4.424 43.306C4.63867 43.0447 4.746 42.704 4.746 42.284V35.27H6.356ZM12.2983 45.126C11.5703 45.126 10.9123 44.9627 10.3243 44.636C9.73634 44.3 9.27434 43.8333 8.93834 43.236C8.60234 42.6293 8.43434 41.9293 8.43434 41.136C8.43434 40.352 8.60701 39.6567 8.95234 39.05C9.29768 38.4433 9.76901 37.9767 10.3663 37.65C10.9637 37.3233 11.631 37.16 12.3683 37.16C13.1057 37.16 13.773 37.3233 14.3703 37.65C14.9677 37.9767 15.439 38.4433 15.7843 39.05C16.1297 39.6567 16.3023 40.352 16.3023 41.136C16.3023 41.92 16.125 42.6153 15.7703 43.222C15.4157 43.8287 14.9303 44.3 14.3143 44.636C13.7077 44.9627 13.0357 45.126 12.2983 45.126ZM12.2983 43.74C12.709 43.74 13.0917 43.642 13.4463 43.446C13.8103 43.25 14.1043 42.956 14.3283 42.564C14.5523 42.172 14.6643 41.696 14.6643 41.136C14.6643 40.576 14.557 40.1047 14.3423 39.722C14.1277 39.33 13.843 39.036 13.4883 38.84C13.1337 38.644 12.751 38.546 12.3403 38.546C11.9297 38.546 11.547 38.644 11.1923 38.84C10.847 39.036 10.5717 39.33 10.3663 39.722C10.161 40.1047 10.0583 40.576 10.0583 41.136C10.0583 41.9667 10.2683 42.6107 10.6883 43.068C11.1177 43.516 11.6543 43.74 12.2983 43.74ZM18.6921 36.264C18.4027 36.264 18.1601 36.166 17.9641 35.97C17.7681 35.774 17.6701 35.5313 17.6701 35.242C17.6701 34.9527 17.7681 34.71 17.9641 34.514C18.1601 34.318 18.4027 34.22 18.6921 34.22C18.9721 34.22 19.2101 34.318 19.4061 34.514C19.6021 34.71 19.7001 34.9527 19.7001 35.242C19.7001 35.5313 19.6021 35.774 19.4061 35.97C19.2101 36.166 18.9721 36.264 18.6921 36.264ZM19.4761 37.286V45H17.8801V37.286H19.4761ZM25.4635 37.16C26.0702 37.16 26.6115 37.286 27.0875 37.538C27.5728 37.79 27.9508 38.1633 28.2215 38.658C28.4922 39.1527 28.6275 39.75 28.6275 40.45V45H27.0455V40.688C27.0455 39.9973 26.8728 39.47 26.5275 39.106C26.1822 38.7327 25.7108 38.546 25.1135 38.546C24.5162 38.546 24.0402 38.7327 23.6855 39.106C23.3402 39.47 23.1675 39.9973 23.1675 40.688V45H21.5715V37.286H23.1675V38.168C23.4288 37.8507 23.7602 37.6033 24.1615 37.426C24.5722 37.2487 25.0062 37.16 25.4635 37.16ZM41.286 37.286V45H39.69V44.09C39.438 44.4073 39.1067 44.6593 38.696 44.846C38.2947 45.0233 37.8653 45.112 37.408 45.112C36.8013 45.112 36.2553 44.986 35.77 44.734C35.294 44.482 34.916 44.1087 34.636 43.614C34.3653 43.1193 34.23 42.522 34.23 41.822V37.286H35.812V41.584C35.812 42.2747 35.9847 42.8067 36.33 43.18C36.6753 43.544 37.1467 43.726 37.744 43.726C38.3413 43.726 38.8127 43.544 39.158 43.18C39.5127 42.8067 39.69 42.2747 39.69 41.584V37.286H41.286ZM46.1918 45.126C45.5851 45.126 45.0391 45.0187 44.5538 44.804C44.0778 44.58 43.6998 44.2813 43.4198 43.908C43.1398 43.5253 42.9905 43.1007 42.9718 42.634H44.6238C44.6518 42.9607 44.8058 43.236 45.0858 43.46C45.3751 43.6747 45.7345 43.782 46.1638 43.782C46.6118 43.782 46.9571 43.698 47.1998 43.53C47.4518 43.3527 47.5778 43.1287 47.5778 42.858C47.5778 42.5687 47.4378 42.354 47.1578 42.214C46.8871 42.074 46.4531 41.92 45.8558 41.752C45.2771 41.5933 44.8058 41.4393 44.4418 41.29C44.0778 41.1407 43.7605 40.912 43.4898 40.604C43.2285 40.296 43.0978 39.89 43.0978 39.386C43.0978 38.9753 43.2191 38.602 43.4618 38.266C43.7045 37.9207 44.0498 37.65 44.4978 37.454C44.9551 37.258 45.4778 37.16 46.0658 37.16C46.9431 37.16 47.6478 37.384 48.1798 37.832C48.7211 38.2707 49.0105 38.8727 49.0478 39.638H47.4518C47.4238 39.2927 47.2838 39.0173 47.0318 38.812C46.7798 38.6067 46.4391 38.504 46.0098 38.504C45.5898 38.504 45.2678 38.5833 45.0438 38.742C44.8198 38.9007 44.7078 39.1107 44.7078 39.372C44.7078 39.5773 44.7825 39.75 44.9318 39.89C45.0811 40.03 45.2631 40.142 45.4778 40.226C45.6925 40.3007 46.0098 40.3987 46.4298 40.52C46.9898 40.6693 47.4471 40.8233 47.8018 40.982C48.1658 41.1313 48.4785 41.3553 48.7398 41.654C49.0011 41.9527 49.1365 42.3493 49.1458 42.844C49.1458 43.2827 49.0245 43.6747 48.7818 44.02C48.5391 44.3653 48.1938 44.636 47.7458 44.832C47.3071 45.028 46.7891 45.126 46.1918 45.126Z" fill="white"/>
<path d="M33.3214 4.3198C32.4531 3.46056 31.2993 2.98975 30.0741 2.98975C28.849 2.98975 27.6952 3.46056 26.8269 4.3198L25.8991 5.23789L26.7793 6.10889L27.7071 5.1908C28.3375 4.56697 29.182 4.21386 30.0741 4.21386C30.9662 4.21386 31.8107 4.5552 32.4412 5.1908C33.0716 5.81463 33.4284 6.65033 33.4284 7.53311C33.4284 8.41588 33.0835 9.25158 32.4412 9.87541L31.1208 11.1819L24.1862 4.3198C23.3179 3.46056 22.1642 2.98975 20.939 2.98975C19.7138 2.98975 18.5601 3.46056 17.6918 4.3198C16.8234 5.17903 16.3477 6.32076 16.3477 7.53311C16.3477 8.71014 16.7997 9.81656 17.6204 10.6758L18.5006 9.80479C17.9178 9.18096 17.5966 8.38057 17.5966 7.53311C17.5966 6.65033 17.9415 5.81463 18.572 5.1908C19.2024 4.56697 20.0469 4.21386 20.939 4.21386C21.7954 4.21386 22.6162 4.53166 23.2347 5.10841C23.2585 5.13195 23.6391 5.5086 23.6391 5.5086L18.0248 11.076L25.5066 18.4795L29.5745 14.4541L25.8872 10.8053L25.007 11.6763L27.8141 14.4541L25.5066 16.7375L19.7733 11.076L24.5193 6.37961L31.1208 12.9122L33.3095 10.7464C34.1778 9.88718 34.6536 8.74545 34.6536 7.53311C34.6655 6.32076 34.1778 5.17903 33.3214 4.3198Z" fill="white"/>
<path d="M25.5 22L16.046 12.5601C14.729 11.2451 14 9.4839 14 7.6288C14 5.76196 14.729 4.01253 16.046 2.69752C17.363 1.37077 19.115 0.642822 20.9847 0.642822C22.6544 0.642822 24.2301 1.21814 25.5 2.28658C26.7582 1.21814 28.3456 0.642822 30.0153 0.642822C31.885 0.642822 33.637 1.37077 34.954 2.68578C36.271 4.00079 37 5.76196 37 7.61706C37 9.4839 36.271 11.2333 34.954 12.5483L25.5 22ZM20.9847 1.8639C19.4443 1.8639 17.998 2.4627 16.9044 3.55463C15.8108 4.64655 15.2229 6.09071 15.2229 7.6288C15.2229 9.16689 15.8226 10.6111 16.9162 11.703L25.5 20.274L34.0838 11.703C35.1774 10.6111 35.7771 9.16689 35.7771 7.6288C35.7771 6.09071 35.1774 4.64655 34.0838 3.55463C32.9903 2.4627 31.544 1.8639 30.0036 1.8639C28.4632 1.8639 27.0169 2.4627 25.9233 3.55463L25.4882 3.98905L25.0532 3.55463C23.9714 2.4627 22.5251 1.8639 20.9847 1.8639Z" fill="white"/>
</svg>
