<svg width="295" height="163" viewBox="0 0 295 163" fill="none" xmlns="http://www.w3.org/2000/svg">
<path d="M309.111 58.8321C295.218 45.0843 276.757 37.5513 257.155 37.5513C237.552 37.5513 219.092 45.0843 205.199 58.8321L190.354 73.5215L204.437 87.4576L219.282 72.7682C229.369 62.7869 242.881 57.1372 257.155 57.1372C271.428 57.1372 284.941 62.5986 295.027 72.7682C305.114 82.7495 310.823 96.1206 310.823 110.245C310.823 124.369 305.304 137.741 295.027 147.722L273.902 168.626L162.949 58.8321C149.056 45.0843 130.595 37.5513 110.993 37.5513C91.3904 37.5513 72.9298 45.0843 59.0368 58.8321C45.1438 72.5799 37.5312 90.8475 37.5312 110.245C37.5312 129.078 44.7632 146.78 57.8949 160.528L71.9782 146.592C62.6528 136.611 57.5143 123.804 57.5143 110.245C57.5143 96.1206 63.0334 82.7495 73.1201 72.7682C83.2068 62.7869 96.7192 57.1372 110.993 57.1372C124.695 57.1372 137.827 62.222 147.724 71.4499C148.104 71.8266 154.194 77.853 154.194 77.853L64.3656 166.931L184.074 285.388L249.161 220.981L190.164 162.6L176.08 176.536L220.995 220.981L184.074 257.516L92.3419 166.931L168.278 91.7891L273.902 196.31L308.92 161.658C322.813 147.91 330.426 129.643 330.426 110.245C330.616 90.8475 322.813 72.5799 309.111 58.8321Z" fill="#FF3B63"/>
<path d="M184 341.714L32.7362 190.676C11.6646 169.636 0 141.457 0 111.776C0 81.9062 11.6646 53.9153 32.7362 32.8752C53.8078 11.6472 81.8405 0 111.755 0C138.47 0 163.681 9.20506 184 26.3002C204.131 9.20506 229.53 0 256.245 0C286.16 0 314.192 11.6472 335.264 32.6874C356.335 53.7275 368 81.9062 368 111.588C368 141.457 356.335 169.448 335.264 190.488L184 341.714ZM111.755 19.5373C87.1084 19.5373 63.9673 29.118 46.4703 46.5889C28.9734 64.0597 19.5665 87.1663 19.5665 111.776C19.5665 136.385 29.1615 159.492 46.6585 176.963L184 314.099L321.342 176.963C338.838 159.492 348.434 136.385 348.434 111.776C348.434 87.1663 338.838 64.0597 321.342 46.5889C303.845 29.118 280.703 19.5373 256.057 19.5373C231.411 19.5373 208.27 29.118 190.773 46.5889L183.812 53.5396L176.851 46.5889C159.542 29.118 136.401 19.5373 111.755 19.5373Z" fill="#FF3B63"/>
</svg>
