<svg width="227" height="227" viewBox="0 0 227 227" fill="none" xmlns="http://www.w3.org/2000/svg">
<g filter="url(#filter0_d)">
<rect x="6" y="6" width="205" height="205" rx="17" fill="white"/>
</g>
<g clip-path="url(#clip0)">
<path d="M180.207 147.193H32.1807C27.4773 147.193 23.75 143.377 23.75 138.762V46.379C23.75 41.7643 27.566 37.9482 32.1807 37.9482H180.118C184.821 37.9482 188.549 41.7643 188.549 46.379V138.762C188.637 143.466 184.821 147.193 180.207 147.193Z" fill="#F7597F"/>
<path d="M52.218 58.3071C52.2751 56.5927 50.9316 55.1566 49.2172 55.0996C47.5028 55.0425 46.0667 56.386 46.0096 58.1004C45.9525 59.8148 47.296 61.2509 49.0104 61.308C50.7248 61.365 52.1609 60.0215 52.218 58.3071Z" fill="#FFD4DE"/>
<path d="M40.4336 72.2927C40.4336 67.5005 44.3384 63.5957 49.1306 63.5957C53.9228 63.5957 57.8275 67.5005 57.8275 72.2927H40.4336Z" fill="#FFD4DE"/>
<path d="M113.739 58.803H74.8685C74.2473 58.803 73.7148 58.2705 73.7148 57.6493V56.5843C73.7148 55.9631 74.2473 55.4307 74.8685 55.4307H113.739C114.36 55.4307 114.892 55.9631 114.892 56.5843V57.6493C114.892 58.2705 114.36 58.803 113.739 58.803Z" fill="#FFD4DE"/>
<path d="M170.979 66.1688H74.2473C73.9811 66.1688 73.7148 65.9026 73.7148 65.6363V65.1926C73.7148 64.9264 73.9811 64.6602 74.2473 64.6602H170.979C171.245 64.6602 171.511 64.9264 171.511 65.1926V65.6363C171.511 65.9913 171.334 66.1688 170.979 66.1688Z" fill="#FFD4DE"/>
<path d="M170.979 71.0497H74.2473C73.9811 71.0497 73.7148 70.7834 73.7148 70.5172V70.0735C73.7148 69.8073 73.9811 69.541 74.2473 69.541H170.979C171.245 69.541 171.511 69.8073 171.511 70.0735V70.5172C171.511 70.8722 171.334 71.0497 170.979 71.0497Z" fill="#FFD4DE"/>
<path d="M52.2297 86.7803C52.2868 85.0659 50.9433 83.6298 49.2289 83.5727C47.5145 83.5156 46.0784 84.8591 46.0213 86.5735C45.9642 88.2879 47.3078 89.724 49.0222 89.7811C50.7366 89.8382 52.1726 88.4947 52.2297 86.7803Z" fill="#FFD4DE"/>
<path d="M40.4336 100.779C40.4336 95.9873 44.3384 92.0825 49.1306 92.0825C53.9228 92.0825 57.8275 95.9873 57.8275 100.779H40.4336Z" fill="#FFD4DE"/>
<path d="M113.739 87.2903H74.8685C74.2473 87.2903 73.7148 86.7578 73.7148 86.1366V85.0716C73.7148 84.4504 74.2473 83.918 74.8685 83.918H113.739C114.36 83.918 114.892 84.4504 114.892 85.0716V86.1366C114.892 86.7578 114.36 87.2903 113.739 87.2903Z" fill="#FFD4DE"/>
<path d="M170.979 94.6561H74.2473C73.9811 94.6561 73.7148 94.3899 73.7148 94.1237V93.6799C73.7148 93.4137 73.9811 93.1475 74.2473 93.1475H170.979C171.245 93.1475 171.511 93.4137 171.511 93.6799V94.1237C171.511 94.3899 171.334 94.6561 170.979 94.6561Z" fill="#FFD4DE"/>
<path d="M170.979 99.537H74.2473C73.9811 99.537 73.7148 99.2708 73.7148 99.0045V98.5608C73.7148 98.2946 73.9811 98.0283 74.2473 98.0283H170.979C171.245 98.0283 171.511 98.2946 171.511 98.5608V99.0045C171.511 99.2708 171.334 99.537 170.979 99.537Z" fill="#FFD4DE"/>
<path d="M52.2454 115.254C52.3024 113.539 50.9589 112.103 49.2445 112.046C47.5301 111.989 46.094 113.333 46.037 115.047C45.9799 116.762 47.3234 118.198 49.0378 118.255C50.7522 118.312 52.1883 116.968 52.2454 115.254Z" fill="#FFD4DE"/>
<path d="M40.4336 129.266C40.4336 124.474 44.3384 120.569 49.1306 120.569C53.9228 120.569 57.8275 124.474 57.8275 129.266H40.4336Z" fill="#FFD4DE"/>
<path d="M113.739 115.689H74.8685C74.2473 115.689 73.7148 115.156 73.7148 114.535V113.47C73.7148 112.849 74.2473 112.316 74.8685 112.316H113.739C114.36 112.316 114.892 112.849 114.892 113.47V114.535C114.892 115.245 114.36 115.689 113.739 115.689Z" fill="#FFD4DE"/>
<path d="M170.979 123.143H74.2473C73.9811 123.143 73.7148 122.877 73.7148 122.611V122.167C73.7148 121.901 73.9811 121.635 74.2473 121.635H170.979C171.245 121.635 171.511 121.901 171.511 122.167V122.611C171.511 122.877 171.334 123.143 170.979 123.143Z" fill="#FFD4DE"/>
<path d="M170.979 128.024H74.2473C73.9811 128.024 73.7148 127.758 73.7148 127.492V127.048C73.7148 126.782 73.9811 126.516 74.2473 126.516H170.979C171.245 126.516 171.511 126.782 171.511 127.048V127.492C171.511 127.758 171.334 128.024 170.979 128.024Z" fill="#FFD4DE"/>
<path d="M184.645 171.952L185.177 173.727C189.082 174.969 191.39 176.478 191.478 178.164H180.208L179.32 172.218C181.628 172.84 183.491 172.396 184.645 171.952Z" fill="#FAC725"/>
<path d="M183.221 167.515L184.641 171.952C183.488 172.396 181.624 172.84 179.317 172.219L178.695 168.403L183.221 167.515Z" fill="#FAC725"/>
<path d="M163.878 171.775L163.523 167.249L168.848 167.515L169.114 171.686C166.896 172.396 165.032 172.13 163.878 171.775Z" fill="#FAC725"/>
<path d="M157.488 178.253C157.666 176.567 159.618 174.171 164.055 173.638L163.878 171.775C165.032 172.13 166.895 172.396 169.114 171.686L169.558 178.253H157.488Z" fill="#FAC725"/>
<path d="M168.227 81.3442L174.616 81.4329V71.7598H168.404V72.2922V75.3983L168.315 80.368L168.227 81.3442Z" fill="#F9B384"/>
<path d="M168.402 75.8424C169.556 77.0848 172.573 75.6649 173.816 74.3337L168.402 72.7363V75.8424Z" fill="#E28B6D"/>
<path d="M166.895 69.4526C166.895 70.1626 166.983 70.9613 167.072 71.6712C167.427 73.6236 168.226 75.3097 170.089 75.3985C174.615 75.4872 175.858 72.9136 176.745 70.8725C177.633 68.7426 176.213 63.6842 176.213 63.6842L170.356 63.063L167.161 65.7253C167.161 65.6366 166.895 67.4115 166.895 69.4526Z" fill="#FFAE73"/>
<path d="M176.568 69.6301C176.39 69.5413 176.124 69.3638 175.858 69.1863C174.97 68.4764 174.882 67.8552 174.172 66.9677C173.817 66.6127 173.373 65.9915 172.574 65.6365C171.598 65.1928 170.533 65.2816 170.089 65.4591C168.758 66.2578 167.161 66.4352 165.918 65.7253C165.652 65.5478 164.587 64.9266 164.321 63.7729C163.877 62.1755 164.942 60.4006 166.273 59.6907C167.25 59.2469 167.605 59.6907 170.533 59.7794C172.84 59.7794 172.929 59.5132 174.172 59.7794C174.704 59.8681 176.302 60.2231 177.721 61.5543C178.343 62.1755 179.496 63.1517 179.763 64.9266C180.029 66.7015 179.141 68.7426 177.544 69.5413C177.189 69.5413 176.834 69.5413 176.568 69.6301Z" fill="#141B26"/>
<path d="M158.82 116.221C160.063 134.502 161.305 152.783 162.548 171.065C162.725 171.331 163.701 173.017 165.742 173.283C167.429 173.55 169.115 172.751 170.18 171.331C169.647 153.493 169.115 135.656 168.582 117.818L167.34 117.197L158.82 116.221Z" fill="#102048"/>
<path d="M158.375 105.394L158.819 116.221L168.669 119.238C169.113 121.812 169.557 124.386 170.001 127.048C170.533 130.154 170.977 133.26 171.332 136.189C171.864 142.046 172.663 148.347 173.817 155.002C174.793 160.86 176.035 166.451 177.278 171.686C177.278 171.686 181.005 174.615 186.773 171.065C186.685 168.492 186.596 165.918 186.418 163.167C186.152 158.552 185.62 154.204 185.087 150.122C184.555 145.507 184.022 140.715 183.49 136.1C182.514 127.048 181.449 117.996 180.384 108.855L180.117 104.862L158.375 105.394Z" fill="#282C33"/>
<path d="M178.432 109.21L179.585 118.972L171.155 123.054C171.066 125.45 171.066 127.846 171.066 130.331C171.066 133.171 171.066 136.011 171.155 138.762C171.51 144.175 171.687 149.944 171.687 156.067C171.598 161.481 171.421 166.716 171.066 171.509C171.066 171.509 168.137 174.703 162.369 172.307C162.014 170 161.748 167.604 161.57 165.119C161.215 160.948 160.949 156.955 160.86 153.227C160.683 149.056 160.417 144.619 160.239 140.359C159.795 132.017 159.44 123.764 159.085 115.422L158.73 111.784L178.432 109.21Z" fill="#141B26"/>
<path d="M181.539 122.788L181.717 124.031C181.717 123.942 181.717 123.853 181.717 123.764C181.628 123.232 181.539 122.966 181.539 122.788Z" fill="#1F3C88"/>
<path opacity="0.3" d="M171.509 108.056C173.639 108.145 175.858 108.056 178.076 107.524L175.325 81.6103L174.349 80.1904C171.864 86.1363 169.291 99.2705 171.509 108.056Z" fill="#1F3C88"/>
<path opacity="0.3" d="M161.125 105.66C162.989 106.37 165.119 107.08 167.337 107.524C168.58 100.424 168.846 88.7989 167.87 83.563L161.125 105.66Z" fill="#1F3C88"/>
<path opacity="0.6" d="M143.734 83.2965C143.734 83.3852 143.734 83.3852 143.734 83.3852C144.356 85.9588 144.444 87.29 146.663 86.935L148.882 84.3614L148.615 82.8528L148.527 82.6753L148.172 81.6991V81.6104L143.734 83.2965Z" fill="#E28B6D"/>
<path d="M175.859 69.0092C175.948 68.8317 176.835 68.5655 177.013 68.4767C177.279 68.388 177.634 68.388 177.989 68.4767C179.054 69.0092 178.965 70.5178 178.344 71.4053C177.989 71.849 177.545 72.204 177.013 72.3815C176.835 72.4702 174.883 72.4702 174.972 72.1152C175.06 72.204 175.859 69.0092 175.859 69.0092Z" fill="#F9B384"/>
<path d="M176.658 70.251C176.924 70.0735 177.102 69.896 177.368 69.8073C177.457 69.7185 177.545 69.7185 177.634 69.7185C177.723 69.7185 177.812 69.8073 177.9 69.896L177.989 69.8073C177.9 69.6298 177.812 69.4523 177.634 69.4523C177.457 69.3635 177.279 69.4523 177.102 69.541C176.835 69.7185 176.569 69.9848 176.48 70.251H176.658Z" fill="#E28B6D"/>
<path d="M147.017 80.1907C148.259 79.9244 149.502 77.8833 149.857 76.9959C149.945 76.8184 149.945 76.5521 149.945 76.3746C149.768 75.4872 149.502 74.511 149.324 73.6236C149.147 73.9785 149.058 74.2448 148.881 74.4223C148.614 74.866 148.437 74.9547 148.348 75.3097C148.259 75.5759 148.348 75.8422 148.348 76.0197C148.171 76.3747 147.993 76.7296 147.816 77.0846L146.484 76.1084L147.194 74.0673C147.194 74.0673 147.549 74.4223 147.904 74.3335C148.082 74.2448 148.171 74.156 148.259 73.9785C148.437 73.8011 148.437 73.7123 148.437 73.5348C148.437 73.3573 148.171 73.2686 148.082 73.1798C147.638 73.0024 146.751 72.8249 146.129 73.2686C145.686 73.6236 145.42 74.4223 145.42 74.4223C145.42 74.4223 144.976 72.8249 145.242 69.1863C145.242 69.0089 144.887 69.0089 144.71 69.1863C144.355 69.5413 143.822 70.6063 143.822 73.8011C143.822 73.8011 143.733 70.0738 143.112 69.6301C142.58 69.2751 142.313 71.1387 142.668 74.2448C142.668 74.2448 141.958 71.5824 141.515 71.5824C140.716 71.5824 141.515 78.7708 143.645 80.9006L147.017 80.1907Z" fill="#F9B384"/>
<path d="M143.023 79.1255C143.023 79.4805 143.112 79.8354 143.112 80.1904C143.29 81.3441 143.467 82.409 143.645 83.3852C143.645 83.474 143.645 83.474 143.645 83.474C144.266 86.0476 144.355 87.3787 146.573 87.0237L148.792 84.4502L148.969 84.2727L148.526 82.9415L148.437 82.764L148.082 81.7878V81.6991L147.549 80.0129L147.283 79.303L143.023 79.1255Z" fill="#F9B384"/>
<path d="M155.532 64.5715C155.532 64.5715 156.154 63.3291 156.065 63.3291C155.887 63.3291 155 64.2165 155 64.2165V64.8378L155.532 64.5715Z" fill="#6F3428"/>
<path d="M138.674 84.2729L138.408 84.6279C137.964 85.3379 138.053 86.2253 138.763 86.7578L138.852 86.8465C139.562 87.2903 140.449 87.2015 140.982 86.4916L141.248 86.1366L138.674 84.2729Z" fill="#EE6F57"/>
<path d="M152.067 66.0327L138.711 84.3018L141.218 86.135L154.575 67.8659L152.067 66.0327Z" fill="#FBC343"/>
<path d="M138.676 84.2729L141.249 86.1366L141.782 85.3379L142.137 84.8941L143.29 83.2967L140.806 81.4331L139.652 83.0305L139.297 83.563L138.676 84.2729Z" fill="#102048"/>
<path d="M139.628 83.0728L139.262 83.5742L141.769 85.4074L142.136 84.906L139.628 83.0728Z" fill="#FBC343"/>
<path d="M154.559 67.8551L155.624 64.4828C155.624 64.4828 155.269 64.4828 155.092 64.0391L152.074 65.9914L154.559 67.8551Z" fill="#EE6F57"/>
<path d="M192.012 93.5912C192.012 93.5912 190.06 85.0717 185.001 80.9894C183.315 79.6583 181.54 79.1258 181.54 79.1258C181.451 79.1258 181.363 79.0371 181.274 79.0371C179.499 78.5046 177.28 78.4158 174.352 79.1258C174.352 79.1258 174.263 79.3033 173.908 79.5695C173.908 79.5695 173.908 79.5695 173.819 79.5695L173.731 79.4808C173.731 79.4808 167.43 81.3444 168.317 77.2622C168.317 77.2622 160.508 76.9959 157.934 79.9245C155.36 82.8531 152.698 87.6453 152.698 87.6453L148.35 81.6994C148.35 81.6994 145.687 81.6106 144.09 85.6929C144.09 85.6929 147.817 93.0587 149.769 95.1886C151.633 97.3184 153.497 99.5371 157.49 95.0998L159.176 94.4786C159.088 95.9873 159.088 97.4959 158.999 99.0046C158.733 103.974 158.289 108.766 157.668 113.204C159.62 114.535 163.791 116.931 169.648 117.463C175.062 117.996 179.41 116.665 181.54 115.777C181.451 115.334 181.363 114.624 181.274 113.825C181.096 112.583 181.008 111.518 181.008 110.364C184.557 109.299 191.391 106.548 192.722 100.868C193.254 98.7384 192.811 97.0522 192.012 93.5912ZM181.008 106.637C181.096 104.418 181.363 101.933 181.806 98.6496C182.073 96.5197 182.339 94.2124 182.694 91.7275C184.646 93.4137 185.711 95.2773 186.421 96.786C186.598 97.5847 186.865 98.3834 187.22 99.0046C187.575 99.8033 183.67 103.886 181.008 106.637Z" fill="#FAC725"/>
<path d="M182.78 91.905C182.78 91.905 182.603 90.5738 181.449 89.2427L182.78 91.905Z" fill="#1E3865"/>
</g>
<defs>
<filter id="filter0_d" x="0" y="0" width="227" height="227" filterUnits="userSpaceOnUse" color-interpolation-filters="sRGB">
<feFlood flood-opacity="0" result="BackgroundImageFix"/>
<feColorMatrix in="SourceAlpha" type="matrix" values="0 0 0 0 0 0 0 0 0 0 0 0 0 0 0 0 0 0 127 0" result="hardAlpha"/>
<feOffset dx="5" dy="5"/>
<feGaussianBlur stdDeviation="5.5"/>
<feComposite in2="hardAlpha" operator="out"/>
<feColorMatrix type="matrix" values="0 0 0 0 0 0 0 0 0 0 0 0 0 0 0 0 0 0 0.1 0"/>
<feBlend mode="normal" in2="BackgroundImageFix" result="effect1_dropShadow"/>
<feBlend mode="normal" in="SourceGraphic" in2="effect1_dropShadow" result="shape"/>
</filter>
<clipPath id="clip0">
<rect width="169.236" height="140.305" fill="white" transform="translate(23.75 37.9482)"/>
</clipPath>
</defs>
</svg>
