<svg width="55" height="55" viewBox="0 0 55 55" fill="none" xmlns="http://www.w3.org/2000/svg">
<path d="M27.1317 8.58594H20.1232C17.6363 8.58594 15.6016 10.6194 15.6016 13.1048V21.0128V41.3476C15.6016 43.8329 17.6363 45.8664 20.1232 45.8664H34.1402C36.627 45.8664 38.6618 43.8329 38.6618 41.3476V21.0128V13.1048C38.6618 10.6194 36.627 8.58594 34.1402 8.58594H27.1317Z" stroke="#FF3B63" stroke-width="1.5" stroke-miterlimit="10" stroke-linecap="round" stroke-linejoin="round"/>
<path d="M24.1953 15.3643H29.8473" stroke="#FF3B63" stroke-width="1.5" stroke-miterlimit="10" stroke-linecap="round" stroke-linejoin="round"/>
<path d="M27.1329 40.8963C28.1318 40.8963 28.9415 40.0871 28.9415 39.0888C28.9415 38.0905 28.1318 37.2812 27.1329 37.2812C26.134 37.2812 25.3242 38.0905 25.3242 39.0888C25.3242 40.0871 26.134 40.8963 27.1329 40.8963Z" fill="#FF3B63"/>
</svg>
