<svg width="227" height="227" viewBox="0 0 227 227" fill="none" xmlns="http://www.w3.org/2000/svg">
<g filter="url(#filter0_d)">
<rect x="6" y="6" width="205" height="205" rx="17" fill="white"/>
</g>
<g clip-path="url(#clip0)">
<path d="M56.0451 82.5871C56.0451 82.5871 56.1339 80.8122 53.7378 80.4572C51.3417 80.1022 50.7205 80.6347 50.3655 81.2559C49.9218 81.8771 49.2118 84.2732 49.3006 85.2494C49.3893 86.2256 52.0516 87.468 52.0516 88.0005C51.9629 88.6217 56.0451 82.5871 56.0451 82.5871Z" fill="#141B26"/>
<path d="M51.521 81.3444C51.521 81.3444 51.6985 80.3683 50.3673 80.102C49.0362 79.8358 49.0362 82.6756 48.8587 83.3856C48.6812 84.0955 49.0362 84.4505 49.5686 84.5393C50.0123 84.5393 51.521 81.3444 51.521 81.3444Z" fill="#141B26"/>
<path d="M64.5725 93.3248C65.0163 92.9698 65.46 92.6149 65.9037 92.3486C67.1461 92.7924 71.2284 94.5673 73.092 99.0045C73.6245 100.336 74.6894 102.643 73.6245 104.063C71.9383 106.459 65.0163 105.66 61.1115 101.844C58.1829 99.0045 56.763 94.3898 58.0054 93.3248C58.9816 92.5261 61.644 94.0348 63.2414 94.9222C67.1461 97.2296 69.3647 100.158 69.4535 100.069C69.5422 99.9807 68.6548 98.6495 64.5725 93.3248Z" fill="#FF668B"/>
<path d="M55.5143 173.284C55.5143 173.284 55.1594 174.171 55.6918 174.615C56.2243 175.059 59.1529 176.39 60.5728 176.39C61.9927 176.39 60.839 175.236 60.0403 174.615C59.2416 173.994 57.2892 172.663 56.7568 172.485C56.3131 172.396 55.5143 173.284 55.5143 173.284Z" fill="#FF3B63"/>
<path d="M55.6961 169.468C55.6073 170.621 55.7848 171.509 55.8736 172.13C56.051 173.018 56.1398 173.55 56.5835 173.994C57.2935 174.792 58.6246 174.97 58.8021 174.615C58.9796 174.26 57.6484 173.55 57.2047 171.864C57.0272 171.154 57.0272 170.444 57.116 170L55.6961 169.468Z" fill="#FFAE73"/>
<path d="M60.7529 124.03C62.7053 126.071 62.2616 129.089 61.6404 134.413C61.1079 138.851 60.3979 145.506 59.7767 153.848C59.1555 159.706 58.5343 165.474 58.0018 171.331C57.0256 171.331 55.9607 171.331 54.9845 171.331C53.7421 168.758 52.3222 164.675 52.2334 159.794C52.1447 155.712 53.1209 155.18 53.2984 150.476C53.3871 147.903 53.2096 146.483 51.2572 135.39C49.7486 126.604 49.3936 124.918 50.636 123.587C52.7659 121.19 58.2681 121.368 60.7529 124.03Z" fill="#141B26"/>
<path d="M50.905 157.665C50.905 157.665 51.6149 157.044 52.2361 157.31C52.8574 157.576 55.2535 159.795 55.7859 161.126C56.3184 162.457 54.8097 161.836 53.9223 161.303C53.0349 160.771 50.9937 159.529 50.7275 159.174C50.3725 158.73 50.905 157.665 50.905 157.665Z" fill="#FF3B63"/>
<path d="M48.4197 155.89C49.3959 156.423 50.1058 156.866 50.727 157.221C51.9695 158.02 52.4132 158.464 52.8569 158.907C53.2119 159.262 53.9218 160.15 53.7444 160.327C53.5669 160.505 52.6794 159.795 49.9283 158.286C49.5734 158.109 48.2422 157.399 48.2422 157.399L48.4197 155.89Z" fill="#FFAE73"/>
<path d="M49.2166 158.907C42.2058 157.398 30.1366 153.848 28.8054 146.749C28.0954 143.022 30.8465 140.359 40.076 124.474C42.2946 120.658 44.1582 117.463 45.4006 115.156C48.063 118.617 50.7253 122.078 53.2989 125.45C50.1041 129.976 47.2643 133.26 45.2231 135.39C40.4309 140.537 36.8811 143.199 37.5911 145.595C37.9461 146.749 39.0998 147.104 41.0521 148.169C43.6257 149.5 46.998 151.719 50.7253 155.801C50.3703 156.866 49.8379 157.931 49.2166 158.907Z" fill="#282C33"/>
<path d="M47.7084 92.1714C51.1695 91.7277 54.0093 91.9939 55.7842 92.3489C58.8903 92.9701 61.9076 93.5026 63.0613 95.7212C63.6825 96.9636 63.3275 98.561 62.6175 101.667C61.2864 107.524 59.8664 108.323 60.1327 111.34C60.2214 113.026 60.6651 112.671 62.2626 117.641C64.4812 124.563 63.86 125.717 63.5937 126.161C62.1738 128.379 58.4465 128.202 57.8253 128.202C54.5418 128.024 54.0093 126.249 50.9032 125.539C45.7561 124.474 42.4725 128.379 40.4314 126.782C39.4552 125.983 39.3664 124.474 39.9877 120.303C41.1413 112.139 43.005 106.104 43.2712 105.217C44.6911 101.046 46.111 96.6974 47.7084 92.1714Z" fill="#FF3B63"/>
<path d="M44.5153 92.4374C43.6279 92.9699 43.3617 93.4136 42.4742 94.2123C40.9656 95.7209 39.3682 96.3422 38.2145 96.8746C34.9309 98.2945 31.9136 98.117 31.0262 98.0283C24.3703 97.5846 20.1993 92.6149 19.4006 91.7274C18.5132 92.1712 17.6257 92.5261 16.7383 92.9699C17.6257 95.5435 19.4006 99.0045 22.8617 101.667C29.8725 106.992 40.2556 106.015 46.379 101.223C47.8876 99.9807 48.9526 98.7383 49.5738 97.8508C50.6387 95.4547 50.0175 92.9699 48.5976 92.0824C47.0002 91.0175 44.7816 92.2599 44.5153 92.4374Z" fill="#FF3B63"/>
<path d="M54.7173 88.3553C54.4511 88.1779 54.0074 88.2666 53.9186 88.6216C53.4749 89.864 53.2087 90.8402 52.1437 91.5502C51.6113 91.9051 50.9901 91.9939 50.1914 91.9939C48.7715 91.9939 48.1502 91.4614 47.9728 91.7276C47.6178 92.1714 49.4814 95.1887 52.6762 96.2536C53.2087 96.4311 55.9598 97.4073 57.6459 95.8986C58.5334 95.0999 59.0658 93.5913 58.6221 93.0588C58.3559 92.7038 57.9122 92.9701 56.8472 92.5263C56.3147 92.3489 55.516 91.9939 55.2498 91.2839C55.0723 90.9289 55.1611 90.574 55.1611 90.3077L55.3386 89.0653C55.3386 88.8878 55.2498 88.7103 55.1611 88.5328L54.7173 88.3553Z" fill="#FFAE73"/>
<path d="M51.7008 88.4441C51.7008 88.4441 53.032 90.8402 55.6943 90.2189C58.0904 89.6865 57.3805 83.6519 55.6943 82.7644C55.1618 82.4982 54.0082 82.4094 53.2095 82.7644C52.677 83.0306 51.0796 84.5393 51.6121 86.5804C51.0796 86.3142 50.5471 86.4029 50.3696 86.6692C50.1921 87.0241 50.6359 87.5566 50.7246 87.6454C50.9908 88.1778 51.4346 88.3553 51.7008 88.4441Z" fill="#FFAE73"/>
<path d="M20.2856 93.1473L19.3094 91.2837C19.3094 91.2837 24.1016 83.3854 20.1969 82.143C16.2921 80.9006 17.3571 83.1192 17.8008 84.1841C18.2445 85.249 17.5345 88.7101 16.8246 89.775C16.1146 90.8399 17.3571 94.3897 17.3571 94.3897L20.2856 93.1473Z" fill="#FFAE73"/>
<path d="M55.3391 82.587C55.3391 82.587 54.3629 85.2494 52.7655 85.6931C51.2568 86.0481 50.5469 85.6931 50.5469 85.6931C50.5469 85.6931 51.7006 84.7169 51.9668 83.1195C51.9668 83.0308 54.5404 81.2559 55.3391 82.587Z" fill="#141B26"/>
<path d="M55.0742 82.7647C55.0742 82.7647 55.7842 83.3859 55.9617 83.9184C56.1392 84.5396 56.2279 85.6932 56.5829 85.6932C56.5829 85.6932 57.3816 83.9184 56.4941 82.8534C55.6067 81.7885 55.0742 82.7647 55.0742 82.7647Z" fill="#141B26"/>
<path d="M67.2297 93.3252L66.3422 90.6628C66.3422 90.6628 65.2773 88.4442 62.4375 88.0892C59.5977 87.7343 59.5977 89.2429 59.5977 89.2429L61.4613 89.7754C61.4613 89.7754 62.7037 90.1304 63.5024 91.9053C64.6561 93.6801 65.8098 94.5676 65.8098 94.5676L67.2297 93.3252Z" fill="#FFAE73"/>
<path d="M74.9518 59.3354L29.7808 71.4934C27.651 72.1146 25.3436 70.7834 24.8112 68.5648L22.77 60.844C22.1488 58.7141 23.48 56.4068 25.6986 55.8743L70.7808 43.7163C72.9107 43.0951 75.2181 44.4263 75.7505 46.6449L77.7917 54.3657C78.4129 56.4955 77.0817 58.8029 74.9518 59.3354Z" fill="#4760F0"/>
<path d="M32.0887 58.6255L33.2424 59.8679C33.3311 59.9567 33.5086 60.0454 33.6861 60.0454L35.3722 59.8679C35.816 59.7792 36.0822 60.2229 35.816 60.5779L34.9285 62.0865C34.8398 62.264 34.8398 62.3528 34.9285 62.5303L35.6385 64.0389C35.816 64.3939 35.461 64.8376 35.106 64.7489L33.4199 64.3939C33.2424 64.3939 33.0649 64.3939 32.9761 64.4826L31.7337 65.6363C31.4675 65.9026 30.935 65.7251 30.935 65.2813L30.7575 63.5952C30.7575 63.4177 30.6688 63.329 30.4913 63.2402L28.9826 62.4415C28.6277 62.264 28.6277 61.7316 29.0714 61.5541L30.6688 60.8441C30.8463 60.7554 30.935 60.6666 30.935 60.4891L31.29 58.803C31.29 58.448 31.8225 58.3593 32.0887 58.6255Z" fill="#FAC725"/>
<path d="M43.1813 55.6968L44.335 56.9393C44.4238 57.028 44.6013 57.1167 44.7787 57.1167L46.4649 56.9393C46.9086 56.8505 47.1748 57.2942 46.9086 57.6492L46.0212 59.1579C45.9324 59.2466 45.9324 59.4241 45.9324 59.5129L46.6424 61.0215C46.8199 61.3765 46.4649 61.8202 46.1099 61.7315L44.4238 61.3765C44.2463 61.3765 44.0688 61.3765 43.98 61.4652L42.7376 62.6189C42.4714 62.8851 41.9389 62.7077 41.9389 62.2639L41.7614 60.5778C41.7614 60.4003 41.6727 60.3116 41.4952 60.2228L39.9865 59.4241C39.6316 59.2466 39.6316 58.7142 40.0753 58.5367L41.6727 57.8267C41.8502 57.738 41.9389 57.6492 41.9389 57.4717L42.2939 55.7856C42.3826 55.5193 42.9151 55.3419 43.1813 55.6968Z" fill="#FAC725"/>
<path d="M54.1863 52.6797L55.34 53.9221C55.4288 54.0109 55.6063 54.0996 55.7837 54.0996L57.4699 53.9221C57.9136 53.8334 58.1799 54.2771 57.9136 54.6321L57.0262 56.1407C56.9374 56.3182 56.9374 56.407 57.0262 56.5845L57.7361 58.0931C57.9136 58.4481 57.5586 58.8918 57.2037 58.8031L55.5175 58.4481C55.34 58.4481 55.1625 58.4481 55.0738 58.5368L53.8314 59.6905C53.5651 59.9568 53.0327 59.7793 53.0327 59.3355L52.8552 57.6494C52.8552 57.4719 52.7664 57.3832 52.5889 57.2944L51.0803 56.4957C50.7253 56.3182 50.7253 55.7858 51.169 55.6083L52.7664 54.8983C52.9439 54.8096 53.0327 54.7208 53.0327 54.5433L53.3876 52.8572C53.4764 52.5022 53.9201 52.4135 54.1863 52.6797Z" fill="#FAC725"/>
<path d="M65.2762 49.7511L66.4299 50.9935C66.5186 51.0823 66.6961 51.171 66.8736 51.171L68.5597 50.9935C69.0035 50.9048 69.2697 51.3485 69.0035 51.7035L68.116 53.2122C68.0273 53.3896 68.0273 53.4784 68.116 53.6559L68.826 55.1645C69.0035 55.5195 68.6485 55.9632 68.2935 55.8745L66.6074 55.5195C66.4299 55.5195 66.2524 55.5195 66.1636 55.6083L64.9212 56.7619C64.655 57.0282 64.1225 56.8507 64.1225 56.407L63.945 54.7208C63.945 54.5433 63.8563 54.4546 63.6788 54.3658L62.1701 53.5671C61.8152 53.3896 61.8152 52.8572 62.2589 52.6797L63.8563 51.9697C64.0338 51.881 64.1225 51.7922 64.1225 51.6147L64.4775 49.9286C64.4775 49.5736 65.01 49.3961 65.2762 49.7511Z" fill="#FAC725"/>
<path d="M190.856 105.66H98.0289C93.5917 105.66 89.9531 102.022 89.9531 97.5846V46.024C89.9531 41.5868 93.5917 37.9482 98.0289 37.9482H190.856C195.293 37.9482 198.931 41.5868 198.931 46.024V97.5846C198.931 102.022 195.293 105.66 190.856 105.66Z" fill="#F7597F"/>
<path d="M181.446 63.7728H131.217C129.708 63.7728 128.555 62.5304 128.555 61.1104V58.1819C128.555 56.6732 129.797 55.5195 131.217 55.5195H181.446C182.955 55.5195 184.109 56.762 184.109 58.1819V61.1104C184.198 62.5304 182.955 63.7728 181.446 63.7728Z" fill="#FFD4DE"/>
<path d="M166.983 68.9204H129.799C129.355 68.9204 129 68.5654 129 68.1217V67.2343C129 66.7905 129.355 66.4355 129.799 66.4355H166.983C167.426 66.4355 167.781 66.7905 167.781 67.2343V68.1217C167.781 68.5654 167.426 68.9204 166.983 68.9204Z" fill="#FFD4DE"/>
<path d="M115.765 55.7998C115.822 54.0854 114.478 52.6493 112.764 52.5922C111.05 52.5351 109.614 53.8787 109.556 55.5931C109.499 57.3075 110.843 58.7435 112.557 58.8006C114.272 58.8577 115.708 57.5142 115.765 55.7998Z" fill="#FFD4DE"/>
<path d="M103.969 69.8073C103.969 65.0151 107.874 61.1104 112.666 61.1104C117.458 61.1104 121.363 65.0151 121.363 69.8073H103.969Z" fill="#FFD4DE"/>
<path d="M112.58 78.6821L112.758 88.6215L112.847 98.5609L112.492 98.2059C118.083 98.1172 123.674 98.1172 129.264 98.1172C134.855 98.1172 140.446 98.1172 146.037 98.1172C151.628 98.1172 157.219 98.2059 162.81 98.2059C168.401 98.2947 173.992 98.3834 179.583 98.4722C173.992 98.6497 168.401 98.7384 162.81 98.7384C157.219 98.8272 151.628 98.8272 146.037 98.8272C140.446 98.8272 134.855 98.9159 129.264 98.8272C123.674 98.8272 118.083 98.8272 112.492 98.7384H112.137V98.3834L112.225 88.444L112.58 78.6821Z" fill="#FFD4DE"/>
<path d="M118.883 93.769C120.125 91.4616 121.368 89.243 122.61 86.9356L122.788 86.6694L122.965 86.9356C125.361 89.4205 127.757 91.8166 130.153 94.3014L129.532 94.3902C131.13 90.0417 132.727 85.6932 134.413 81.3447L134.679 80.546L135.123 81.256L140.093 88.9767L139.56 88.888L146.039 83.8296L149.322 81.3447L152.606 78.8599L149.5 81.5222L146.394 84.1845L140.093 89.4205L139.738 89.6867L139.472 89.3317L134.413 81.6109L135.212 81.5222C133.614 85.8707 131.928 90.2192 130.242 94.4789L130.065 95.0114L129.621 94.5677C127.314 92.0828 125.006 89.5092 122.699 86.9356H123.054C121.634 89.3317 120.303 91.5503 118.883 93.769Z" fill="#FFD4DE"/>
<path d="M124.383 177.278L141.422 176.745C142.22 175.68 141.777 172.042 141.599 170.888C141.599 170.622 141.511 170.533 141.511 170.533C141.511 170.533 135.565 166.096 134.855 169.645C134.855 169.734 134.766 169.912 134.766 170C133.878 173.373 129.353 174.97 126.779 175.503C125.27 175.769 124.649 176.656 124.383 177.278Z" fill="#FAC725"/>
<path d="M169.199 120.658C168.578 120.658 140.18 126.87 135.654 132.816C133.346 135.834 134.056 169.556 134.056 169.556C134.056 169.556 137.073 173.106 143.286 170.799C143.286 170.799 147.19 147.637 146.658 140.626C146.48 138.673 166.182 139.738 169.731 138.762C173.281 137.786 181.801 129.71 179.76 125.894C177.807 122.167 169.199 120.658 169.199 120.658Z" fill="#141B26"/>
<path d="M148.52 119.682C148.52 119.682 146.745 121.28 144.881 121.812C143.817 122.078 142.752 122.433 142.219 122.699C140.533 123.498 137.427 127.137 137.782 127.403C138.758 128.468 142.574 125.451 143.284 125.628C143.994 125.806 142.13 127.58 142.929 127.935C143.373 128.202 144.083 126.693 144.793 126.427C145.769 126.16 146.301 124.652 146.656 124.563C147.189 124.386 149.496 122.167 149.496 122.167L148.52 119.682Z" fill="#FFAE73"/>
<path d="M116.93 177.544L133.969 177.011C134.767 175.946 134.324 172.308 134.146 171.154C134.146 170.888 134.057 170.799 134.057 170.799C134.057 170.799 128.112 166.362 127.402 169.912C127.402 170 127.313 170.178 127.313 170.267C126.425 173.639 121.899 175.236 119.326 175.769C117.728 175.946 117.107 176.922 116.93 177.544Z" fill="#FAC725"/>
<path d="M160.859 120.835C160.238 120.835 131.84 127.048 127.314 132.993C125.006 136.011 125.716 169.734 125.716 169.734C125.716 169.734 128.734 173.283 134.946 170.976C134.946 170.976 138.851 147.814 138.318 140.803C138.141 138.851 157.842 139.916 161.392 138.939C164.941 137.874 173.461 129.887 171.42 126.071C169.379 122.344 160.859 120.835 160.859 120.835Z" fill="#282C33"/>
<path d="M161.568 86.1364C163.609 85.8702 165.739 85.3377 167.603 84.6277C169.91 83.829 171.774 82.6753 170.443 80.5455C169.289 78.5931 167.336 74.3334 167.336 70.6948L163.077 74.3334L160.237 76.8182C160.237 76.8182 160.326 78.2381 160.681 80.6342C160.769 81.0779 160.858 81.5217 160.947 82.0541C161.036 82.4979 160.858 82.8528 160.503 83.1191C160.503 83.1191 160.503 83.1191 160.414 83.1191C159.083 84.0953 159.882 86.3139 161.568 86.1364Z" fill="#FFAE73"/>
<path d="M160.326 76.1973C160.326 76.1973 160.148 76.7297 160.503 78.5934C163.077 78.0609 165.473 75.931 165.473 75.931C164.142 75.5761 163.609 74.1562 162.633 74.3336L160.326 76.1973Z" fill="#F9924F"/>
<path d="M157.839 76.6407C157.839 76.6407 167.955 78.0606 168.754 71.671C169.553 65.3701 171.328 61.2879 164.938 60.1342C158.46 58.9805 156.951 61.2879 156.152 63.329C155.442 65.3701 155.265 76.197 157.839 76.6407Z" fill="#FFAE73"/>
<path d="M154.646 60.5784C154.291 62.0871 155.445 63.9507 157.397 64.4832C160.326 65.2819 159.793 68.8317 161.035 68.743C162.367 68.6542 162.81 66.6131 163.964 68.2105C165.029 69.5417 163.254 71.2278 163.343 71.9378C163.609 73.1802 165.65 75.7538 167.425 75.5763C169.2 75.3988 172.306 66.7018 171.596 64.1282C170.886 61.4659 168.046 58.8036 165.473 58.4486C162.899 58.1823 159.438 59.336 158.551 59.336C157.929 59.4248 154.823 59.7797 154.646 60.5784Z" fill="#141B26"/>
<path d="M153.847 119.15C154.024 120.57 154.379 121.546 154.912 121.901C156.42 122.877 158.461 124.031 160.769 125.273C168.756 129.444 179.671 133.349 181.712 125.894C184.02 117.109 181.89 100.78 179.05 90.6629C177.453 84.8057 173.193 78.7711 170.531 78.8599C165.916 79.0373 159.26 80.4573 156.775 87.1131C155.799 89.6867 154.557 98.6499 154.024 106.903C153.492 111.784 153.403 116.399 153.847 119.15Z" fill="#FAC725"/>
<path d="M170.798 78.8596L169.644 76.5522C169.644 76.5522 160.326 77.7947 158.906 83.2081C158.995 83.1193 166.095 79.1258 170.798 78.8596Z" fill="#F9D46B"/>
<path d="M153.848 119.15C154.025 120.57 154.38 121.546 154.913 121.901C156.421 122.877 158.462 124.031 160.77 125.273C163.077 123.765 167.692 120.304 168.668 116.31C169.999 111.074 168.757 104.685 168.757 104.685L153.848 119.15Z" fill="#F9D46B"/>
<path d="M169.2 86.9351C169.2 86.9351 169.022 109.21 167.868 113.736C165.916 121.279 146.304 124.563 146.304 124.563C146.304 124.563 145.061 123.32 145.594 121.102C145.594 121.102 157.13 111.429 157.397 109.654C157.663 107.879 154.468 95.987 157.663 91.5498C160.769 87.0238 166.804 83.0303 169.2 86.9351Z" fill="#FAC725"/>
<path d="M194.315 175.414C193.161 176.745 191.298 177.455 189.434 177.455L167.603 177.277C165.828 177.277 164.053 176.567 162.899 175.325C162.189 174.615 161.834 173.639 161.657 172.751C161.568 171.864 162.278 171.065 163.343 171.154C164.142 171.154 164.763 171.686 164.852 172.396C164.852 172.84 165.118 173.284 165.473 173.639C166.005 174.171 166.804 174.526 167.603 174.526L189.612 174.704C190.41 174.704 191.209 174.438 191.741 173.905C192.363 173.284 192.54 172.485 192.274 171.686L182.601 145.862C181.625 143.377 178.873 141.691 175.856 141.691C171.685 141.691 166.449 141.691 165.917 141.691C153.67 141.513 148.789 141.513 146.215 141.602C146.038 141.602 145.949 141.513 145.949 141.336C145.949 140.36 146.393 139.383 147.103 138.674C147.813 138.052 148.7 137.697 149.676 137.609C155.179 137.342 158.64 136.189 161.746 135.922C169.378 135.39 176.921 131.308 179.85 126.87C181.891 123.853 182.246 120.836 182.246 120.836C182.335 119.771 182.335 118.795 182.335 117.375C182.246 114.979 181.98 113.293 181.891 112.139C181.625 110.275 181.447 107.613 181.625 104.152C185.884 105.128 188.813 106.637 189.7 107.524C190.943 108.767 191.031 110.009 191.031 110.009C191.031 110.098 191.031 110.186 191.031 110.275L190.854 131.219C190.854 134.059 189.523 136.899 187.127 138.851C185.174 140.537 184.642 143.022 185.529 145.241L195.114 170.888C195.735 172.396 195.38 174.171 194.315 175.414Z" fill="#4760F0"/>
</g>
<defs>
<filter id="filter0_d" x="0" y="0" width="227" height="227" filterUnits="userSpaceOnUse" color-interpolation-filters="sRGB">
<feFlood flood-opacity="0" result="BackgroundImageFix"/>
<feColorMatrix in="SourceAlpha" type="matrix" values="0 0 0 0 0 0 0 0 0 0 0 0 0 0 0 0 0 0 127 0" result="hardAlpha"/>
<feOffset dx="5" dy="5"/>
<feGaussianBlur stdDeviation="5.5"/>
<feComposite in2="hardAlpha" operator="out"/>
<feColorMatrix type="matrix" values="0 0 0 0 0 0 0 0 0 0 0 0 0 0 0 0 0 0 0.1 0"/>
<feBlend mode="normal" in2="BackgroundImageFix" result="effect1_dropShadow"/>
<feBlend mode="normal" in="SourceGraphic" in2="effect1_dropShadow" result="shape"/>
</filter>
<clipPath id="clip0">
<rect width="182.281" height="139.595" fill="white" transform="translate(16.6484 37.9482)"/>
</clipPath>
</defs>
</svg>
